<mxfile host="app.diagrams.net" agent="Mozilla/5.0 (Windows NT 10.0; Win64; x64) AppleWebKit/537.36 (KHTML, like Gecko) Chrome/129.0.0.0 Safari/537.36" version="24.7.17">
  <diagram name="Page-1" id="Z3qATN7VvdV2K0rVNL_K">
    <mxGraphModel dx="4307" dy="-1413" grid="1" gridSize="10" guides="1" tooltips="1" connect="1" arrows="1" fold="1" page="1" pageScale="1" pageWidth="850" pageHeight="1100" math="0" shadow="0">
      <root>
        <mxCell id="0" />
        <mxCell id="1" parent="0" />
        <mxCell id="vUEfeBpxAFAEwGMZp27j-88" value="" style="rounded=0;whiteSpace=wrap;html=1;" vertex="1" parent="1">
          <mxGeometry x="190" y="4590" width="1670" height="480" as="geometry" />
        </mxCell>
        <mxCell id="vUEfeBpxAFAEwGMZp27j-38" value="" style="group" vertex="1" connectable="0" parent="1">
          <mxGeometry x="330" y="4730" width="1394.72" height="310" as="geometry" />
        </mxCell>
        <mxCell id="vUEfeBpxAFAEwGMZp27j-39" value="" style="group" vertex="1" connectable="0" parent="vUEfeBpxAFAEwGMZp27j-38">
          <mxGeometry y="89" width="304.72" height="181" as="geometry" />
        </mxCell>
        <mxCell id="vUEfeBpxAFAEwGMZp27j-40" value="" style="ellipse;whiteSpace=wrap;html=1;" vertex="1" parent="vUEfeBpxAFAEwGMZp27j-39">
          <mxGeometry width="221.84445698269116" height="181.00000000000003" as="geometry" />
        </mxCell>
        <mxCell id="vUEfeBpxAFAEwGMZp27j-41" value="" style="shape=image;verticalLabelPosition=bottom;labelBackgroundColor=default;verticalAlign=top;aspect=fixed;imageAspect=0;image=data:image/jpeg,/9j/4AAQSkZJRgABAQAAAQABAAD/2wCEAAkGBxETEhUTExMWFhUXFxkbGRcWGBcaGRgYGB0XGBgaHxobHSggGBomGxcbITEiJikuLi4uGh8zODMtNygtLysBCgoKDg0OGxAQGy0lICUvKy8vLS8tLi0tLS0tLTYtLS0vMC0rLS8tLTUtLS0vLS0rLS0tLS0tLS0tLy0tLS0tNf/AABEIAOEA4QMBIgACEQEDEQH/xAAcAAEAAgMBAQEAAAAAAAAAAAAABQYDBAcCAQj/xABJEAACAQIEAwQECgYJAwUBAAABAhEAAwQSITEFIkEGE1FhIzJxgQcUQlKRkqGxstIWJDNTVGIVQ2Nyc6LB0fAIk+E0ZILC8Rf/xAAaAQEAAwEBAQAAAAAAAAAAAAAAAQIDBAUG/8QAMxEAAgECBAIIBQQDAQAAAAAAAAECAxEEEiExUZETMkFSYYGh8BQicbHhFTPR8SPB0gX/2gAMAwEAAhEDEQA/AO40pSgFKUoBSlKAUpSgFKUoBSlKAUpSgFKUoBSlKAUpSgFKUoBSlKAUpSgFKUoBSlKAUpSgFKUoBSlKAUpSgFKUoBSlKAUpSgFKUoBSlKAUpSgFKUoBSlKAUpSgFKUoBSlKAUpSgFK1sbj7VoA3HCzsNyfYBqaisV2wwVv9pdyz4o4/0qjqRTs3qVc4rdonqVXP044d+/H1Ln5afpzw7+IH1X/LU5lxK9NT7y5ljpVc/Tnh38QPq3Py19/Tfh38QPqv+WmZcR0tPvLmWKlV4dt+HfxC/Vf8tfP034d/ED6r/lpmXEdLT7y5lipVc/Tnh378fVf8tfR234f+/H1X/LTMuI6an3lzRYqVXT244f8Avx9S5+Wvn6dcO/iB9S5+WpzIdNT7y5osdKrn6c8O/fj6lz8tfR244d/ED6tz8tMy4jpqfeXNFipVcPbnh38QPq3Py18Pbvh37/8AyXPy0zIdNT7y5oslKrh7c8PETeidpR9f8tZ7vazBquZrjBfE27gH05aq6kVuyOnpd5c0TlKrP6fcN/iB9V/9q8t8IHDR/X/5H/2q2ZEfEUu8uaLRSqqfhD4Z+/8A8j/7U/8A6Jwz9/p45H/2qMyJ6el3lzRaqVVR8InDP3/+R/8AapPg3aXCYoxZvBm8NQfoI191TmRKrU27KS5kvSlKk0FKUoBSlKAqnEkDX7jMdiFH8qhVMfSSap/aCyl61dVtQNj4bwfbWTtBxW7Z4neVYKuV5WMCco1k7VD9oeOk5rLWwqhirhWHMdiAwERI3HSvJng5uq5cXe/Axp46kqUovjJW4u5ybG3szrKEEkgvLjvIYgSJjQAJyx6vjWE3xmuE2tIaLea7CExqJMyv80+dXninZhO9KnOApPKt4BEM65Q1qQZEnxMmtUdnkkt3lwMZBY31BYHcH0WoPWa9W5dTstnyKW130YGXUsfSS8jT1N8sddp91bK3l7xZswABKZrsXIB5ic2YTvoY8NKuuH7FKSElyHaMov2yCxGmndbx1ryezdlbwQ3L+ZGVVYXrcqCWXSEzQMp9mgMZhK5WWIjHe/IpNq6O7c92WmNc1z0Wp1EGDOg5vdXo3FhFKkRMvNzn1nUEwMu3L99X232ITKee4FMZh3hAYLJ5h3GsQela+I7J2U5WN7KpIC96pAO5I9Fpr9NLozeOord+hTEvDPcbufneim5lWRvoc3Lvr4a14N30YGWZae85swhfUnaDvG9X3Ddl7TFnD4nONGZbi5ocAAE93qCK8t2Tw4GVfjGSdVDrlJ0AJHd76jbxpcj46jxfIpgvrnSLQ5QunpCL0ZoJG8t/L7qxd6oVj3ckx1f0cNuI+rzaa+NXU9nLGk/GJUDKe9QZMo0y+j0ABHs0r63Z2woJm+M4BY97b9IDJGb0eo3+ilyfjqPjyKPcywq5cogzcl5aSN505duX31l7wd4W7hR07n0gU8vtzA/L36eFXNuy9mGUriMik8puJCHTN/V6Gd/tr5e4CgbOTiM4+W11MwkRv3e0afZ5VNyPjqXjyKWlxQhGTNmiXlpTfTTl18/CvTXFzLyAZYj1yLu+pB+dty+6rVc7PWgWQ98okEqbiQTGhIFveD9vtrFe4RZEGb3LGX0iSI2j0eg8KN2I/UKCdr+jJHsQUeCUCkPcKprC+poM2ukxVxsY83HNsgEEGRG0Tv8Ad7651Zxi2CGViChZi1xs05sgM5V11jp1qZu9vRlIXulYjVsxP2ZRPvrzcRh51JuSV7rkdOHxMMraT34bmk+HUYzuv6vPB8l6/R/pWxxW5hbdx7Yw+YIzKGF24MwBImNYmJioUcQtNiECZiS/MXjWY8POfsrb4wvprv8AiP8AiNd8FZanPhqEdXKK3N+/xFSbefAzm/ZhrjQc2UaDLGoy/SPEVs4bEEOETBIGCZyDiCmVTmmQ8DQzMDSR5VsW7AfCYW48syuoB5iVHfBIEMI5VA2J08ayNkGKu5sxzW7YBJVDMuoHOwDCI5PVYDbRRU2W525I8CI/SS2yhRhQNVIPe3DEEN94FZuD45bNxbtm0EZSCDnuHUeRbWorB8Nc22ugSiRmbSATAHWTqa2sGKOxHRQe6R1HgvbXF3Xtq3dDPcVPUYxmMT64ro1cX7NMO/w4/trf4lrtFSiZqzFKUqSgpSlAcU7ej9fv+1d/7q1X7+GByhtBmWfp+2rf21w6/HrjdSV6jwA93vqvcWAB12D+/es82p8rUrSjiHFd4z8YA766f7R+v8xrQuAHqQSKleJgm7d/xH/Ea0hY8q1Z9YeuEX2TFWSTPpF67yYnz3r5eZUuOV1YXCYOolWYrp4As0f3j415wxnEWvK5b/EPorWdpLPAIDs2vUTG3h5edUZ5v/oXtHzJK3j2J6DpJzba6HmPzj9JrGXaSWgSSWJHUkT7YjStVBEllAGkAH6fZuNK2DBBBInLBjymPLaljzddmZsC9zvGCOVnLOx2BOx9/wBNbardCgi4AF2kBWhQG2Os8gj6djWhbUgyG1ka+zQVjvEnmJmfPxn/AM1JN2l+SQuWroB5k2IgkbQwO410tR56ecaN0OATnBygbNtlJtrHs1+ma1wQImN/P367gQI0+8mfbTAhhtrzrqdTOp00IHu86FG1a/8AZvm9dDlRdnM5BIgyYEt5nmIn218xBuspm6pAUtsv8pjbfn/5NaTIYkOD5Ajz91ZcFwrFXVDokqWyzmUayR1Pkaq2i0IyqPLFNmlicSzEliCT1hfYOnlWpf8AMg+dSOJ4e6u9t4lTDayAfdvWLGLbQKrECR1gEnT7almLpvh/O5WuLEKnKPSCTm2iHt5d9NDrM1BXPjAuXQzAMQ3fHPbGZZBcZs0OSeiz9lXC4VggFGBEQch0kaEHTpULcdCSqiyDqB6O3AO2vLt51KPYw1aUIKMosjeCWi+KtDobiyfKRPs0q4dqkVMVfVTKi7cA9gYioHhbziVBHNJzCBpvI06VJcZf013/ABH/ABGh3029bk/hUP8AR9o5VjvVOYRm/bMJErlzzpqYyxWnxdsL8ab4wLhGRMoTLIaWkawY6QebyAgVtYfKMHZUhASykktbDgd+YGVl1UrDA6+fLX3CYkHGrcRt7QAbPaYNqVYgl5IlW+UWEeAoan3A4FVwF1yX51UiQAuYXFGUSSWMAmQB4TUXhayWOOMcN3BzAAALkgAjMWIfSW1YwBFeMJUEos3ZY/rWH/xU+8V26uL9lkHxjDn+1T8QrtFSis9xSlKkoKUrzcuBRLEADqTA+mgOGfCDjDb4liDBIGUmNPkLpMGPbUXcx4u2Df7sgC4V9dWGYBXiMoOqk/RUn28AuYzGlXJQonqah9FGrA7A7b6ivfZrhlpuGvIYk4xgQoDZSLYA5V1EAjc/fVbaXPMjg6c1KbWt21zNjFrN24dfXf7zWFrIjX/StK/xm4GaMupnVR19oJ3rYwmNxLjMFTKNCW7tFLaaAtAJ128xU5jf9QpN2SfL8nvD2PTWvK4nT+YVE8WuAZwugzkjzAJE/Z9tTC38TJ9EqlY1fIignUQ7EAmNRB86h+K2nzMboyluby1nVYkESDEaaeWho5MVWVXLZNW4oydmuFC7YFxxcuNqW52AVQzIDC6kcsk6/QKlBwaz806/2tyt74Lx+rP/AID/AIr81lJqruexThDKvlW3A0E4TZ6q3/cuf71mtcBtMQqIxJ2AuXCT9tZbUzGmrH/nnVl7MWvTofAN+E0LuEO6uRSe0nD1ssqroYOkzBUlDrufVHXefE1TuL8XuC5cUMFKuVAVEiAdZkTI2q7dvCO/1Ma3Px3K5xxMzdvn+1b76vE4YQj08lZGVeM4jbvIEzolsfcupis68cxE/tT7lTeSfmxuSfpqPwSAtDREHqREazpWa8igAgRrrrO8kfZFaWR0ZIrZIu/DL7vbVnILEEkgASZfXQDWoPtC4bPIHLoPKHUe6anOFgdyg/kB+nOah+I2CxaCMrMScwYzDBh6uw0+/rWa3PIpyUaqb2uQS4fkDQsZTqf7xE6gieleMLh5RToDncZiAY0txPkJP0neptuG3AI7y0olhGW5prJA01jNWTA8GYW3DxFtiToQwz5ATlLKdFQnUffpNz0a1WMo5YO7Izg+HdsSqwQQeYxoBG/mI/5473GMETeulRmXvXhvHmOv2g++q3xG82YqrEDrDEbeMb/+awcGxTqXljlNs6c0alOh0qC1JtU3K2/YXr+kLlw2k7hSEW0CQqtcItZZhtwDG3mRXr+k2F9rrI2Yqoki2W5WLFYMQGBAJ3EbGnDuzTPbJF1O9Fs3Db8hEjPMF9dojzqPwOAa9cyAhdCxZgRCqJY+4dKpmRWVetGSi4avx928zVweGfbLr0Egk1N4Xhd/pbb3Co/ieG7hUuB1dHmGECGADFTBMGCNjodCBtW92Y4unf2uYZi4H2+FHJWuRPE1ad80NvEt3ZXhV8YiyXtuoW4CZB0iTXXK+MwGp2r7VzqbuKUpQgVyf/qOb9Qw48cSNPZbu11iuR/9R5/U8MP/AHH/ANHoChcJX9WT/ATw+d522+wp7TtVv4IF/o0Zo1xrRmgicibd5buAddl/1mocGb9XTzsJ+L/EWfqv7KtvBNOHafxh2IH9Xb3i5aJ97H6NoXV8zlpftvz+5X3Guu8n7CR4D7h7BUpwXCG+DbggJclGChjmcQylSQpUrbzFiQBl65orWxNq53A1071o309aZ5mGvkDt6x0qY4OiHCm098WhdPd+qYN3vO8zOQBylMiT0hvOaxWp5lOCVRp8CR4hgLT2xZSzetmzmi6bQZLgYjvDaU3ACSecBZOUGNaqHaFSrm2PVRVCazKEd4G6SWz59tM0dKm/i9i6BhzcuWvifek3SshucZsqAg22zEBRJnSYNaXbe+HKOCzFw75mHMLdxi1q2fFlE+4iNBpoaVbNX+n9eXrYnvgwT9WY/wBg34r81hnT3V6+D7H2bWDd7jrbUWHlmMCc9xfvaoRO0uDAM4m2d4iRprA6yY6/dVD3KXUX0RKYBxyiD4yY6g/7Va+zVz0yjyb8Jrn2H47g5X9Yt6DoW8D/AC+dWrsdxrCvirYXEW5OYAFtSSCABO5qC7K/8IKenHmX90u9c14ox76953HP2mumfCEp+MLGxa5+Nz91c04t/wCovf4j/iNaQOCn+/PyGCu5WBgnpoY3rNfkAAg/ZqPL3++tJCZqQxV9XUa6gDpuR1+09audRcuzljv8MzZiDaBBnYxmYdfCRWp3imd/MbT4e/zrb4ReNuyoUwGtnMBpOaQSfHlMVpYzE5ACqh10DGVGUEgD2ztWOtzwKrjOooU4vN2/U9Yy/bawlnKeXveaQdbjZp1BOmo318RXi/xpFa+wD+mRUILDlCqyzoOYkttA0FRd3i2HJk27nslforTxGOsPARLgJK75SBJAOkid/uo4HoQjilq/9cLENxdiGBBj/mtR4dk1B9kHX3/RVha4ZIEgyQQY6adN9JrDaALhekNPh6pI0HnUpmlOtZZWtS9nDWyYVLbKsZWNq3mOkgkuuaeknwk71sphwCWCpmOhPd2519YE5dZ868IwznTIDBKanLyg9dd9ffW9cv2gjcp70zlYHQGUyk6aAAOTHiKh7nctkapwquoVraFVJIU27cTsYGWAYAEjeBWwnDw5CqiMV9QFbI9ygj3dK8r06eQ22P8AyfL3VsYXEtYvK4APdEGJM7BoIVWy+yrRi3sispJbm7geN4rvApu3LgGjW7gJWNjmUAGBM7xtXXK5Nb45dvPzZIIKhRbdWE8u76nQnoAa6zVpKK29+iM4uT63v1YpSlVLCuR/9R6n4nhjBgXzJ6CUaJPSuuUIoD8z8DY/F1if2CTGbTnG+VGAH94qPOrfwIE8N0kxjDEBj8i3t6O59ij6d9P4QXUcRxQgSUTLyqdQqHqRlMDcV74BdQ8OdSRmGLJywrH9irDllTqEaJJkgjyELq+ZzUnanLwb+5GG3nUooMhiSVGu7aeqCPfHs6D7wZriuYQXEzDMjoWVis5ZG4bUwQQQCfEg/bLEKz20dmJOitknVB0MCA7NqfkxW3av3E9VHgyWOZhzArGhGYs2YnN5GdzFM553RSaz348OwnMVxt273NaZ2uxNu5bTKCDO6qHuFSNJjzmq1i7mdibpkkrPTQIRoBsAIEDbQVMMzvnnNbysQtx3DSJQZwwPJmBMCQeX21XcRYbvILTLeudiSYkn7atCSaGIz03llqz3wu+LS93JKkzDFSAW1MShIGYezUnrWwvEFMeiXUA6hPnFfmeVaj4Fhl1U5tomNgfDwP31kt4Jxc7uVkADU8sBg28ac3j9lXsRHE10rXZtPj1H9WuoB9VBofIp4VjfjeXVbS7+CafQu9fTwoquoRYVfVMDmjLpGWYGoB8+ooeB3O8KZreYaE59PZqNfGPD7CsWlicReykzW4hxFr2XNOg01ERrsIHUmZJ3qLxnDsO7s5VwWYsQLgiSZPyKm+G4Aur3HurZtIQpdlzS7SQqqoJdoE+Q8K0Ewee0125eW1aVsoZkzF3icqqupgaknQSKh3WxSnUrOV76s08NwrCHQ94PD0inX/t1mXgmH00ufXA+9PbWrwXHOzFdFy27jZlEMYBb1p8qnMNiHfDuxuM3MBBOYQI1nw5o8KlN2N59Oqbmp7GO66hVRJhViSQxOpO8DTy8p8K8doz6JhBE27O5n5R+ytDF4sWxJE67TGm53/4dfCsN3EF7ZC2yA5C6QYKFWk66TmAqO0pg4TUlOS0fb6EUqEgQATMbeU+HkaxIo723/eXYb81Sn9GYtQIt6CdJTciCd9461hxGBxKlHuWyFQr83aQYAmh7TkjFjAAzkE5+9efDLJ8RvPnWtgwO+Ej533GpW7gjdzOiOWe40ACdDLAaD1vKfdWpawFxSGAE5QRPUMsqfYVYEeRBqFoeU6kYvMy4sxzetn0HMCzZoUGcx1+n/wDZK4ls2i+b0kEqoXRiCmUT09ZtT83zqJvOFcgJcAyq0Lbuvy5Qc2YJ6u5nTQ9KDGWzP7QyNIsXjoBvonhr7iZqG9T1U9iUsMSAZkyJHv8Au/8ANbGCD37pti4696QIDXIMwuuVwCNI2+6oixxSyVDDPqDlbub2UhYBhsuo6H21s2OIqjBkN1WJ5SLFw7blSbZ166edWjJx2IkovrE0nCb1t+eSBzZ2uF5Cw5EnmmIifprrlcb4XYutfWVxILZs73rWIVYAzEF7i5VkLHQbCuyVeTi9vfqykVJdZ++SFKUqhYUpSgOI/CJgw/ErsDmbu1TWOfLbygnoCTUFgeJJhGOHvCHN5GyCYJAZQpb5KnvJmDoatfwh2x8buPknJetSdIju7bQTvJgaVSuIdmxeuLfVlRQouZO8UkhcsgZiGDcuxk61GZJWZw0ZK84t9t/K5r8M4DiLd74xkFy3bzuyZoVlt5g66NtII0HTSt7iuMKYSwQEF12LMNMwSLjbCDl0Vfo8arF7GuLjhDlScwVgWyqdVExsAQJMV6w95773BdZgLaMwyAT69tPA6Q5qGjaztmmk1b32LkbOC7QXWuZCifK+fOx2M76VccBw8ObKtcYm5a7yMq6RkEftNfX38qhsJ2US3nvM4OUKQBetyxuaDlCyYzSRpGtS+H4kyFTlQZRAMahDlOUa+ryrp5VWTv1TnxDwkZJTi7+Gh9GAdma4EthUbKcz20DNBgANGZuUmADNZsXhLoVpw9kFVJZVe2biAZpZranOIzidBECYqQ4Pj7SJmcK04i28a5lARybigESQT1ka043bDWyfjAFsZctvOhtyi5eQK5fMxk6opGZsx0k6J3OOEYuLaf2/grg4gvL6G0YAG3rQIk9S3X2/bgvXs7sco1JIWdp1gVls3LSrD2i8tIYMVMRqsR46zWG5etliRbIB2GY6HLG8SebX7Kncweq1aJXA4i0bTYe+lxUL94roMxV8uUypIzKRGxkEVhscVVcM2Fc3rasxIa2qtOZYdCpMlDlkEaitBLlo28rJD9HBJ6jUjbYRHnWDEXrbXE7q3kMwZYmZMT9BIj2VBvSbTTuvxwN34OnPxm1qoY3Y/q5ju3bqC0SAdARpsay9krijD8xXp63d9bTTGePsE69K+9hbTJi7ahmKi8BILhT6J9SFcJ9PuatXs/iimHEFhIE5TeG1s7924H1jHt1qFsz1YR/xWMGNvYd7jq0yGYRl0B2EeWoMe7SviY3BWnKXFuRKEBI2aVecw1PIu3TxqAxONtd67d7u5aMo8Zic3+lWGzxlLIQXQOdVKkraclczsCMwaPX8usjQVF0c6pxSSs3G2u+/vs2NrDW7TlGcQHa3CksFKsfVLaFBGhbpE671LX8Bgcr5SjEJcKen3bKSN21MxodzpVO4txAiyty29r5KESZOUBZCztt16EwKXsUjlTkIZlzMb7ZczF15lKwSDMGSdydxUFaEXGL+RNN6N/0TOCtq3xmLXfBcOxDcq5IC5bhk6RvGu9ZL1hRYwqrZyOwYZswJuvNtZ3kak7get7ap9/jF1AcmmYEMVa4MwHTRoIiBr4VI8exbK2HABAVWb1nOqgMfWY5dR9vsqJXSNI4W9K0vevirlp4nhb9qw8X8yJl722rPCZvV0OhU7/bHWorAXnvHN33dqhAzsx0ZpgLHyjHltUljsDbtXbthpuOsKzZnHeGA2bKDAO3+lanxWzBU2wRIJDF21APid4J0qMjN3gqbqKWtktrvyNPjOPvWbrC/cLMU5WzEyjA5YJ2Uzt9+52+zfaJWv2ULEkuNzPgK+3MNbuXEJRcygKpLMAFAgA80ZQNNttKjIw9khmssmXq4v6D2loqcry2E8Kmmk9/M/TrxGu3nXquL9lO2t69etYcXQ6OVDWyraozBDz5TA5l69a7RWhu1YUpShApSlAcl+EK8zYlrBQ5HxNo55AhjatpljUnlMzHUVS+L8bNi69lUWERU1CFiHRbg58syM0THSr52yVrmLu2EUki7au5hoEItIi7iD1Mezw1qHF+F92rNfQ3SRAdTEbAZhHMAJ1nTToKx6SCllbX0OWCV5Syt7q/m9Cl3cBcObS3JMCW1AWADsSDod4+0UKtbeIUhgUJB+TKuOnin21aOK4C5YIRic5grFtCp7wQObNpIuPp/dPhEcyPzC4CJI2toY1LiO7fQ8rb9JrW5aPTNWktPL/okLHGHvWMSMqqEtKxKqoJyeqMwWd0JPjI86r/CO172i+aylycp5t1AAHmOlWO92dvfFhcLd3aOvNEnO3dMcqsT8jUHoKqg7N3M1yHtQNAXcoWETMQenQmoSSeghldX5lZ27dSw2eLtdQXMqrmDGFEASWPUmTGlTHALNm5igt8hbRZ8xZsg0DFTm0iWAFVzgdi6lt2lYssLTLq0q2dmZYB6W2gx0Mx1mDasLIFvElgASMlzMoM6sO6lNtJjxqU7HJ8HPO5RStdssvBOF4B7Im6lxu8YekPc8vdlgMueQM4HNO5jpWUcHwATPcW2rhbp7tcUHDZVBSWDaEtIgVVMfhTatYe4HVjeUNln1UbKVYiJClWB1gyDpUdjcS4VjyiANj651mJO+23lUq/YYKMk8rhG/l9fepehw7hhIEW15cM0m/Mm44F5OY/JWSeo3qlcQs27d18nqpdbK0zyLcUKZ66da2cGGe1akG5buo/LaW49wFX10VW6gf8ABWrjcApAVFuB2cIGK3Dazz6pYWo09vt8oudSw83G+VEh2QvB8fbcRzX9PVn9k5gTaLeOxH901W70DDW5jXxyT6gmM1pj9AHn5WDslZNjiFuzmDRe1IIgMLTyDF5Rpt6p9o6V28W+KJEwcvjEZRqfSKPxe7ekdmdtNNRszN2fxltMHfllVnICgmC2Rb0geMG4mnmK+8CxKYK8l3EWzkZUOQAZimZWJhoBBCld+tQvB+H3cQiWrfM3eQqyo1cEscx8FtTrpy+dW3txwPEG1Zu3bOHtW7XK7WbrXCEaAGKsTosbA/KiNasti62NU/FLmGVL7C2UTKhUZlaDIElT85uadgPfh4xZtFhkuNiLS2xlN0uYJDkgAqIEAHQgT86tvsujm2DaCm46ZQpUtozW2bWQFjINfI+VS/GuA41ybzi2TkylbeZQQJI02J16z5VzyqQhO0nY5l8yeVXabvoUi6Usol0qLgZWGQyMpGimQROonyE715t8UW7eUrbCqMxOYsdCW15nI9WAfYfbUjYGaVe4VVUYKD3Ig6aemdF1lhAbN4CKiOGxe9YgGSqoot6KwJ0l+8aM7awfMnWNEWp2lG6RfLKnu1Bz97MXAQSZBffQmcuWJ6TWu7jMddp10G3kJGo8DHt67N/Fm8GxD5Q9xpgeCZ7ZAkn92vvjWJrTuD0jwfltBkmQCYMkyd58dqsdhsYfUgDSdPLfxjTep7gXbFMMwYYe9dEH1Qi/iYHoOlV+yAWAkx18Y0HXymtzBdn8feMWksXOujlTHsYR9tAza4fxhsRxWxeOEGHEW7ehVi57+y+ZioGuVT/vXcq4LwnB4mzj8PbxFruzmt3BJBBUXbdsQRIPM41mu9VJSQpSlCopSlAU3ioC4m9I1Yow81yKv0SpFU3ilsqt5nWFOwkamurcS4VavxnBzLsykhh4iR08qhOJdhMLfEXHvEeGcAfhrzp4SbqNp6N38RCpKEHFLjbXi76nNe2tx0xNtSzAdxZLKGIBYDrB1gioW/iLR9W2U1lsty5zHYfK5YBbb5xq59u+x+NvYlWw9kui2UTNntjVcw+Uw6RUAOwvFf4U/wDcs/nrvsaJmfidh72EwZyygX0mugDX76rIBBYZiNtqp3FLOV3A0hiNJ2HhJOntNdn7P9jc+Gs28WjoUQcoZPWF284BiQYDKffWe/8ABhw9pJ72TqYcdf8A4xUWPOxWHlUneJyPCYdlsYwJCw2HOmYaFcSCBJJmDH/JreF/iAe5N9i82EunO0uLxK21JiSBlM+3rV77Q9jVw9hhh1vXszqXQsgIUJcthgxAGYM6mOuX2mqda4Nj+9us2GcLcNoyLtvMDa9UmGOkkk0O6kssUiK7V4dVtYc5rgJwuHCd2JUgIAczZgVG0QDuT7dHB2i9i2pFr12AYtmuMOYy473MqiAByKIgyevacB2StYjDWFxIuK1q2q5A0KpKpMGDm0AEydvbXwfBlgAwYG6CPBl/1WpscdSnJtpRVr3v2nKcDh74sYXuHNps94ZgWUqGu5Zkagb9dprPgGxTvhVa8TZN3MVzNGa3eWy5jYlmbQn51XLtL2YvWjbTDWrt62iwrNcysGVrjEHaVPeCP7vvqv8AZ7s5xBGso+FaVuev3luArOrtK5tYKzQ7Yq0UV3hdx8PxO5dZSy27t+6V0BPLcIhiDGjb1DXs4wwAgkMACQp6KNCRIEvuImK7/jOwuExGa4zXg1xMpIYAhSuWACukDy6azrUbZ+CXAKrL3mIYEg8zoQIg7BADsN52otEzCOdRa8dDnPZDgC27FvEIzKzq6sh2zo7JmUwCsrmEfzeWspj8D3lt7TOYuIya6xOgaOsGDv0rL2+wl3hrWLFi6DaZbjKHtyymQzcwYBpZtBlEedVPhfGsTeW5cL2k7sjQWyc246vpWkdrGq8TofBeGYXCYj4taDejXIXuEZrjEl506ZWA93vPm1gb4xDXH0SDmObRhrGntg1Y+H9jrWIS3ib9x2vXFV2a36NZIEQusQIG+sTUtiOytl1yNcvFToRmGv8Al1rzcRhZznePbuVo1KlNSTj2trX7nDsaSL1x7LFZJEqxSVJ1BYA8p32I8qg+GcBvZlS24TMwBAuNAJgSVIiQQOpggDpNd7HwcYH+1+sPy16PweYLxu/WX8tdiTUbI4acMTBvRau+/oco43hQt+6thG7lWPdqFuNAIBMEgnViTWibVz93c6f1b/l0ruNzsfZYKGvYghdpubHodtT514t9i7CtmW7fDeIuDrr83XU1N5W2O7pJ36un1OMWLTyJt3YkSRbeY67rW/geNcStGbMW+g/Vnf7WIH2V1J+wWGLlzcvljue81M6b5alOF9nbFhs65mcTDXGLEToY6CpTfAKpNvq+v4OP8FGNvY2xcxD3brZ7aDNZKBUF23dMH1QJtjwru9fGWRB619qxdsUpShApSlAKUpQClKUApSlAKUpQClKUApSlAKUpQEfxTgmGxGU37Nu4VnKXUErO8HcTFaVjsbw1AQuDsgEyRkEE+Y2NTtKA820CgKoAAAAAEAAaAAdBXqlKAUpSgFKUoBSlKAUpSgFKUoBSlKAUpSgFKUoBSlKAUpSgFKUoBSlKAUpSgFKUoBSlKAUpSgFKUoBSlKAUpSgFKUoBSlKAUpSgFKUoBSlKAUpSgFKUoBSlKAUpSgFKUoBSlKAUpSgFKUoBSlKAUpSgFKUoBSlKAUpSgFKUoBSlKAUpSgFKUoBSlKAUpSgFKUoBSlKAUpSgFKUoBSlKAUpSgFKUoD//2Q==;clipPath=inset(16.22% 2% 18.89% 4.67%);rotation=90;direction=south;" vertex="1" parent="vUEfeBpxAFAEwGMZp27j-39">
          <mxGeometry x="202.2347603931766" y="26.05447368421053" width="92.19125402076548" height="132.60158794788273" as="geometry" />
        </mxCell>
        <mxCell id="vUEfeBpxAFAEwGMZp27j-42" value="" style="shape=image;verticalLabelPosition=bottom;labelBackgroundColor=default;verticalAlign=top;aspect=fixed;imageAspect=0;image=data:image/jpeg,/9j/4AAQSkZJRgABAQAAAQABAAD/2wCEAAkGBxETEhIQERIWEhAWEA8QFRYQFRcYFRUVFRUWGBURFRUYHSghGBolHRUVIjEjJSktLi4wFx8zODMsNygtLisBCgoKDg0OFxAQGy0iHSUtLi0tKy0tNysrKystLS0tKy0tLSstLjctLystLS0rKy8tLTAtLS0tLS0tLSsyNzgtNP/AABEIAOEA4QMBIgACEQEDEQH/xAAbAAEAAgMBAQAAAAAAAAAAAAAABAUCAwYBB//EADoQAAIBAwIDBQcEAAMJAAAAAAABAgMEERIhBTFBIlFhcYEyYpGhscHRBhMUUkKC8AcVIzNDU2Ph8f/EABgBAQEBAQEAAAAAAAAAAAAAAAABAgME/8QAJBEBAAMAAQMEAgMAAAAAAAAAAAECESEDEjFBUXHRgfAEEzL/2gAMAwEAAhEDEQA/APuIAAAAAAAAAAAAAAAAAAAAAAAAAAAAAAAAAAAAAAAAAAAAAAAAAAAAAAAAAAAAAAAAAAAAAAAAAAAAAAAAAAAAAAAAAAAAAAAAAAAAAAAAAAAAAAAAAAAAAAAAAAAAAAAAAAAAAAAAAAAAAAAAAAAAAAAAAAAAAAAAAAAAAAAAAAAAAAAAAAAAAAAAAAAAAAAAAAAAAAAAAAA8cjCVRAZyljd7Lnua6FxCazCUZrvi018UfJf1/wDruNaas6Mpfx9ajWnSxqqLO8YeH18udTY2VrJ6rG9nQq8sa2nnu0S0yfplGZtjzR/Im1pimTHzm/D7pk9PlFt+oeM2201C8gvDE8fJ59GXXDf9qFtJ6LmnUtqm2dUdUV58pL4CLRPhr++tf9xNfn7d6CBw7jFvXWaNaFTwjJZ9VzRs4hfRpRy929oxXNv8GnaLRMbEt1e4hBZnJRXvPHw7yG+N2/8A3F8JfgobirrlqnvL6eC7kYpfD4A10MeNW7/6i+EvwbYcSoPlVh6yS+pzTpruMJWyBrsYVE+TT8nkyOJdulvyfhzN1C7qr2Ksn0w9/lIGuwBz1vxyovajGS93Z/csKHGaMtm3B+/t8+QXViDyMk91uvA9AAAAAAAAAAAAAAPGzXOoKkiBcVgN1S4Pm36y/Ute5/cs7Ba4RSVaopRinnP/AA4uTW2z5c/Ln0/G5uVKpHd5ST05zhtZ5b8snzif6b0Sc7a4lRn1WrKb37Mu9eDycr3ycebrxa2R6eueVTwu3hQlquZ17W4UnoqaFKlusb9l6nu/AvqlJ11mdK2v4f3oSVOt45TbXpqRolfcRorFajG5p9XDZteOFjGPdIkLvhtWXahOzrL/ABQThh+DjmK9UjEzM8sU7Kx21n8Tx9wk0pQpPTSuq9nLpSvYaqe3SLl2UvJtlbxPjlxcNW8o0quKmIujGWZtZWYtvk/BIx4nfVpZtqVy7mjJwS1RTnJ5WIptapPON1zJ3BrH9nQoxjVvKjbjHLxCGnnPbGlNxbb54Sjq5nStfWXnv1JvM0rxHr++ErhPDnSapUUneVIZcpLVGhFS3m04rMcYxzUpbJNLJ2uHCEIOc6kox06qstUn1eX03zstlyWyNPCOFfx4Pd1K03rq1Je1Un3vuS5JdF6mx0JvLaz154+eGbero9Lshp/kG+ldkefD6nRY+L+eDD+BV8PXIduVnC6RvVdYzkpf49VdF8TJTmmlJNLPMLEyurNa5Nvlj5d3+v8A5tnb57Ky9/RbN7teRC4bWhDUtWqcnlyxhLHspLOyS8e99S0hWg9ovON8dW31K0huweG1st/Brrk9jTTS67Lfv8SFxe+y8ReXylJPn7vjFfXc3cNqZisgb6WuDzTk4+XL1XJljbcda2qx/wA0PuiGa6tLPL7r6AdPbXUKizCSl5c15rmjcccqTT1RbjLvjsWdrxqUdqq1L+0efquoNXwNdCvGa1RakvD6PuNgUAAAAAAABorFZcxLecSNVogUFWDIdzaRmu1FPz5+j5o6GpakedqBw93bVIPsN6e6W6/155K67hTqLFeipeKSf/v4H0CrZp80V9zwqL6GJ6dZYtSs+XEWXAqEZOdDDlskp76XqT1R37MtsZeefLfD7H9K8LlTpyrVpKdxWlOpOe7Si5PRTjndRS3x4srrngu+VzXLvRdcKrS0xpyejEYpT58tuRa1mPMsV6NazsNFxdNycYyxjqkmQKlndvdVnKPovsWtbhTT1LE1/an91zRsq10oT0vLjB+fI012+7kL2vWjtrm3pg9pNby9SBXv7mCi3VmlLU49p8ovG+S/uZxnltb5WPRbGPEeEwqRprdSjTS+O/3K4WradyUC041cYzKs2veUX9UWPDuMSqNqcYSWOiw/kU9zwSql2WpL4PwNvBbWcW9S0vuZJa6UWieXTW37KeZRa8t0Z3K1bU5L7oip7bmi9mlCUvAxr1cMb23mt1HK93f5Gyyu9Oxz/DuM1oZblqj3S3+Zd23F6FXH7i/bl38/TK+5pzmy4pXiZIhXRVXFKWlSitXVtNN4+5DheMpNsdLrR6oplHSvydb3qYSLQlwjOD1U5aX3dH4NFvw7jEZ9ifYny91+T6PwKulWTMJ0Yyz0yGtdYCk4JeSz+zN527LfPbp8C7DQAAAAAGLiZADW4GEqRvAEOduQ69uW7Rpq0wOcr0SBcJrPc/qdFXtyDVtfACktrvQ/bw+mHh5J8LyMk3UhF7LtLZv8mi74TGW67LINSjWg8ta0u4azixrcKo1N6c8P+stvnyNHELNw3aaz38jCjVi990/H8m63vasI4UsrPKW6x5MYIkU8ZMJpPZosYXtKeYzp6eW9Pbn4cjD/AHYpb0qsZe7Psv8AAZmFflrk9u58iBxOhOcXhL6ZLS6sqkN5QlHxxlfEjZfmThOXGXtvVj7ccLoluj21k877M62pPvW3Ih1banL/AA4fulxxtu6r7fjdSi0ovPuvl8OnoX9tdUbn/wAdbu6N/f6lfW4VSaUcbpLfrnC1Nvq85+JBrWUqTU/ah0xzC9/uvJW0ovEufTHXy7zQ6rzgtv01f646qm6jJRjqW+rrv6o8/UtOOVOMe/VJdX4r7iG7eNhFpcQcSx4feSnlvl9+456zt5VZ4XLm+5I6NxUYqEeS2CdOZlY20u1Gf9ZLfvWTooVTkaGcwy9tWceEd8v1wXVG4DvC5UjIh0KuSVFhWQAAAAAAAB40egDTOmaZ25MPGgKypbEadqXTga5UgOdr8Pi98b962ZDnYzXsvK7ns/x8jqZ0DTO2A5WUce3Frz/PI8VBc0zo6lqQqvDI9Fpfu7fFcmExAo3FaHKTa7nuj2pcU5/8yks98Oy/kbJ2VRcmpeez/HyI9TK9qLXmtvitgmMZWFKXsVXHwqLPzX4ItfgtTpGM13wkn8uaN70vdfLdfI22+Ep9rfT2fPPMmJMarKtpUi3ri8ZljboV3EYTx2N99zqIX9aK/vHqnhr4STNFe4pzaVSiotxcsw25ZLyxbpxMKzhlGoqEJacJ1FnC8ZZ+hohfyVZwjhxb0uL5PpjH3Ohp1oqCjTqSjDTKOJLr1ey8SstOA4qKqpxkk9Wz5+jGudqWjIhPpUYU01BYy2e04Z3ZlOPQ9XcuQd4hlF758MLyJdBkenAsLagG021LCCI1vTJUUBkAAAAAAAAAAAAAAADzB44GQA1SpmuVEkgCDO3NE7UtNJi4AUVbhkHu4rPetn8UQqvCP6yf+ZZ+fP5nUOma5UQOSqWVZe95P7P8kapTecyTjtjdP68jspW5qlahMcl+zqjGMZ40tvbfOfIyjR7Upvnv8zoa3DIS5wT9PuR3wiPTUvDU8fMJ2qyks7L1f28yVTok6FklslsSKVqFxHt7csaNEzpUcEmMQryMTMAAAAAAAAAAAAAAAAAAAAAAAAAAAAPGjzSZADB0zB00bgBo/aMo0zaAPEj0AAAAAAAAAAAAAAAAAAAAAAAAAAAAAAAAAAAAAAAAAAAAAAAAAAAAAAAAAAAAAAAAAAAAAAAAAAAAAAAAAAAAAAAAAAAAAAAAAAAAAAAAAAAAAAAAAAAAAAAAAAAAAAA//9k=;clipPath=inset(27.78% 0% 21.56% 8.22% round 5%);" vertex="1" parent="vUEfeBpxAFAEwGMZp27j-39">
          <mxGeometry x="51.69652551574375" y="16.20479532163743" width="83.37615635179152" height="46.03058631921824" as="geometry" />
        </mxCell>
        <mxCell id="vUEfeBpxAFAEwGMZp27j-43" value="" style="html=1;verticalLabelPosition=bottom;align=center;labelBackgroundColor=#ffffff;verticalAlign=top;strokeWidth=2;strokeColor=#0080F0;shadow=0;dashed=0;shape=mxgraph.ios7.icons.bluetooth;pointerEvents=1" vertex="1" parent="vUEfeBpxAFAEwGMZp27j-39">
          <mxGeometry x="144.60552117263842" y="31.75438596491266" width="15.508957654723126" height="30.48421052631579" as="geometry" />
        </mxCell>
        <mxCell id="vUEfeBpxAFAEwGMZp27j-44" value="" style="shape=image;verticalLabelPosition=bottom;labelBackgroundColor=default;verticalAlign=top;aspect=fixed;imageAspect=0;image=data:image/jpeg,/9j/4AAQSkZJRgABAQAAAQABAAD/2wCEAAkGBxIOERUQEBAWEhAVExMQEBAPEhsQEBEQFhIWFhUWFhYYHSghGRolGxUVITEiJSktLi4vFx8zODMtNygtLisBCgoKDg0OGxAQGzcmICYtNTUvNjcrNys4NzIyMDUwLTErLS0rMC8vLS81LS4tLS0tLS0rLSs1LS4tNS0tLy4tLf/AABEIAOEA4QMBEQACEQEDEQH/xAAcAAEAAgIDAQAAAAAAAAAAAAAABAUGBwIDCAH/xABDEAACAQIBBwcLAwIFBAMAAAAAAQIDEQQFBhIhMVFxExYyM0GBoQcVIkJSYXKCkbGyI8HRJJIUVGJzszSiwtJDg5P/xAAaAQEAAgMBAAAAAAAAAAAAAAAAAwQBAgUG/8QAMxEBAAICAQICBgoCAwEAAAAAAAECAxEEEiExUQVBYcHh8BMUIlJxgZGhsdEVMiNCU/H/2gAMAwEAAhEDEQA/ANGgAAAAAAAAAAAAAAAAAAAAAAAAAAAAAAAAAAAdlKi5bAJcck1HsQHLzPU3APM9TcA8z1NwDzPU3APM9TcA8z1NwDzPU3APM9TcA8z1NwDzPU3APM9TcA8z1NwDzPU3APM9TcA8z1NwDzPU3APM9TcA8z1NwDzPU3APM9TcB8eSKm4CNWwsobUB0AAAAABlOa+T+Va1AbZyLmcqkL6PgBZcx17PgA5jr2fABzHXs+ADmOvZ8AHMdez4AfFmQn2ID7zGXs+ADmOvZ8AHMdez4AOY69nwAcx17PgA5jr2fABzHXs+ADmOvZ8AHMdez4AOY69nwAcx17PgA5jr2fABzHXs+ADmOvZ8AOjGZkqMG9HwA1lnXkbkr6gMBmrNgcQAAABn2YPSQHovNhfpLgBc2AWAWAo88MrSweH0qduUnJU4yavo3Tblbt1LxLPFwxkvqfCFXl5pxY918ZYLkPATynXcK1eWqDqOUnpydmlZXdl0vA6ebJGCm6w5eHHPIvq1nXnTkmjgakadOpKVS2nPSstBPo2t2uz8N5njZb5qza0dmOThphtFaz3W+Q856uFwjnVTrJ1VToacrNrRbn6TTbjGy75W4V83Frky6r27d/csYeVbHi3bv37e9kWa2cUse53oKnGCj6Snp3lK+q2iuxPwKnJ48YYjvva5xuTOaZ+zrXt+DIbFVbLALALAUGeGcLyfTg4QjOpOTSjLUtBK8nq97iu8tcXj/TTO/CFTl8n6GI1G5l1ZnZfq5Q5SVSlCEIaMU4XblN3bWvcrf3IzyuPXDqInvLHE5Ns25mNRCvzmz1lhMRKhSpwmoKOnKbd9NrSsre5x8SXj8KMlOq0oeRzpx5JpWN6ZLkHFzxGHp1qsFCU46ejG9lFv0du+Nn3lTNStLzWvqXcF7Xxxa3rT7ESUsAsAsBGyiv02Bonyiet3gafq7XxA4AAAADPswekgPRebHVLgBdAR8XjqVHrasKd9mnJRvwvtN647W/1jbS+StP8AadIXOTCf5mn/AHEn1bL91H9Zw/ehVZ0VqOPwtRUKkak6Nq9oa7JXTv8AK5fQm41b4ckdUa32Qcm1M2KeidzHdhGbuP8A8NiadW/o6WjPdoS1P6Xv3HSz4+vHNXM4+T6PJFm33TT1tJ8UcHcvQahrLyg47lMTyUehRjo2WzTl6UvDRXcdjhU6cfVPrcbnZOrJ0x6mWZoYeGDwUZ1ZRp6f605TailpdG7f+lRKPKtOXNMV767L3ErGLDE27b7rjA5To4i/I1YVNG2koSu1fZf6Mr3xXp/tGlimWl/9Z27MXjKdFaVWpGnHfOSivExWlrTqsbbWvWkbtOles58H/mqf9xL9Wy/dlF9aw/ehZ0K8akVOElOL2Sg1KL4NEM1ms6lNW0WjcNU+UDKPL4yUU/QopUlu0ts39Xb5Tt8LH04onzcLnZOvLMeqO39s6zXw0cBgIyqejaEsRW3ptaTT96jZdxzeRacubUfhDp8asYcETby3LWGDpTx+KUZdOvVbnbsUm5Ttwjf6HYtMYse49UOLSJzZNT4zP/1t/KGVcPg1CNWoqaaapqzeqNlqsnsujhUxXy7msbegvlx4tRadOWT8rUcTGU6NTSjDVOVnFLVftS7DF8V6TEWhnHmpeJmsotDOjCVJRhCunKTUYpQldybsl0SSeLliNzCOOVhmdRZcFdYAI2UerYGiPKJ63eBp+rtfEDgAAAAM+zB6SA9F5sdUuAFxUbSbSu7Npb2ZjxYnwaWxGIlVk6lSTlOTvKUt/wDHuPQ1rFY1Hg83a02nqnxbJwOZ+EjBXhyrsm6kpP0veknZI5F+ZlmfHTtU4WGI7xta08JQwtKSjCNOkk5TsrJq2tyfbq3kE3vktG53KeKUx1nUahpmMHK0Yptu0YxW1t6kuJ6Deu8vOa32huqtXVCi6lR6qdPSm9+jG7+x56K9d9R65ekm3RTc+qGmKlflKjqVbvSm51Lam7yvKz7NrPQRXVdV/J5ybdVuq35rLObGYitKEsQtBOOnRoLUqdO9k9He7PW9ersVkRcemOsTFO/nKbk3yWmJv28o8mV+TbA6FGpiGtdSWjH4IX2fM5fRFHn33eKeXvX/AEfj1Sb+fuYJlLH1MZVdWbcpydoxvqim/RhHcjpY8dcdemHLyZLZbdU+MsmzvyPQwlChRpUtLFTsnOOlKclCK02o32uTXZvKfFzXyXta0/Zhd5WGmKla1j7U+5OzQwtbJuGxGIxEXCLipwpSfpaUVLW12OTcVv1cCPlWrnyVpT9UvFpfBjve/wCnz5sPyBgnjMXThL0tOfKVW+2KenO/HWvmL+e8YsczH5e5z8GOcuWIn1z3/mWe+UnKHJYVUU/SrSUf/rjaUvHRXzHM4GPqydXk6npHJ04umPWo/Jfk7Tq1MQ1qhHk4fHLXLvUUv7yx6QyarFPNV9G492m/l2+fn1q/PrKPL4yaT9CkuRjuutc3/c2vlRNw8fRij290fNydeWfKO39r+uv8BklQ2Va+p9jvUV5X4U1o9xVr/wA3J36o93xWbf8ADxdeuff8FX5P8ByuJ5Rr0aUdP3acvRivyfyk3NydOPXmh4OPqyb8mzjju0ARso9WwNEeUT1u8DT9Xa+IHAAAAAZ9mD0kB6LzY6pcALoDF8tZmUsRJ1KUuSm3eStpU5PtdtVm/c+4u4ebakatG4Uc3Breeqs6lAwuQ8p4ZaNHEQcFsi5aSS9ynB27iS2fjZO9q9/n2oq4OTj7Vt2+fYYrN7KOL9HEYmGhfop6v7YxSfezNeRx8fele/z7S3G5GTte3b59kLbIOadHCNVG3VqrZOStGPwx7H73dlfNy75I14QsYOHTFO/GU7OHJssXQdGFRU9Jx0pOOleKd7Wuu1IjwZIx36pjaXkYpyU6YnSpyBmXTw0+Uqy5aad4Xjowg99ru7972eJPm5trx01jUK+Dg1xz1WncurOHM2WMryrrEKKkorQlT0tHRilqektXb3s2wcyMdOnp/drn4U5bzbq/b4uijmdi6cVGGUpwitkYKcYrglU1G08zFM7nH8/o1jhZYjUZP5/tDfk6n/mo/wD5P/3N/wDIx939/gj/AMbb737fFLWZ2LT0llOelbR0vT0tHdflL29xp9cxf+f8f0k+pZv/AE/n+3HEZl4qrFwqZSnODteM1OUXZ3V06ltqQrzcVZ3GP5/Ri3By2jU5N/r/AGj0PJ9WpvSp47k5WtpU4ShK268Z3tqRvPpClu003+fwaR6OvHeL6/L4uzFZgVaqTqY+VSavrqwlUSi+yOlUujFefWs9qaj59jNvR17R3ybn29/eYbMTE0lo08oypxvdxpxnBX32jUWvUvoLc7HbvOPf6f0V9H5a9oya/WPex/OnIMcFOMFXdapUWk4uFpWbtpN6Tu3K9lbsffa42ecsTOtRCtyePGK0Rvcz7EXLEa9OfJYirKpOKjJxlUlUVNySej6Wq9rXsb4ppMdVI1+WkeWL1npvO5/HbI8381sRUoxrQxcqCqLS0IaSvG70W3Gavda+8qZ+VSt5rNd6+fJbwcTJakWi+t/PmzHIeS5YWDU69SvOTu51JNpW2KKbdl9yhmyxkntGnRwYpxx3tMysiFMjZR6tgaI8onrd4Gn6u18QOAAAAAz7MHpID0Xmx1S4AXQAAAAAAAADpeKgno6Sutq3AclVW8D7yiAcqt4DlVvA+xmnsYHIDCM9ciYieJp4vDw5TRUE4rW4yhNyTt2xd+zcdHiZ8cY5x3nXxc3mYMk5IyUjfwV2Ts1cRjK8q2Kg6VOU3Umm/Tld30YpO6XZd9hLk5WPHTpx95Q4+Jky3m2SNQ2PCKikkrJKyS1JJbEcmZ27ERp9AARso9WwNEeUT1u8DT9Xa+IHAAAAAZ9mD0kB6LzY6pcALoAAAAAAAABgMJPl6uv/AOap+bAvcKwJlwI1dgdVwJOS3+r8kvvEC6AAAAAABGyj1bA0R5RPW7wNP1dr4gcAAAABn2YPSQHovNjqlwAugAAAAA+N2A4cr7gOMsTGO12AweD/AF6ttnLVPzYF5hQJoEauB0gSsl9b8kvvEC6AAAAAABGyj1bA0R5RPW7wNP1dr4gcAAAABn2YPSQHovNjqlwAugAAAAAr8Zi7S0d332gKFfSTe4CjyliXKT16uwCnwHTl8UvuBkWFAmgRq4HUBKyX1vyS+8QLkAAAAAAEbKPVsDRHlE9bvA0/V2viBwAAAAGfZg9JAei82OqXAC6AAAAADGsqP9WfFfigOeCm9GQEeNGDV56227a7JLuAp8Gkqk0tinJLhpMDIcKBNAjVwOkCVkvrfkl+UQLkAAAAAAEbKPVsDRHlE9bvA0/V2viBwAAAAGfZg9JAei82OqXAC6AAAAADGsrL9afd+KAYPZICqxtfVa+wCFkra+L+4GTYUCaBGrgdQErJfW/I/wAogXAAAAAAAI2UerYGiPKJ63eBp+rtfEDgAAAAM+zB6SA9F5sdUuAF0AAAAAGPZUp6VWdttk/+1ARcLVtdAUmUo3YHzJC28WBk2FAmgR64HUBKyX1vyP8AKIFuAAAAAACNlHq2Bojyiet3gafq7XxA4AAAADPswekgPRebHVLgBdAAAAABS4vr5fCvsgKXGScXpR70BBpR/wARVjS1xcna9r21AdsMOqVapTje0ZtK+0C9woE1ARq4HUBKyX1nyP8AKIFuAAAAAACNlHq2Bojyiet3gafq7XxA4AAAADPswekgPRebHVLgBdAAAAABTYzr38K+wFLiwOjJK/qafxfswOzEr+qq/H+yAtsKBNQEeuB1ASsl9Y/gf5RAtgAAAAAARso9WwNEeUT1u8DT9Xa+IHAAAAAZ9mD0kB6LzY6pcALoAAAAAKfHdf8AL/IFLi0BHyX/ANRT+NAd2L/6qr8f/igLXCgTUBHrgdQErJnWP4H+SAtQAAAAAARso9WwNEeUT1u8DT9Xa+IHAAAAAZ9mD0kB6LzY6pcALoAAAAAKnHr9ZfB/IFLi0BGyd19P44/cDvxq/qqvxL8IgWeFAmoCPXA6wJOTOsfwP7oC1AAAAAABGyj1bA0R5RPW7wNP1dr4gcAAAABn2YPSQHovNjqlwAugAAAAAqsev1o/D+7Ap8WgImB6+n/uQ/JAd+OX9VV+KP4RAs8KBNQEeuBCw2KU+y176OvW7beAFlk3rH8L+6AtAAAAAAARso9WwNEeUT1u8DT9Xa+IHAAAAAZ9mD0kB6LzY6pcALoAAAAAKzH9dH4f3YFPi1t7wIWD66n/ALkPyQEnKC/q6vGP/HECywoE1AR6yAiwoRjK/Gy2pX2/YCfk3pv4f3QFmAAAAAACNlHq2Bojyiet3gafq7XxA4AAAADPswekgPRebHVLgBdAAAAABXY9fqx4fuwKjFrbxYEHCR/Wp/7kPyQErKK/qqnyf8cQJ+Gj7/sBNUff9v4A6K0QOq6QEvJavKUuxJR79v8AH1AsQAAAAAARso9WwNEeUT1u8DT9Xa+IHAAAAAZ9mD0kB6LzY6pcALoAAAAAImMwzm4yi0mux7GgIryS5P052W6C1/V/wBKwuTqVJ6UY+l7Td5eOzuAqM4aOjVjU7JLRb7NKOzvafgByw1QCXywEPE4kD7h8NUq7Fox9qWpdy7QLzD0VTior69re9gdgAAAAAAI2UerYGiPKJ63eBp+rtfEDgAAAAM+zB6SA9F5sdUuAF0AAAAAAAAA+SimrNXXanrQFdUyTG94Scfc1pLuARyW/Wqav9Ks/q2wJVDBU6euMVf2nrl9WBIAAAAAAAAARso9WwNEeUT1u8DT9Xa+IHAAAAAZ9mD0kB6LzY6pcALoAAAAAAAAAAAR8XiVTV2Bj+JzuhTdnYMbh1c9aW9A2c9qW9A3D7z0p70Dbsp54Unrugy+VM8aS7UB8jnlS3oMbfXnjS7Ggzs55Ut6A6K+dsKkXFNBjcNVZ+VtNNhlqSrtfEDgAAAAMyzOxqptAbtzfzqjCFm1sAtueEN6Ac8Ib0A54Q3oBzwhvQDnhDegHPCG9AOeEN6Ac8Ib0A54Q3oBzwhvQFfljOiM4Oz12A1LlPEvSnKN9V2ldtt2uczk0rW9ax6/a9z6E5OXNxcuXJET0+H2Y9Ub9Ud/UqsBjqk6Up1HZpu2puyS7Utb13Nc8dOSKU8PxSeick5uJblcjXVG4iejeo7f9Y7+Pj7HzB42U5pcvpbXo8lKF9W9szkiaV3Fde3q2xw7U5OWMds8Xid7r9D07j8Z+Z8HGeUa/KyhCm5xX+rQ7Fr0nqEY8f0UWtbUz+f7NbcrlfX8mHDgi1Kx4aivl36p7fl5fhtJxGNlCEW5um3a+p1LO12tX3MYLXnLMx9r89N/S2DjV4NMeSYw7nf8Ar1+czHbXhM+PgkKrLUnJvVdu9teognLbdrRPi6uPgYIpixWrExWPL1xERuY/OfH1oeAyhUqOblqjHo2b1rX+yRYz4/ounpmduT6J5f16c/01azSPD7Pq7+6HzKOOrU9CNO8pSdm220rW/nwGKYy2tbJPh7WvPrfgY8GDiY43ae89O/Lx/Hfj5R2d+IyiqbtKclqurKUu33cCLH9Nemq+H4r/AC59HcfkxfNERbXb7Mz6/HURPft2nxfMDi5v0+V0432aLp2txZPToi8UtWYn8duZyPrNuLfk4c1bVje4+iiv4+O57fv5uzLuUtOGt6zpPEsAqbXxA4gAAACThMW6b1AXNHOacVZNgdnOue9gOdc97Ac6572A51z3sBzrnvYDnXPewHOue9gOdc97Ac6572A51z3sD486pvtYEWWXpXum14/c0vjpf/aNrXG5vI42/obzXfj8y6oZYlG9pNXd3qWt79ZrbDjtrceDfD6S5eGbTjyTHVO58O8+fePH8H2WW5vbN79iX2RiOPij/qlv6Y519byz27+qP4j4PssuTas5v6JfZCOPiid9Jf0xz71ms5Z1P4R+8RtwqZWc0lJ3S2akb0x1pO6wrcjm5+RWK5bbiPDw90Ozz7P2n9F/Bp9WxfdWv8zz/H6Wf0j+nCGV3FNRdk9qsje2Otp3aFXBzM+Ck48VtRPj4d/V5OUctzSspO3BP7o0nj4pnc1WaemOdSsVrlnUfhP8xt8jlqavaT1u71J6+9CcGOfGrXH6W5uOZmuWe87nwnv4euPg5efJ7HJtcF/Argx1ncQZfS3Ny0mmTJMxPjGo/pExWUHPUTOeggAAAAAAAAAAAAAAAAAAAAAAAAAAAAAAAAAAAAAAAAAAAAAAAAAAAAAAAAAAAAAAAAAAAAAAAAAAAAAAAAAAAAAAAAAAAAAAAAAAAAAAAA//2Q==;clipPath=inset(9.56% 19.33% 19.33% 17.11%);" vertex="1" parent="vUEfeBpxAFAEwGMZp27j-39">
          <mxGeometry x="51.69652551574375" y="84.67836257309942" width="64.68269272529858" height="72.37513572204125" as="geometry" />
        </mxCell>
        <mxCell id="vUEfeBpxAFAEwGMZp27j-45" value="" style="sketch=0;pointerEvents=1;shadow=0;dashed=0;html=1;strokeColor=none;fillColor=#434445;aspect=fixed;labelPosition=center;verticalLabelPosition=bottom;verticalAlign=top;align=center;outlineConnect=0;shape=mxgraph.vvd.wi_fi;rotation=15;" vertex="1" parent="vUEfeBpxAFAEwGMZp27j-39">
          <mxGeometry x="136.85104234527688" y="105.84795321637428" width="31.017915309446252" height="31.017915309446252" as="geometry" />
        </mxCell>
        <mxCell id="vUEfeBpxAFAEwGMZp27j-46" value="" style="shape=image;verticalLabelPosition=bottom;labelBackgroundColor=default;verticalAlign=top;aspect=fixed;imageAspect=0;image=data:image/png,iVBORw0KGgoAAAANSUhEUgAAAMcAAAD+CAMAAAC5ruGRAAAA8FBMVEUAAAC8EUL///91qSi/EUPFEkV3rCnCEUR6sCp4rimpDzu6EUGBDC2FDC+uED24EUGaDjaODTKlDzq/v7+UDTT39/dunyadDjdqmSRkCSNYCB9vCic4ODhzpidjjyJdhiAuBBBPBxzLy8uFhYXt7e1RdRxYfx45BRR4CypQBxxHBhldXV2goKAwRRBKaxkaJgk9WBUjMwwdAwq1tbXY2NhDYRcOAQW5ubkKDgNYWFg2ThIgLgtra2sXIQgzBRImAw0tLS2VlZUeHh4SGgYTGwYUFBQYAgh5eXlISEhoaGghISENEgSLi4sqPQ5NcBs1NTW/Wtp5AAAbG0lEQVR4nLVdeUMTPRPf0r0KpaVQ2nK1UMshQi1yCCiivir4KDzf/9u82SPJJJlc2z7zjwi7SX7JXJmZZIMlZ5psbIwn2Q8b734Gd2cT9zfduzh7Dn6+28h/HG9seHQRuD54GRT0Zrxb/vRuvLQ5Pjvb8B+uQhtnZ+PNpfFd2fLu+E3505lrCw44rjYuN66eAz39nQcCoTeGtp/z3heA46+hE0aXV5dkYTY9x79JluHy6sylA+tU2XDs2vvg9NkHyeZnn6afK+L4+PSvTzeUHDigpKsqzX/9fOmF45utwfPbOYFoYZz/YT/ifXxzx6Fjplnv8L7sYu/oFu/MDYgCo2zmvPda/PBwPRr8Dx/FrhOOyUSBccvGep6mjdF59tNF2pgW2F6lp++ed3+b5GTz9+7znfTOwzD/5/0gzX+4ve6l6YD9VcbznA3ShGPz7z/oDBzujab56IP7tB6nvWxRevVG7332q3TwR31Db1Q2hOeKV2fpYfbPNI0bM4LiKG3U670C2exosHeBjemfv8JkQRwfURBlD2ljMCXjrmeUDj4FcZ0gygA14vgle0ZkA52iFG3FNF9TMu4Mx5CMPj4Mpg3SdD2+JpN2tJeS/yDTpE4WwDEWn3qZTV+ns/NidIOs6TgdHMY5ELImBaBpMCW/yfEM6u/h679RGL+FLl7zF7Px14M/vbzpuNfIW64PDutp9pvGPRvN6/T+QXh/jOKQ0A7TOI4babo3mv0JhsX46+U/jNJR/puUcN0grgu9vENgvBN6OEwzNsphxIM9ueny/43z4PxwQOQyH825OEYMh7QcQTAqZ4a83pM7UXp7uCCSI7LAZ8tqTMkbw+CogU4Qp716o1H+NX2RhniF4LgMZDrSN65QzmdxLpyMvWRNz6xS/sQszdfBo4+6IvCXehyvI0LD0XA4HPQ8uigozpTl4Yh2MxZgsAV/nwaZCvduvT4YDIejnIYXWhxj2klMyb+jeoNgGBRaNCOoGjfpL28zvfC+UaH1Oh1ZOpInKlD6ua4wUQDI4Z+0ns7Ktu4ADub59+J4FOzN0wlRb/I8AZGnysSLZRWKM25MKSdzFc+MU6bhYr3icKG09I6Abgc4qKV9mWtBCtqjo+YdLWS5c4oHyixBHN9pV8O5Jqvoali2RXUW3Y59WsAkMSvyHcPB92X3i+iLisimKOTzMVRBPTbSMwTHT/bXYP6uyIqUbRWOFnWrppXUlNTylA30u4pjwmEoBrBXQQfHR1BCyp9/+K90HO9JdiwF7s+mDsfL4fX9/Uga9t7RtJf6QqE66wzwrNywFUSjMZrK4hrP7onTWDQ4UXDQKSOuckPpLd67/nQY+0Ghov6Tt33htxzEv559GqmjaTQa6TVYbBHHnbGvxt4suB96IaFe3Zh5JD6KME7rh/8LRniPVPPeIThoZzoFn20D/7zuuUOhC/J5qYzweOjcOB3OMsce7yym5gnzd5k9n+q6Swdkhu8HzkjS0vOlbOXsPzfiQ/LqVKdd4r1y64nbc6Z5ZzogZJaIrvh05IgkLv3Fp7JdN51L9poZ88/qusfj3i2XPAwH02Yv+m1T7svevmo7EYh5J8X0uLxDpipznl56Wh5M2bYgwHGADeGDoaN6riqu9xyYXdy/OShdgiLT1j+G+sYbR7zFMYqj9EhztX9t6DPt5cOb9azzCywvISsMsq3IJUon3gXl81wIyEfTepynw9HAPMR0lG/E7/WLXw5sCGDYjEecHuWGembYq+c0HPV6pvWgvhwRY9vUxTSYaOEuKCBm8SBrkaN4b2Ap+mjMFCEu5zSQ77KRKpkruDZKfApwvBpaJXLxKbCzFG219KU/a3AwV9HJuU5LgXtVHQf+DHDpDNYjN0wZS++5qDTqkwQTDQ4emHECEteL7eWtxnnIuvzkgCNzeXIaOdl7BkPIHYrxdhYHd9ujp8PCIl0MdL4MWI9DjY+Rlq6rVb7LJukGTYxXSnkD1uvQydDFcdnqNa4aoHxM8SeGBdRbu3wXz7PI6JIBxybv1tEZSqlqRZmiB3DcIzNDWTO4d92p8ZDipgFHKemfLh4+zRwbjuvlDJ0rkWa+J8xnXAVKVYWjZGQG6eXhfdnfxICjXI/bXmpQQtrRHMmjEcPjyr5ur/zzhToDWiBpSuXctB5LNB/lFYtr9B7wJYFspUR0GXztPgElKudfTfLBgz+OYldQng5TGUTOVsAFieP7Kj2xUKJcsSHnOVn059CveTq5QGDTo0CkPxwH1dg+PFXPhJHK+fclMw4e/nFWITk1BuXAflA3uDEMZGIR15Q6wtotG0oghysnbJW8M89sP+isG0pxndruQtzBdofTRT43cZ3uS7wWPU75NsCcd84J2JBrn8ni4kAmOW5cBxj9IXPDls5TCAc8j6oMGqtnKB69/fHw6X7gB4SO/aI+0iaLZ3tMbPxivY3py8OPHx44/qGT1fANxqZybYOJ/nhJeAaE2I5CW311wkFjyq/+wVieUbPSD18YmeEsOeuNEw6msl7sO3AFiKxrdfTg5t1CFLxtpG4Rq/fhtRNTD/ekBOK2Iv/zhpEOmIuILIetbunWNebG+8MVlUS+TJXSvVbgWrckAQke9Ls9vMd7ZNgK+eVSIQochq6uD9YO/vCpa2B5KDPhmyoN9QCK4AkfsLY+kb954YMjdhP0Wx8N0pvxojtdYZe2XrT0T873Ur+kx4Nm5BJ5rTGxHKMCirZqUF/3ylnAQ2k5LgdZEK+UzoA6ZPrRav/Cte/MPeWxh48aIVdPN07jI6Zx9eXIehzAXwzeTwdOO90ULSXEaeQgIgTECOo/ff2moZ5aLFd8uB7aYTjpXEp23ds7EneUhiMBprpwqe7ywtavHwwCxLIisbQTM51sMNa3T0A94cuhpdeGWq5mIyXAIgPpzbj6+208DWKp0598oxGU60Fe6qjtEt3/2eje4GZldZXxqFRU/9qOzdjPf7D6rz/3r6NBL1PmasAt7Z3rxmqmQ0R9NBppvDcYHk1ZWs522sAFh1J/+edFCjnH6bAiiiDLmcop+d7sk/yQ7pSBDw5el8WIZw+zmtrB1NGG6+h+VIcpMNUGfbcP0gHHRG52WpRiEgZrDI5m2p24D71MR72ssCWn3nvprw7nvVzOeW2KxwMOh8Ph6Ohwen0+5zrIdHF//XqUVdwOhXz1ncspH7fzaldPur7N9Ph2p9npdDurO9vHFcG9cTtQ4nzubiKf2bDRzVZ3JUqSMKeE/LB+4o3lzvkEoSuOyTt7r5C2+1ES1gQKw6h98sGvmXeuQBxxOB2O47TTlkFQLNGa56I4noR0wjHxOn0XbK0kKIgSSX/fq7VdpyVxwaGeRPh1unWy2iHUPNk6eBT/9qVlQFEgWfUC4mAFnXBIknF80s/ktxRgIsFRAif4JMI5ClLSPmXPP241u+utdnul3V5e6+wc3CBAsCMxvjgmgjnfb7YV+a1FfFTBumUx6Csn9IVaPiHFQuWz0lp9qwD5buUtGw7hoN/bdXSy2+yBX237YpRL0i1faSlvhEnYUZSBzYpYcMDDRqfLOMtE2/SJDyuuMAiQfvHOFraAYbR+KgEZz4MDwLjpahg/XGPPOK9GDqRckWX0JYLkiw8QIw7AVG9D3Rg5V637wCDruJO/9aiRqDBqerCWCQdwdJuRdlr36TM7biIOgBSvbunaTlqiSjcJuwkH11Rr2iFGXLn4rQahsBSRVV3rYXIAcXyvhoOf9tMr05I3Ki0HW5Cgr52CaAsCUU8kOuDgUZ++HgZg4a73etQSakVU5YsD0Ud+tDh4OFG77LUEOhhr/ji4qtNrukiwiv442M5JK4a1pAO76FTAsU5fvtEDSaD+1WQ/9DiYrvqgX40uhIEbNAuOPnv7l96EtmEvOp2lw8GcQ61REFcjqKCvaiEQLz2QEM4Xfhxci4Mth5arVOf7xHtBIuhG6X0z6IfqFkSDg0nHiq5tydhmpNc6OHHxyEkvI5CzsKSzHgd9S2cUgN0AM1rzA5JIOzDtRCRQ+frgYDvAtgbGVoDRo4e/C/1kRjqDCxcEtyE4DhrjeYu3m8hONaNldxlBYGgdoAQ8i0s6joM1i81vWPuCjKCkpsO2Nh9ZG4+bdFC9IkiSOw52xwi6x2n90sMgO198zyi1oQ81nKBAIhD3GjvjoKnabQRHso52D+i4b0ZCNuEdQzhuGwOSAL2CXvBjrJNBXA2nmM3jSUuNRlAQ0TKm6+A8IGoPMhaa1EFx0DdUbaVRVCrt7/RrZXS3GEgRDGl3t4xcmdMvRP8m4O+uOOh29kZe4bDmFdR83D7prK23Wu2Vdmu532luadWcTKragioSM+kYDrrzOJVaS5axINlcdPO4j66PIu1QQDALguGgQWnJg/UNZ1rocafbCqMoiaLaemdLNu2nUlwjBF4pFrrGcFDnqgmbChPMbhE63iLc01/rru44sw2hHagJiOhELSmlcCOaVCjo2CYEw0F9dqiukmVMVd5s9cOIR3qTvkUVUToJVXUWRn1xIlYF3gKuCRbuxXBQtQusOebeBgdKrsZiGkp6q8krhNG6oEdOoQIGCgur7MNw0OfZFgp1It62UHNnzwrgrkf5srg5W+OPRvy3P7Ex23Eogb2MvmiCvRnqFaOgmF3JsCa8vM2WBHomVXCQxZZ1SWBzB9HdSUnWzZY0azSsPB+OMFoWQnoFfbClnPS85bBnTPrCG8cF/0ZgNj1xbCXtDsYism63TyojfYAVAmmJL20THg4jYIPdcNhuzNQHtCAQ1BFzejXbGkjvHTfXIKsikXcEh+Vi0R23sdDYLaRfrrvFcNk4hH9dcOhvUfSZUnVOA58QsCQjMn2047Bw1YEjDNGzK+iL87sghI2TwlkyDtPdxIT2PWJtofyyV0Q+MntrchhLOpdqK1zwyQDKU6psZyxkHsmu4VyqUjE214zKI/FM9IRdfAyMJjocVhhv/WZU8vQ906Bi9NcGJNDA+IJtQnXBXg1JM+obxpY03v5yJLsJEwwHrGcnPmkSKQGepvdI4NsH/uF4uJ6/MiciqYleEnZ/IjB/p/kGIVkT3gluvAeSQM7wTysIC1JuhsQl2VVxgApEusmXVN+qd6JGMCEV8qBgAI9UNMU44JOMA1y3zHy5OfmbNAAnz1fMxQHw1QzbMMKyIeIAwgH2OTD4VSU/HkLvouX9OhwAmIWwDcNPmwIOXisGy1aE/IAmFWLE0ZrvfZDAEUI3MB3yG+LgdT1CaQHk72NPa5wT7NBTaRcjpqpmX+hdcIfHAAerJBFz/jD41fRn75pg0ausB9PcUkIJFiB85ThYGk2K2cPgl28SUxhG3kAVHFRzy8l5qEovGQ56ucSNPFbA31XYqrYCcFTQV5yzFSUDOPYnxcF0rqLi+Tg0mUILQTmvYD84ZytcDZ3pjRIHddZPlTnnes/fGtektF4lAWMlWsrLCVe+uwUOtgNUV54H8SpUwYh6Ak3S2amlwwFrOq5yHHQLqC4HwFGNu+FO6rGShNV0OKAO+ZvjoP9DkswcRzVtI3in8yheBAcscshwMLZC1p3jqGLFYGy5KmuWEooIFxS+K4KDXgqH1U9xOa8kHmIUqpKAlOtxgvQPZukbwUG1FVbsyPVuJRxSoGEOjwBzUsG2+XmJXSqLuuVc/1dh7kiq36jCWC09s8BdwVJAxUNOzuZPchasIOdqlNZfY1H7gZlhyLZXAfWtsJUDpev6ElstqQFFf+VN5/wYrXThLX8MqJhjiw7smP+mVo0negRVKVHlisbwQGrnW0Bv+MAmHAiqfzVogqRA8LMFBmLZG+xFsM17CuhxZkwAgKnx5211OSq0wkQMHR5XWHfB1/InTCHBfa0vDDxg3vGMjbI1xSrawDTzuDTWDMxl+SpNoXqYk5/+5skgTD4BDv5xBnSYYACe4UBd2B9xRvUE9D7qbWC5O8SBEutrvWZSKbZm5LORibifiSleIQ5OVwQZphBG84pfYUk1Sk4p26IV6J8h6wjE9yeTEEQlSuvmDqMWmopMnJWv4NcgCgucv9wNaKkuohASMQHhbkIsOTHH0ItogLBaSf7XuwAttipItgCuE4lWGAsNucyI5PUjswiY9ynQbz9COQGiPwriB8N0Uon3viIWEe4rAgLD6GfBhv45xbFwyqsl6vFYlfTn+GjnNbk6R1GoQsliwLJp6oDUChl7LUO4YigaB3RgPpsQtpUiI0VAoBqY8H2UEifDHCQbEHu1NSPdOVddM8q2GHoMZD9IjwnKAhKipRHbmjrp4hVly3G61eyu9fv9LlK8e6wrRVObyUmaQmjdfhMcLEgtV+tqznhoa6/CaE0wG6fNFrsvozxZLnHqAVbTH0ZdvORa2lnAtPQlwcFSURJjRbqi450QP2rdF047nbQjuUyLgKmtiny/vyqcyydPrDR1NlRkGEEtb2ZxOGoJxc2BonUBNWtKnWjYgfL9oaNjfjLb+2JjX3a6rSS7KCGK2v2myYIKOKBzdZfHE1m4Xdg+a9iqpO0urcLPq+87osloGoUoQnzIX/vHx/vqr0USGAZ6cBtFvJ3+V/Spba0+bu+sdjqrzZ0DiZ1P27YLM2ouJkYlyDDCcdUyb8AuWQGShO2u3Qg/UCMStiQOxBlGUKZnNB9FfwEcjwRpxokcXI6seXPhnoY4w4RQCbG8GlsQVrRXeTlcD6yFmn2vmahTHkEFfsbztex33XIYlXoJfAI71YCUMIQYBsg786qMggWtpU8act/rWWtCKd0Qj6Db2SmNynGmCcVaGZg/B/UM60SbRtX0iWcSMbEVvBHaWi+OZST0dqOsCkvwWoR6BlhfsrosWypX8o2yWTcqW+D6qZA+LbkZUr2P8pXqCuSdWwiN561OJU9OTkPkNJbrr/4iD5EpJrZu9WTb6RaxCoViJs5alV0bLAjDLrLl9XDI/W8ntZw7M8+juW/FUSFthk5xTphbrfIh9j1I9i0WSh+gfxFG68gBCkje1Ys1w4K8xTw0RcP9s4ThkEuppZpj+fSSTP4oCEX4VkPj28jL9wbFIV2fpl5bgnqqlKqVK2ii8hrFJ0c+8O/2iWXIaHVoWNMyV6UyGDyAqrWm8tNo/S7wTjLSaB/tklSCgTKW4Wo2aY+6hOOAl+jr73xooUofTUQ6kLpdM90wJ8bGnjQ4BAHR2mb8WoMK1aRFa/KJMKPfL1YWfNTggJXhprQNEqCrks8tRiZFl8yepqinNzU4+BXOlvlFHKMKty0VJIquJX8oWBDhXgABB7hF1Fy9pgKpVJ+VE2zFvicGD+u/owg0ryWtqQDxzoxTgtFX9IoJsV/wtPYcC2QsmzmQUzWLwOGQlwCKV7xuQsTBNZbVrAmXii6GrxzmApRiXBpwcI1lTZdL++sFyLmL3w9wGL8/yO7os1epihpzfr2ruw9Sg0O65kfCwQIODnZNOEI7vx10qozi8rFhxMF8LBf3Faqauf0St0IHrq/kcUv/p+nbLy44oHWt6ifSPIJbMpoJpXxnhoyDxRucuBVsrCoKOhVzt6OJPJkxtuBgptBFkcIcSbV9FNsZudkfzgHW70HSB53K6uGCVFoPylaOZUA8cagMW/4FrTdxqlMChZiVzhMwreu4m2SVMcoVJgoOFm1w4hNgl/yPSYL1dHyXZTOU2wcVHMyCOAkujBP4B37YcjpaH240lSuXFBzMNXETXOideMdFE7o5d/QyuXgon9JQ72dgPq9T01DSvWr2asAh+OX4IjuDo16tpuJgmyknwRVCSn6cxZWEY2UX17rqlwJUHIyxPrjMkhhS8qkeB2862lC+9uoXWpD7S1hOx0kZiiEl91OGsL7K8Q1mdZELsBAczDVRS7IQksqtXPeF4QrX2E79wOju2AnH0lefBZEPqzjmnWE0z008+FnUr8iYMRzMhLgU8imhf2upG6FIeMlNoXAN73pfH18Qh0tw1EjzqelzLPkrUjDUTQ4ZV2HLgePgyUKXunoZB5ISE1BEa1Js2kWmwOZz7IxDc6xe04OKI3jUFu1h2SCHM0sgR41/nAXHASK91ptwMBxEtJoryNWCUplWSfaziXCjg3/dS3PdMw9kfbBdOo3jIHS6KtX1yWValOwwgAxqPvqju7+dZ28fLUBMlUE3Bzur3f76er+7uqNPXtv8Sxgqu9OMV/tdAP7qBzNrVS2p4WSRQUEjaoer+wO8z8t0PV+4Jg/Lm8x6VyjVqvA94Q3Yk96OWC4OcyFjQFQwmRW+myF+U21LWzkZIbdEepKhviYUinsM31ozfVfmG2jil+bybLzq2pO0XnLS2neDYf5eEQQSvG1ha6Lc7V+FNPkbqT7c+OU7Iw6pxGFbKUivXHEmUReRkDBZFbY25q/FmXHIZVnHeRl3CSYMo+WqX6uUSfbIwqTWFL2wsXmgFhxLk59Sj8fZtdJJFCXt/on5qMeX7ZPVtfVWO7/zPKy11teIMdSx4X4XmP6o1pUsv/VDcTYc8PNLgG7MN4fv73RaSfFtPzDHuXMSrjc15XwHJ9315WWCdmtf/pPhg0vOOGwXdSq03QHMh/A9me/1Hftt9IBMH9p2x7G0+dneFaWDjD90EAD7R31nDaH9RpEvDuKkPNu7y0j7fVEEStRyQnK32O/XXjl899X4fVEMid01++2Gwh0H4S7Lt19v1v2P2rfN6uLM5YvIvjgsV9ratik4EOPxNte18MWhfDoVktcnfhgZTuI6fCS1Mg7kU7YlVal6rWF3g1By+WhtdRzaTwtXrC/RHWJ1+4jwHDh0n3quWieDw3D8qPNcOJYmmDGpVpeBs9Wz72JUw4FLidc3X0vCrz/wlIw5cAi3w5bkUsih4EBCQU5eyMJwLF0pxxPsRXkyIUrX0QtZHA6CRNZcrjfUMxiKrtqtimIeHGSz+DwPEOVjc8/jOcYyDw7Fe3T4EAUl5d6Ad9XXYn4cRAkLMRXrh0HYYkiO1bcKqnahOAiN4TbLmMJhiyEeZPw8nn8QC8Ahmvhj+5Iky/sQRiV7IdNCcIiGcadmRJKsiNlBh823Ay0GhxDUzs656ba3YbIiuiI/5xWMkhaEQ95jbS0rtzMUgTvp2EpF663SonAsTb6KI9zPv6XIj5Xmn1CTdO3P8aJ6XxwO6VhSRjfbzbVWLYvHrbT6q9tKyMrfO9fTAnFIQmKjv+5BBAdaJI6lTTSGitK3haJYMA5iE7+6gPi6EJMh0IJxLC19lAP0Cj3N50nhtHAcRExMQdRF+CAY/Qc4iA7GD7MHT+P/orec/hMchK7OpA3ju7P/gp0Y/Vc4MppsnL35fPf87/PT5X+KIaP/A9pfbpsVX/WNAAAAAElFTkSuQmCC;" vertex="1" parent="vUEfeBpxAFAEwGMZp27j-39">
          <mxGeometry x="231.10000000000002" width="34.47" height="44" as="geometry" />
        </mxCell>
        <mxCell id="vUEfeBpxAFAEwGMZp27j-47" value="&lt;b style=&quot;&quot;&gt;&lt;font style=&quot;font-size: 21px;&quot;&gt;Meeting Room - Node 1&lt;/font&gt;&lt;/b&gt;" style="text;html=1;align=center;verticalAlign=middle;whiteSpace=wrap;rounded=0;" vertex="1" parent="vUEfeBpxAFAEwGMZp27j-38">
          <mxGeometry x="10" y="280" width="260" height="30" as="geometry" />
        </mxCell>
        <mxCell id="vUEfeBpxAFAEwGMZp27j-48" value="" style="group" vertex="1" connectable="0" parent="vUEfeBpxAFAEwGMZp27j-38">
          <mxGeometry x="370" y="89" width="304.72" height="181" as="geometry" />
        </mxCell>
        <mxCell id="vUEfeBpxAFAEwGMZp27j-49" value="" style="ellipse;whiteSpace=wrap;html=1;" vertex="1" parent="vUEfeBpxAFAEwGMZp27j-48">
          <mxGeometry width="221.84445698269116" height="181.00000000000003" as="geometry" />
        </mxCell>
        <mxCell id="vUEfeBpxAFAEwGMZp27j-50" value="" style="shape=image;verticalLabelPosition=bottom;labelBackgroundColor=default;verticalAlign=top;aspect=fixed;imageAspect=0;image=data:image/jpeg,/9j/4AAQSkZJRgABAQAAAQABAAD/2wCEAAkGBxETEhUTExMWFhUXFxkbGRcWGBcaGRgYGB0XGBgaHxobHSggGBomGxcbITEiJikuLi4uGh8zODMtNygtLysBCgoKDg0OGxAQGy0lICUvKy8vLS8tLi0tLS0tLTYtLS0vMC0rLS8tLTUtLS0vLS0rLS0tLS0tLS0tLy0tLS0tNf/AABEIAOEA4QMBIgACEQEDEQH/xAAcAAEAAgMBAQEAAAAAAAAAAAAABQYDBAcCAQj/xABJEAACAQIEAwQECgYJAwUBAAABAhEAAwQSITEFIkEGE1FhIzJxgQcUQlKRkqGxstIWJDNTVGIVQ2Nyc6LB0fAIk+E0ZILC8Rf/xAAaAQEAAwEBAQAAAAAAAAAAAAAAAQIDBAUG/8QAMxEAAgECBAIIBQQDAQAAAAAAAAECAxEEEiExUZETMkFSYYGh8BQicbHhFTPR8SPB0gX/2gAMAwEAAhEDEQA/AO40pSgFKUoBSlKAUpSgFKUoBSlKAUpSgFKUoBSlKAUpSgFKUoBSlKAUpSgFKUoBSlKAUpSgFKUoBSlKAUpSgFKUoBSlKAUpSgFKUoBSlKAUpSgFKUoBSlKAUpSgFKUoBSlKAUpSgFK1sbj7VoA3HCzsNyfYBqaisV2wwVv9pdyz4o4/0qjqRTs3qVc4rdonqVXP044d+/H1Ln5afpzw7+IH1X/LU5lxK9NT7y5ljpVc/Tnh38QPq3Py19/Tfh38QPqv+WmZcR0tPvLmWKlV4dt+HfxC/Vf8tfP034d/ED6r/lpmXEdLT7y5lipVc/Tnh378fVf8tfR234f+/H1X/LTMuI6an3lzRYqVXT244f8Avx9S5+Wvn6dcO/iB9S5+WpzIdNT7y5osdKrn6c8O/fj6lz8tfR244d/ED6tz8tMy4jpqfeXNFipVcPbnh38QPq3Py18Pbvh37/8AyXPy0zIdNT7y5oslKrh7c8PETeidpR9f8tZ7vazBquZrjBfE27gH05aq6kVuyOnpd5c0TlKrP6fcN/iB9V/9q8t8IHDR/X/5H/2q2ZEfEUu8uaLRSqqfhD4Z+/8A8j/7U/8A6Jwz9/p45H/2qMyJ6el3lzRaqVVR8InDP3/+R/8AapPg3aXCYoxZvBm8NQfoI191TmRKrU27KS5kvSlKk0FKUoBSlKAqnEkDX7jMdiFH8qhVMfSSap/aCyl61dVtQNj4bwfbWTtBxW7Z4neVYKuV5WMCco1k7VD9oeOk5rLWwqhirhWHMdiAwERI3HSvJng5uq5cXe/Axp46kqUovjJW4u5ybG3szrKEEkgvLjvIYgSJjQAJyx6vjWE3xmuE2tIaLea7CExqJMyv80+dXninZhO9KnOApPKt4BEM65Q1qQZEnxMmtUdnkkt3lwMZBY31BYHcH0WoPWa9W5dTstnyKW130YGXUsfSS8jT1N8sddp91bK3l7xZswABKZrsXIB5ic2YTvoY8NKuuH7FKSElyHaMov2yCxGmndbx1ryezdlbwQ3L+ZGVVYXrcqCWXSEzQMp9mgMZhK5WWIjHe/IpNq6O7c92WmNc1z0Wp1EGDOg5vdXo3FhFKkRMvNzn1nUEwMu3L99X232ITKee4FMZh3hAYLJ5h3GsQela+I7J2U5WN7KpIC96pAO5I9Fpr9NLozeOord+hTEvDPcbufneim5lWRvoc3Lvr4a14N30YGWZae85swhfUnaDvG9X3Ddl7TFnD4nONGZbi5ocAAE93qCK8t2Tw4GVfjGSdVDrlJ0AJHd76jbxpcj46jxfIpgvrnSLQ5QunpCL0ZoJG8t/L7qxd6oVj3ckx1f0cNuI+rzaa+NXU9nLGk/GJUDKe9QZMo0y+j0ABHs0r63Z2woJm+M4BY97b9IDJGb0eo3+ilyfjqPjyKPcywq5cogzcl5aSN505duX31l7wd4W7hR07n0gU8vtzA/L36eFXNuy9mGUriMik8puJCHTN/V6Gd/tr5e4CgbOTiM4+W11MwkRv3e0afZ5VNyPjqXjyKWlxQhGTNmiXlpTfTTl18/CvTXFzLyAZYj1yLu+pB+dty+6rVc7PWgWQ98okEqbiQTGhIFveD9vtrFe4RZEGb3LGX0iSI2j0eg8KN2I/UKCdr+jJHsQUeCUCkPcKprC+poM2ukxVxsY83HNsgEEGRG0Tv8Ad7651Zxi2CGViChZi1xs05sgM5V11jp1qZu9vRlIXulYjVsxP2ZRPvrzcRh51JuSV7rkdOHxMMraT34bmk+HUYzuv6vPB8l6/R/pWxxW5hbdx7Yw+YIzKGF24MwBImNYmJioUcQtNiECZiS/MXjWY8POfsrb4wvprv8AiP8AiNd8FZanPhqEdXKK3N+/xFSbefAzm/ZhrjQc2UaDLGoy/SPEVs4bEEOETBIGCZyDiCmVTmmQ8DQzMDSR5VsW7AfCYW48syuoB5iVHfBIEMI5VA2J08ayNkGKu5sxzW7YBJVDMuoHOwDCI5PVYDbRRU2W525I8CI/SS2yhRhQNVIPe3DEEN94FZuD45bNxbtm0EZSCDnuHUeRbWorB8Nc22ugSiRmbSATAHWTqa2sGKOxHRQe6R1HgvbXF3Xtq3dDPcVPUYxmMT64ro1cX7NMO/w4/trf4lrtFSiZqzFKUqSgpSlAcU7ej9fv+1d/7q1X7+GByhtBmWfp+2rf21w6/HrjdSV6jwA93vqvcWAB12D+/es82p8rUrSjiHFd4z8YA766f7R+v8xrQuAHqQSKleJgm7d/xH/Ea0hY8q1Z9YeuEX2TFWSTPpF67yYnz3r5eZUuOV1YXCYOolWYrp4As0f3j415wxnEWvK5b/EPorWdpLPAIDs2vUTG3h5edUZ5v/oXtHzJK3j2J6DpJzba6HmPzj9JrGXaSWgSSWJHUkT7YjStVBEllAGkAH6fZuNK2DBBBInLBjymPLaljzddmZsC9zvGCOVnLOx2BOx9/wBNbardCgi4AF2kBWhQG2Os8gj6djWhbUgyG1ka+zQVjvEnmJmfPxn/AM1JN2l+SQuWroB5k2IgkbQwO410tR56ecaN0OATnBygbNtlJtrHs1+ma1wQImN/P367gQI0+8mfbTAhhtrzrqdTOp00IHu86FG1a/8AZvm9dDlRdnM5BIgyYEt5nmIn218xBuspm6pAUtsv8pjbfn/5NaTIYkOD5Ajz91ZcFwrFXVDokqWyzmUayR1Pkaq2i0IyqPLFNmlicSzEliCT1hfYOnlWpf8AMg+dSOJ4e6u9t4lTDayAfdvWLGLbQKrECR1gEnT7almLpvh/O5WuLEKnKPSCTm2iHt5d9NDrM1BXPjAuXQzAMQ3fHPbGZZBcZs0OSeiz9lXC4VggFGBEQch0kaEHTpULcdCSqiyDqB6O3AO2vLt51KPYw1aUIKMosjeCWi+KtDobiyfKRPs0q4dqkVMVfVTKi7cA9gYioHhbziVBHNJzCBpvI06VJcZf013/ABH/ABGh3029bk/hUP8AR9o5VjvVOYRm/bMJErlzzpqYyxWnxdsL8ab4wLhGRMoTLIaWkawY6QebyAgVtYfKMHZUhASykktbDgd+YGVl1UrDA6+fLX3CYkHGrcRt7QAbPaYNqVYgl5IlW+UWEeAoan3A4FVwF1yX51UiQAuYXFGUSSWMAmQB4TUXhayWOOMcN3BzAAALkgAjMWIfSW1YwBFeMJUEos3ZY/rWH/xU+8V26uL9lkHxjDn+1T8QrtFSis9xSlKkoKUrzcuBRLEADqTA+mgOGfCDjDb4liDBIGUmNPkLpMGPbUXcx4u2Df7sgC4V9dWGYBXiMoOqk/RUn28AuYzGlXJQonqah9FGrA7A7b6ivfZrhlpuGvIYk4xgQoDZSLYA5V1EAjc/fVbaXPMjg6c1KbWt21zNjFrN24dfXf7zWFrIjX/StK/xm4GaMupnVR19oJ3rYwmNxLjMFTKNCW7tFLaaAtAJ128xU5jf9QpN2SfL8nvD2PTWvK4nT+YVE8WuAZwugzkjzAJE/Z9tTC38TJ9EqlY1fIignUQ7EAmNRB86h+K2nzMboyluby1nVYkESDEaaeWho5MVWVXLZNW4oydmuFC7YFxxcuNqW52AVQzIDC6kcsk6/QKlBwaz806/2tyt74Lx+rP/AID/AIr81lJqruexThDKvlW3A0E4TZ6q3/cuf71mtcBtMQqIxJ2AuXCT9tZbUzGmrH/nnVl7MWvTofAN+E0LuEO6uRSe0nD1ssqroYOkzBUlDrufVHXefE1TuL8XuC5cUMFKuVAVEiAdZkTI2q7dvCO/1Ma3Px3K5xxMzdvn+1b76vE4YQj08lZGVeM4jbvIEzolsfcupis68cxE/tT7lTeSfmxuSfpqPwSAtDREHqREazpWa8igAgRrrrO8kfZFaWR0ZIrZIu/DL7vbVnILEEkgASZfXQDWoPtC4bPIHLoPKHUe6anOFgdyg/kB+nOah+I2CxaCMrMScwYzDBh6uw0+/rWa3PIpyUaqb2uQS4fkDQsZTqf7xE6gieleMLh5RToDncZiAY0txPkJP0neptuG3AI7y0olhGW5prJA01jNWTA8GYW3DxFtiToQwz5ATlLKdFQnUffpNz0a1WMo5YO7Izg+HdsSqwQQeYxoBG/mI/5473GMETeulRmXvXhvHmOv2g++q3xG82YqrEDrDEbeMb/+awcGxTqXljlNs6c0alOh0qC1JtU3K2/YXr+kLlw2k7hSEW0CQqtcItZZhtwDG3mRXr+k2F9rrI2Yqoki2W5WLFYMQGBAJ3EbGnDuzTPbJF1O9Fs3Db8hEjPMF9dojzqPwOAa9cyAhdCxZgRCqJY+4dKpmRWVetGSi4avx928zVweGfbLr0Egk1N4Xhd/pbb3Co/ieG7hUuB1dHmGECGADFTBMGCNjodCBtW92Y4unf2uYZi4H2+FHJWuRPE1ad80NvEt3ZXhV8YiyXtuoW4CZB0iTXXK+MwGp2r7VzqbuKUpQgVyf/qOb9Qw48cSNPZbu11iuR/9R5/U8MP/AHH/ANHoChcJX9WT/ATw+d522+wp7TtVv4IF/o0Zo1xrRmgicibd5buAddl/1mocGb9XTzsJ+L/EWfqv7KtvBNOHafxh2IH9Xb3i5aJ97H6NoXV8zlpftvz+5X3Guu8n7CR4D7h7BUpwXCG+DbggJclGChjmcQylSQpUrbzFiQBl65orWxNq53A1071o309aZ5mGvkDt6x0qY4OiHCm098WhdPd+qYN3vO8zOQBylMiT0hvOaxWp5lOCVRp8CR4hgLT2xZSzetmzmi6bQZLgYjvDaU3ACSecBZOUGNaqHaFSrm2PVRVCazKEd4G6SWz59tM0dKm/i9i6BhzcuWvifek3SshucZsqAg22zEBRJnSYNaXbe+HKOCzFw75mHMLdxi1q2fFlE+4iNBpoaVbNX+n9eXrYnvgwT9WY/wBg34r81hnT3V6+D7H2bWDd7jrbUWHlmMCc9xfvaoRO0uDAM4m2d4iRprA6yY6/dVD3KXUX0RKYBxyiD4yY6g/7Va+zVz0yjyb8Jrn2H47g5X9Yt6DoW8D/AC+dWrsdxrCvirYXEW5OYAFtSSCABO5qC7K/8IKenHmX90u9c14ox76953HP2mumfCEp+MLGxa5+Nz91c04t/wCovf4j/iNaQOCn+/PyGCu5WBgnpoY3rNfkAAg/ZqPL3++tJCZqQxV9XUa6gDpuR1+09audRcuzljv8MzZiDaBBnYxmYdfCRWp3imd/MbT4e/zrb4ReNuyoUwGtnMBpOaQSfHlMVpYzE5ACqh10DGVGUEgD2ztWOtzwKrjOooU4vN2/U9Yy/bawlnKeXveaQdbjZp1BOmo318RXi/xpFa+wD+mRUILDlCqyzoOYkttA0FRd3i2HJk27nslforTxGOsPARLgJK75SBJAOkid/uo4HoQjilq/9cLENxdiGBBj/mtR4dk1B9kHX3/RVha4ZIEgyQQY6adN9JrDaALhekNPh6pI0HnUpmlOtZZWtS9nDWyYVLbKsZWNq3mOkgkuuaeknwk71sphwCWCpmOhPd2519YE5dZ868IwznTIDBKanLyg9dd9ffW9cv2gjcp70zlYHQGUyk6aAAOTHiKh7nctkapwquoVraFVJIU27cTsYGWAYAEjeBWwnDw5CqiMV9QFbI9ygj3dK8r06eQ22P8AyfL3VsYXEtYvK4APdEGJM7BoIVWy+yrRi3sispJbm7geN4rvApu3LgGjW7gJWNjmUAGBM7xtXXK5Nb45dvPzZIIKhRbdWE8u76nQnoAa6zVpKK29+iM4uT63v1YpSlVLCuR/9R6n4nhjBgXzJ6CUaJPSuuUIoD8z8DY/F1if2CTGbTnG+VGAH94qPOrfwIE8N0kxjDEBj8i3t6O59ij6d9P4QXUcRxQgSUTLyqdQqHqRlMDcV74BdQ8OdSRmGLJywrH9irDllTqEaJJkgjyELq+ZzUnanLwb+5GG3nUooMhiSVGu7aeqCPfHs6D7wZriuYQXEzDMjoWVis5ZG4bUwQQQCfEg/bLEKz20dmJOitknVB0MCA7NqfkxW3av3E9VHgyWOZhzArGhGYs2YnN5GdzFM553RSaz348OwnMVxt273NaZ2uxNu5bTKCDO6qHuFSNJjzmq1i7mdibpkkrPTQIRoBsAIEDbQVMMzvnnNbysQtx3DSJQZwwPJmBMCQeX21XcRYbvILTLeudiSYkn7atCSaGIz03llqz3wu+LS93JKkzDFSAW1MShIGYezUnrWwvEFMeiXUA6hPnFfmeVaj4Fhl1U5tomNgfDwP31kt4Jxc7uVkADU8sBg28ac3j9lXsRHE10rXZtPj1H9WuoB9VBofIp4VjfjeXVbS7+CafQu9fTwoquoRYVfVMDmjLpGWYGoB8+ooeB3O8KZreYaE59PZqNfGPD7CsWlicReykzW4hxFr2XNOg01ERrsIHUmZJ3qLxnDsO7s5VwWYsQLgiSZPyKm+G4Aur3HurZtIQpdlzS7SQqqoJdoE+Q8K0Ewee0125eW1aVsoZkzF3icqqupgaknQSKh3WxSnUrOV76s08NwrCHQ94PD0inX/t1mXgmH00ufXA+9PbWrwXHOzFdFy27jZlEMYBb1p8qnMNiHfDuxuM3MBBOYQI1nw5o8KlN2N59Oqbmp7GO66hVRJhViSQxOpO8DTy8p8K8doz6JhBE27O5n5R+ytDF4sWxJE67TGm53/4dfCsN3EF7ZC2yA5C6QYKFWk66TmAqO0pg4TUlOS0fb6EUqEgQATMbeU+HkaxIo723/eXYb81Sn9GYtQIt6CdJTciCd9461hxGBxKlHuWyFQr83aQYAmh7TkjFjAAzkE5+9efDLJ8RvPnWtgwO+Ej533GpW7gjdzOiOWe40ACdDLAaD1vKfdWpawFxSGAE5QRPUMsqfYVYEeRBqFoeU6kYvMy4sxzetn0HMCzZoUGcx1+n/wDZK4ls2i+b0kEqoXRiCmUT09ZtT83zqJvOFcgJcAyq0Lbuvy5Qc2YJ6u5nTQ9KDGWzP7QyNIsXjoBvonhr7iZqG9T1U9iUsMSAZkyJHv8Au/8ANbGCD37pti4696QIDXIMwuuVwCNI2+6oixxSyVDDPqDlbub2UhYBhsuo6H21s2OIqjBkN1WJ5SLFw7blSbZ166edWjJx2IkovrE0nCb1t+eSBzZ2uF5Cw5EnmmIifprrlcb4XYutfWVxILZs73rWIVYAzEF7i5VkLHQbCuyVeTi9vfqykVJdZ++SFKUqhYUpSgOI/CJgw/ErsDmbu1TWOfLbygnoCTUFgeJJhGOHvCHN5GyCYJAZQpb5KnvJmDoatfwh2x8buPknJetSdIju7bQTvJgaVSuIdmxeuLfVlRQouZO8UkhcsgZiGDcuxk61GZJWZw0ZK84t9t/K5r8M4DiLd74xkFy3bzuyZoVlt5g66NtII0HTSt7iuMKYSwQEF12LMNMwSLjbCDl0Vfo8arF7GuLjhDlScwVgWyqdVExsAQJMV6w95773BdZgLaMwyAT69tPA6Q5qGjaztmmk1b32LkbOC7QXWuZCifK+fOx2M76VccBw8ObKtcYm5a7yMq6RkEftNfX38qhsJ2US3nvM4OUKQBetyxuaDlCyYzSRpGtS+H4kyFTlQZRAMahDlOUa+ryrp5VWTv1TnxDwkZJTi7+Gh9GAdma4EthUbKcz20DNBgANGZuUmADNZsXhLoVpw9kFVJZVe2biAZpZranOIzidBECYqQ4Pj7SJmcK04i28a5lARybigESQT1ka043bDWyfjAFsZctvOhtyi5eQK5fMxk6opGZsx0k6J3OOEYuLaf2/grg4gvL6G0YAG3rQIk9S3X2/bgvXs7sco1JIWdp1gVls3LSrD2i8tIYMVMRqsR46zWG5etliRbIB2GY6HLG8SebX7Kncweq1aJXA4i0bTYe+lxUL94roMxV8uUypIzKRGxkEVhscVVcM2Fc3rasxIa2qtOZYdCpMlDlkEaitBLlo28rJD9HBJ6jUjbYRHnWDEXrbXE7q3kMwZYmZMT9BIj2VBvSbTTuvxwN34OnPxm1qoY3Y/q5ju3bqC0SAdARpsay9krijD8xXp63d9bTTGePsE69K+9hbTJi7ahmKi8BILhT6J9SFcJ9PuatXs/iimHEFhIE5TeG1s7924H1jHt1qFsz1YR/xWMGNvYd7jq0yGYRl0B2EeWoMe7SviY3BWnKXFuRKEBI2aVecw1PIu3TxqAxONtd67d7u5aMo8Zic3+lWGzxlLIQXQOdVKkraclczsCMwaPX8usjQVF0c6pxSSs3G2u+/vs2NrDW7TlGcQHa3CksFKsfVLaFBGhbpE671LX8Bgcr5SjEJcKen3bKSN21MxodzpVO4txAiyty29r5KESZOUBZCztt16EwKXsUjlTkIZlzMb7ZczF15lKwSDMGSdydxUFaEXGL+RNN6N/0TOCtq3xmLXfBcOxDcq5IC5bhk6RvGu9ZL1hRYwqrZyOwYZswJuvNtZ3kak7get7ap9/jF1AcmmYEMVa4MwHTRoIiBr4VI8exbK2HABAVWb1nOqgMfWY5dR9vsqJXSNI4W9K0vevirlp4nhb9qw8X8yJl722rPCZvV0OhU7/bHWorAXnvHN33dqhAzsx0ZpgLHyjHltUljsDbtXbthpuOsKzZnHeGA2bKDAO3+lanxWzBU2wRIJDF21APid4J0qMjN3gqbqKWtktrvyNPjOPvWbrC/cLMU5WzEyjA5YJ2Uzt9+52+zfaJWv2ULEkuNzPgK+3MNbuXEJRcygKpLMAFAgA80ZQNNttKjIw9khmssmXq4v6D2loqcry2E8Kmmk9/M/TrxGu3nXquL9lO2t69etYcXQ6OVDWyraozBDz5TA5l69a7RWhu1YUpShApSlAcl+EK8zYlrBQ5HxNo55AhjatpljUnlMzHUVS+L8bNi69lUWERU1CFiHRbg58syM0THSr52yVrmLu2EUki7au5hoEItIi7iD1Mezw1qHF+F92rNfQ3SRAdTEbAZhHMAJ1nTToKx6SCllbX0OWCV5Syt7q/m9Cl3cBcObS3JMCW1AWADsSDod4+0UKtbeIUhgUJB+TKuOnin21aOK4C5YIRic5grFtCp7wQObNpIuPp/dPhEcyPzC4CJI2toY1LiO7fQ8rb9JrW5aPTNWktPL/okLHGHvWMSMqqEtKxKqoJyeqMwWd0JPjI86r/CO172i+aylycp5t1AAHmOlWO92dvfFhcLd3aOvNEnO3dMcqsT8jUHoKqg7N3M1yHtQNAXcoWETMQenQmoSSeghldX5lZ27dSw2eLtdQXMqrmDGFEASWPUmTGlTHALNm5igt8hbRZ8xZsg0DFTm0iWAFVzgdi6lt2lYssLTLq0q2dmZYB6W2gx0Mx1mDasLIFvElgASMlzMoM6sO6lNtJjxqU7HJ8HPO5RStdssvBOF4B7Im6lxu8YekPc8vdlgMueQM4HNO5jpWUcHwATPcW2rhbp7tcUHDZVBSWDaEtIgVVMfhTatYe4HVjeUNln1UbKVYiJClWB1gyDpUdjcS4VjyiANj651mJO+23lUq/YYKMk8rhG/l9fepehw7hhIEW15cM0m/Mm44F5OY/JWSeo3qlcQs27d18nqpdbK0zyLcUKZ66da2cGGe1akG5buo/LaW49wFX10VW6gf8ABWrjcApAVFuB2cIGK3Dazz6pYWo09vt8oudSw83G+VEh2QvB8fbcRzX9PVn9k5gTaLeOxH901W70DDW5jXxyT6gmM1pj9AHn5WDslZNjiFuzmDRe1IIgMLTyDF5Rpt6p9o6V28W+KJEwcvjEZRqfSKPxe7ekdmdtNNRszN2fxltMHfllVnICgmC2Rb0geMG4mnmK+8CxKYK8l3EWzkZUOQAZimZWJhoBBCld+tQvB+H3cQiWrfM3eQqyo1cEscx8FtTrpy+dW3txwPEG1Zu3bOHtW7XK7WbrXCEaAGKsTosbA/KiNasti62NU/FLmGVL7C2UTKhUZlaDIElT85uadgPfh4xZtFhkuNiLS2xlN0uYJDkgAqIEAHQgT86tvsujm2DaCm46ZQpUtozW2bWQFjINfI+VS/GuA41ybzi2TkylbeZQQJI02J16z5VzyqQhO0nY5l8yeVXabvoUi6Usol0qLgZWGQyMpGimQROonyE715t8UW7eUrbCqMxOYsdCW15nI9WAfYfbUjYGaVe4VVUYKD3Ig6aemdF1lhAbN4CKiOGxe9YgGSqoot6KwJ0l+8aM7awfMnWNEWp2lG6RfLKnu1Bz97MXAQSZBffQmcuWJ6TWu7jMddp10G3kJGo8DHt67N/Fm8GxD5Q9xpgeCZ7ZAkn92vvjWJrTuD0jwfltBkmQCYMkyd58dqsdhsYfUgDSdPLfxjTep7gXbFMMwYYe9dEH1Qi/iYHoOlV+yAWAkx18Y0HXymtzBdn8feMWksXOujlTHsYR9tAza4fxhsRxWxeOEGHEW7ehVi57+y+ZioGuVT/vXcq4LwnB4mzj8PbxFruzmt3BJBBUXbdsQRIPM41mu9VJSQpSlCopSlAU3ioC4m9I1Yow81yKv0SpFU3ilsqt5nWFOwkamurcS4VavxnBzLsykhh4iR08qhOJdhMLfEXHvEeGcAfhrzp4SbqNp6N38RCpKEHFLjbXi76nNe2tx0xNtSzAdxZLKGIBYDrB1gioW/iLR9W2U1lsty5zHYfK5YBbb5xq59u+x+NvYlWw9kui2UTNntjVcw+Uw6RUAOwvFf4U/wDcs/nrvsaJmfidh72EwZyygX0mugDX76rIBBYZiNtqp3FLOV3A0hiNJ2HhJOntNdn7P9jc+Gs28WjoUQcoZPWF284BiQYDKffWe/8ABhw9pJ72TqYcdf8A4xUWPOxWHlUneJyPCYdlsYwJCw2HOmYaFcSCBJJmDH/JreF/iAe5N9i82EunO0uLxK21JiSBlM+3rV77Q9jVw9hhh1vXszqXQsgIUJcthgxAGYM6mOuX2mqda4Nj+9us2GcLcNoyLtvMDa9UmGOkkk0O6kssUiK7V4dVtYc5rgJwuHCd2JUgIAczZgVG0QDuT7dHB2i9i2pFr12AYtmuMOYy473MqiAByKIgyevacB2StYjDWFxIuK1q2q5A0KpKpMGDm0AEydvbXwfBlgAwYG6CPBl/1WpscdSnJtpRVr3v2nKcDh74sYXuHNps94ZgWUqGu5Zkagb9dprPgGxTvhVa8TZN3MVzNGa3eWy5jYlmbQn51XLtL2YvWjbTDWrt62iwrNcysGVrjEHaVPeCP7vvqv8AZ7s5xBGso+FaVuev3luArOrtK5tYKzQ7Yq0UV3hdx8PxO5dZSy27t+6V0BPLcIhiDGjb1DXs4wwAgkMACQp6KNCRIEvuImK7/jOwuExGa4zXg1xMpIYAhSuWACukDy6azrUbZ+CXAKrL3mIYEg8zoQIg7BADsN52otEzCOdRa8dDnPZDgC27FvEIzKzq6sh2zo7JmUwCsrmEfzeWspj8D3lt7TOYuIya6xOgaOsGDv0rL2+wl3hrWLFi6DaZbjKHtyymQzcwYBpZtBlEedVPhfGsTeW5cL2k7sjQWyc246vpWkdrGq8TofBeGYXCYj4taDejXIXuEZrjEl506ZWA93vPm1gb4xDXH0SDmObRhrGntg1Y+H9jrWIS3ib9x2vXFV2a36NZIEQusQIG+sTUtiOytl1yNcvFToRmGv8Al1rzcRhZznePbuVo1KlNSTj2trX7nDsaSL1x7LFZJEqxSVJ1BYA8p32I8qg+GcBvZlS24TMwBAuNAJgSVIiQQOpggDpNd7HwcYH+1+sPy16PweYLxu/WX8tdiTUbI4acMTBvRau+/oco43hQt+6thG7lWPdqFuNAIBMEgnViTWibVz93c6f1b/l0ruNzsfZYKGvYghdpubHodtT514t9i7CtmW7fDeIuDrr83XU1N5W2O7pJ36un1OMWLTyJt3YkSRbeY67rW/geNcStGbMW+g/Vnf7WIH2V1J+wWGLlzcvljue81M6b5alOF9nbFhs65mcTDXGLEToY6CpTfAKpNvq+v4OP8FGNvY2xcxD3brZ7aDNZKBUF23dMH1QJtjwru9fGWRB619qxdsUpShApSlAKUpQClKUApSlAKUpQClKUApSlAKUpQEfxTgmGxGU37Nu4VnKXUErO8HcTFaVjsbw1AQuDsgEyRkEE+Y2NTtKA820CgKoAAAAAEAAaAAdBXqlKAUpSgFKUoBSlKAUpSgFKUoBSlKAUpSgFKUoBSlKAUpSgFKUoBSlKAUpSgFKUoBSlKAUpSgFKUoBSlKAUpSgFKUoBSlKAUpSgFKUoBSlKAUpSgFKUoBSlKAUpSgFKUoBSlKAUpSgFKUoBSlKAUpSgFKUoBSlKAUpSgFKUoBSlKAUpSgFKUoBSlKAUpSgFKUoBSlKAUpSgFKUoBSlKAUpSgFKUoD//2Q==;clipPath=inset(16.22% 2% 18.89% 4.67%);rotation=90;direction=south;" vertex="1" parent="vUEfeBpxAFAEwGMZp27j-48">
          <mxGeometry x="202.2347603931766" y="26.05447368421053" width="92.19125402076548" height="132.60158794788273" as="geometry" />
        </mxCell>
        <mxCell id="vUEfeBpxAFAEwGMZp27j-51" value="" style="shape=image;verticalLabelPosition=bottom;labelBackgroundColor=default;verticalAlign=top;aspect=fixed;imageAspect=0;image=data:image/jpeg,/9j/4AAQSkZJRgABAQAAAQABAAD/2wCEAAkGBxETEhIQERIWEhAWEA8QFRYQFRcYFRUVFRUWGBURFRUYHSghGBolHRUVIjEjJSktLi4wFx8zODMsNygtLisBCgoKDg0OFxAQGy0iHSUtLi0tKy0tNysrKystLS0tKy0tLSstLjctLystLS0rKy8tLTAtLS0tLS0tLSsyNzgtNP/AABEIAOEA4QMBIgACEQEDEQH/xAAbAAEAAgMBAQAAAAAAAAAAAAAABAUCAwYBB//EADoQAAIBAwIDBQcEAAMJAAAAAAABAgMEERIhBTFBIlFhcYEyYpGhscHRBhMUUkKC8AcVIzNDU2Ph8f/EABgBAQEBAQEAAAAAAAAAAAAAAAABAgME/8QAJBEBAAMAAQMEAgMAAAAAAAAAAAECESEDEjFBUXHRgfAEEzL/2gAMAwEAAhEDEQA/APuIAAAAAAAAAAAAAAAAAAAAAAAAAAAAAAAAAAAAAAAAAAAAAAAAAAAAAAAAAAAAAAAAAAAAAAAAAAAAAAAAAAAAAAAAAAAAAAAAAAAAAAAAAAAAAAAAAAAAAAAAAAAAAAAAAAAAAAAAAAAAAAAAAAAAAAAAAAAAAAAAAAAAAAAAAAAAAAAAAAAAAAAAAAAAAAAAAAAAAAAAAAA8cjCVRAZyljd7Lnua6FxCazCUZrvi018UfJf1/wDruNaas6Mpfx9ajWnSxqqLO8YeH18udTY2VrJ6rG9nQq8sa2nnu0S0yfplGZtjzR/Im1pimTHzm/D7pk9PlFt+oeM2201C8gvDE8fJ59GXXDf9qFtJ6LmnUtqm2dUdUV58pL4CLRPhr++tf9xNfn7d6CBw7jFvXWaNaFTwjJZ9VzRs4hfRpRy929oxXNv8GnaLRMbEt1e4hBZnJRXvPHw7yG+N2/8A3F8JfgobirrlqnvL6eC7kYpfD4A10MeNW7/6i+EvwbYcSoPlVh6yS+pzTpruMJWyBrsYVE+TT8nkyOJdulvyfhzN1C7qr2Ksn0w9/lIGuwBz1vxyovajGS93Z/csKHGaMtm3B+/t8+QXViDyMk91uvA9AAAAAAAAAAAAAAPGzXOoKkiBcVgN1S4Pm36y/Ute5/cs7Ba4RSVaopRinnP/AA4uTW2z5c/Ln0/G5uVKpHd5ST05zhtZ5b8snzif6b0Sc7a4lRn1WrKb37Mu9eDycr3ycebrxa2R6eueVTwu3hQlquZ17W4UnoqaFKlusb9l6nu/AvqlJ11mdK2v4f3oSVOt45TbXpqRolfcRorFajG5p9XDZteOFjGPdIkLvhtWXahOzrL/ABQThh+DjmK9UjEzM8sU7Kx21n8Tx9wk0pQpPTSuq9nLpSvYaqe3SLl2UvJtlbxPjlxcNW8o0quKmIujGWZtZWYtvk/BIx4nfVpZtqVy7mjJwS1RTnJ5WIptapPON1zJ3BrH9nQoxjVvKjbjHLxCGnnPbGlNxbb54Sjq5nStfWXnv1JvM0rxHr++ErhPDnSapUUneVIZcpLVGhFS3m04rMcYxzUpbJNLJ2uHCEIOc6kox06qstUn1eX03zstlyWyNPCOFfx4Pd1K03rq1Je1Un3vuS5JdF6mx0JvLaz154+eGbero9Lshp/kG+ldkefD6nRY+L+eDD+BV8PXIduVnC6RvVdYzkpf49VdF8TJTmmlJNLPMLEyurNa5Nvlj5d3+v8A5tnb57Ky9/RbN7teRC4bWhDUtWqcnlyxhLHspLOyS8e99S0hWg9ovON8dW31K0huweG1st/Brrk9jTTS67Lfv8SFxe+y8ReXylJPn7vjFfXc3cNqZisgb6WuDzTk4+XL1XJljbcda2qx/wA0PuiGa6tLPL7r6AdPbXUKizCSl5c15rmjcccqTT1RbjLvjsWdrxqUdqq1L+0efquoNXwNdCvGa1RakvD6PuNgUAAAAAAABorFZcxLecSNVogUFWDIdzaRmu1FPz5+j5o6GpakedqBw93bVIPsN6e6W6/155K67hTqLFeipeKSf/v4H0CrZp80V9zwqL6GJ6dZYtSs+XEWXAqEZOdDDlskp76XqT1R37MtsZeefLfD7H9K8LlTpyrVpKdxWlOpOe7Si5PRTjndRS3x4srrngu+VzXLvRdcKrS0xpyejEYpT58tuRa1mPMsV6NazsNFxdNycYyxjqkmQKlndvdVnKPovsWtbhTT1LE1/an91zRsq10oT0vLjB+fI012+7kL2vWjtrm3pg9pNby9SBXv7mCi3VmlLU49p8ovG+S/uZxnltb5WPRbGPEeEwqRprdSjTS+O/3K4WradyUC041cYzKs2veUX9UWPDuMSqNqcYSWOiw/kU9zwSql2WpL4PwNvBbWcW9S0vuZJa6UWieXTW37KeZRa8t0Z3K1bU5L7oip7bmi9mlCUvAxr1cMb23mt1HK93f5Gyyu9Oxz/DuM1oZblqj3S3+Zd23F6FXH7i/bl38/TK+5pzmy4pXiZIhXRVXFKWlSitXVtNN4+5DheMpNsdLrR6oplHSvydb3qYSLQlwjOD1U5aX3dH4NFvw7jEZ9ifYny91+T6PwKulWTMJ0Yyz0yGtdYCk4JeSz+zN527LfPbp8C7DQAAAAAGLiZADW4GEqRvAEOduQ69uW7Rpq0wOcr0SBcJrPc/qdFXtyDVtfACktrvQ/bw+mHh5J8LyMk3UhF7LtLZv8mi74TGW67LINSjWg8ta0u4azixrcKo1N6c8P+stvnyNHELNw3aaz38jCjVi990/H8m63vasI4UsrPKW6x5MYIkU8ZMJpPZosYXtKeYzp6eW9Pbn4cjD/AHYpb0qsZe7Psv8AAZmFflrk9u58iBxOhOcXhL6ZLS6sqkN5QlHxxlfEjZfmThOXGXtvVj7ccLoluj21k877M62pPvW3Ih1banL/AA4fulxxtu6r7fjdSi0ovPuvl8OnoX9tdUbn/wAdbu6N/f6lfW4VSaUcbpLfrnC1Nvq85+JBrWUqTU/ah0xzC9/uvJW0ovEufTHXy7zQ6rzgtv01f646qm6jJRjqW+rrv6o8/UtOOVOMe/VJdX4r7iG7eNhFpcQcSx4feSnlvl9+456zt5VZ4XLm+5I6NxUYqEeS2CdOZlY20u1Gf9ZLfvWTooVTkaGcwy9tWceEd8v1wXVG4DvC5UjIh0KuSVFhWQAAAAAAAB40egDTOmaZ25MPGgKypbEadqXTga5UgOdr8Pi98b962ZDnYzXsvK7ns/x8jqZ0DTO2A5WUce3Frz/PI8VBc0zo6lqQqvDI9Fpfu7fFcmExAo3FaHKTa7nuj2pcU5/8yks98Oy/kbJ2VRcmpeez/HyI9TK9qLXmtvitgmMZWFKXsVXHwqLPzX4ItfgtTpGM13wkn8uaN70vdfLdfI22+Ep9rfT2fPPMmJMarKtpUi3ri8ZljboV3EYTx2N99zqIX9aK/vHqnhr4STNFe4pzaVSiotxcsw25ZLyxbpxMKzhlGoqEJacJ1FnC8ZZ+hohfyVZwjhxb0uL5PpjH3Ohp1oqCjTqSjDTKOJLr1ey8SstOA4qKqpxkk9Wz5+jGudqWjIhPpUYU01BYy2e04Z3ZlOPQ9XcuQd4hlF758MLyJdBkenAsLagG021LCCI1vTJUUBkAAAAAAAAAAAAAAADzB44GQA1SpmuVEkgCDO3NE7UtNJi4AUVbhkHu4rPetn8UQqvCP6yf+ZZ+fP5nUOma5UQOSqWVZe95P7P8kapTecyTjtjdP68jspW5qlahMcl+zqjGMZ40tvbfOfIyjR7Upvnv8zoa3DIS5wT9PuR3wiPTUvDU8fMJ2qyks7L1f28yVTok6FklslsSKVqFxHt7csaNEzpUcEmMQryMTMAAAAAAAAAAAAAAAAAAAAAAAAAAAAPGjzSZADB0zB00bgBo/aMo0zaAPEj0AAAAAAAAAAAAAAAAAAAAAAAAAAAAAAAAAAAAAAAAAAAAAAAAAAAAAAAAAAAAAAAAAAAAAAAAAAAAAAAAAAAAAAAAAAAAAAAAAAAAAAAAAAAAAAAAAAAAAAAAAAAAAAA//9k=;clipPath=inset(32.67% 7.78% 22.89% 8.22% round 5%);" vertex="1" parent="vUEfeBpxAFAEwGMZp27j-48">
          <mxGeometry x="78.99" y="10.2" width="63.87" height="33.8" as="geometry" />
        </mxCell>
        <mxCell id="vUEfeBpxAFAEwGMZp27j-52" value="" style="html=1;verticalLabelPosition=bottom;align=center;labelBackgroundColor=#ffffff;verticalAlign=top;strokeWidth=2;strokeColor=#0080F0;shadow=0;dashed=0;shape=mxgraph.ios7.icons.bluetooth;pointerEvents=1" vertex="1" parent="vUEfeBpxAFAEwGMZp27j-48">
          <mxGeometry x="144.60552117263842" y="31.75438596491266" width="15.508957654723126" height="30.48421052631579" as="geometry" />
        </mxCell>
        <mxCell id="vUEfeBpxAFAEwGMZp27j-53" value="" style="shape=image;verticalLabelPosition=bottom;labelBackgroundColor=default;verticalAlign=top;aspect=fixed;imageAspect=0;image=data:image/jpeg,/9j/4AAQSkZJRgABAQAAAQABAAD/2wCEAAkGBxIOERUQEBAWEhAVExMQEBAPEhsQEBEQFhIWFhUWFhYYHSghGRolGxUVITEiJSktLi4vFx8zODMtNygtLisBCgoKDg0OGxAQGzcmICYtNTUvNjcrNys4NzIyMDUwLTErLS0rMC8vLS81LS4tLS0tLS0rLSs1LS4tNS0tLy4tLf/AABEIAOEA4QMBEQACEQEDEQH/xAAcAAEAAgIDAQAAAAAAAAAAAAAABAUGBwIDCAH/xABDEAACAQIBBwcLAwIFBAMAAAAAAQIDEQQFBhIhMVFxExYyM0GBoQcVIkJSYXKCkbGyI8HRJJIUVGJzszSiwtJDg5P/xAAaAQEAAgMBAAAAAAAAAAAAAAAAAwQBAgUG/8QAMxEBAAICAQICBgoCAwEAAAAAAAECAxEEEiExUQVBYcHh8BMUIlJxgZGhsdEVMiNCU/H/2gAMAwEAAhEDEQA/ANGgAAAAAAAAAAAAAAAAAAAAAAAAAAAAAAAAAAAdlKi5bAJcck1HsQHLzPU3APM9TcA8z1NwDzPU3APM9TcA8z1NwDzPU3APM9TcA8z1NwDzPU3APM9TcA8z1NwDzPU3APM9TcA8z1NwDzPU3APM9TcA8z1NwDzPU3APM9TcB8eSKm4CNWwsobUB0AAAAABlOa+T+Va1AbZyLmcqkL6PgBZcx17PgA5jr2fABzHXs+ADmOvZ8AHMdez4AfFmQn2ID7zGXs+ADmOvZ8AHMdez4AOY69nwAcx17PgA5jr2fABzHXs+ADmOvZ8AHMdez4AOY69nwAcx17PgA5jr2fABzHXs+ADmOvZ8AOjGZkqMG9HwA1lnXkbkr6gMBmrNgcQAAABn2YPSQHovNhfpLgBc2AWAWAo88MrSweH0qduUnJU4yavo3Tblbt1LxLPFwxkvqfCFXl5pxY918ZYLkPATynXcK1eWqDqOUnpydmlZXdl0vA6ebJGCm6w5eHHPIvq1nXnTkmjgakadOpKVS2nPSstBPo2t2uz8N5njZb5qza0dmOThphtFaz3W+Q856uFwjnVTrJ1VToacrNrRbn6TTbjGy75W4V83Frky6r27d/csYeVbHi3bv37e9kWa2cUse53oKnGCj6Snp3lK+q2iuxPwKnJ48YYjvva5xuTOaZ+zrXt+DIbFVbLALALAUGeGcLyfTg4QjOpOTSjLUtBK8nq97iu8tcXj/TTO/CFTl8n6GI1G5l1ZnZfq5Q5SVSlCEIaMU4XblN3bWvcrf3IzyuPXDqInvLHE5Ns25mNRCvzmz1lhMRKhSpwmoKOnKbd9NrSsre5x8SXj8KMlOq0oeRzpx5JpWN6ZLkHFzxGHp1qsFCU46ejG9lFv0du+Nn3lTNStLzWvqXcF7Xxxa3rT7ESUsAsAsBGyiv02Bonyiet3gafq7XxA4AAAADPswekgPRebHVLgBdAR8XjqVHrasKd9mnJRvwvtN647W/1jbS+StP8AadIXOTCf5mn/AHEn1bL91H9Zw/ehVZ0VqOPwtRUKkak6Nq9oa7JXTv8AK5fQm41b4ckdUa32Qcm1M2KeidzHdhGbuP8A8NiadW/o6WjPdoS1P6Xv3HSz4+vHNXM4+T6PJFm33TT1tJ8UcHcvQahrLyg47lMTyUehRjo2WzTl6UvDRXcdjhU6cfVPrcbnZOrJ0x6mWZoYeGDwUZ1ZRp6f605TailpdG7f+lRKPKtOXNMV767L3ErGLDE27b7rjA5To4i/I1YVNG2koSu1fZf6Mr3xXp/tGlimWl/9Z27MXjKdFaVWpGnHfOSivExWlrTqsbbWvWkbtOles58H/mqf9xL9Wy/dlF9aw/ehZ0K8akVOElOL2Sg1KL4NEM1ms6lNW0WjcNU+UDKPL4yUU/QopUlu0ts39Xb5Tt8LH04onzcLnZOvLMeqO39s6zXw0cBgIyqejaEsRW3ptaTT96jZdxzeRacubUfhDp8asYcETby3LWGDpTx+KUZdOvVbnbsUm5Ttwjf6HYtMYse49UOLSJzZNT4zP/1t/KGVcPg1CNWoqaaapqzeqNlqsnsujhUxXy7msbegvlx4tRadOWT8rUcTGU6NTSjDVOVnFLVftS7DF8V6TEWhnHmpeJmsotDOjCVJRhCunKTUYpQldybsl0SSeLliNzCOOVhmdRZcFdYAI2UerYGiPKJ63eBp+rtfEDgAAAAM+zB6SA9F5sdUuAFxUbSbSu7Npb2ZjxYnwaWxGIlVk6lSTlOTvKUt/wDHuPQ1rFY1Hg83a02nqnxbJwOZ+EjBXhyrsm6kpP0veknZI5F+ZlmfHTtU4WGI7xta08JQwtKSjCNOkk5TsrJq2tyfbq3kE3vktG53KeKUx1nUahpmMHK0Yptu0YxW1t6kuJ6Deu8vOa32huqtXVCi6lR6qdPSm9+jG7+x56K9d9R65ekm3RTc+qGmKlflKjqVbvSm51Lam7yvKz7NrPQRXVdV/J5ybdVuq35rLObGYitKEsQtBOOnRoLUqdO9k9He7PW9ersVkRcemOsTFO/nKbk3yWmJv28o8mV+TbA6FGpiGtdSWjH4IX2fM5fRFHn33eKeXvX/AEfj1Sb+fuYJlLH1MZVdWbcpydoxvqim/RhHcjpY8dcdemHLyZLZbdU+MsmzvyPQwlChRpUtLFTsnOOlKclCK02o32uTXZvKfFzXyXta0/Zhd5WGmKla1j7U+5OzQwtbJuGxGIxEXCLipwpSfpaUVLW12OTcVv1cCPlWrnyVpT9UvFpfBjve/wCnz5sPyBgnjMXThL0tOfKVW+2KenO/HWvmL+e8YsczH5e5z8GOcuWIn1z3/mWe+UnKHJYVUU/SrSUf/rjaUvHRXzHM4GPqydXk6npHJ04umPWo/Jfk7Tq1MQ1qhHk4fHLXLvUUv7yx6QyarFPNV9G492m/l2+fn1q/PrKPL4yaT9CkuRjuutc3/c2vlRNw8fRij290fNydeWfKO39r+uv8BklQ2Va+p9jvUV5X4U1o9xVr/wA3J36o93xWbf8ADxdeuff8FX5P8ByuJ5Rr0aUdP3acvRivyfyk3NydOPXmh4OPqyb8mzjju0ARso9WwNEeUT1u8DT9Xa+IHAAAAAZ9mD0kB6LzY6pcALoDF8tZmUsRJ1KUuSm3eStpU5PtdtVm/c+4u4ebakatG4Uc3Breeqs6lAwuQ8p4ZaNHEQcFsi5aSS9ynB27iS2fjZO9q9/n2oq4OTj7Vt2+fYYrN7KOL9HEYmGhfop6v7YxSfezNeRx8fele/z7S3G5GTte3b59kLbIOadHCNVG3VqrZOStGPwx7H73dlfNy75I14QsYOHTFO/GU7OHJssXQdGFRU9Jx0pOOleKd7Wuu1IjwZIx36pjaXkYpyU6YnSpyBmXTw0+Uqy5aad4Xjowg99ru7972eJPm5trx01jUK+Dg1xz1WncurOHM2WMryrrEKKkorQlT0tHRilqektXb3s2wcyMdOnp/drn4U5bzbq/b4uijmdi6cVGGUpwitkYKcYrglU1G08zFM7nH8/o1jhZYjUZP5/tDfk6n/mo/wD5P/3N/wDIx939/gj/AMbb737fFLWZ2LT0llOelbR0vT0tHdflL29xp9cxf+f8f0k+pZv/AE/n+3HEZl4qrFwqZSnODteM1OUXZ3V06ltqQrzcVZ3GP5/Ri3By2jU5N/r/AGj0PJ9WpvSp47k5WtpU4ShK268Z3tqRvPpClu003+fwaR6OvHeL6/L4uzFZgVaqTqY+VSavrqwlUSi+yOlUujFefWs9qaj59jNvR17R3ybn29/eYbMTE0lo08oypxvdxpxnBX32jUWvUvoLc7HbvOPf6f0V9H5a9oya/WPex/OnIMcFOMFXdapUWk4uFpWbtpN6Tu3K9lbsffa42ecsTOtRCtyePGK0Rvcz7EXLEa9OfJYirKpOKjJxlUlUVNySej6Wq9rXsb4ppMdVI1+WkeWL1npvO5/HbI8381sRUoxrQxcqCqLS0IaSvG70W3Gavda+8qZ+VSt5rNd6+fJbwcTJakWi+t/PmzHIeS5YWDU69SvOTu51JNpW2KKbdl9yhmyxkntGnRwYpxx3tMysiFMjZR6tgaI8onrd4Gn6u18QOAAAAAz7MHpID0Xmx1S4AXQAAAAAAAADpeKgno6Sutq3AclVW8D7yiAcqt4DlVvA+xmnsYHIDCM9ciYieJp4vDw5TRUE4rW4yhNyTt2xd+zcdHiZ8cY5x3nXxc3mYMk5IyUjfwV2Ts1cRjK8q2Kg6VOU3Umm/Tld30YpO6XZd9hLk5WPHTpx95Q4+Jky3m2SNQ2PCKikkrJKyS1JJbEcmZ27ERp9AARso9WwNEeUT1u8DT9Xa+IHAAAAAZ9mD0kB6LzY6pcALoAAAAAAAABgMJPl6uv/AOap+bAvcKwJlwI1dgdVwJOS3+r8kvvEC6AAAAAABGyj1bA0R5RPW7wNP1dr4gcAAAABn2YPSQHovNjqlwAugAAAAA+N2A4cr7gOMsTGO12AweD/AF6ttnLVPzYF5hQJoEauB0gSsl9b8kvvEC6AAAAAABGyj1bA0R5RPW7wNP1dr4gcAAAABn2YPSQHovNjqlwAugAAAAAr8Zi7S0d332gKFfSTe4CjyliXKT16uwCnwHTl8UvuBkWFAmgRq4HUBKyX1vyS+8QLkAAAAAAEbKPVsDRHlE9bvA0/V2viBwAAAAGfZg9JAei82OqXAC6AAAAADGsqP9WfFfigOeCm9GQEeNGDV56227a7JLuAp8Gkqk0tinJLhpMDIcKBNAjVwOkCVkvrfkl+UQLkAAAAAAEbKPVsDRHlE9bvA0/V2viBwAAAAGfZg9JAei82OqXAC6AAAAADGsrL9afd+KAYPZICqxtfVa+wCFkra+L+4GTYUCaBGrgdQErJfW/I/wAogXAAAAAAAI2UerYGiPKJ63eBp+rtfEDgAAAAM+zB6SA9F5sdUuAF0AAAAAGPZUp6VWdttk/+1ARcLVtdAUmUo3YHzJC28WBk2FAmgR64HUBKyX1vyP8AKIFuAAAAAACNlHq2Bojyiet3gafq7XxA4AAAADPswekgPRebHVLgBdAAAAABS4vr5fCvsgKXGScXpR70BBpR/wARVjS1xcna9r21AdsMOqVapTje0ZtK+0C9woE1ARq4HUBKyX1nyP8AKIFuAAAAAACNlHq2Bojyiet3gafq7XxA4AAAADPswekgPRebHVLgBdAAAAABTYzr38K+wFLiwOjJK/qafxfswOzEr+qq/H+yAtsKBNQEeuB1ASsl9Y/gf5RAtgAAAAAARso9WwNEeUT1u8DT9Xa+IHAAAAAZ9mD0kB6LzY6pcALoAAAAAKfHdf8AL/IFLi0BHyX/ANRT+NAd2L/6qr8f/igLXCgTUBHrgdQErJnWP4H+SAtQAAAAAARso9WwNEeUT1u8DT9Xa+IHAAAAAZ9mD0kB6LzY6pcALoAAAAAKnHr9ZfB/IFLi0BGyd19P44/cDvxq/qqvxL8IgWeFAmoCPXA6wJOTOsfwP7oC1AAAAAABGyj1bA0R5RPW7wNP1dr4gcAAAABn2YPSQHovNjqlwAugAAAAAqsev1o/D+7Ap8WgImB6+n/uQ/JAd+OX9VV+KP4RAs8KBNQEeuBCw2KU+y176OvW7beAFlk3rH8L+6AtAAAAAAARso9WwNEeUT1u8DT9Xa+IHAAAAAZ9mD0kB6LzY6pcALoAAAAAKzH9dH4f3YFPi1t7wIWD66n/ALkPyQEnKC/q6vGP/HECywoE1AR6yAiwoRjK/Gy2pX2/YCfk3pv4f3QFmAAAAAACNlHq2Bojyiet3gafq7XxA4AAAADPswekgPRebHVLgBdAAAAABXY9fqx4fuwKjFrbxYEHCR/Wp/7kPyQErKK/qqnyf8cQJ+Gj7/sBNUff9v4A6K0QOq6QEvJavKUuxJR79v8AH1AsQAAAAAARso9WwNEeUT1u8DT9Xa+IHAAAAAZ9mD0kB6LzY6pcALoAAAAAImMwzm4yi0mux7GgIryS5P052W6C1/V/wBKwuTqVJ6UY+l7Td5eOzuAqM4aOjVjU7JLRb7NKOzvafgByw1QCXywEPE4kD7h8NUq7Fox9qWpdy7QLzD0VTior69re9gdgAAAAAAI2UerYGiPKJ63eBp+rtfEDgAAAAM+zB6SA9F5sdUuAF0AAAAAAAAA+SimrNXXanrQFdUyTG94Scfc1pLuARyW/Wqav9Ks/q2wJVDBU6euMVf2nrl9WBIAAAAAAAAARso9WwNEeUT1u8DT9Xa+IHAAAAAZ9mD0kB6LzY6pcALoAAAAAAAAAAAR8XiVTV2Bj+JzuhTdnYMbh1c9aW9A2c9qW9A3D7z0p70Dbsp54Unrugy+VM8aS7UB8jnlS3oMbfXnjS7Ggzs55Ut6A6K+dsKkXFNBjcNVZ+VtNNhlqSrtfEDgAAAAMyzOxqptAbtzfzqjCFm1sAtueEN6Ac8Ib0A54Q3oBzwhvQDnhDegHPCG9AOeEN6Ac8Ib0A54Q3oBzwhvQFfljOiM4Oz12A1LlPEvSnKN9V2ldtt2uczk0rW9ax6/a9z6E5OXNxcuXJET0+H2Y9Ub9Ud/UqsBjqk6Up1HZpu2puyS7Utb13Nc8dOSKU8PxSeick5uJblcjXVG4iejeo7f9Y7+Pj7HzB42U5pcvpbXo8lKF9W9szkiaV3Fde3q2xw7U5OWMds8Xid7r9D07j8Z+Z8HGeUa/KyhCm5xX+rQ7Fr0nqEY8f0UWtbUz+f7NbcrlfX8mHDgi1Kx4aivl36p7fl5fhtJxGNlCEW5um3a+p1LO12tX3MYLXnLMx9r89N/S2DjV4NMeSYw7nf8Ar1+czHbXhM+PgkKrLUnJvVdu9teognLbdrRPi6uPgYIpixWrExWPL1xERuY/OfH1oeAyhUqOblqjHo2b1rX+yRYz4/ounpmduT6J5f16c/01azSPD7Pq7+6HzKOOrU9CNO8pSdm220rW/nwGKYy2tbJPh7WvPrfgY8GDiY43ae89O/Lx/Hfj5R2d+IyiqbtKclqurKUu33cCLH9Nemq+H4r/AC59HcfkxfNERbXb7Mz6/HURPft2nxfMDi5v0+V0432aLp2txZPToi8UtWYn8duZyPrNuLfk4c1bVje4+iiv4+O57fv5uzLuUtOGt6zpPEsAqbXxA4gAAACThMW6b1AXNHOacVZNgdnOue9gOdc97Ac6572A51z3sBzrnvYDnXPewHOue9gOdc97Ac6572A51z3sD486pvtYEWWXpXum14/c0vjpf/aNrXG5vI42/obzXfj8y6oZYlG9pNXd3qWt79ZrbDjtrceDfD6S5eGbTjyTHVO58O8+fePH8H2WW5vbN79iX2RiOPij/qlv6Y519byz27+qP4j4PssuTas5v6JfZCOPiid9Jf0xz71ms5Z1P4R+8RtwqZWc0lJ3S2akb0x1pO6wrcjm5+RWK5bbiPDw90Ozz7P2n9F/Bp9WxfdWv8zz/H6Wf0j+nCGV3FNRdk9qsje2Otp3aFXBzM+Ck48VtRPj4d/V5OUctzSspO3BP7o0nj4pnc1WaemOdSsVrlnUfhP8xt8jlqavaT1u71J6+9CcGOfGrXH6W5uOZmuWe87nwnv4euPg5efJ7HJtcF/Argx1ncQZfS3Ny0mmTJMxPjGo/pExWUHPUTOeggAAAAAAAAAAAAAAAAAAAAAAAAAAAAAAAAAAAAAAAAAAAAAAAAAAAAAAAAAAAAAAAAAAAAAAAAAAAAAAAAAAAAAAAAAAAAAAAAAAAAAAAA//2Q==;clipPath=inset(9.56% 19.33% 19.33% 17.11%);" vertex="1" parent="vUEfeBpxAFAEwGMZp27j-48">
          <mxGeometry x="16.05652551574375" y="62.23836257309942" width="64.68269272529858" height="72.37513572204125" as="geometry" />
        </mxCell>
        <mxCell id="vUEfeBpxAFAEwGMZp27j-54" value="" style="sketch=0;pointerEvents=1;shadow=0;dashed=0;html=1;strokeColor=none;fillColor=#434445;aspect=fixed;labelPosition=center;verticalLabelPosition=bottom;verticalAlign=top;align=center;outlineConnect=0;shape=mxgraph.vvd.wi_fi;rotation=15;" vertex="1" parent="vUEfeBpxAFAEwGMZp27j-48">
          <mxGeometry x="136.85104234527688" y="105.84795321637428" width="31.017915309446252" height="31.017915309446252" as="geometry" />
        </mxCell>
        <mxCell id="vUEfeBpxAFAEwGMZp27j-55" value="" style="shape=image;verticalLabelPosition=bottom;labelBackgroundColor=default;verticalAlign=top;aspect=fixed;imageAspect=0;image=data:image/png,iVBORw0KGgoAAAANSUhEUgAAAMcAAAD+CAMAAAC5ruGRAAAA8FBMVEUAAAC8EUL///91qSi/EUPFEkV3rCnCEUR6sCp4rimpDzu6EUGBDC2FDC+uED24EUGaDjaODTKlDzq/v7+UDTT39/dunyadDjdqmSRkCSNYCB9vCic4ODhzpidjjyJdhiAuBBBPBxzLy8uFhYXt7e1RdRxYfx45BRR4CypQBxxHBhldXV2goKAwRRBKaxkaJgk9WBUjMwwdAwq1tbXY2NhDYRcOAQW5ubkKDgNYWFg2ThIgLgtra2sXIQgzBRImAw0tLS2VlZUeHh4SGgYTGwYUFBQYAgh5eXlISEhoaGghISENEgSLi4sqPQ5NcBs1NTW/Wtp5AAAbG0lEQVR4nLVdeUMTPRPf0r0KpaVQ2nK1UMshQi1yCCiivir4KDzf/9u82SPJJJlc2z7zjwi7SX7JXJmZZIMlZ5psbIwn2Q8b734Gd2cT9zfduzh7Dn6+28h/HG9seHQRuD54GRT0Zrxb/vRuvLQ5Pjvb8B+uQhtnZ+PNpfFd2fLu+E3505lrCw44rjYuN66eAz39nQcCoTeGtp/z3heA46+hE0aXV5dkYTY9x79JluHy6sylA+tU2XDs2vvg9NkHyeZnn6afK+L4+PSvTzeUHDigpKsqzX/9fOmF45utwfPbOYFoYZz/YT/ifXxzx6Fjplnv8L7sYu/oFu/MDYgCo2zmvPda/PBwPRr8Dx/FrhOOyUSBccvGep6mjdF59tNF2pgW2F6lp++ed3+b5GTz9+7znfTOwzD/5/0gzX+4ve6l6YD9VcbznA3ShGPz7z/oDBzujab56IP7tB6nvWxRevVG7332q3TwR31Db1Q2hOeKV2fpYfbPNI0bM4LiKG3U670C2exosHeBjemfv8JkQRwfURBlD2ljMCXjrmeUDj4FcZ0gygA14vgle0ZkA52iFG3FNF9TMu4Mx5CMPj4Mpg3SdD2+JpN2tJeS/yDTpE4WwDEWn3qZTV+ns/NidIOs6TgdHMY5ELImBaBpMCW/yfEM6u/h679RGL+FLl7zF7Px14M/vbzpuNfIW64PDutp9pvGPRvN6/T+QXh/jOKQ0A7TOI4babo3mv0JhsX46+U/jNJR/puUcN0grgu9vENgvBN6OEwzNsphxIM9ueny/43z4PxwQOQyH825OEYMh7QcQTAqZ4a83pM7UXp7uCCSI7LAZ8tqTMkbw+CogU4Qp716o1H+NX2RhniF4LgMZDrSN65QzmdxLpyMvWRNz6xS/sQszdfBo4+6IvCXehyvI0LD0XA4HPQ8uigozpTl4Yh2MxZgsAV/nwaZCvduvT4YDIejnIYXWhxj2klMyb+jeoNgGBRaNCOoGjfpL28zvfC+UaH1Oh1ZOpInKlD6ua4wUQDI4Z+0ns7Ktu4ADub59+J4FOzN0wlRb/I8AZGnysSLZRWKM25MKSdzFc+MU6bhYr3icKG09I6Abgc4qKV9mWtBCtqjo+YdLWS5c4oHyixBHN9pV8O5Jqvoali2RXUW3Y59WsAkMSvyHcPB92X3i+iLisimKOTzMVRBPTbSMwTHT/bXYP6uyIqUbRWOFnWrppXUlNTylA30u4pjwmEoBrBXQQfHR1BCyp9/+K90HO9JdiwF7s+mDsfL4fX9/Uga9t7RtJf6QqE66wzwrNywFUSjMZrK4hrP7onTWDQ4UXDQKSOuckPpLd67/nQY+0Ghov6Tt33htxzEv559GqmjaTQa6TVYbBHHnbGvxt4suB96IaFe3Zh5JD6KME7rh/8LRniPVPPeIThoZzoFn20D/7zuuUOhC/J5qYzweOjcOB3OMsce7yym5gnzd5k9n+q6Swdkhu8HzkjS0vOlbOXsPzfiQ/LqVKdd4r1y64nbc6Z5ZzogZJaIrvh05IgkLv3Fp7JdN51L9poZ88/qusfj3i2XPAwH02Yv+m1T7svevmo7EYh5J8X0uLxDpipznl56Wh5M2bYgwHGADeGDoaN6riqu9xyYXdy/OShdgiLT1j+G+sYbR7zFMYqj9EhztX9t6DPt5cOb9azzCywvISsMsq3IJUon3gXl81wIyEfTepynw9HAPMR0lG/E7/WLXw5sCGDYjEecHuWGembYq+c0HPV6pvWgvhwRY9vUxTSYaOEuKCBm8SBrkaN4b2Ap+mjMFCEu5zSQ77KRKpkruDZKfApwvBpaJXLxKbCzFG219KU/a3AwV9HJuU5LgXtVHQf+DHDpDNYjN0wZS++5qDTqkwQTDQ4emHECEteL7eWtxnnIuvzkgCNzeXIaOdl7BkPIHYrxdhYHd9ujp8PCIl0MdL4MWI9DjY+Rlq6rVb7LJukGTYxXSnkD1uvQydDFcdnqNa4aoHxM8SeGBdRbu3wXz7PI6JIBxybv1tEZSqlqRZmiB3DcIzNDWTO4d92p8ZDipgFHKemfLh4+zRwbjuvlDJ0rkWa+J8xnXAVKVYWjZGQG6eXhfdnfxICjXI/bXmpQQtrRHMmjEcPjyr5ur/zzhToDWiBpSuXctB5LNB/lFYtr9B7wJYFspUR0GXztPgElKudfTfLBgz+OYldQng5TGUTOVsAFieP7Kj2xUKJcsSHnOVn059CveTq5QGDTo0CkPxwH1dg+PFXPhJHK+fclMw4e/nFWITk1BuXAflA3uDEMZGIR15Q6wtotG0oghysnbJW8M89sP+isG0pxndruQtzBdofTRT43cZ3uS7wWPU75NsCcd84J2JBrn8ni4kAmOW5cBxj9IXPDls5TCAc8j6oMGqtnKB69/fHw6X7gB4SO/aI+0iaLZ3tMbPxivY3py8OPHx44/qGT1fANxqZybYOJ/nhJeAaE2I5CW311wkFjyq/+wVieUbPSD18YmeEsOeuNEw6msl7sO3AFiKxrdfTg5t1CFLxtpG4Rq/fhtRNTD/ekBOK2Iv/zhpEOmIuILIetbunWNebG+8MVlUS+TJXSvVbgWrckAQke9Ls9vMd7ZNgK+eVSIQochq6uD9YO/vCpa2B5KDPhmyoN9QCK4AkfsLY+kb954YMjdhP0Wx8N0pvxojtdYZe2XrT0T873Ur+kx4Nm5BJ5rTGxHKMCirZqUF/3ylnAQ2k5LgdZEK+UzoA6ZPrRav/Cte/MPeWxh48aIVdPN07jI6Zx9eXIehzAXwzeTwdOO90ULSXEaeQgIgTECOo/ff2moZ5aLFd8uB7aYTjpXEp23ds7EneUhiMBprpwqe7ywtavHwwCxLIisbQTM51sMNa3T0A94cuhpdeGWq5mIyXAIgPpzbj6+208DWKp0598oxGU60Fe6qjtEt3/2eje4GZldZXxqFRU/9qOzdjPf7D6rz/3r6NBL1PmasAt7Z3rxmqmQ0R9NBppvDcYHk1ZWs522sAFh1J/+edFCjnH6bAiiiDLmcop+d7sk/yQ7pSBDw5el8WIZw+zmtrB1NGG6+h+VIcpMNUGfbcP0gHHRG52WpRiEgZrDI5m2p24D71MR72ssCWn3nvprw7nvVzOeW2KxwMOh8Ph6Ohwen0+5zrIdHF//XqUVdwOhXz1ncspH7fzaldPur7N9Ph2p9npdDurO9vHFcG9cTtQ4nzubiKf2bDRzVZ3JUqSMKeE/LB+4o3lzvkEoSuOyTt7r5C2+1ES1gQKw6h98sGvmXeuQBxxOB2O47TTlkFQLNGa56I4noR0wjHxOn0XbK0kKIgSSX/fq7VdpyVxwaGeRPh1unWy2iHUPNk6eBT/9qVlQFEgWfUC4mAFnXBIknF80s/ktxRgIsFRAif4JMI5ClLSPmXPP241u+utdnul3V5e6+wc3CBAsCMxvjgmgjnfb7YV+a1FfFTBumUx6Csn9IVaPiHFQuWz0lp9qwD5buUtGw7hoN/bdXSy2+yBX237YpRL0i1faSlvhEnYUZSBzYpYcMDDRqfLOMtE2/SJDyuuMAiQfvHOFraAYbR+KgEZz4MDwLjpahg/XGPPOK9GDqRckWX0JYLkiw8QIw7AVG9D3Rg5V637wCDruJO/9aiRqDBqerCWCQdwdJuRdlr36TM7biIOgBSvbunaTlqiSjcJuwkH11Rr2iFGXLn4rQahsBSRVV3rYXIAcXyvhoOf9tMr05I3Ki0HW5Cgr52CaAsCUU8kOuDgUZ++HgZg4a73etQSakVU5YsD0Ud+tDh4OFG77LUEOhhr/ji4qtNrukiwiv442M5JK4a1pAO76FTAsU5fvtEDSaD+1WQ/9DiYrvqgX40uhIEbNAuOPnv7l96EtmEvOp2lw8GcQ61REFcjqKCvaiEQLz2QEM4Xfhxci4Mth5arVOf7xHtBIuhG6X0z6IfqFkSDg0nHiq5tydhmpNc6OHHxyEkvI5CzsKSzHgd9S2cUgN0AM1rzA5JIOzDtRCRQ+frgYDvAtgbGVoDRo4e/C/1kRjqDCxcEtyE4DhrjeYu3m8hONaNldxlBYGgdoAQ8i0s6joM1i81vWPuCjKCkpsO2Nh9ZG4+bdFC9IkiSOw52xwi6x2n90sMgO198zyi1oQ81nKBAIhD3GjvjoKnabQRHso52D+i4b0ZCNuEdQzhuGwOSAL2CXvBjrJNBXA2nmM3jSUuNRlAQ0TKm6+A8IGoPMhaa1EFx0DdUbaVRVCrt7/RrZXS3GEgRDGl3t4xcmdMvRP8m4O+uOOh29kZe4bDmFdR83D7prK23Wu2Vdmu532luadWcTKragioSM+kYDrrzOJVaS5axINlcdPO4j66PIu1QQDALguGgQWnJg/UNZ1rocafbCqMoiaLaemdLNu2nUlwjBF4pFrrGcFDnqgmbChPMbhE63iLc01/rru44sw2hHagJiOhELSmlcCOaVCjo2CYEw0F9dqiukmVMVd5s9cOIR3qTvkUVUToJVXUWRn1xIlYF3gKuCRbuxXBQtQusOebeBgdKrsZiGkp6q8krhNG6oEdOoQIGCgur7MNw0OfZFgp1It62UHNnzwrgrkf5srg5W+OPRvy3P7Ex23Eogb2MvmiCvRnqFaOgmF3JsCa8vM2WBHomVXCQxZZ1SWBzB9HdSUnWzZY0azSsPB+OMFoWQnoFfbClnPS85bBnTPrCG8cF/0ZgNj1xbCXtDsYism63TyojfYAVAmmJL20THg4jYIPdcNhuzNQHtCAQ1BFzejXbGkjvHTfXIKsikXcEh+Vi0R23sdDYLaRfrrvFcNk4hH9dcOhvUfSZUnVOA58QsCQjMn2047Bw1YEjDNGzK+iL87sghI2TwlkyDtPdxIT2PWJtofyyV0Q+MntrchhLOpdqK1zwyQDKU6psZyxkHsmu4VyqUjE214zKI/FM9IRdfAyMJjocVhhv/WZU8vQ906Bi9NcGJNDA+IJtQnXBXg1JM+obxpY03v5yJLsJEwwHrGcnPmkSKQGepvdI4NsH/uF4uJ6/MiciqYleEnZ/IjB/p/kGIVkT3gluvAeSQM7wTysIC1JuhsQl2VVxgApEusmXVN+qd6JGMCEV8qBgAI9UNMU44JOMA1y3zHy5OfmbNAAnz1fMxQHw1QzbMMKyIeIAwgH2OTD4VSU/HkLvouX9OhwAmIWwDcNPmwIOXisGy1aE/IAmFWLE0ZrvfZDAEUI3MB3yG+LgdT1CaQHk72NPa5wT7NBTaRcjpqpmX+hdcIfHAAerJBFz/jD41fRn75pg0ausB9PcUkIJFiB85ThYGk2K2cPgl28SUxhG3kAVHFRzy8l5qEovGQ56ucSNPFbA31XYqrYCcFTQV5yzFSUDOPYnxcF0rqLi+Tg0mUILQTmvYD84ZytcDZ3pjRIHddZPlTnnes/fGtektF4lAWMlWsrLCVe+uwUOtgNUV54H8SpUwYh6Ak3S2amlwwFrOq5yHHQLqC4HwFGNu+FO6rGShNV0OKAO+ZvjoP9DkswcRzVtI3in8yheBAcscshwMLZC1p3jqGLFYGy5KmuWEooIFxS+K4KDXgqH1U9xOa8kHmIUqpKAlOtxgvQPZukbwUG1FVbsyPVuJRxSoGEOjwBzUsG2+XmJXSqLuuVc/1dh7kiq36jCWC09s8BdwVJAxUNOzuZPchasIOdqlNZfY1H7gZlhyLZXAfWtsJUDpev6ElstqQFFf+VN5/wYrXThLX8MqJhjiw7smP+mVo0negRVKVHlisbwQGrnW0Bv+MAmHAiqfzVogqRA8LMFBmLZG+xFsM17CuhxZkwAgKnx5211OSq0wkQMHR5XWHfB1/InTCHBfa0vDDxg3vGMjbI1xSrawDTzuDTWDMxl+SpNoXqYk5/+5skgTD4BDv5xBnSYYACe4UBd2B9xRvUE9D7qbWC5O8SBEutrvWZSKbZm5LORibifiSleIQ5OVwQZphBG84pfYUk1Sk4p26IV6J8h6wjE9yeTEEQlSuvmDqMWmopMnJWv4NcgCgucv9wNaKkuohASMQHhbkIsOTHH0ItogLBaSf7XuwAttipItgCuE4lWGAsNucyI5PUjswiY9ynQbz9COQGiPwriB8N0Uon3viIWEe4rAgLD6GfBhv45xbFwyqsl6vFYlfTn+GjnNbk6R1GoQsliwLJp6oDUChl7LUO4YigaB3RgPpsQtpUiI0VAoBqY8H2UEifDHCQbEHu1NSPdOVddM8q2GHoMZD9IjwnKAhKipRHbmjrp4hVly3G61eyu9fv9LlK8e6wrRVObyUmaQmjdfhMcLEgtV+tqznhoa6/CaE0wG6fNFrsvozxZLnHqAVbTH0ZdvORa2lnAtPQlwcFSURJjRbqi450QP2rdF047nbQjuUyLgKmtiny/vyqcyydPrDR1NlRkGEEtb2ZxOGoJxc2BonUBNWtKnWjYgfL9oaNjfjLb+2JjX3a6rSS7KCGK2v2myYIKOKBzdZfHE1m4Xdg+a9iqpO0urcLPq+87osloGoUoQnzIX/vHx/vqr0USGAZ6cBtFvJ3+V/Spba0+bu+sdjqrzZ0DiZ1P27YLM2ouJkYlyDDCcdUyb8AuWQGShO2u3Qg/UCMStiQOxBlGUKZnNB9FfwEcjwRpxokcXI6seXPhnoY4w4RQCbG8GlsQVrRXeTlcD6yFmn2vmahTHkEFfsbztex33XIYlXoJfAI71YCUMIQYBsg786qMggWtpU8act/rWWtCKd0Qj6Db2SmNynGmCcVaGZg/B/UM60SbRtX0iWcSMbEVvBHaWi+OZST0dqOsCkvwWoR6BlhfsrosWypX8o2yWTcqW+D6qZA+LbkZUr2P8pXqCuSdWwiN561OJU9OTkPkNJbrr/4iD5EpJrZu9WTb6RaxCoViJs5alV0bLAjDLrLl9XDI/W8ntZw7M8+juW/FUSFthk5xTphbrfIh9j1I9i0WSh+gfxFG68gBCkje1Ys1w4K8xTw0RcP9s4ThkEuppZpj+fSSTP4oCEX4VkPj28jL9wbFIV2fpl5bgnqqlKqVK2ii8hrFJ0c+8O/2iWXIaHVoWNMyV6UyGDyAqrWm8tNo/S7wTjLSaB/tklSCgTKW4Wo2aY+6hOOAl+jr73xooUofTUQ6kLpdM90wJ8bGnjQ4BAHR2mb8WoMK1aRFa/KJMKPfL1YWfNTggJXhprQNEqCrks8tRiZFl8yepqinNzU4+BXOlvlFHKMKty0VJIquJX8oWBDhXgABB7hF1Fy9pgKpVJ+VE2zFvicGD+u/owg0ryWtqQDxzoxTgtFX9IoJsV/wtPYcC2QsmzmQUzWLwOGQlwCKV7xuQsTBNZbVrAmXii6GrxzmApRiXBpwcI1lTZdL++sFyLmL3w9wGL8/yO7os1epihpzfr2ruw9Sg0O65kfCwQIODnZNOEI7vx10qozi8rFhxMF8LBf3Faqauf0St0IHrq/kcUv/p+nbLy44oHWt6ifSPIJbMpoJpXxnhoyDxRucuBVsrCoKOhVzt6OJPJkxtuBgptBFkcIcSbV9FNsZudkfzgHW70HSB53K6uGCVFoPylaOZUA8cagMW/4FrTdxqlMChZiVzhMwreu4m2SVMcoVJgoOFm1w4hNgl/yPSYL1dHyXZTOU2wcVHMyCOAkujBP4B37YcjpaH240lSuXFBzMNXETXOideMdFE7o5d/QyuXgon9JQ72dgPq9T01DSvWr2asAh+OX4IjuDo16tpuJgmyknwRVCSn6cxZWEY2UX17rqlwJUHIyxPrjMkhhS8qkeB2862lC+9uoXWpD7S1hOx0kZiiEl91OGsL7K8Q1mdZELsBAczDVRS7IQksqtXPeF4QrX2E79wOju2AnH0lefBZEPqzjmnWE0z008+FnUr8iYMRzMhLgU8imhf2upG6FIeMlNoXAN73pfH18Qh0tw1EjzqelzLPkrUjDUTQ4ZV2HLgePgyUKXunoZB5ISE1BEa1Js2kWmwOZz7IxDc6xe04OKI3jUFu1h2SCHM0sgR41/nAXHASK91ptwMBxEtJoryNWCUplWSfaziXCjg3/dS3PdMw9kfbBdOo3jIHS6KtX1yWValOwwgAxqPvqju7+dZ28fLUBMlUE3Bzur3f76er+7uqNPXtv8Sxgqu9OMV/tdAP7qBzNrVS2p4WSRQUEjaoer+wO8z8t0PV+4Jg/Lm8x6VyjVqvA94Q3Yk96OWC4OcyFjQFQwmRW+myF+U21LWzkZIbdEepKhviYUinsM31ozfVfmG2jil+bybLzq2pO0XnLS2neDYf5eEQQSvG1ha6Lc7V+FNPkbqT7c+OU7Iw6pxGFbKUivXHEmUReRkDBZFbY25q/FmXHIZVnHeRl3CSYMo+WqX6uUSfbIwqTWFL2wsXmgFhxLk59Sj8fZtdJJFCXt/on5qMeX7ZPVtfVWO7/zPKy11teIMdSx4X4XmP6o1pUsv/VDcTYc8PNLgG7MN4fv73RaSfFtPzDHuXMSrjc15XwHJ9315WWCdmtf/pPhg0vOOGwXdSq03QHMh/A9me/1Hftt9IBMH9p2x7G0+dneFaWDjD90EAD7R31nDaH9RpEvDuKkPNu7y0j7fVEEStRyQnK32O/XXjl899X4fVEMid01++2Gwh0H4S7Lt19v1v2P2rfN6uLM5YvIvjgsV9ratik4EOPxNte18MWhfDoVktcnfhgZTuI6fCS1Mg7kU7YlVal6rWF3g1By+WhtdRzaTwtXrC/RHWJ1+4jwHDh0n3quWieDw3D8qPNcOJYmmDGpVpeBs9Wz72JUw4FLidc3X0vCrz/wlIw5cAi3w5bkUsih4EBCQU5eyMJwLF0pxxPsRXkyIUrX0QtZHA6CRNZcrjfUMxiKrtqtimIeHGSz+DwPEOVjc8/jOcYyDw7Fe3T4EAUl5d6Ad9XXYn4cRAkLMRXrh0HYYkiO1bcKqnahOAiN4TbLmMJhiyEeZPw8nn8QC8Ahmvhj+5Iky/sQRiV7IdNCcIiGcadmRJKsiNlBh823Ay0GhxDUzs656ba3YbIiuiI/5xWMkhaEQ95jbS0rtzMUgTvp2EpF663SonAsTb6KI9zPv6XIj5Xmn1CTdO3P8aJ6XxwO6VhSRjfbzbVWLYvHrbT6q9tKyMrfO9fTAnFIQmKjv+5BBAdaJI6lTTSGitK3haJYMA5iE7+6gPi6EJMh0IJxLC19lAP0Cj3N50nhtHAcRExMQdRF+CAY/Qc4iA7GD7MHT+P/orec/hMchK7OpA3ju7P/gp0Y/Vc4MppsnL35fPf87/PT5X+KIaP/A9pfbpsVX/WNAAAAAElFTkSuQmCC;" vertex="1" parent="vUEfeBpxAFAEwGMZp27j-48">
          <mxGeometry x="231.10000000000002" width="34.47" height="44" as="geometry" />
        </mxCell>
        <mxCell id="vUEfeBpxAFAEwGMZp27j-56" value="" style="shape=image;verticalLabelPosition=bottom;labelBackgroundColor=default;verticalAlign=top;aspect=fixed;imageAspect=0;image=data:image/jpeg,/9j/4AAQSkZJRgABAQAAAQABAAD/2wCEAAkGBxETEhIQERIWEhAWEA8QFRYQFRcYFRUVFRUWGBURFRUYHSghGBolHRUVIjEjJSktLi4wFx8zODMsNygtLisBCgoKDg0OFxAQGy0iHSUtLi0tKy0tNysrKystLS0tKy0tLSstLjctLystLS0rKy8tLTAtLS0tLS0tLSsyNzgtNP/AABEIAOEA4QMBIgACEQEDEQH/xAAbAAEAAgMBAQAAAAAAAAAAAAAABAUCAwYBB//EADoQAAIBAwIDBQcEAAMJAAAAAAABAgMEERIhBTFBIlFhcYEyYpGhscHRBhMUUkKC8AcVIzNDU2Ph8f/EABgBAQEBAQEAAAAAAAAAAAAAAAABAgME/8QAJBEBAAMAAQMEAgMAAAAAAAAAAAECESEDEjFBUXHRgfAEEzL/2gAMAwEAAhEDEQA/APuIAAAAAAAAAAAAAAAAAAAAAAAAAAAAAAAAAAAAAAAAAAAAAAAAAAAAAAAAAAAAAAAAAAAAAAAAAAAAAAAAAAAAAAAAAAAAAAAAAAAAAAAAAAAAAAAAAAAAAAAAAAAAAAAAAAAAAAAAAAAAAAAAAAAAAAAAAAAAAAAAAAAAAAAAAAAAAAAAAAAAAAAAAAAAAAAAAAAAAAAAAAA8cjCVRAZyljd7Lnua6FxCazCUZrvi018UfJf1/wDruNaas6Mpfx9ajWnSxqqLO8YeH18udTY2VrJ6rG9nQq8sa2nnu0S0yfplGZtjzR/Im1pimTHzm/D7pk9PlFt+oeM2201C8gvDE8fJ59GXXDf9qFtJ6LmnUtqm2dUdUV58pL4CLRPhr++tf9xNfn7d6CBw7jFvXWaNaFTwjJZ9VzRs4hfRpRy929oxXNv8GnaLRMbEt1e4hBZnJRXvPHw7yG+N2/8A3F8JfgobirrlqnvL6eC7kYpfD4A10MeNW7/6i+EvwbYcSoPlVh6yS+pzTpruMJWyBrsYVE+TT8nkyOJdulvyfhzN1C7qr2Ksn0w9/lIGuwBz1vxyovajGS93Z/csKHGaMtm3B+/t8+QXViDyMk91uvA9AAAAAAAAAAAAAAPGzXOoKkiBcVgN1S4Pm36y/Ute5/cs7Ba4RSVaopRinnP/AA4uTW2z5c/Ln0/G5uVKpHd5ST05zhtZ5b8snzif6b0Sc7a4lRn1WrKb37Mu9eDycr3ycebrxa2R6eueVTwu3hQlquZ17W4UnoqaFKlusb9l6nu/AvqlJ11mdK2v4f3oSVOt45TbXpqRolfcRorFajG5p9XDZteOFjGPdIkLvhtWXahOzrL/ABQThh+DjmK9UjEzM8sU7Kx21n8Tx9wk0pQpPTSuq9nLpSvYaqe3SLl2UvJtlbxPjlxcNW8o0quKmIujGWZtZWYtvk/BIx4nfVpZtqVy7mjJwS1RTnJ5WIptapPON1zJ3BrH9nQoxjVvKjbjHLxCGnnPbGlNxbb54Sjq5nStfWXnv1JvM0rxHr++ErhPDnSapUUneVIZcpLVGhFS3m04rMcYxzUpbJNLJ2uHCEIOc6kox06qstUn1eX03zstlyWyNPCOFfx4Pd1K03rq1Je1Un3vuS5JdF6mx0JvLaz154+eGbero9Lshp/kG+ldkefD6nRY+L+eDD+BV8PXIduVnC6RvVdYzkpf49VdF8TJTmmlJNLPMLEyurNa5Nvlj5d3+v8A5tnb57Ky9/RbN7teRC4bWhDUtWqcnlyxhLHspLOyS8e99S0hWg9ovON8dW31K0huweG1st/Brrk9jTTS67Lfv8SFxe+y8ReXylJPn7vjFfXc3cNqZisgb6WuDzTk4+XL1XJljbcda2qx/wA0PuiGa6tLPL7r6AdPbXUKizCSl5c15rmjcccqTT1RbjLvjsWdrxqUdqq1L+0efquoNXwNdCvGa1RakvD6PuNgUAAAAAAABorFZcxLecSNVogUFWDIdzaRmu1FPz5+j5o6GpakedqBw93bVIPsN6e6W6/155K67hTqLFeipeKSf/v4H0CrZp80V9zwqL6GJ6dZYtSs+XEWXAqEZOdDDlskp76XqT1R37MtsZeefLfD7H9K8LlTpyrVpKdxWlOpOe7Si5PRTjndRS3x4srrngu+VzXLvRdcKrS0xpyejEYpT58tuRa1mPMsV6NazsNFxdNycYyxjqkmQKlndvdVnKPovsWtbhTT1LE1/an91zRsq10oT0vLjB+fI012+7kL2vWjtrm3pg9pNby9SBXv7mCi3VmlLU49p8ovG+S/uZxnltb5WPRbGPEeEwqRprdSjTS+O/3K4WradyUC041cYzKs2veUX9UWPDuMSqNqcYSWOiw/kU9zwSql2WpL4PwNvBbWcW9S0vuZJa6UWieXTW37KeZRa8t0Z3K1bU5L7oip7bmi9mlCUvAxr1cMb23mt1HK93f5Gyyu9Oxz/DuM1oZblqj3S3+Zd23F6FXH7i/bl38/TK+5pzmy4pXiZIhXRVXFKWlSitXVtNN4+5DheMpNsdLrR6oplHSvydb3qYSLQlwjOD1U5aX3dH4NFvw7jEZ9ifYny91+T6PwKulWTMJ0Yyz0yGtdYCk4JeSz+zN527LfPbp8C7DQAAAAAGLiZADW4GEqRvAEOduQ69uW7Rpq0wOcr0SBcJrPc/qdFXtyDVtfACktrvQ/bw+mHh5J8LyMk3UhF7LtLZv8mi74TGW67LINSjWg8ta0u4azixrcKo1N6c8P+stvnyNHELNw3aaz38jCjVi990/H8m63vasI4UsrPKW6x5MYIkU8ZMJpPZosYXtKeYzp6eW9Pbn4cjD/AHYpb0qsZe7Psv8AAZmFflrk9u58iBxOhOcXhL6ZLS6sqkN5QlHxxlfEjZfmThOXGXtvVj7ccLoluj21k877M62pPvW3Ih1banL/AA4fulxxtu6r7fjdSi0ovPuvl8OnoX9tdUbn/wAdbu6N/f6lfW4VSaUcbpLfrnC1Nvq85+JBrWUqTU/ah0xzC9/uvJW0ovEufTHXy7zQ6rzgtv01f646qm6jJRjqW+rrv6o8/UtOOVOMe/VJdX4r7iG7eNhFpcQcSx4feSnlvl9+456zt5VZ4XLm+5I6NxUYqEeS2CdOZlY20u1Gf9ZLfvWTooVTkaGcwy9tWceEd8v1wXVG4DvC5UjIh0KuSVFhWQAAAAAAAB40egDTOmaZ25MPGgKypbEadqXTga5UgOdr8Pi98b962ZDnYzXsvK7ns/x8jqZ0DTO2A5WUce3Frz/PI8VBc0zo6lqQqvDI9Fpfu7fFcmExAo3FaHKTa7nuj2pcU5/8yks98Oy/kbJ2VRcmpeez/HyI9TK9qLXmtvitgmMZWFKXsVXHwqLPzX4ItfgtTpGM13wkn8uaN70vdfLdfI22+Ep9rfT2fPPMmJMarKtpUi3ri8ZljboV3EYTx2N99zqIX9aK/vHqnhr4STNFe4pzaVSiotxcsw25ZLyxbpxMKzhlGoqEJacJ1FnC8ZZ+hohfyVZwjhxb0uL5PpjH3Ohp1oqCjTqSjDTKOJLr1ey8SstOA4qKqpxkk9Wz5+jGudqWjIhPpUYU01BYy2e04Z3ZlOPQ9XcuQd4hlF758MLyJdBkenAsLagG021LCCI1vTJUUBkAAAAAAAAAAAAAAADzB44GQA1SpmuVEkgCDO3NE7UtNJi4AUVbhkHu4rPetn8UQqvCP6yf+ZZ+fP5nUOma5UQOSqWVZe95P7P8kapTecyTjtjdP68jspW5qlahMcl+zqjGMZ40tvbfOfIyjR7Upvnv8zoa3DIS5wT9PuR3wiPTUvDU8fMJ2qyks7L1f28yVTok6FklslsSKVqFxHt7csaNEzpUcEmMQryMTMAAAAAAAAAAAAAAAAAAAAAAAAAAAAPGjzSZADB0zB00bgBo/aMo0zaAPEj0AAAAAAAAAAAAAAAAAAAAAAAAAAAAAAAAAAAAAAAAAAAAAAAAAAAAAAAAAAAAAAAAAAAAAAAAAAAAAAAAAAAAAAAAAAAAAAAAAAAAAAAAAAAAAAAAAAAAAAAAAAAAAAA//9k=;clipPath=inset(32.67% 7.78% 22.89% 8.22% round 5%);" vertex="1" parent="vUEfeBpxAFAEwGMZp27j-48">
          <mxGeometry x="30" y="28.439999999999998" width="63.87" height="33.8" as="geometry" />
        </mxCell>
        <mxCell id="vUEfeBpxAFAEwGMZp27j-57" value="" style="shape=image;verticalLabelPosition=bottom;labelBackgroundColor=default;verticalAlign=top;aspect=fixed;imageAspect=0;image=data:image/jpeg,/9j/4AAQSkZJRgABAQAAAQABAAD/2wCEAAkGBxETEhIQERIWEhAWEA8QFRYQFRcYFRUVFRUWGBURFRUYHSghGBolHRUVIjEjJSktLi4wFx8zODMsNygtLisBCgoKDg0OFxAQGy0iHSUtLi0tKy0tNysrKystLS0tKy0tLSstLjctLystLS0rKy8tLTAtLS0tLS0tLSsyNzgtNP/AABEIAOEA4QMBIgACEQEDEQH/xAAbAAEAAgMBAQAAAAAAAAAAAAAABAUCAwYBB//EADoQAAIBAwIDBQcEAAMJAAAAAAABAgMEERIhBTFBIlFhcYEyYpGhscHRBhMUUkKC8AcVIzNDU2Ph8f/EABgBAQEBAQEAAAAAAAAAAAAAAAABAgME/8QAJBEBAAMAAQMEAgMAAAAAAAAAAAECESEDEjFBUXHRgfAEEzL/2gAMAwEAAhEDEQA/APuIAAAAAAAAAAAAAAAAAAAAAAAAAAAAAAAAAAAAAAAAAAAAAAAAAAAAAAAAAAAAAAAAAAAAAAAAAAAAAAAAAAAAAAAAAAAAAAAAAAAAAAAAAAAAAAAAAAAAAAAAAAAAAAAAAAAAAAAAAAAAAAAAAAAAAAAAAAAAAAAAAAAAAAAAAAAAAAAAAAAAAAAAAAAAAAAAAAAAAAAAAAA8cjCVRAZyljd7Lnua6FxCazCUZrvi018UfJf1/wDruNaas6Mpfx9ajWnSxqqLO8YeH18udTY2VrJ6rG9nQq8sa2nnu0S0yfplGZtjzR/Im1pimTHzm/D7pk9PlFt+oeM2201C8gvDE8fJ59GXXDf9qFtJ6LmnUtqm2dUdUV58pL4CLRPhr++tf9xNfn7d6CBw7jFvXWaNaFTwjJZ9VzRs4hfRpRy929oxXNv8GnaLRMbEt1e4hBZnJRXvPHw7yG+N2/8A3F8JfgobirrlqnvL6eC7kYpfD4A10MeNW7/6i+EvwbYcSoPlVh6yS+pzTpruMJWyBrsYVE+TT8nkyOJdulvyfhzN1C7qr2Ksn0w9/lIGuwBz1vxyovajGS93Z/csKHGaMtm3B+/t8+QXViDyMk91uvA9AAAAAAAAAAAAAAPGzXOoKkiBcVgN1S4Pm36y/Ute5/cs7Ba4RSVaopRinnP/AA4uTW2z5c/Ln0/G5uVKpHd5ST05zhtZ5b8snzif6b0Sc7a4lRn1WrKb37Mu9eDycr3ycebrxa2R6eueVTwu3hQlquZ17W4UnoqaFKlusb9l6nu/AvqlJ11mdK2v4f3oSVOt45TbXpqRolfcRorFajG5p9XDZteOFjGPdIkLvhtWXahOzrL/ABQThh+DjmK9UjEzM8sU7Kx21n8Tx9wk0pQpPTSuq9nLpSvYaqe3SLl2UvJtlbxPjlxcNW8o0quKmIujGWZtZWYtvk/BIx4nfVpZtqVy7mjJwS1RTnJ5WIptapPON1zJ3BrH9nQoxjVvKjbjHLxCGnnPbGlNxbb54Sjq5nStfWXnv1JvM0rxHr++ErhPDnSapUUneVIZcpLVGhFS3m04rMcYxzUpbJNLJ2uHCEIOc6kox06qstUn1eX03zstlyWyNPCOFfx4Pd1K03rq1Je1Un3vuS5JdF6mx0JvLaz154+eGbero9Lshp/kG+ldkefD6nRY+L+eDD+BV8PXIduVnC6RvVdYzkpf49VdF8TJTmmlJNLPMLEyurNa5Nvlj5d3+v8A5tnb57Ky9/RbN7teRC4bWhDUtWqcnlyxhLHspLOyS8e99S0hWg9ovON8dW31K0huweG1st/Brrk9jTTS67Lfv8SFxe+y8ReXylJPn7vjFfXc3cNqZisgb6WuDzTk4+XL1XJljbcda2qx/wA0PuiGa6tLPL7r6AdPbXUKizCSl5c15rmjcccqTT1RbjLvjsWdrxqUdqq1L+0efquoNXwNdCvGa1RakvD6PuNgUAAAAAAABorFZcxLecSNVogUFWDIdzaRmu1FPz5+j5o6GpakedqBw93bVIPsN6e6W6/155K67hTqLFeipeKSf/v4H0CrZp80V9zwqL6GJ6dZYtSs+XEWXAqEZOdDDlskp76XqT1R37MtsZeefLfD7H9K8LlTpyrVpKdxWlOpOe7Si5PRTjndRS3x4srrngu+VzXLvRdcKrS0xpyejEYpT58tuRa1mPMsV6NazsNFxdNycYyxjqkmQKlndvdVnKPovsWtbhTT1LE1/an91zRsq10oT0vLjB+fI012+7kL2vWjtrm3pg9pNby9SBXv7mCi3VmlLU49p8ovG+S/uZxnltb5WPRbGPEeEwqRprdSjTS+O/3K4WradyUC041cYzKs2veUX9UWPDuMSqNqcYSWOiw/kU9zwSql2WpL4PwNvBbWcW9S0vuZJa6UWieXTW37KeZRa8t0Z3K1bU5L7oip7bmi9mlCUvAxr1cMb23mt1HK93f5Gyyu9Oxz/DuM1oZblqj3S3+Zd23F6FXH7i/bl38/TK+5pzmy4pXiZIhXRVXFKWlSitXVtNN4+5DheMpNsdLrR6oplHSvydb3qYSLQlwjOD1U5aX3dH4NFvw7jEZ9ifYny91+T6PwKulWTMJ0Yyz0yGtdYCk4JeSz+zN527LfPbp8C7DQAAAAAGLiZADW4GEqRvAEOduQ69uW7Rpq0wOcr0SBcJrPc/qdFXtyDVtfACktrvQ/bw+mHh5J8LyMk3UhF7LtLZv8mi74TGW67LINSjWg8ta0u4azixrcKo1N6c8P+stvnyNHELNw3aaz38jCjVi990/H8m63vasI4UsrPKW6x5MYIkU8ZMJpPZosYXtKeYzp6eW9Pbn4cjD/AHYpb0qsZe7Psv8AAZmFflrk9u58iBxOhOcXhL6ZLS6sqkN5QlHxxlfEjZfmThOXGXtvVj7ccLoluj21k877M62pPvW3Ih1banL/AA4fulxxtu6r7fjdSi0ovPuvl8OnoX9tdUbn/wAdbu6N/f6lfW4VSaUcbpLfrnC1Nvq85+JBrWUqTU/ah0xzC9/uvJW0ovEufTHXy7zQ6rzgtv01f646qm6jJRjqW+rrv6o8/UtOOVOMe/VJdX4r7iG7eNhFpcQcSx4feSnlvl9+456zt5VZ4XLm+5I6NxUYqEeS2CdOZlY20u1Gf9ZLfvWTooVTkaGcwy9tWceEd8v1wXVG4DvC5UjIh0KuSVFhWQAAAAAAAB40egDTOmaZ25MPGgKypbEadqXTga5UgOdr8Pi98b962ZDnYzXsvK7ns/x8jqZ0DTO2A5WUce3Frz/PI8VBc0zo6lqQqvDI9Fpfu7fFcmExAo3FaHKTa7nuj2pcU5/8yks98Oy/kbJ2VRcmpeez/HyI9TK9qLXmtvitgmMZWFKXsVXHwqLPzX4ItfgtTpGM13wkn8uaN70vdfLdfI22+Ep9rfT2fPPMmJMarKtpUi3ri8ZljboV3EYTx2N99zqIX9aK/vHqnhr4STNFe4pzaVSiotxcsw25ZLyxbpxMKzhlGoqEJacJ1FnC8ZZ+hohfyVZwjhxb0uL5PpjH3Ohp1oqCjTqSjDTKOJLr1ey8SstOA4qKqpxkk9Wz5+jGudqWjIhPpUYU01BYy2e04Z3ZlOPQ9XcuQd4hlF758MLyJdBkenAsLagG021LCCI1vTJUUBkAAAAAAAAAAAAAAADzB44GQA1SpmuVEkgCDO3NE7UtNJi4AUVbhkHu4rPetn8UQqvCP6yf+ZZ+fP5nUOma5UQOSqWVZe95P7P8kapTecyTjtjdP68jspW5qlahMcl+zqjGMZ40tvbfOfIyjR7Upvnv8zoa3DIS5wT9PuR3wiPTUvDU8fMJ2qyks7L1f28yVTok6FklslsSKVqFxHt7csaNEzpUcEmMQryMTMAAAAAAAAAAAAAAAAAAAAAAAAAAAAPGjzSZADB0zB00bgBo/aMo0zaAPEj0AAAAAAAAAAAAAAAAAAAAAAAAAAAAAAAAAAAAAAAAAAAAAAAAAAAAAAAAAAAAAAAAAAAAAAAAAAAAAAAAAAAAAAAAAAAAAAAAAAAAAAAAAAAAAAAAAAAAAAAAAAAAAAA//9k=;clipPath=inset(32.67% 7.78% 22.89% 8.22% round 5%);" vertex="1" parent="vUEfeBpxAFAEwGMZp27j-48">
          <mxGeometry x="80.74000000000001" y="6.199999999999818" width="63.87" height="33.8" as="geometry" />
        </mxCell>
        <mxCell id="vUEfeBpxAFAEwGMZp27j-58" value="" style="shape=image;verticalLabelPosition=bottom;labelBackgroundColor=default;verticalAlign=top;aspect=fixed;imageAspect=0;image=data:image/jpeg,/9j/4AAQSkZJRgABAQAAAQABAAD/2wCEAAkGBxIOERUQEBAWEhAVExMQEBAPEhsQEBEQFhIWFhUWFhYYHSghGRolGxUVITEiJSktLi4vFx8zODMtNygtLisBCgoKDg0OGxAQGzcmICYtNTUvNjcrNys4NzIyMDUwLTErLS0rMC8vLS81LS4tLS0tLS0rLSs1LS4tNS0tLy4tLf/AABEIAOEA4QMBEQACEQEDEQH/xAAcAAEAAgIDAQAAAAAAAAAAAAAABAUGBwIDCAH/xABDEAACAQIBBwcLAwIFBAMAAAAAAQIDEQQFBhIhMVFxExYyM0GBoQcVIkJSYXKCkbGyI8HRJJIUVGJzszSiwtJDg5P/xAAaAQEAAgMBAAAAAAAAAAAAAAAAAwQBAgUG/8QAMxEBAAICAQICBgoCAwEAAAAAAAECAxEEEiExUQVBYcHh8BMUIlJxgZGhsdEVMiNCU/H/2gAMAwEAAhEDEQA/ANGgAAAAAAAAAAAAAAAAAAAAAAAAAAAAAAAAAAAdlKi5bAJcck1HsQHLzPU3APM9TcA8z1NwDzPU3APM9TcA8z1NwDzPU3APM9TcA8z1NwDzPU3APM9TcA8z1NwDzPU3APM9TcA8z1NwDzPU3APM9TcA8z1NwDzPU3APM9TcB8eSKm4CNWwsobUB0AAAAABlOa+T+Va1AbZyLmcqkL6PgBZcx17PgA5jr2fABzHXs+ADmOvZ8AHMdez4AfFmQn2ID7zGXs+ADmOvZ8AHMdez4AOY69nwAcx17PgA5jr2fABzHXs+ADmOvZ8AHMdez4AOY69nwAcx17PgA5jr2fABzHXs+ADmOvZ8AOjGZkqMG9HwA1lnXkbkr6gMBmrNgcQAAABn2YPSQHovNhfpLgBc2AWAWAo88MrSweH0qduUnJU4yavo3Tblbt1LxLPFwxkvqfCFXl5pxY918ZYLkPATynXcK1eWqDqOUnpydmlZXdl0vA6ebJGCm6w5eHHPIvq1nXnTkmjgakadOpKVS2nPSstBPo2t2uz8N5njZb5qza0dmOThphtFaz3W+Q856uFwjnVTrJ1VToacrNrRbn6TTbjGy75W4V83Frky6r27d/csYeVbHi3bv37e9kWa2cUse53oKnGCj6Snp3lK+q2iuxPwKnJ48YYjvva5xuTOaZ+zrXt+DIbFVbLALALAUGeGcLyfTg4QjOpOTSjLUtBK8nq97iu8tcXj/TTO/CFTl8n6GI1G5l1ZnZfq5Q5SVSlCEIaMU4XblN3bWvcrf3IzyuPXDqInvLHE5Ns25mNRCvzmz1lhMRKhSpwmoKOnKbd9NrSsre5x8SXj8KMlOq0oeRzpx5JpWN6ZLkHFzxGHp1qsFCU46ejG9lFv0du+Nn3lTNStLzWvqXcF7Xxxa3rT7ESUsAsAsBGyiv02Bonyiet3gafq7XxA4AAAADPswekgPRebHVLgBdAR8XjqVHrasKd9mnJRvwvtN647W/1jbS+StP8AadIXOTCf5mn/AHEn1bL91H9Zw/ehVZ0VqOPwtRUKkak6Nq9oa7JXTv8AK5fQm41b4ckdUa32Qcm1M2KeidzHdhGbuP8A8NiadW/o6WjPdoS1P6Xv3HSz4+vHNXM4+T6PJFm33TT1tJ8UcHcvQahrLyg47lMTyUehRjo2WzTl6UvDRXcdjhU6cfVPrcbnZOrJ0x6mWZoYeGDwUZ1ZRp6f605TailpdG7f+lRKPKtOXNMV767L3ErGLDE27b7rjA5To4i/I1YVNG2koSu1fZf6Mr3xXp/tGlimWl/9Z27MXjKdFaVWpGnHfOSivExWlrTqsbbWvWkbtOles58H/mqf9xL9Wy/dlF9aw/ehZ0K8akVOElOL2Sg1KL4NEM1ms6lNW0WjcNU+UDKPL4yUU/QopUlu0ts39Xb5Tt8LH04onzcLnZOvLMeqO39s6zXw0cBgIyqejaEsRW3ptaTT96jZdxzeRacubUfhDp8asYcETby3LWGDpTx+KUZdOvVbnbsUm5Ttwjf6HYtMYse49UOLSJzZNT4zP/1t/KGVcPg1CNWoqaaapqzeqNlqsnsujhUxXy7msbegvlx4tRadOWT8rUcTGU6NTSjDVOVnFLVftS7DF8V6TEWhnHmpeJmsotDOjCVJRhCunKTUYpQldybsl0SSeLliNzCOOVhmdRZcFdYAI2UerYGiPKJ63eBp+rtfEDgAAAAM+zB6SA9F5sdUuAFxUbSbSu7Npb2ZjxYnwaWxGIlVk6lSTlOTvKUt/wDHuPQ1rFY1Hg83a02nqnxbJwOZ+EjBXhyrsm6kpP0veknZI5F+ZlmfHTtU4WGI7xta08JQwtKSjCNOkk5TsrJq2tyfbq3kE3vktG53KeKUx1nUahpmMHK0Yptu0YxW1t6kuJ6Deu8vOa32huqtXVCi6lR6qdPSm9+jG7+x56K9d9R65ekm3RTc+qGmKlflKjqVbvSm51Lam7yvKz7NrPQRXVdV/J5ybdVuq35rLObGYitKEsQtBOOnRoLUqdO9k9He7PW9ersVkRcemOsTFO/nKbk3yWmJv28o8mV+TbA6FGpiGtdSWjH4IX2fM5fRFHn33eKeXvX/AEfj1Sb+fuYJlLH1MZVdWbcpydoxvqim/RhHcjpY8dcdemHLyZLZbdU+MsmzvyPQwlChRpUtLFTsnOOlKclCK02o32uTXZvKfFzXyXta0/Zhd5WGmKla1j7U+5OzQwtbJuGxGIxEXCLipwpSfpaUVLW12OTcVv1cCPlWrnyVpT9UvFpfBjve/wCnz5sPyBgnjMXThL0tOfKVW+2KenO/HWvmL+e8YsczH5e5z8GOcuWIn1z3/mWe+UnKHJYVUU/SrSUf/rjaUvHRXzHM4GPqydXk6npHJ04umPWo/Jfk7Tq1MQ1qhHk4fHLXLvUUv7yx6QyarFPNV9G492m/l2+fn1q/PrKPL4yaT9CkuRjuutc3/c2vlRNw8fRij290fNydeWfKO39r+uv8BklQ2Va+p9jvUV5X4U1o9xVr/wA3J36o93xWbf8ADxdeuff8FX5P8ByuJ5Rr0aUdP3acvRivyfyk3NydOPXmh4OPqyb8mzjju0ARso9WwNEeUT1u8DT9Xa+IHAAAAAZ9mD0kB6LzY6pcALoDF8tZmUsRJ1KUuSm3eStpU5PtdtVm/c+4u4ebakatG4Uc3Breeqs6lAwuQ8p4ZaNHEQcFsi5aSS9ynB27iS2fjZO9q9/n2oq4OTj7Vt2+fYYrN7KOL9HEYmGhfop6v7YxSfezNeRx8fele/z7S3G5GTte3b59kLbIOadHCNVG3VqrZOStGPwx7H73dlfNy75I14QsYOHTFO/GU7OHJssXQdGFRU9Jx0pOOleKd7Wuu1IjwZIx36pjaXkYpyU6YnSpyBmXTw0+Uqy5aad4Xjowg99ru7972eJPm5trx01jUK+Dg1xz1WncurOHM2WMryrrEKKkorQlT0tHRilqektXb3s2wcyMdOnp/drn4U5bzbq/b4uijmdi6cVGGUpwitkYKcYrglU1G08zFM7nH8/o1jhZYjUZP5/tDfk6n/mo/wD5P/3N/wDIx939/gj/AMbb737fFLWZ2LT0llOelbR0vT0tHdflL29xp9cxf+f8f0k+pZv/AE/n+3HEZl4qrFwqZSnODteM1OUXZ3V06ltqQrzcVZ3GP5/Ri3By2jU5N/r/AGj0PJ9WpvSp47k5WtpU4ShK268Z3tqRvPpClu003+fwaR6OvHeL6/L4uzFZgVaqTqY+VSavrqwlUSi+yOlUujFefWs9qaj59jNvR17R3ybn29/eYbMTE0lo08oypxvdxpxnBX32jUWvUvoLc7HbvOPf6f0V9H5a9oya/WPex/OnIMcFOMFXdapUWk4uFpWbtpN6Tu3K9lbsffa42ecsTOtRCtyePGK0Rvcz7EXLEa9OfJYirKpOKjJxlUlUVNySej6Wq9rXsb4ppMdVI1+WkeWL1npvO5/HbI8381sRUoxrQxcqCqLS0IaSvG70W3Gavda+8qZ+VSt5rNd6+fJbwcTJakWi+t/PmzHIeS5YWDU69SvOTu51JNpW2KKbdl9yhmyxkntGnRwYpxx3tMysiFMjZR6tgaI8onrd4Gn6u18QOAAAAAz7MHpID0Xmx1S4AXQAAAAAAAADpeKgno6Sutq3AclVW8D7yiAcqt4DlVvA+xmnsYHIDCM9ciYieJp4vDw5TRUE4rW4yhNyTt2xd+zcdHiZ8cY5x3nXxc3mYMk5IyUjfwV2Ts1cRjK8q2Kg6VOU3Umm/Tld30YpO6XZd9hLk5WPHTpx95Q4+Jky3m2SNQ2PCKikkrJKyS1JJbEcmZ27ERp9AARso9WwNEeUT1u8DT9Xa+IHAAAAAZ9mD0kB6LzY6pcALoAAAAAAAABgMJPl6uv/AOap+bAvcKwJlwI1dgdVwJOS3+r8kvvEC6AAAAAABGyj1bA0R5RPW7wNP1dr4gcAAAABn2YPSQHovNjqlwAugAAAAA+N2A4cr7gOMsTGO12AweD/AF6ttnLVPzYF5hQJoEauB0gSsl9b8kvvEC6AAAAAABGyj1bA0R5RPW7wNP1dr4gcAAAABn2YPSQHovNjqlwAugAAAAAr8Zi7S0d332gKFfSTe4CjyliXKT16uwCnwHTl8UvuBkWFAmgRq4HUBKyX1vyS+8QLkAAAAAAEbKPVsDRHlE9bvA0/V2viBwAAAAGfZg9JAei82OqXAC6AAAAADGsqP9WfFfigOeCm9GQEeNGDV56227a7JLuAp8Gkqk0tinJLhpMDIcKBNAjVwOkCVkvrfkl+UQLkAAAAAAEbKPVsDRHlE9bvA0/V2viBwAAAAGfZg9JAei82OqXAC6AAAAADGsrL9afd+KAYPZICqxtfVa+wCFkra+L+4GTYUCaBGrgdQErJfW/I/wAogXAAAAAAAI2UerYGiPKJ63eBp+rtfEDgAAAAM+zB6SA9F5sdUuAF0AAAAAGPZUp6VWdttk/+1ARcLVtdAUmUo3YHzJC28WBk2FAmgR64HUBKyX1vyP8AKIFuAAAAAACNlHq2Bojyiet3gafq7XxA4AAAADPswekgPRebHVLgBdAAAAABS4vr5fCvsgKXGScXpR70BBpR/wARVjS1xcna9r21AdsMOqVapTje0ZtK+0C9woE1ARq4HUBKyX1nyP8AKIFuAAAAAACNlHq2Bojyiet3gafq7XxA4AAAADPswekgPRebHVLgBdAAAAABTYzr38K+wFLiwOjJK/qafxfswOzEr+qq/H+yAtsKBNQEeuB1ASsl9Y/gf5RAtgAAAAAARso9WwNEeUT1u8DT9Xa+IHAAAAAZ9mD0kB6LzY6pcALoAAAAAKfHdf8AL/IFLi0BHyX/ANRT+NAd2L/6qr8f/igLXCgTUBHrgdQErJnWP4H+SAtQAAAAAARso9WwNEeUT1u8DT9Xa+IHAAAAAZ9mD0kB6LzY6pcALoAAAAAKnHr9ZfB/IFLi0BGyd19P44/cDvxq/qqvxL8IgWeFAmoCPXA6wJOTOsfwP7oC1AAAAAABGyj1bA0R5RPW7wNP1dr4gcAAAABn2YPSQHovNjqlwAugAAAAAqsev1o/D+7Ap8WgImB6+n/uQ/JAd+OX9VV+KP4RAs8KBNQEeuBCw2KU+y176OvW7beAFlk3rH8L+6AtAAAAAAARso9WwNEeUT1u8DT9Xa+IHAAAAAZ9mD0kB6LzY6pcALoAAAAAKzH9dH4f3YFPi1t7wIWD66n/ALkPyQEnKC/q6vGP/HECywoE1AR6yAiwoRjK/Gy2pX2/YCfk3pv4f3QFmAAAAAACNlHq2Bojyiet3gafq7XxA4AAAADPswekgPRebHVLgBdAAAAABXY9fqx4fuwKjFrbxYEHCR/Wp/7kPyQErKK/qqnyf8cQJ+Gj7/sBNUff9v4A6K0QOq6QEvJavKUuxJR79v8AH1AsQAAAAAARso9WwNEeUT1u8DT9Xa+IHAAAAAZ9mD0kB6LzY6pcALoAAAAAImMwzm4yi0mux7GgIryS5P052W6C1/V/wBKwuTqVJ6UY+l7Td5eOzuAqM4aOjVjU7JLRb7NKOzvafgByw1QCXywEPE4kD7h8NUq7Fox9qWpdy7QLzD0VTior69re9gdgAAAAAAI2UerYGiPKJ63eBp+rtfEDgAAAAM+zB6SA9F5sdUuAF0AAAAAAAAA+SimrNXXanrQFdUyTG94Scfc1pLuARyW/Wqav9Ks/q2wJVDBU6euMVf2nrl9WBIAAAAAAAAARso9WwNEeUT1u8DT9Xa+IHAAAAAZ9mD0kB6LzY6pcALoAAAAAAAAAAAR8XiVTV2Bj+JzuhTdnYMbh1c9aW9A2c9qW9A3D7z0p70Dbsp54Unrugy+VM8aS7UB8jnlS3oMbfXnjS7Ggzs55Ut6A6K+dsKkXFNBjcNVZ+VtNNhlqSrtfEDgAAAAMyzOxqptAbtzfzqjCFm1sAtueEN6Ac8Ib0A54Q3oBzwhvQDnhDegHPCG9AOeEN6Ac8Ib0A54Q3oBzwhvQFfljOiM4Oz12A1LlPEvSnKN9V2ldtt2uczk0rW9ax6/a9z6E5OXNxcuXJET0+H2Y9Ub9Ud/UqsBjqk6Up1HZpu2puyS7Utb13Nc8dOSKU8PxSeick5uJblcjXVG4iejeo7f9Y7+Pj7HzB42U5pcvpbXo8lKF9W9szkiaV3Fde3q2xw7U5OWMds8Xid7r9D07j8Z+Z8HGeUa/KyhCm5xX+rQ7Fr0nqEY8f0UWtbUz+f7NbcrlfX8mHDgi1Kx4aivl36p7fl5fhtJxGNlCEW5um3a+p1LO12tX3MYLXnLMx9r89N/S2DjV4NMeSYw7nf8Ar1+czHbXhM+PgkKrLUnJvVdu9teognLbdrRPi6uPgYIpixWrExWPL1xERuY/OfH1oeAyhUqOblqjHo2b1rX+yRYz4/ounpmduT6J5f16c/01azSPD7Pq7+6HzKOOrU9CNO8pSdm220rW/nwGKYy2tbJPh7WvPrfgY8GDiY43ae89O/Lx/Hfj5R2d+IyiqbtKclqurKUu33cCLH9Nemq+H4r/AC59HcfkxfNERbXb7Mz6/HURPft2nxfMDi5v0+V0432aLp2txZPToi8UtWYn8duZyPrNuLfk4c1bVje4+iiv4+O57fv5uzLuUtOGt6zpPEsAqbXxA4gAAACThMW6b1AXNHOacVZNgdnOue9gOdc97Ac6572A51z3sBzrnvYDnXPewHOue9gOdc97Ac6572A51z3sD486pvtYEWWXpXum14/c0vjpf/aNrXG5vI42/obzXfj8y6oZYlG9pNXd3qWt79ZrbDjtrceDfD6S5eGbTjyTHVO58O8+fePH8H2WW5vbN79iX2RiOPij/qlv6Y519byz27+qP4j4PssuTas5v6JfZCOPiid9Jf0xz71ms5Z1P4R+8RtwqZWc0lJ3S2akb0x1pO6wrcjm5+RWK5bbiPDw90Ozz7P2n9F/Bp9WxfdWv8zz/H6Wf0j+nCGV3FNRdk9qsje2Otp3aFXBzM+Ck48VtRPj4d/V5OUctzSspO3BP7o0nj4pnc1WaemOdSsVrlnUfhP8xt8jlqavaT1u71J6+9CcGOfGrXH6W5uOZmuWe87nwnv4euPg5efJ7HJtcF/Argx1ncQZfS3Ny0mmTJMxPjGo/pExWUHPUTOeggAAAAAAAAAAAAAAAAAAAAAAAAAAAAAAAAAAAAAAAAAAAAAAAAAAAAAAAAAAAAAAAAAAAAAAAAAAAAAAAAAAAAAAAAAAAAAAAAAAAAAAAA//2Q==;clipPath=inset(9.56% 19.33% 19.33% 17.11%);" vertex="1" parent="vUEfeBpxAFAEwGMZp27j-48">
          <mxGeometry x="69.99652551574377" y="100.99836257309926" width="64.68269272529858" height="72.37513572204125" as="geometry" />
        </mxCell>
        <mxCell id="vUEfeBpxAFAEwGMZp27j-59" value="&lt;b style=&quot;&quot;&gt;&lt;font style=&quot;font-size: 21px;&quot;&gt;R&amp;amp;D Room - Node 2&lt;/font&gt;&lt;/b&gt;" style="text;html=1;align=center;verticalAlign=middle;whiteSpace=wrap;rounded=0;" vertex="1" parent="vUEfeBpxAFAEwGMZp27j-38">
          <mxGeometry x="390" y="280" width="210" height="30" as="geometry" />
        </mxCell>
        <mxCell id="vUEfeBpxAFAEwGMZp27j-60" value="" style="group" vertex="1" connectable="0" parent="vUEfeBpxAFAEwGMZp27j-38">
          <mxGeometry x="730" y="90" width="304.72" height="181" as="geometry" />
        </mxCell>
        <mxCell id="vUEfeBpxAFAEwGMZp27j-61" value="" style="ellipse;whiteSpace=wrap;html=1;" vertex="1" parent="vUEfeBpxAFAEwGMZp27j-60">
          <mxGeometry width="221.84445698269116" height="181.00000000000003" as="geometry" />
        </mxCell>
        <mxCell id="vUEfeBpxAFAEwGMZp27j-62" value="" style="shape=image;verticalLabelPosition=bottom;labelBackgroundColor=default;verticalAlign=top;aspect=fixed;imageAspect=0;image=data:image/jpeg,/9j/4AAQSkZJRgABAQAAAQABAAD/2wCEAAkGBxETEhUTExMWFhUXFxkbGRcWGBcaGRgYGB0XGBgaHxobHSggGBomGxcbITEiJikuLi4uGh8zODMtNygtLysBCgoKDg0OGxAQGy0lICUvKy8vLS8tLi0tLS0tLTYtLS0vMC0rLS8tLTUtLS0vLS0rLS0tLS0tLS0tLy0tLS0tNf/AABEIAOEA4QMBIgACEQEDEQH/xAAcAAEAAgMBAQEAAAAAAAAAAAAABQYDBAcCAQj/xABJEAACAQIEAwQECgYJAwUBAAABAhEAAwQSITEFIkEGE1FhIzJxgQcUQlKRkqGxstIWJDNTVGIVQ2Nyc6LB0fAIk+E0ZILC8Rf/xAAaAQEAAwEBAQAAAAAAAAAAAAAAAQIDBAUG/8QAMxEAAgECBAIIBQQDAQAAAAAAAAECAxEEEiExUZETMkFSYYGh8BQicbHhFTPR8SPB0gX/2gAMAwEAAhEDEQA/AO40pSgFKUoBSlKAUpSgFKUoBSlKAUpSgFKUoBSlKAUpSgFKUoBSlKAUpSgFKUoBSlKAUpSgFKUoBSlKAUpSgFKUoBSlKAUpSgFKUoBSlKAUpSgFKUoBSlKAUpSgFKUoBSlKAUpSgFK1sbj7VoA3HCzsNyfYBqaisV2wwVv9pdyz4o4/0qjqRTs3qVc4rdonqVXP044d+/H1Ln5afpzw7+IH1X/LU5lxK9NT7y5ljpVc/Tnh38QPq3Py19/Tfh38QPqv+WmZcR0tPvLmWKlV4dt+HfxC/Vf8tfP034d/ED6r/lpmXEdLT7y5lipVc/Tnh378fVf8tfR234f+/H1X/LTMuI6an3lzRYqVXT244f8Avx9S5+Wvn6dcO/iB9S5+WpzIdNT7y5osdKrn6c8O/fj6lz8tfR244d/ED6tz8tMy4jpqfeXNFipVcPbnh38QPq3Py18Pbvh37/8AyXPy0zIdNT7y5oslKrh7c8PETeidpR9f8tZ7vazBquZrjBfE27gH05aq6kVuyOnpd5c0TlKrP6fcN/iB9V/9q8t8IHDR/X/5H/2q2ZEfEUu8uaLRSqqfhD4Z+/8A8j/7U/8A6Jwz9/p45H/2qMyJ6el3lzRaqVVR8InDP3/+R/8AapPg3aXCYoxZvBm8NQfoI191TmRKrU27KS5kvSlKk0FKUoBSlKAqnEkDX7jMdiFH8qhVMfSSap/aCyl61dVtQNj4bwfbWTtBxW7Z4neVYKuV5WMCco1k7VD9oeOk5rLWwqhirhWHMdiAwERI3HSvJng5uq5cXe/Axp46kqUovjJW4u5ybG3szrKEEkgvLjvIYgSJjQAJyx6vjWE3xmuE2tIaLea7CExqJMyv80+dXninZhO9KnOApPKt4BEM65Q1qQZEnxMmtUdnkkt3lwMZBY31BYHcH0WoPWa9W5dTstnyKW130YGXUsfSS8jT1N8sddp91bK3l7xZswABKZrsXIB5ic2YTvoY8NKuuH7FKSElyHaMov2yCxGmndbx1ryezdlbwQ3L+ZGVVYXrcqCWXSEzQMp9mgMZhK5WWIjHe/IpNq6O7c92WmNc1z0Wp1EGDOg5vdXo3FhFKkRMvNzn1nUEwMu3L99X232ITKee4FMZh3hAYLJ5h3GsQela+I7J2U5WN7KpIC96pAO5I9Fpr9NLozeOord+hTEvDPcbufneim5lWRvoc3Lvr4a14N30YGWZae85swhfUnaDvG9X3Ddl7TFnD4nONGZbi5ocAAE93qCK8t2Tw4GVfjGSdVDrlJ0AJHd76jbxpcj46jxfIpgvrnSLQ5QunpCL0ZoJG8t/L7qxd6oVj3ckx1f0cNuI+rzaa+NXU9nLGk/GJUDKe9QZMo0y+j0ABHs0r63Z2woJm+M4BY97b9IDJGb0eo3+ilyfjqPjyKPcywq5cogzcl5aSN505duX31l7wd4W7hR07n0gU8vtzA/L36eFXNuy9mGUriMik8puJCHTN/V6Gd/tr5e4CgbOTiM4+W11MwkRv3e0afZ5VNyPjqXjyKWlxQhGTNmiXlpTfTTl18/CvTXFzLyAZYj1yLu+pB+dty+6rVc7PWgWQ98okEqbiQTGhIFveD9vtrFe4RZEGb3LGX0iSI2j0eg8KN2I/UKCdr+jJHsQUeCUCkPcKprC+poM2ukxVxsY83HNsgEEGRG0Tv8Ad7651Zxi2CGViChZi1xs05sgM5V11jp1qZu9vRlIXulYjVsxP2ZRPvrzcRh51JuSV7rkdOHxMMraT34bmk+HUYzuv6vPB8l6/R/pWxxW5hbdx7Yw+YIzKGF24MwBImNYmJioUcQtNiECZiS/MXjWY8POfsrb4wvprv8AiP8AiNd8FZanPhqEdXKK3N+/xFSbefAzm/ZhrjQc2UaDLGoy/SPEVs4bEEOETBIGCZyDiCmVTmmQ8DQzMDSR5VsW7AfCYW48syuoB5iVHfBIEMI5VA2J08ayNkGKu5sxzW7YBJVDMuoHOwDCI5PVYDbRRU2W525I8CI/SS2yhRhQNVIPe3DEEN94FZuD45bNxbtm0EZSCDnuHUeRbWorB8Nc22ugSiRmbSATAHWTqa2sGKOxHRQe6R1HgvbXF3Xtq3dDPcVPUYxmMT64ro1cX7NMO/w4/trf4lrtFSiZqzFKUqSgpSlAcU7ej9fv+1d/7q1X7+GByhtBmWfp+2rf21w6/HrjdSV6jwA93vqvcWAB12D+/es82p8rUrSjiHFd4z8YA766f7R+v8xrQuAHqQSKleJgm7d/xH/Ea0hY8q1Z9YeuEX2TFWSTPpF67yYnz3r5eZUuOV1YXCYOolWYrp4As0f3j415wxnEWvK5b/EPorWdpLPAIDs2vUTG3h5edUZ5v/oXtHzJK3j2J6DpJzba6HmPzj9JrGXaSWgSSWJHUkT7YjStVBEllAGkAH6fZuNK2DBBBInLBjymPLaljzddmZsC9zvGCOVnLOx2BOx9/wBNbardCgi4AF2kBWhQG2Os8gj6djWhbUgyG1ka+zQVjvEnmJmfPxn/AM1JN2l+SQuWroB5k2IgkbQwO410tR56ecaN0OATnBygbNtlJtrHs1+ma1wQImN/P367gQI0+8mfbTAhhtrzrqdTOp00IHu86FG1a/8AZvm9dDlRdnM5BIgyYEt5nmIn218xBuspm6pAUtsv8pjbfn/5NaTIYkOD5Ajz91ZcFwrFXVDokqWyzmUayR1Pkaq2i0IyqPLFNmlicSzEliCT1hfYOnlWpf8AMg+dSOJ4e6u9t4lTDayAfdvWLGLbQKrECR1gEnT7almLpvh/O5WuLEKnKPSCTm2iHt5d9NDrM1BXPjAuXQzAMQ3fHPbGZZBcZs0OSeiz9lXC4VggFGBEQch0kaEHTpULcdCSqiyDqB6O3AO2vLt51KPYw1aUIKMosjeCWi+KtDobiyfKRPs0q4dqkVMVfVTKi7cA9gYioHhbziVBHNJzCBpvI06VJcZf013/ABH/ABGh3029bk/hUP8AR9o5VjvVOYRm/bMJErlzzpqYyxWnxdsL8ab4wLhGRMoTLIaWkawY6QebyAgVtYfKMHZUhASykktbDgd+YGVl1UrDA6+fLX3CYkHGrcRt7QAbPaYNqVYgl5IlW+UWEeAoan3A4FVwF1yX51UiQAuYXFGUSSWMAmQB4TUXhayWOOMcN3BzAAALkgAjMWIfSW1YwBFeMJUEos3ZY/rWH/xU+8V26uL9lkHxjDn+1T8QrtFSis9xSlKkoKUrzcuBRLEADqTA+mgOGfCDjDb4liDBIGUmNPkLpMGPbUXcx4u2Df7sgC4V9dWGYBXiMoOqk/RUn28AuYzGlXJQonqah9FGrA7A7b6ivfZrhlpuGvIYk4xgQoDZSLYA5V1EAjc/fVbaXPMjg6c1KbWt21zNjFrN24dfXf7zWFrIjX/StK/xm4GaMupnVR19oJ3rYwmNxLjMFTKNCW7tFLaaAtAJ128xU5jf9QpN2SfL8nvD2PTWvK4nT+YVE8WuAZwugzkjzAJE/Z9tTC38TJ9EqlY1fIignUQ7EAmNRB86h+K2nzMboyluby1nVYkESDEaaeWho5MVWVXLZNW4oydmuFC7YFxxcuNqW52AVQzIDC6kcsk6/QKlBwaz806/2tyt74Lx+rP/AID/AIr81lJqruexThDKvlW3A0E4TZ6q3/cuf71mtcBtMQqIxJ2AuXCT9tZbUzGmrH/nnVl7MWvTofAN+E0LuEO6uRSe0nD1ssqroYOkzBUlDrufVHXefE1TuL8XuC5cUMFKuVAVEiAdZkTI2q7dvCO/1Ma3Px3K5xxMzdvn+1b76vE4YQj08lZGVeM4jbvIEzolsfcupis68cxE/tT7lTeSfmxuSfpqPwSAtDREHqREazpWa8igAgRrrrO8kfZFaWR0ZIrZIu/DL7vbVnILEEkgASZfXQDWoPtC4bPIHLoPKHUe6anOFgdyg/kB+nOah+I2CxaCMrMScwYzDBh6uw0+/rWa3PIpyUaqb2uQS4fkDQsZTqf7xE6gieleMLh5RToDncZiAY0txPkJP0neptuG3AI7y0olhGW5prJA01jNWTA8GYW3DxFtiToQwz5ATlLKdFQnUffpNz0a1WMo5YO7Izg+HdsSqwQQeYxoBG/mI/5473GMETeulRmXvXhvHmOv2g++q3xG82YqrEDrDEbeMb/+awcGxTqXljlNs6c0alOh0qC1JtU3K2/YXr+kLlw2k7hSEW0CQqtcItZZhtwDG3mRXr+k2F9rrI2Yqoki2W5WLFYMQGBAJ3EbGnDuzTPbJF1O9Fs3Db8hEjPMF9dojzqPwOAa9cyAhdCxZgRCqJY+4dKpmRWVetGSi4avx928zVweGfbLr0Egk1N4Xhd/pbb3Co/ieG7hUuB1dHmGECGADFTBMGCNjodCBtW92Y4unf2uYZi4H2+FHJWuRPE1ad80NvEt3ZXhV8YiyXtuoW4CZB0iTXXK+MwGp2r7VzqbuKUpQgVyf/qOb9Qw48cSNPZbu11iuR/9R5/U8MP/AHH/ANHoChcJX9WT/ATw+d522+wp7TtVv4IF/o0Zo1xrRmgicibd5buAddl/1mocGb9XTzsJ+L/EWfqv7KtvBNOHafxh2IH9Xb3i5aJ97H6NoXV8zlpftvz+5X3Guu8n7CR4D7h7BUpwXCG+DbggJclGChjmcQylSQpUrbzFiQBl65orWxNq53A1071o309aZ5mGvkDt6x0qY4OiHCm098WhdPd+qYN3vO8zOQBylMiT0hvOaxWp5lOCVRp8CR4hgLT2xZSzetmzmi6bQZLgYjvDaU3ACSecBZOUGNaqHaFSrm2PVRVCazKEd4G6SWz59tM0dKm/i9i6BhzcuWvifek3SshucZsqAg22zEBRJnSYNaXbe+HKOCzFw75mHMLdxi1q2fFlE+4iNBpoaVbNX+n9eXrYnvgwT9WY/wBg34r81hnT3V6+D7H2bWDd7jrbUWHlmMCc9xfvaoRO0uDAM4m2d4iRprA6yY6/dVD3KXUX0RKYBxyiD4yY6g/7Va+zVz0yjyb8Jrn2H47g5X9Yt6DoW8D/AC+dWrsdxrCvirYXEW5OYAFtSSCABO5qC7K/8IKenHmX90u9c14ox76953HP2mumfCEp+MLGxa5+Nz91c04t/wCovf4j/iNaQOCn+/PyGCu5WBgnpoY3rNfkAAg/ZqPL3++tJCZqQxV9XUa6gDpuR1+09audRcuzljv8MzZiDaBBnYxmYdfCRWp3imd/MbT4e/zrb4ReNuyoUwGtnMBpOaQSfHlMVpYzE5ACqh10DGVGUEgD2ztWOtzwKrjOooU4vN2/U9Yy/bawlnKeXveaQdbjZp1BOmo318RXi/xpFa+wD+mRUILDlCqyzoOYkttA0FRd3i2HJk27nslforTxGOsPARLgJK75SBJAOkid/uo4HoQjilq/9cLENxdiGBBj/mtR4dk1B9kHX3/RVha4ZIEgyQQY6adN9JrDaALhekNPh6pI0HnUpmlOtZZWtS9nDWyYVLbKsZWNq3mOkgkuuaeknwk71sphwCWCpmOhPd2519YE5dZ868IwznTIDBKanLyg9dd9ffW9cv2gjcp70zlYHQGUyk6aAAOTHiKh7nctkapwquoVraFVJIU27cTsYGWAYAEjeBWwnDw5CqiMV9QFbI9ygj3dK8r06eQ22P8AyfL3VsYXEtYvK4APdEGJM7BoIVWy+yrRi3sispJbm7geN4rvApu3LgGjW7gJWNjmUAGBM7xtXXK5Nb45dvPzZIIKhRbdWE8u76nQnoAa6zVpKK29+iM4uT63v1YpSlVLCuR/9R6n4nhjBgXzJ6CUaJPSuuUIoD8z8DY/F1if2CTGbTnG+VGAH94qPOrfwIE8N0kxjDEBj8i3t6O59ij6d9P4QXUcRxQgSUTLyqdQqHqRlMDcV74BdQ8OdSRmGLJywrH9irDllTqEaJJkgjyELq+ZzUnanLwb+5GG3nUooMhiSVGu7aeqCPfHs6D7wZriuYQXEzDMjoWVis5ZG4bUwQQQCfEg/bLEKz20dmJOitknVB0MCA7NqfkxW3av3E9VHgyWOZhzArGhGYs2YnN5GdzFM553RSaz348OwnMVxt273NaZ2uxNu5bTKCDO6qHuFSNJjzmq1i7mdibpkkrPTQIRoBsAIEDbQVMMzvnnNbysQtx3DSJQZwwPJmBMCQeX21XcRYbvILTLeudiSYkn7atCSaGIz03llqz3wu+LS93JKkzDFSAW1MShIGYezUnrWwvEFMeiXUA6hPnFfmeVaj4Fhl1U5tomNgfDwP31kt4Jxc7uVkADU8sBg28ac3j9lXsRHE10rXZtPj1H9WuoB9VBofIp4VjfjeXVbS7+CafQu9fTwoquoRYVfVMDmjLpGWYGoB8+ooeB3O8KZreYaE59PZqNfGPD7CsWlicReykzW4hxFr2XNOg01ERrsIHUmZJ3qLxnDsO7s5VwWYsQLgiSZPyKm+G4Aur3HurZtIQpdlzS7SQqqoJdoE+Q8K0Ewee0125eW1aVsoZkzF3icqqupgaknQSKh3WxSnUrOV76s08NwrCHQ94PD0inX/t1mXgmH00ufXA+9PbWrwXHOzFdFy27jZlEMYBb1p8qnMNiHfDuxuM3MBBOYQI1nw5o8KlN2N59Oqbmp7GO66hVRJhViSQxOpO8DTy8p8K8doz6JhBE27O5n5R+ytDF4sWxJE67TGm53/4dfCsN3EF7ZC2yA5C6QYKFWk66TmAqO0pg4TUlOS0fb6EUqEgQATMbeU+HkaxIo723/eXYb81Sn9GYtQIt6CdJTciCd9461hxGBxKlHuWyFQr83aQYAmh7TkjFjAAzkE5+9efDLJ8RvPnWtgwO+Ej533GpW7gjdzOiOWe40ACdDLAaD1vKfdWpawFxSGAE5QRPUMsqfYVYEeRBqFoeU6kYvMy4sxzetn0HMCzZoUGcx1+n/wDZK4ls2i+b0kEqoXRiCmUT09ZtT83zqJvOFcgJcAyq0Lbuvy5Qc2YJ6u5nTQ9KDGWzP7QyNIsXjoBvonhr7iZqG9T1U9iUsMSAZkyJHv8Au/8ANbGCD37pti4696QIDXIMwuuVwCNI2+6oixxSyVDDPqDlbub2UhYBhsuo6H21s2OIqjBkN1WJ5SLFw7blSbZ166edWjJx2IkovrE0nCb1t+eSBzZ2uF5Cw5EnmmIifprrlcb4XYutfWVxILZs73rWIVYAzEF7i5VkLHQbCuyVeTi9vfqykVJdZ++SFKUqhYUpSgOI/CJgw/ErsDmbu1TWOfLbygnoCTUFgeJJhGOHvCHN5GyCYJAZQpb5KnvJmDoatfwh2x8buPknJetSdIju7bQTvJgaVSuIdmxeuLfVlRQouZO8UkhcsgZiGDcuxk61GZJWZw0ZK84t9t/K5r8M4DiLd74xkFy3bzuyZoVlt5g66NtII0HTSt7iuMKYSwQEF12LMNMwSLjbCDl0Vfo8arF7GuLjhDlScwVgWyqdVExsAQJMV6w95773BdZgLaMwyAT69tPA6Q5qGjaztmmk1b32LkbOC7QXWuZCifK+fOx2M76VccBw8ObKtcYm5a7yMq6RkEftNfX38qhsJ2US3nvM4OUKQBetyxuaDlCyYzSRpGtS+H4kyFTlQZRAMahDlOUa+ryrp5VWTv1TnxDwkZJTi7+Gh9GAdma4EthUbKcz20DNBgANGZuUmADNZsXhLoVpw9kFVJZVe2biAZpZranOIzidBECYqQ4Pj7SJmcK04i28a5lARybigESQT1ka043bDWyfjAFsZctvOhtyi5eQK5fMxk6opGZsx0k6J3OOEYuLaf2/grg4gvL6G0YAG3rQIk9S3X2/bgvXs7sco1JIWdp1gVls3LSrD2i8tIYMVMRqsR46zWG5etliRbIB2GY6HLG8SebX7Kncweq1aJXA4i0bTYe+lxUL94roMxV8uUypIzKRGxkEVhscVVcM2Fc3rasxIa2qtOZYdCpMlDlkEaitBLlo28rJD9HBJ6jUjbYRHnWDEXrbXE7q3kMwZYmZMT9BIj2VBvSbTTuvxwN34OnPxm1qoY3Y/q5ju3bqC0SAdARpsay9krijD8xXp63d9bTTGePsE69K+9hbTJi7ahmKi8BILhT6J9SFcJ9PuatXs/iimHEFhIE5TeG1s7924H1jHt1qFsz1YR/xWMGNvYd7jq0yGYRl0B2EeWoMe7SviY3BWnKXFuRKEBI2aVecw1PIu3TxqAxONtd67d7u5aMo8Zic3+lWGzxlLIQXQOdVKkraclczsCMwaPX8usjQVF0c6pxSSs3G2u+/vs2NrDW7TlGcQHa3CksFKsfVLaFBGhbpE671LX8Bgcr5SjEJcKen3bKSN21MxodzpVO4txAiyty29r5KESZOUBZCztt16EwKXsUjlTkIZlzMb7ZczF15lKwSDMGSdydxUFaEXGL+RNN6N/0TOCtq3xmLXfBcOxDcq5IC5bhk6RvGu9ZL1hRYwqrZyOwYZswJuvNtZ3kak7get7ap9/jF1AcmmYEMVa4MwHTRoIiBr4VI8exbK2HABAVWb1nOqgMfWY5dR9vsqJXSNI4W9K0vevirlp4nhb9qw8X8yJl722rPCZvV0OhU7/bHWorAXnvHN33dqhAzsx0ZpgLHyjHltUljsDbtXbthpuOsKzZnHeGA2bKDAO3+lanxWzBU2wRIJDF21APid4J0qMjN3gqbqKWtktrvyNPjOPvWbrC/cLMU5WzEyjA5YJ2Uzt9+52+zfaJWv2ULEkuNzPgK+3MNbuXEJRcygKpLMAFAgA80ZQNNttKjIw9khmssmXq4v6D2loqcry2E8Kmmk9/M/TrxGu3nXquL9lO2t69etYcXQ6OVDWyraozBDz5TA5l69a7RWhu1YUpShApSlAcl+EK8zYlrBQ5HxNo55AhjatpljUnlMzHUVS+L8bNi69lUWERU1CFiHRbg58syM0THSr52yVrmLu2EUki7au5hoEItIi7iD1Mezw1qHF+F92rNfQ3SRAdTEbAZhHMAJ1nTToKx6SCllbX0OWCV5Syt7q/m9Cl3cBcObS3JMCW1AWADsSDod4+0UKtbeIUhgUJB+TKuOnin21aOK4C5YIRic5grFtCp7wQObNpIuPp/dPhEcyPzC4CJI2toY1LiO7fQ8rb9JrW5aPTNWktPL/okLHGHvWMSMqqEtKxKqoJyeqMwWd0JPjI86r/CO172i+aylycp5t1AAHmOlWO92dvfFhcLd3aOvNEnO3dMcqsT8jUHoKqg7N3M1yHtQNAXcoWETMQenQmoSSeghldX5lZ27dSw2eLtdQXMqrmDGFEASWPUmTGlTHALNm5igt8hbRZ8xZsg0DFTm0iWAFVzgdi6lt2lYssLTLq0q2dmZYB6W2gx0Mx1mDasLIFvElgASMlzMoM6sO6lNtJjxqU7HJ8HPO5RStdssvBOF4B7Im6lxu8YekPc8vdlgMueQM4HNO5jpWUcHwATPcW2rhbp7tcUHDZVBSWDaEtIgVVMfhTatYe4HVjeUNln1UbKVYiJClWB1gyDpUdjcS4VjyiANj651mJO+23lUq/YYKMk8rhG/l9fepehw7hhIEW15cM0m/Mm44F5OY/JWSeo3qlcQs27d18nqpdbK0zyLcUKZ66da2cGGe1akG5buo/LaW49wFX10VW6gf8ABWrjcApAVFuB2cIGK3Dazz6pYWo09vt8oudSw83G+VEh2QvB8fbcRzX9PVn9k5gTaLeOxH901W70DDW5jXxyT6gmM1pj9AHn5WDslZNjiFuzmDRe1IIgMLTyDF5Rpt6p9o6V28W+KJEwcvjEZRqfSKPxe7ekdmdtNNRszN2fxltMHfllVnICgmC2Rb0geMG4mnmK+8CxKYK8l3EWzkZUOQAZimZWJhoBBCld+tQvB+H3cQiWrfM3eQqyo1cEscx8FtTrpy+dW3txwPEG1Zu3bOHtW7XK7WbrXCEaAGKsTosbA/KiNasti62NU/FLmGVL7C2UTKhUZlaDIElT85uadgPfh4xZtFhkuNiLS2xlN0uYJDkgAqIEAHQgT86tvsujm2DaCm46ZQpUtozW2bWQFjINfI+VS/GuA41ybzi2TkylbeZQQJI02J16z5VzyqQhO0nY5l8yeVXabvoUi6Usol0qLgZWGQyMpGimQROonyE715t8UW7eUrbCqMxOYsdCW15nI9WAfYfbUjYGaVe4VVUYKD3Ig6aemdF1lhAbN4CKiOGxe9YgGSqoot6KwJ0l+8aM7awfMnWNEWp2lG6RfLKnu1Bz97MXAQSZBffQmcuWJ6TWu7jMddp10G3kJGo8DHt67N/Fm8GxD5Q9xpgeCZ7ZAkn92vvjWJrTuD0jwfltBkmQCYMkyd58dqsdhsYfUgDSdPLfxjTep7gXbFMMwYYe9dEH1Qi/iYHoOlV+yAWAkx18Y0HXymtzBdn8feMWksXOujlTHsYR9tAza4fxhsRxWxeOEGHEW7ehVi57+y+ZioGuVT/vXcq4LwnB4mzj8PbxFruzmt3BJBBUXbdsQRIPM41mu9VJSQpSlCopSlAU3ioC4m9I1Yow81yKv0SpFU3ilsqt5nWFOwkamurcS4VavxnBzLsykhh4iR08qhOJdhMLfEXHvEeGcAfhrzp4SbqNp6N38RCpKEHFLjbXi76nNe2tx0xNtSzAdxZLKGIBYDrB1gioW/iLR9W2U1lsty5zHYfK5YBbb5xq59u+x+NvYlWw9kui2UTNntjVcw+Uw6RUAOwvFf4U/wDcs/nrvsaJmfidh72EwZyygX0mugDX76rIBBYZiNtqp3FLOV3A0hiNJ2HhJOntNdn7P9jc+Gs28WjoUQcoZPWF284BiQYDKffWe/8ABhw9pJ72TqYcdf8A4xUWPOxWHlUneJyPCYdlsYwJCw2HOmYaFcSCBJJmDH/JreF/iAe5N9i82EunO0uLxK21JiSBlM+3rV77Q9jVw9hhh1vXszqXQsgIUJcthgxAGYM6mOuX2mqda4Nj+9us2GcLcNoyLtvMDa9UmGOkkk0O6kssUiK7V4dVtYc5rgJwuHCd2JUgIAczZgVG0QDuT7dHB2i9i2pFr12AYtmuMOYy473MqiAByKIgyevacB2StYjDWFxIuK1q2q5A0KpKpMGDm0AEydvbXwfBlgAwYG6CPBl/1WpscdSnJtpRVr3v2nKcDh74sYXuHNps94ZgWUqGu5Zkagb9dprPgGxTvhVa8TZN3MVzNGa3eWy5jYlmbQn51XLtL2YvWjbTDWrt62iwrNcysGVrjEHaVPeCP7vvqv8AZ7s5xBGso+FaVuev3luArOrtK5tYKzQ7Yq0UV3hdx8PxO5dZSy27t+6V0BPLcIhiDGjb1DXs4wwAgkMACQp6KNCRIEvuImK7/jOwuExGa4zXg1xMpIYAhSuWACukDy6azrUbZ+CXAKrL3mIYEg8zoQIg7BADsN52otEzCOdRa8dDnPZDgC27FvEIzKzq6sh2zo7JmUwCsrmEfzeWspj8D3lt7TOYuIya6xOgaOsGDv0rL2+wl3hrWLFi6DaZbjKHtyymQzcwYBpZtBlEedVPhfGsTeW5cL2k7sjQWyc246vpWkdrGq8TofBeGYXCYj4taDejXIXuEZrjEl506ZWA93vPm1gb4xDXH0SDmObRhrGntg1Y+H9jrWIS3ib9x2vXFV2a36NZIEQusQIG+sTUtiOytl1yNcvFToRmGv8Al1rzcRhZznePbuVo1KlNSTj2trX7nDsaSL1x7LFZJEqxSVJ1BYA8p32I8qg+GcBvZlS24TMwBAuNAJgSVIiQQOpggDpNd7HwcYH+1+sPy16PweYLxu/WX8tdiTUbI4acMTBvRau+/oco43hQt+6thG7lWPdqFuNAIBMEgnViTWibVz93c6f1b/l0ruNzsfZYKGvYghdpubHodtT514t9i7CtmW7fDeIuDrr83XU1N5W2O7pJ36un1OMWLTyJt3YkSRbeY67rW/geNcStGbMW+g/Vnf7WIH2V1J+wWGLlzcvljue81M6b5alOF9nbFhs65mcTDXGLEToY6CpTfAKpNvq+v4OP8FGNvY2xcxD3brZ7aDNZKBUF23dMH1QJtjwru9fGWRB619qxdsUpShApSlAKUpQClKUApSlAKUpQClKUApSlAKUpQEfxTgmGxGU37Nu4VnKXUErO8HcTFaVjsbw1AQuDsgEyRkEE+Y2NTtKA820CgKoAAAAAEAAaAAdBXqlKAUpSgFKUoBSlKAUpSgFKUoBSlKAUpSgFKUoBSlKAUpSgFKUoBSlKAUpSgFKUoBSlKAUpSgFKUoBSlKAUpSgFKUoBSlKAUpSgFKUoBSlKAUpSgFKUoBSlKAUpSgFKUoBSlKAUpSgFKUoBSlKAUpSgFKUoBSlKAUpSgFKUoBSlKAUpSgFKUoBSlKAUpSgFKUoBSlKAUpSgFKUoBSlKAUpSgFKUoD//2Q==;clipPath=inset(16.22% 2% 18.89% 4.67%);rotation=90;direction=south;" vertex="1" parent="vUEfeBpxAFAEwGMZp27j-60">
          <mxGeometry x="202.2347603931766" y="26.05447368421053" width="92.19125402076548" height="132.60158794788273" as="geometry" />
        </mxCell>
        <mxCell id="vUEfeBpxAFAEwGMZp27j-63" value="" style="shape=image;verticalLabelPosition=bottom;labelBackgroundColor=default;verticalAlign=top;aspect=fixed;imageAspect=0;image=data:image/jpeg,/9j/4AAQSkZJRgABAQAAAQABAAD/2wCEAAkGBxETEhIQERIWEhAWEA8QFRYQFRcYFRUVFRUWGBURFRUYHSghGBolHRUVIjEjJSktLi4wFx8zODMsNygtLisBCgoKDg0OFxAQGy0iHSUtLi0tKy0tNysrKystLS0tKy0tLSstLjctLystLS0rKy8tLTAtLS0tLS0tLSsyNzgtNP/AABEIAOEA4QMBIgACEQEDEQH/xAAbAAEAAgMBAQAAAAAAAAAAAAAABAUCAwYBB//EADoQAAIBAwIDBQcEAAMJAAAAAAABAgMEERIhBTFBIlFhcYEyYpGhscHRBhMUUkKC8AcVIzNDU2Ph8f/EABgBAQEBAQEAAAAAAAAAAAAAAAABAgME/8QAJBEBAAMAAQMEAgMAAAAAAAAAAAECESEDEjFBUXHRgfAEEzL/2gAMAwEAAhEDEQA/APuIAAAAAAAAAAAAAAAAAAAAAAAAAAAAAAAAAAAAAAAAAAAAAAAAAAAAAAAAAAAAAAAAAAAAAAAAAAAAAAAAAAAAAAAAAAAAAAAAAAAAAAAAAAAAAAAAAAAAAAAAAAAAAAAAAAAAAAAAAAAAAAAAAAAAAAAAAAAAAAAAAAAAAAAAAAAAAAAAAAAAAAAAAAAAAAAAAAAAAAAAAAA8cjCVRAZyljd7Lnua6FxCazCUZrvi018UfJf1/wDruNaas6Mpfx9ajWnSxqqLO8YeH18udTY2VrJ6rG9nQq8sa2nnu0S0yfplGZtjzR/Im1pimTHzm/D7pk9PlFt+oeM2201C8gvDE8fJ59GXXDf9qFtJ6LmnUtqm2dUdUV58pL4CLRPhr++tf9xNfn7d6CBw7jFvXWaNaFTwjJZ9VzRs4hfRpRy929oxXNv8GnaLRMbEt1e4hBZnJRXvPHw7yG+N2/8A3F8JfgobirrlqnvL6eC7kYpfD4A10MeNW7/6i+EvwbYcSoPlVh6yS+pzTpruMJWyBrsYVE+TT8nkyOJdulvyfhzN1C7qr2Ksn0w9/lIGuwBz1vxyovajGS93Z/csKHGaMtm3B+/t8+QXViDyMk91uvA9AAAAAAAAAAAAAAPGzXOoKkiBcVgN1S4Pm36y/Ute5/cs7Ba4RSVaopRinnP/AA4uTW2z5c/Ln0/G5uVKpHd5ST05zhtZ5b8snzif6b0Sc7a4lRn1WrKb37Mu9eDycr3ycebrxa2R6eueVTwu3hQlquZ17W4UnoqaFKlusb9l6nu/AvqlJ11mdK2v4f3oSVOt45TbXpqRolfcRorFajG5p9XDZteOFjGPdIkLvhtWXahOzrL/ABQThh+DjmK9UjEzM8sU7Kx21n8Tx9wk0pQpPTSuq9nLpSvYaqe3SLl2UvJtlbxPjlxcNW8o0quKmIujGWZtZWYtvk/BIx4nfVpZtqVy7mjJwS1RTnJ5WIptapPON1zJ3BrH9nQoxjVvKjbjHLxCGnnPbGlNxbb54Sjq5nStfWXnv1JvM0rxHr++ErhPDnSapUUneVIZcpLVGhFS3m04rMcYxzUpbJNLJ2uHCEIOc6kox06qstUn1eX03zstlyWyNPCOFfx4Pd1K03rq1Je1Un3vuS5JdF6mx0JvLaz154+eGbero9Lshp/kG+ldkefD6nRY+L+eDD+BV8PXIduVnC6RvVdYzkpf49VdF8TJTmmlJNLPMLEyurNa5Nvlj5d3+v8A5tnb57Ky9/RbN7teRC4bWhDUtWqcnlyxhLHspLOyS8e99S0hWg9ovON8dW31K0huweG1st/Brrk9jTTS67Lfv8SFxe+y8ReXylJPn7vjFfXc3cNqZisgb6WuDzTk4+XL1XJljbcda2qx/wA0PuiGa6tLPL7r6AdPbXUKizCSl5c15rmjcccqTT1RbjLvjsWdrxqUdqq1L+0efquoNXwNdCvGa1RakvD6PuNgUAAAAAAABorFZcxLecSNVogUFWDIdzaRmu1FPz5+j5o6GpakedqBw93bVIPsN6e6W6/155K67hTqLFeipeKSf/v4H0CrZp80V9zwqL6GJ6dZYtSs+XEWXAqEZOdDDlskp76XqT1R37MtsZeefLfD7H9K8LlTpyrVpKdxWlOpOe7Si5PRTjndRS3x4srrngu+VzXLvRdcKrS0xpyejEYpT58tuRa1mPMsV6NazsNFxdNycYyxjqkmQKlndvdVnKPovsWtbhTT1LE1/an91zRsq10oT0vLjB+fI012+7kL2vWjtrm3pg9pNby9SBXv7mCi3VmlLU49p8ovG+S/uZxnltb5WPRbGPEeEwqRprdSjTS+O/3K4WradyUC041cYzKs2veUX9UWPDuMSqNqcYSWOiw/kU9zwSql2WpL4PwNvBbWcW9S0vuZJa6UWieXTW37KeZRa8t0Z3K1bU5L7oip7bmi9mlCUvAxr1cMb23mt1HK93f5Gyyu9Oxz/DuM1oZblqj3S3+Zd23F6FXH7i/bl38/TK+5pzmy4pXiZIhXRVXFKWlSitXVtNN4+5DheMpNsdLrR6oplHSvydb3qYSLQlwjOD1U5aX3dH4NFvw7jEZ9ifYny91+T6PwKulWTMJ0Yyz0yGtdYCk4JeSz+zN527LfPbp8C7DQAAAAAGLiZADW4GEqRvAEOduQ69uW7Rpq0wOcr0SBcJrPc/qdFXtyDVtfACktrvQ/bw+mHh5J8LyMk3UhF7LtLZv8mi74TGW67LINSjWg8ta0u4azixrcKo1N6c8P+stvnyNHELNw3aaz38jCjVi990/H8m63vasI4UsrPKW6x5MYIkU8ZMJpPZosYXtKeYzp6eW9Pbn4cjD/AHYpb0qsZe7Psv8AAZmFflrk9u58iBxOhOcXhL6ZLS6sqkN5QlHxxlfEjZfmThOXGXtvVj7ccLoluj21k877M62pPvW3Ih1banL/AA4fulxxtu6r7fjdSi0ovPuvl8OnoX9tdUbn/wAdbu6N/f6lfW4VSaUcbpLfrnC1Nvq85+JBrWUqTU/ah0xzC9/uvJW0ovEufTHXy7zQ6rzgtv01f646qm6jJRjqW+rrv6o8/UtOOVOMe/VJdX4r7iG7eNhFpcQcSx4feSnlvl9+456zt5VZ4XLm+5I6NxUYqEeS2CdOZlY20u1Gf9ZLfvWTooVTkaGcwy9tWceEd8v1wXVG4DvC5UjIh0KuSVFhWQAAAAAAAB40egDTOmaZ25MPGgKypbEadqXTga5UgOdr8Pi98b962ZDnYzXsvK7ns/x8jqZ0DTO2A5WUce3Frz/PI8VBc0zo6lqQqvDI9Fpfu7fFcmExAo3FaHKTa7nuj2pcU5/8yks98Oy/kbJ2VRcmpeez/HyI9TK9qLXmtvitgmMZWFKXsVXHwqLPzX4ItfgtTpGM13wkn8uaN70vdfLdfI22+Ep9rfT2fPPMmJMarKtpUi3ri8ZljboV3EYTx2N99zqIX9aK/vHqnhr4STNFe4pzaVSiotxcsw25ZLyxbpxMKzhlGoqEJacJ1FnC8ZZ+hohfyVZwjhxb0uL5PpjH3Ohp1oqCjTqSjDTKOJLr1ey8SstOA4qKqpxkk9Wz5+jGudqWjIhPpUYU01BYy2e04Z3ZlOPQ9XcuQd4hlF758MLyJdBkenAsLagG021LCCI1vTJUUBkAAAAAAAAAAAAAAADzB44GQA1SpmuVEkgCDO3NE7UtNJi4AUVbhkHu4rPetn8UQqvCP6yf+ZZ+fP5nUOma5UQOSqWVZe95P7P8kapTecyTjtjdP68jspW5qlahMcl+zqjGMZ40tvbfOfIyjR7Upvnv8zoa3DIS5wT9PuR3wiPTUvDU8fMJ2qyks7L1f28yVTok6FklslsSKVqFxHt7csaNEzpUcEmMQryMTMAAAAAAAAAAAAAAAAAAAAAAAAAAAAPGjzSZADB0zB00bgBo/aMo0zaAPEj0AAAAAAAAAAAAAAAAAAAAAAAAAAAAAAAAAAAAAAAAAAAAAAAAAAAAAAAAAAAAAAAAAAAAAAAAAAAAAAAAAAAAAAAAAAAAAAAAAAAAAAAAAAAAAAAAAAAAAAAAAAAAAAA//9k=;clipPath=inset(32.67% 7.78% 22.89% 8.22% round 5%);" vertex="1" parent="vUEfeBpxAFAEwGMZp27j-60">
          <mxGeometry x="78.99" y="10.2" width="63.87" height="33.8" as="geometry" />
        </mxCell>
        <mxCell id="vUEfeBpxAFAEwGMZp27j-64" value="" style="html=1;verticalLabelPosition=bottom;align=center;labelBackgroundColor=#ffffff;verticalAlign=top;strokeWidth=2;strokeColor=#0080F0;shadow=0;dashed=0;shape=mxgraph.ios7.icons.bluetooth;pointerEvents=1" vertex="1" parent="vUEfeBpxAFAEwGMZp27j-60">
          <mxGeometry x="144.60552117263842" y="31.75438596491266" width="15.508957654723126" height="30.48421052631579" as="geometry" />
        </mxCell>
        <mxCell id="vUEfeBpxAFAEwGMZp27j-65" value="" style="shape=image;verticalLabelPosition=bottom;labelBackgroundColor=default;verticalAlign=top;aspect=fixed;imageAspect=0;image=data:image/jpeg,/9j/4AAQSkZJRgABAQAAAQABAAD/2wCEAAkGBxIOERUQEBAWEhAVExMQEBAPEhsQEBEQFhIWFhUWFhYYHSghGRolGxUVITEiJSktLi4vFx8zODMtNygtLisBCgoKDg0OGxAQGzcmICYtNTUvNjcrNys4NzIyMDUwLTErLS0rMC8vLS81LS4tLS0tLS0rLSs1LS4tNS0tLy4tLf/AABEIAOEA4QMBEQACEQEDEQH/xAAcAAEAAgIDAQAAAAAAAAAAAAAABAUGBwIDCAH/xABDEAACAQIBBwcLAwIFBAMAAAAAAQIDEQQFBhIhMVFxExYyM0GBoQcVIkJSYXKCkbGyI8HRJJIUVGJzszSiwtJDg5P/xAAaAQEAAgMBAAAAAAAAAAAAAAAAAwQBAgUG/8QAMxEBAAICAQICBgoCAwEAAAAAAAECAxEEEiExUQVBYcHh8BMUIlJxgZGhsdEVMiNCU/H/2gAMAwEAAhEDEQA/ANGgAAAAAAAAAAAAAAAAAAAAAAAAAAAAAAAAAAAdlKi5bAJcck1HsQHLzPU3APM9TcA8z1NwDzPU3APM9TcA8z1NwDzPU3APM9TcA8z1NwDzPU3APM9TcA8z1NwDzPU3APM9TcA8z1NwDzPU3APM9TcA8z1NwDzPU3APM9TcB8eSKm4CNWwsobUB0AAAAABlOa+T+Va1AbZyLmcqkL6PgBZcx17PgA5jr2fABzHXs+ADmOvZ8AHMdez4AfFmQn2ID7zGXs+ADmOvZ8AHMdez4AOY69nwAcx17PgA5jr2fABzHXs+ADmOvZ8AHMdez4AOY69nwAcx17PgA5jr2fABzHXs+ADmOvZ8AOjGZkqMG9HwA1lnXkbkr6gMBmrNgcQAAABn2YPSQHovNhfpLgBc2AWAWAo88MrSweH0qduUnJU4yavo3Tblbt1LxLPFwxkvqfCFXl5pxY918ZYLkPATynXcK1eWqDqOUnpydmlZXdl0vA6ebJGCm6w5eHHPIvq1nXnTkmjgakadOpKVS2nPSstBPo2t2uz8N5njZb5qza0dmOThphtFaz3W+Q856uFwjnVTrJ1VToacrNrRbn6TTbjGy75W4V83Frky6r27d/csYeVbHi3bv37e9kWa2cUse53oKnGCj6Snp3lK+q2iuxPwKnJ48YYjvva5xuTOaZ+zrXt+DIbFVbLALALAUGeGcLyfTg4QjOpOTSjLUtBK8nq97iu8tcXj/TTO/CFTl8n6GI1G5l1ZnZfq5Q5SVSlCEIaMU4XblN3bWvcrf3IzyuPXDqInvLHE5Ns25mNRCvzmz1lhMRKhSpwmoKOnKbd9NrSsre5x8SXj8KMlOq0oeRzpx5JpWN6ZLkHFzxGHp1qsFCU46ejG9lFv0du+Nn3lTNStLzWvqXcF7Xxxa3rT7ESUsAsAsBGyiv02Bonyiet3gafq7XxA4AAAADPswekgPRebHVLgBdAR8XjqVHrasKd9mnJRvwvtN647W/1jbS+StP8AadIXOTCf5mn/AHEn1bL91H9Zw/ehVZ0VqOPwtRUKkak6Nq9oa7JXTv8AK5fQm41b4ckdUa32Qcm1M2KeidzHdhGbuP8A8NiadW/o6WjPdoS1P6Xv3HSz4+vHNXM4+T6PJFm33TT1tJ8UcHcvQahrLyg47lMTyUehRjo2WzTl6UvDRXcdjhU6cfVPrcbnZOrJ0x6mWZoYeGDwUZ1ZRp6f605TailpdG7f+lRKPKtOXNMV767L3ErGLDE27b7rjA5To4i/I1YVNG2koSu1fZf6Mr3xXp/tGlimWl/9Z27MXjKdFaVWpGnHfOSivExWlrTqsbbWvWkbtOles58H/mqf9xL9Wy/dlF9aw/ehZ0K8akVOElOL2Sg1KL4NEM1ms6lNW0WjcNU+UDKPL4yUU/QopUlu0ts39Xb5Tt8LH04onzcLnZOvLMeqO39s6zXw0cBgIyqejaEsRW3ptaTT96jZdxzeRacubUfhDp8asYcETby3LWGDpTx+KUZdOvVbnbsUm5Ttwjf6HYtMYse49UOLSJzZNT4zP/1t/KGVcPg1CNWoqaaapqzeqNlqsnsujhUxXy7msbegvlx4tRadOWT8rUcTGU6NTSjDVOVnFLVftS7DF8V6TEWhnHmpeJmsotDOjCVJRhCunKTUYpQldybsl0SSeLliNzCOOVhmdRZcFdYAI2UerYGiPKJ63eBp+rtfEDgAAAAM+zB6SA9F5sdUuAFxUbSbSu7Npb2ZjxYnwaWxGIlVk6lSTlOTvKUt/wDHuPQ1rFY1Hg83a02nqnxbJwOZ+EjBXhyrsm6kpP0veknZI5F+ZlmfHTtU4WGI7xta08JQwtKSjCNOkk5TsrJq2tyfbq3kE3vktG53KeKUx1nUahpmMHK0Yptu0YxW1t6kuJ6Deu8vOa32huqtXVCi6lR6qdPSm9+jG7+x56K9d9R65ekm3RTc+qGmKlflKjqVbvSm51Lam7yvKz7NrPQRXVdV/J5ybdVuq35rLObGYitKEsQtBOOnRoLUqdO9k9He7PW9ersVkRcemOsTFO/nKbk3yWmJv28o8mV+TbA6FGpiGtdSWjH4IX2fM5fRFHn33eKeXvX/AEfj1Sb+fuYJlLH1MZVdWbcpydoxvqim/RhHcjpY8dcdemHLyZLZbdU+MsmzvyPQwlChRpUtLFTsnOOlKclCK02o32uTXZvKfFzXyXta0/Zhd5WGmKla1j7U+5OzQwtbJuGxGIxEXCLipwpSfpaUVLW12OTcVv1cCPlWrnyVpT9UvFpfBjve/wCnz5sPyBgnjMXThL0tOfKVW+2KenO/HWvmL+e8YsczH5e5z8GOcuWIn1z3/mWe+UnKHJYVUU/SrSUf/rjaUvHRXzHM4GPqydXk6npHJ04umPWo/Jfk7Tq1MQ1qhHk4fHLXLvUUv7yx6QyarFPNV9G492m/l2+fn1q/PrKPL4yaT9CkuRjuutc3/c2vlRNw8fRij290fNydeWfKO39r+uv8BklQ2Va+p9jvUV5X4U1o9xVr/wA3J36o93xWbf8ADxdeuff8FX5P8ByuJ5Rr0aUdP3acvRivyfyk3NydOPXmh4OPqyb8mzjju0ARso9WwNEeUT1u8DT9Xa+IHAAAAAZ9mD0kB6LzY6pcALoDF8tZmUsRJ1KUuSm3eStpU5PtdtVm/c+4u4ebakatG4Uc3Breeqs6lAwuQ8p4ZaNHEQcFsi5aSS9ynB27iS2fjZO9q9/n2oq4OTj7Vt2+fYYrN7KOL9HEYmGhfop6v7YxSfezNeRx8fele/z7S3G5GTte3b59kLbIOadHCNVG3VqrZOStGPwx7H73dlfNy75I14QsYOHTFO/GU7OHJssXQdGFRU9Jx0pOOleKd7Wuu1IjwZIx36pjaXkYpyU6YnSpyBmXTw0+Uqy5aad4Xjowg99ru7972eJPm5trx01jUK+Dg1xz1WncurOHM2WMryrrEKKkorQlT0tHRilqektXb3s2wcyMdOnp/drn4U5bzbq/b4uijmdi6cVGGUpwitkYKcYrglU1G08zFM7nH8/o1jhZYjUZP5/tDfk6n/mo/wD5P/3N/wDIx939/gj/AMbb737fFLWZ2LT0llOelbR0vT0tHdflL29xp9cxf+f8f0k+pZv/AE/n+3HEZl4qrFwqZSnODteM1OUXZ3V06ltqQrzcVZ3GP5/Ri3By2jU5N/r/AGj0PJ9WpvSp47k5WtpU4ShK268Z3tqRvPpClu003+fwaR6OvHeL6/L4uzFZgVaqTqY+VSavrqwlUSi+yOlUujFefWs9qaj59jNvR17R3ybn29/eYbMTE0lo08oypxvdxpxnBX32jUWvUvoLc7HbvOPf6f0V9H5a9oya/WPex/OnIMcFOMFXdapUWk4uFpWbtpN6Tu3K9lbsffa42ecsTOtRCtyePGK0Rvcz7EXLEa9OfJYirKpOKjJxlUlUVNySej6Wq9rXsb4ppMdVI1+WkeWL1npvO5/HbI8381sRUoxrQxcqCqLS0IaSvG70W3Gavda+8qZ+VSt5rNd6+fJbwcTJakWi+t/PmzHIeS5YWDU69SvOTu51JNpW2KKbdl9yhmyxkntGnRwYpxx3tMysiFMjZR6tgaI8onrd4Gn6u18QOAAAAAz7MHpID0Xmx1S4AXQAAAAAAAADpeKgno6Sutq3AclVW8D7yiAcqt4DlVvA+xmnsYHIDCM9ciYieJp4vDw5TRUE4rW4yhNyTt2xd+zcdHiZ8cY5x3nXxc3mYMk5IyUjfwV2Ts1cRjK8q2Kg6VOU3Umm/Tld30YpO6XZd9hLk5WPHTpx95Q4+Jky3m2SNQ2PCKikkrJKyS1JJbEcmZ27ERp9AARso9WwNEeUT1u8DT9Xa+IHAAAAAZ9mD0kB6LzY6pcALoAAAAAAAABgMJPl6uv/AOap+bAvcKwJlwI1dgdVwJOS3+r8kvvEC6AAAAAABGyj1bA0R5RPW7wNP1dr4gcAAAABn2YPSQHovNjqlwAugAAAAA+N2A4cr7gOMsTGO12AweD/AF6ttnLVPzYF5hQJoEauB0gSsl9b8kvvEC6AAAAAABGyj1bA0R5RPW7wNP1dr4gcAAAABn2YPSQHovNjqlwAugAAAAAr8Zi7S0d332gKFfSTe4CjyliXKT16uwCnwHTl8UvuBkWFAmgRq4HUBKyX1vyS+8QLkAAAAAAEbKPVsDRHlE9bvA0/V2viBwAAAAGfZg9JAei82OqXAC6AAAAADGsqP9WfFfigOeCm9GQEeNGDV56227a7JLuAp8Gkqk0tinJLhpMDIcKBNAjVwOkCVkvrfkl+UQLkAAAAAAEbKPVsDRHlE9bvA0/V2viBwAAAAGfZg9JAei82OqXAC6AAAAADGsrL9afd+KAYPZICqxtfVa+wCFkra+L+4GTYUCaBGrgdQErJfW/I/wAogXAAAAAAAI2UerYGiPKJ63eBp+rtfEDgAAAAM+zB6SA9F5sdUuAF0AAAAAGPZUp6VWdttk/+1ARcLVtdAUmUo3YHzJC28WBk2FAmgR64HUBKyX1vyP8AKIFuAAAAAACNlHq2Bojyiet3gafq7XxA4AAAADPswekgPRebHVLgBdAAAAABS4vr5fCvsgKXGScXpR70BBpR/wARVjS1xcna9r21AdsMOqVapTje0ZtK+0C9woE1ARq4HUBKyX1nyP8AKIFuAAAAAACNlHq2Bojyiet3gafq7XxA4AAAADPswekgPRebHVLgBdAAAAABTYzr38K+wFLiwOjJK/qafxfswOzEr+qq/H+yAtsKBNQEeuB1ASsl9Y/gf5RAtgAAAAAARso9WwNEeUT1u8DT9Xa+IHAAAAAZ9mD0kB6LzY6pcALoAAAAAKfHdf8AL/IFLi0BHyX/ANRT+NAd2L/6qr8f/igLXCgTUBHrgdQErJnWP4H+SAtQAAAAAARso9WwNEeUT1u8DT9Xa+IHAAAAAZ9mD0kB6LzY6pcALoAAAAAKnHr9ZfB/IFLi0BGyd19P44/cDvxq/qqvxL8IgWeFAmoCPXA6wJOTOsfwP7oC1AAAAAABGyj1bA0R5RPW7wNP1dr4gcAAAABn2YPSQHovNjqlwAugAAAAAqsev1o/D+7Ap8WgImB6+n/uQ/JAd+OX9VV+KP4RAs8KBNQEeuBCw2KU+y176OvW7beAFlk3rH8L+6AtAAAAAAARso9WwNEeUT1u8DT9Xa+IHAAAAAZ9mD0kB6LzY6pcALoAAAAAKzH9dH4f3YFPi1t7wIWD66n/ALkPyQEnKC/q6vGP/HECywoE1AR6yAiwoRjK/Gy2pX2/YCfk3pv4f3QFmAAAAAACNlHq2Bojyiet3gafq7XxA4AAAADPswekgPRebHVLgBdAAAAABXY9fqx4fuwKjFrbxYEHCR/Wp/7kPyQErKK/qqnyf8cQJ+Gj7/sBNUff9v4A6K0QOq6QEvJavKUuxJR79v8AH1AsQAAAAAARso9WwNEeUT1u8DT9Xa+IHAAAAAZ9mD0kB6LzY6pcALoAAAAAImMwzm4yi0mux7GgIryS5P052W6C1/V/wBKwuTqVJ6UY+l7Td5eOzuAqM4aOjVjU7JLRb7NKOzvafgByw1QCXywEPE4kD7h8NUq7Fox9qWpdy7QLzD0VTior69re9gdgAAAAAAI2UerYGiPKJ63eBp+rtfEDgAAAAM+zB6SA9F5sdUuAF0AAAAAAAAA+SimrNXXanrQFdUyTG94Scfc1pLuARyW/Wqav9Ks/q2wJVDBU6euMVf2nrl9WBIAAAAAAAAARso9WwNEeUT1u8DT9Xa+IHAAAAAZ9mD0kB6LzY6pcALoAAAAAAAAAAAR8XiVTV2Bj+JzuhTdnYMbh1c9aW9A2c9qW9A3D7z0p70Dbsp54Unrugy+VM8aS7UB8jnlS3oMbfXnjS7Ggzs55Ut6A6K+dsKkXFNBjcNVZ+VtNNhlqSrtfEDgAAAAMyzOxqptAbtzfzqjCFm1sAtueEN6Ac8Ib0A54Q3oBzwhvQDnhDegHPCG9AOeEN6Ac8Ib0A54Q3oBzwhvQFfljOiM4Oz12A1LlPEvSnKN9V2ldtt2uczk0rW9ax6/a9z6E5OXNxcuXJET0+H2Y9Ub9Ud/UqsBjqk6Up1HZpu2puyS7Utb13Nc8dOSKU8PxSeick5uJblcjXVG4iejeo7f9Y7+Pj7HzB42U5pcvpbXo8lKF9W9szkiaV3Fde3q2xw7U5OWMds8Xid7r9D07j8Z+Z8HGeUa/KyhCm5xX+rQ7Fr0nqEY8f0UWtbUz+f7NbcrlfX8mHDgi1Kx4aivl36p7fl5fhtJxGNlCEW5um3a+p1LO12tX3MYLXnLMx9r89N/S2DjV4NMeSYw7nf8Ar1+czHbXhM+PgkKrLUnJvVdu9teognLbdrRPi6uPgYIpixWrExWPL1xERuY/OfH1oeAyhUqOblqjHo2b1rX+yRYz4/ounpmduT6J5f16c/01azSPD7Pq7+6HzKOOrU9CNO8pSdm220rW/nwGKYy2tbJPh7WvPrfgY8GDiY43ae89O/Lx/Hfj5R2d+IyiqbtKclqurKUu33cCLH9Nemq+H4r/AC59HcfkxfNERbXb7Mz6/HURPft2nxfMDi5v0+V0432aLp2txZPToi8UtWYn8duZyPrNuLfk4c1bVje4+iiv4+O57fv5uzLuUtOGt6zpPEsAqbXxA4gAAACThMW6b1AXNHOacVZNgdnOue9gOdc97Ac6572A51z3sBzrnvYDnXPewHOue9gOdc97Ac6572A51z3sD486pvtYEWWXpXum14/c0vjpf/aNrXG5vI42/obzXfj8y6oZYlG9pNXd3qWt79ZrbDjtrceDfD6S5eGbTjyTHVO58O8+fePH8H2WW5vbN79iX2RiOPij/qlv6Y519byz27+qP4j4PssuTas5v6JfZCOPiid9Jf0xz71ms5Z1P4R+8RtwqZWc0lJ3S2akb0x1pO6wrcjm5+RWK5bbiPDw90Ozz7P2n9F/Bp9WxfdWv8zz/H6Wf0j+nCGV3FNRdk9qsje2Otp3aFXBzM+Ck48VtRPj4d/V5OUctzSspO3BP7o0nj4pnc1WaemOdSsVrlnUfhP8xt8jlqavaT1u71J6+9CcGOfGrXH6W5uOZmuWe87nwnv4euPg5efJ7HJtcF/Argx1ncQZfS3Ny0mmTJMxPjGo/pExWUHPUTOeggAAAAAAAAAAAAAAAAAAAAAAAAAAAAAAAAAAAAAAAAAAAAAAAAAAAAAAAAAAAAAAAAAAAAAAAAAAAAAAAAAAAAAAAAAAAAAAAAAAAAAAAA//2Q==;clipPath=inset(9.56% 19.33% 19.33% 17.11%);" vertex="1" parent="vUEfeBpxAFAEwGMZp27j-60">
          <mxGeometry x="16.05652551574375" y="62.23836257309942" width="64.68269272529858" height="72.37513572204125" as="geometry" />
        </mxCell>
        <mxCell id="vUEfeBpxAFAEwGMZp27j-66" value="" style="sketch=0;pointerEvents=1;shadow=0;dashed=0;html=1;strokeColor=none;fillColor=#434445;aspect=fixed;labelPosition=center;verticalLabelPosition=bottom;verticalAlign=top;align=center;outlineConnect=0;shape=mxgraph.vvd.wi_fi;rotation=15;" vertex="1" parent="vUEfeBpxAFAEwGMZp27j-60">
          <mxGeometry x="136.85104234527688" y="105.84795321637428" width="31.017915309446252" height="31.017915309446252" as="geometry" />
        </mxCell>
        <mxCell id="vUEfeBpxAFAEwGMZp27j-67" value="" style="shape=image;verticalLabelPosition=bottom;labelBackgroundColor=default;verticalAlign=top;aspect=fixed;imageAspect=0;image=data:image/png,iVBORw0KGgoAAAANSUhEUgAAAMcAAAD+CAMAAAC5ruGRAAAA8FBMVEUAAAC8EUL///91qSi/EUPFEkV3rCnCEUR6sCp4rimpDzu6EUGBDC2FDC+uED24EUGaDjaODTKlDzq/v7+UDTT39/dunyadDjdqmSRkCSNYCB9vCic4ODhzpidjjyJdhiAuBBBPBxzLy8uFhYXt7e1RdRxYfx45BRR4CypQBxxHBhldXV2goKAwRRBKaxkaJgk9WBUjMwwdAwq1tbXY2NhDYRcOAQW5ubkKDgNYWFg2ThIgLgtra2sXIQgzBRImAw0tLS2VlZUeHh4SGgYTGwYUFBQYAgh5eXlISEhoaGghISENEgSLi4sqPQ5NcBs1NTW/Wtp5AAAbG0lEQVR4nLVdeUMTPRPf0r0KpaVQ2nK1UMshQi1yCCiivir4KDzf/9u82SPJJJlc2z7zjwi7SX7JXJmZZIMlZ5psbIwn2Q8b734Gd2cT9zfduzh7Dn6+28h/HG9seHQRuD54GRT0Zrxb/vRuvLQ5Pjvb8B+uQhtnZ+PNpfFd2fLu+E3505lrCw44rjYuN66eAz39nQcCoTeGtp/z3heA46+hE0aXV5dkYTY9x79JluHy6sylA+tU2XDs2vvg9NkHyeZnn6afK+L4+PSvTzeUHDigpKsqzX/9fOmF45utwfPbOYFoYZz/YT/ifXxzx6Fjplnv8L7sYu/oFu/MDYgCo2zmvPda/PBwPRr8Dx/FrhOOyUSBccvGep6mjdF59tNF2pgW2F6lp++ed3+b5GTz9+7znfTOwzD/5/0gzX+4ve6l6YD9VcbznA3ShGPz7z/oDBzujab56IP7tB6nvWxRevVG7332q3TwR31Db1Q2hOeKV2fpYfbPNI0bM4LiKG3U670C2exosHeBjemfv8JkQRwfURBlD2ljMCXjrmeUDj4FcZ0gygA14vgle0ZkA52iFG3FNF9TMu4Mx5CMPj4Mpg3SdD2+JpN2tJeS/yDTpE4WwDEWn3qZTV+ns/NidIOs6TgdHMY5ELImBaBpMCW/yfEM6u/h679RGL+FLl7zF7Px14M/vbzpuNfIW64PDutp9pvGPRvN6/T+QXh/jOKQ0A7TOI4babo3mv0JhsX46+U/jNJR/puUcN0grgu9vENgvBN6OEwzNsphxIM9ueny/43z4PxwQOQyH825OEYMh7QcQTAqZ4a83pM7UXp7uCCSI7LAZ8tqTMkbw+CogU4Qp716o1H+NX2RhniF4LgMZDrSN65QzmdxLpyMvWRNz6xS/sQszdfBo4+6IvCXehyvI0LD0XA4HPQ8uigozpTl4Yh2MxZgsAV/nwaZCvduvT4YDIejnIYXWhxj2klMyb+jeoNgGBRaNCOoGjfpL28zvfC+UaH1Oh1ZOpInKlD6ua4wUQDI4Z+0ns7Ktu4ADub59+J4FOzN0wlRb/I8AZGnysSLZRWKM25MKSdzFc+MU6bhYr3icKG09I6Abgc4qKV9mWtBCtqjo+YdLWS5c4oHyixBHN9pV8O5Jqvoali2RXUW3Y59WsAkMSvyHcPB92X3i+iLisimKOTzMVRBPTbSMwTHT/bXYP6uyIqUbRWOFnWrppXUlNTylA30u4pjwmEoBrBXQQfHR1BCyp9/+K90HO9JdiwF7s+mDsfL4fX9/Uga9t7RtJf6QqE66wzwrNywFUSjMZrK4hrP7onTWDQ4UXDQKSOuckPpLd67/nQY+0Ghov6Tt33htxzEv559GqmjaTQa6TVYbBHHnbGvxt4suB96IaFe3Zh5JD6KME7rh/8LRniPVPPeIThoZzoFn20D/7zuuUOhC/J5qYzweOjcOB3OMsce7yym5gnzd5k9n+q6Swdkhu8HzkjS0vOlbOXsPzfiQ/LqVKdd4r1y64nbc6Z5ZzogZJaIrvh05IgkLv3Fp7JdN51L9poZ88/qusfj3i2XPAwH02Yv+m1T7svevmo7EYh5J8X0uLxDpipznl56Wh5M2bYgwHGADeGDoaN6riqu9xyYXdy/OShdgiLT1j+G+sYbR7zFMYqj9EhztX9t6DPt5cOb9azzCywvISsMsq3IJUon3gXl81wIyEfTepynw9HAPMR0lG/E7/WLXw5sCGDYjEecHuWGembYq+c0HPV6pvWgvhwRY9vUxTSYaOEuKCBm8SBrkaN4b2Ap+mjMFCEu5zSQ77KRKpkruDZKfApwvBpaJXLxKbCzFG219KU/a3AwV9HJuU5LgXtVHQf+DHDpDNYjN0wZS++5qDTqkwQTDQ4emHECEteL7eWtxnnIuvzkgCNzeXIaOdl7BkPIHYrxdhYHd9ujp8PCIl0MdL4MWI9DjY+Rlq6rVb7LJukGTYxXSnkD1uvQydDFcdnqNa4aoHxM8SeGBdRbu3wXz7PI6JIBxybv1tEZSqlqRZmiB3DcIzNDWTO4d92p8ZDipgFHKemfLh4+zRwbjuvlDJ0rkWa+J8xnXAVKVYWjZGQG6eXhfdnfxICjXI/bXmpQQtrRHMmjEcPjyr5ur/zzhToDWiBpSuXctB5LNB/lFYtr9B7wJYFspUR0GXztPgElKudfTfLBgz+OYldQng5TGUTOVsAFieP7Kj2xUKJcsSHnOVn059CveTq5QGDTo0CkPxwH1dg+PFXPhJHK+fclMw4e/nFWITk1BuXAflA3uDEMZGIR15Q6wtotG0oghysnbJW8M89sP+isG0pxndruQtzBdofTRT43cZ3uS7wWPU75NsCcd84J2JBrn8ni4kAmOW5cBxj9IXPDls5TCAc8j6oMGqtnKB69/fHw6X7gB4SO/aI+0iaLZ3tMbPxivY3py8OPHx44/qGT1fANxqZybYOJ/nhJeAaE2I5CW311wkFjyq/+wVieUbPSD18YmeEsOeuNEw6msl7sO3AFiKxrdfTg5t1CFLxtpG4Rq/fhtRNTD/ekBOK2Iv/zhpEOmIuILIetbunWNebG+8MVlUS+TJXSvVbgWrckAQke9Ls9vMd7ZNgK+eVSIQochq6uD9YO/vCpa2B5KDPhmyoN9QCK4AkfsLY+kb954YMjdhP0Wx8N0pvxojtdYZe2XrT0T873Ur+kx4Nm5BJ5rTGxHKMCirZqUF/3ylnAQ2k5LgdZEK+UzoA6ZPrRav/Cte/MPeWxh48aIVdPN07jI6Zx9eXIehzAXwzeTwdOO90ULSXEaeQgIgTECOo/ff2moZ5aLFd8uB7aYTjpXEp23ds7EneUhiMBprpwqe7ywtavHwwCxLIisbQTM51sMNa3T0A94cuhpdeGWq5mIyXAIgPpzbj6+208DWKp0598oxGU60Fe6qjtEt3/2eje4GZldZXxqFRU/9qOzdjPf7D6rz/3r6NBL1PmasAt7Z3rxmqmQ0R9NBppvDcYHk1ZWs522sAFh1J/+edFCjnH6bAiiiDLmcop+d7sk/yQ7pSBDw5el8WIZw+zmtrB1NGG6+h+VIcpMNUGfbcP0gHHRG52WpRiEgZrDI5m2p24D71MR72ssCWn3nvprw7nvVzOeW2KxwMOh8Ph6Ohwen0+5zrIdHF//XqUVdwOhXz1ncspH7fzaldPur7N9Ph2p9npdDurO9vHFcG9cTtQ4nzubiKf2bDRzVZ3JUqSMKeE/LB+4o3lzvkEoSuOyTt7r5C2+1ES1gQKw6h98sGvmXeuQBxxOB2O47TTlkFQLNGa56I4noR0wjHxOn0XbK0kKIgSSX/fq7VdpyVxwaGeRPh1unWy2iHUPNk6eBT/9qVlQFEgWfUC4mAFnXBIknF80s/ktxRgIsFRAif4JMI5ClLSPmXPP241u+utdnul3V5e6+wc3CBAsCMxvjgmgjnfb7YV+a1FfFTBumUx6Csn9IVaPiHFQuWz0lp9qwD5buUtGw7hoN/bdXSy2+yBX237YpRL0i1faSlvhEnYUZSBzYpYcMDDRqfLOMtE2/SJDyuuMAiQfvHOFraAYbR+KgEZz4MDwLjpahg/XGPPOK9GDqRckWX0JYLkiw8QIw7AVG9D3Rg5V637wCDruJO/9aiRqDBqerCWCQdwdJuRdlr36TM7biIOgBSvbunaTlqiSjcJuwkH11Rr2iFGXLn4rQahsBSRVV3rYXIAcXyvhoOf9tMr05I3Ki0HW5Cgr52CaAsCUU8kOuDgUZ++HgZg4a73etQSakVU5YsD0Ud+tDh4OFG77LUEOhhr/ji4qtNrukiwiv442M5JK4a1pAO76FTAsU5fvtEDSaD+1WQ/9DiYrvqgX40uhIEbNAuOPnv7l96EtmEvOp2lw8GcQ61REFcjqKCvaiEQLz2QEM4Xfhxci4Mth5arVOf7xHtBIuhG6X0z6IfqFkSDg0nHiq5tydhmpNc6OHHxyEkvI5CzsKSzHgd9S2cUgN0AM1rzA5JIOzDtRCRQ+frgYDvAtgbGVoDRo4e/C/1kRjqDCxcEtyE4DhrjeYu3m8hONaNldxlBYGgdoAQ8i0s6joM1i81vWPuCjKCkpsO2Nh9ZG4+bdFC9IkiSOw52xwi6x2n90sMgO198zyi1oQ81nKBAIhD3GjvjoKnabQRHso52D+i4b0ZCNuEdQzhuGwOSAL2CXvBjrJNBXA2nmM3jSUuNRlAQ0TKm6+A8IGoPMhaa1EFx0DdUbaVRVCrt7/RrZXS3GEgRDGl3t4xcmdMvRP8m4O+uOOh29kZe4bDmFdR83D7prK23Wu2Vdmu532luadWcTKragioSM+kYDrrzOJVaS5axINlcdPO4j66PIu1QQDALguGgQWnJg/UNZ1rocafbCqMoiaLaemdLNu2nUlwjBF4pFrrGcFDnqgmbChPMbhE63iLc01/rru44sw2hHagJiOhELSmlcCOaVCjo2CYEw0F9dqiukmVMVd5s9cOIR3qTvkUVUToJVXUWRn1xIlYF3gKuCRbuxXBQtQusOebeBgdKrsZiGkp6q8krhNG6oEdOoQIGCgur7MNw0OfZFgp1It62UHNnzwrgrkf5srg5W+OPRvy3P7Ex23Eogb2MvmiCvRnqFaOgmF3JsCa8vM2WBHomVXCQxZZ1SWBzB9HdSUnWzZY0azSsPB+OMFoWQnoFfbClnPS85bBnTPrCG8cF/0ZgNj1xbCXtDsYism63TyojfYAVAmmJL20THg4jYIPdcNhuzNQHtCAQ1BFzejXbGkjvHTfXIKsikXcEh+Vi0R23sdDYLaRfrrvFcNk4hH9dcOhvUfSZUnVOA58QsCQjMn2047Bw1YEjDNGzK+iL87sghI2TwlkyDtPdxIT2PWJtofyyV0Q+MntrchhLOpdqK1zwyQDKU6psZyxkHsmu4VyqUjE214zKI/FM9IRdfAyMJjocVhhv/WZU8vQ906Bi9NcGJNDA+IJtQnXBXg1JM+obxpY03v5yJLsJEwwHrGcnPmkSKQGepvdI4NsH/uF4uJ6/MiciqYleEnZ/IjB/p/kGIVkT3gluvAeSQM7wTysIC1JuhsQl2VVxgApEusmXVN+qd6JGMCEV8qBgAI9UNMU44JOMA1y3zHy5OfmbNAAnz1fMxQHw1QzbMMKyIeIAwgH2OTD4VSU/HkLvouX9OhwAmIWwDcNPmwIOXisGy1aE/IAmFWLE0ZrvfZDAEUI3MB3yG+LgdT1CaQHk72NPa5wT7NBTaRcjpqpmX+hdcIfHAAerJBFz/jD41fRn75pg0ausB9PcUkIJFiB85ThYGk2K2cPgl28SUxhG3kAVHFRzy8l5qEovGQ56ucSNPFbA31XYqrYCcFTQV5yzFSUDOPYnxcF0rqLi+Tg0mUILQTmvYD84ZytcDZ3pjRIHddZPlTnnes/fGtektF4lAWMlWsrLCVe+uwUOtgNUV54H8SpUwYh6Ak3S2amlwwFrOq5yHHQLqC4HwFGNu+FO6rGShNV0OKAO+ZvjoP9DkswcRzVtI3in8yheBAcscshwMLZC1p3jqGLFYGy5KmuWEooIFxS+K4KDXgqH1U9xOa8kHmIUqpKAlOtxgvQPZukbwUG1FVbsyPVuJRxSoGEOjwBzUsG2+XmJXSqLuuVc/1dh7kiq36jCWC09s8BdwVJAxUNOzuZPchasIOdqlNZfY1H7gZlhyLZXAfWtsJUDpev6ElstqQFFf+VN5/wYrXThLX8MqJhjiw7smP+mVo0negRVKVHlisbwQGrnW0Bv+MAmHAiqfzVogqRA8LMFBmLZG+xFsM17CuhxZkwAgKnx5211OSq0wkQMHR5XWHfB1/InTCHBfa0vDDxg3vGMjbI1xSrawDTzuDTWDMxl+SpNoXqYk5/+5skgTD4BDv5xBnSYYACe4UBd2B9xRvUE9D7qbWC5O8SBEutrvWZSKbZm5LORibifiSleIQ5OVwQZphBG84pfYUk1Sk4p26IV6J8h6wjE9yeTEEQlSuvmDqMWmopMnJWv4NcgCgucv9wNaKkuohASMQHhbkIsOTHH0ItogLBaSf7XuwAttipItgCuE4lWGAsNucyI5PUjswiY9ynQbz9COQGiPwriB8N0Uon3viIWEe4rAgLD6GfBhv45xbFwyqsl6vFYlfTn+GjnNbk6R1GoQsliwLJp6oDUChl7LUO4YigaB3RgPpsQtpUiI0VAoBqY8H2UEifDHCQbEHu1NSPdOVddM8q2GHoMZD9IjwnKAhKipRHbmjrp4hVly3G61eyu9fv9LlK8e6wrRVObyUmaQmjdfhMcLEgtV+tqznhoa6/CaE0wG6fNFrsvozxZLnHqAVbTH0ZdvORa2lnAtPQlwcFSURJjRbqi450QP2rdF047nbQjuUyLgKmtiny/vyqcyydPrDR1NlRkGEEtb2ZxOGoJxc2BonUBNWtKnWjYgfL9oaNjfjLb+2JjX3a6rSS7KCGK2v2myYIKOKBzdZfHE1m4Xdg+a9iqpO0urcLPq+87osloGoUoQnzIX/vHx/vqr0USGAZ6cBtFvJ3+V/Spba0+bu+sdjqrzZ0DiZ1P27YLM2ouJkYlyDDCcdUyb8AuWQGShO2u3Qg/UCMStiQOxBlGUKZnNB9FfwEcjwRpxokcXI6seXPhnoY4w4RQCbG8GlsQVrRXeTlcD6yFmn2vmahTHkEFfsbztex33XIYlXoJfAI71YCUMIQYBsg786qMggWtpU8act/rWWtCKd0Qj6Db2SmNynGmCcVaGZg/B/UM60SbRtX0iWcSMbEVvBHaWi+OZST0dqOsCkvwWoR6BlhfsrosWypX8o2yWTcqW+D6qZA+LbkZUr2P8pXqCuSdWwiN561OJU9OTkPkNJbrr/4iD5EpJrZu9WTb6RaxCoViJs5alV0bLAjDLrLl9XDI/W8ntZw7M8+juW/FUSFthk5xTphbrfIh9j1I9i0WSh+gfxFG68gBCkje1Ys1w4K8xTw0RcP9s4ThkEuppZpj+fSSTP4oCEX4VkPj28jL9wbFIV2fpl5bgnqqlKqVK2ii8hrFJ0c+8O/2iWXIaHVoWNMyV6UyGDyAqrWm8tNo/S7wTjLSaB/tklSCgTKW4Wo2aY+6hOOAl+jr73xooUofTUQ6kLpdM90wJ8bGnjQ4BAHR2mb8WoMK1aRFa/KJMKPfL1YWfNTggJXhprQNEqCrks8tRiZFl8yepqinNzU4+BXOlvlFHKMKty0VJIquJX8oWBDhXgABB7hF1Fy9pgKpVJ+VE2zFvicGD+u/owg0ryWtqQDxzoxTgtFX9IoJsV/wtPYcC2QsmzmQUzWLwOGQlwCKV7xuQsTBNZbVrAmXii6GrxzmApRiXBpwcI1lTZdL++sFyLmL3w9wGL8/yO7os1epihpzfr2ruw9Sg0O65kfCwQIODnZNOEI7vx10qozi8rFhxMF8LBf3Faqauf0St0IHrq/kcUv/p+nbLy44oHWt6ifSPIJbMpoJpXxnhoyDxRucuBVsrCoKOhVzt6OJPJkxtuBgptBFkcIcSbV9FNsZudkfzgHW70HSB53K6uGCVFoPylaOZUA8cagMW/4FrTdxqlMChZiVzhMwreu4m2SVMcoVJgoOFm1w4hNgl/yPSYL1dHyXZTOU2wcVHMyCOAkujBP4B37YcjpaH240lSuXFBzMNXETXOideMdFE7o5d/QyuXgon9JQ72dgPq9T01DSvWr2asAh+OX4IjuDo16tpuJgmyknwRVCSn6cxZWEY2UX17rqlwJUHIyxPrjMkhhS8qkeB2862lC+9uoXWpD7S1hOx0kZiiEl91OGsL7K8Q1mdZELsBAczDVRS7IQksqtXPeF4QrX2E79wOju2AnH0lefBZEPqzjmnWE0z008+FnUr8iYMRzMhLgU8imhf2upG6FIeMlNoXAN73pfH18Qh0tw1EjzqelzLPkrUjDUTQ4ZV2HLgePgyUKXunoZB5ISE1BEa1Js2kWmwOZz7IxDc6xe04OKI3jUFu1h2SCHM0sgR41/nAXHASK91ptwMBxEtJoryNWCUplWSfaziXCjg3/dS3PdMw9kfbBdOo3jIHS6KtX1yWValOwwgAxqPvqju7+dZ28fLUBMlUE3Bzur3f76er+7uqNPXtv8Sxgqu9OMV/tdAP7qBzNrVS2p4WSRQUEjaoer+wO8z8t0PV+4Jg/Lm8x6VyjVqvA94Q3Yk96OWC4OcyFjQFQwmRW+myF+U21LWzkZIbdEepKhviYUinsM31ozfVfmG2jil+bybLzq2pO0XnLS2neDYf5eEQQSvG1ha6Lc7V+FNPkbqT7c+OU7Iw6pxGFbKUivXHEmUReRkDBZFbY25q/FmXHIZVnHeRl3CSYMo+WqX6uUSfbIwqTWFL2wsXmgFhxLk59Sj8fZtdJJFCXt/on5qMeX7ZPVtfVWO7/zPKy11teIMdSx4X4XmP6o1pUsv/VDcTYc8PNLgG7MN4fv73RaSfFtPzDHuXMSrjc15XwHJ9315WWCdmtf/pPhg0vOOGwXdSq03QHMh/A9me/1Hftt9IBMH9p2x7G0+dneFaWDjD90EAD7R31nDaH9RpEvDuKkPNu7y0j7fVEEStRyQnK32O/XXjl899X4fVEMid01++2Gwh0H4S7Lt19v1v2P2rfN6uLM5YvIvjgsV9ratik4EOPxNte18MWhfDoVktcnfhgZTuI6fCS1Mg7kU7YlVal6rWF3g1By+WhtdRzaTwtXrC/RHWJ1+4jwHDh0n3quWieDw3D8qPNcOJYmmDGpVpeBs9Wz72JUw4FLidc3X0vCrz/wlIw5cAi3w5bkUsih4EBCQU5eyMJwLF0pxxPsRXkyIUrX0QtZHA6CRNZcrjfUMxiKrtqtimIeHGSz+DwPEOVjc8/jOcYyDw7Fe3T4EAUl5d6Ad9XXYn4cRAkLMRXrh0HYYkiO1bcKqnahOAiN4TbLmMJhiyEeZPw8nn8QC8Ahmvhj+5Iky/sQRiV7IdNCcIiGcadmRJKsiNlBh823Ay0GhxDUzs656ba3YbIiuiI/5xWMkhaEQ95jbS0rtzMUgTvp2EpF663SonAsTb6KI9zPv6XIj5Xmn1CTdO3P8aJ6XxwO6VhSRjfbzbVWLYvHrbT6q9tKyMrfO9fTAnFIQmKjv+5BBAdaJI6lTTSGitK3haJYMA5iE7+6gPi6EJMh0IJxLC19lAP0Cj3N50nhtHAcRExMQdRF+CAY/Qc4iA7GD7MHT+P/orec/hMchK7OpA3ju7P/gp0Y/Vc4MppsnL35fPf87/PT5X+KIaP/A9pfbpsVX/WNAAAAAElFTkSuQmCC;" vertex="1" parent="vUEfeBpxAFAEwGMZp27j-60">
          <mxGeometry x="231.10000000000002" width="34.47" height="44" as="geometry" />
        </mxCell>
        <mxCell id="vUEfeBpxAFAEwGMZp27j-68" value="" style="shape=image;verticalLabelPosition=bottom;labelBackgroundColor=default;verticalAlign=top;aspect=fixed;imageAspect=0;image=data:image/jpeg,/9j/4AAQSkZJRgABAQAAAQABAAD/2wCEAAkGBxETEhIQERIWEhAWEA8QFRYQFRcYFRUVFRUWGBURFRUYHSghGBolHRUVIjEjJSktLi4wFx8zODMsNygtLisBCgoKDg0OFxAQGy0iHSUtLi0tKy0tNysrKystLS0tKy0tLSstLjctLystLS0rKy8tLTAtLS0tLS0tLSsyNzgtNP/AABEIAOEA4QMBIgACEQEDEQH/xAAbAAEAAgMBAQAAAAAAAAAAAAAABAUCAwYBB//EADoQAAIBAwIDBQcEAAMJAAAAAAABAgMEERIhBTFBIlFhcYEyYpGhscHRBhMUUkKC8AcVIzNDU2Ph8f/EABgBAQEBAQEAAAAAAAAAAAAAAAABAgME/8QAJBEBAAMAAQMEAgMAAAAAAAAAAAECESEDEjFBUXHRgfAEEzL/2gAMAwEAAhEDEQA/APuIAAAAAAAAAAAAAAAAAAAAAAAAAAAAAAAAAAAAAAAAAAAAAAAAAAAAAAAAAAAAAAAAAAAAAAAAAAAAAAAAAAAAAAAAAAAAAAAAAAAAAAAAAAAAAAAAAAAAAAAAAAAAAAAAAAAAAAAAAAAAAAAAAAAAAAAAAAAAAAAAAAAAAAAAAAAAAAAAAAAAAAAAAAAAAAAAAAAAAAAAAAA8cjCVRAZyljd7Lnua6FxCazCUZrvi018UfJf1/wDruNaas6Mpfx9ajWnSxqqLO8YeH18udTY2VrJ6rG9nQq8sa2nnu0S0yfplGZtjzR/Im1pimTHzm/D7pk9PlFt+oeM2201C8gvDE8fJ59GXXDf9qFtJ6LmnUtqm2dUdUV58pL4CLRPhr++tf9xNfn7d6CBw7jFvXWaNaFTwjJZ9VzRs4hfRpRy929oxXNv8GnaLRMbEt1e4hBZnJRXvPHw7yG+N2/8A3F8JfgobirrlqnvL6eC7kYpfD4A10MeNW7/6i+EvwbYcSoPlVh6yS+pzTpruMJWyBrsYVE+TT8nkyOJdulvyfhzN1C7qr2Ksn0w9/lIGuwBz1vxyovajGS93Z/csKHGaMtm3B+/t8+QXViDyMk91uvA9AAAAAAAAAAAAAAPGzXOoKkiBcVgN1S4Pm36y/Ute5/cs7Ba4RSVaopRinnP/AA4uTW2z5c/Ln0/G5uVKpHd5ST05zhtZ5b8snzif6b0Sc7a4lRn1WrKb37Mu9eDycr3ycebrxa2R6eueVTwu3hQlquZ17W4UnoqaFKlusb9l6nu/AvqlJ11mdK2v4f3oSVOt45TbXpqRolfcRorFajG5p9XDZteOFjGPdIkLvhtWXahOzrL/ABQThh+DjmK9UjEzM8sU7Kx21n8Tx9wk0pQpPTSuq9nLpSvYaqe3SLl2UvJtlbxPjlxcNW8o0quKmIujGWZtZWYtvk/BIx4nfVpZtqVy7mjJwS1RTnJ5WIptapPON1zJ3BrH9nQoxjVvKjbjHLxCGnnPbGlNxbb54Sjq5nStfWXnv1JvM0rxHr++ErhPDnSapUUneVIZcpLVGhFS3m04rMcYxzUpbJNLJ2uHCEIOc6kox06qstUn1eX03zstlyWyNPCOFfx4Pd1K03rq1Je1Un3vuS5JdF6mx0JvLaz154+eGbero9Lshp/kG+ldkefD6nRY+L+eDD+BV8PXIduVnC6RvVdYzkpf49VdF8TJTmmlJNLPMLEyurNa5Nvlj5d3+v8A5tnb57Ky9/RbN7teRC4bWhDUtWqcnlyxhLHspLOyS8e99S0hWg9ovON8dW31K0huweG1st/Brrk9jTTS67Lfv8SFxe+y8ReXylJPn7vjFfXc3cNqZisgb6WuDzTk4+XL1XJljbcda2qx/wA0PuiGa6tLPL7r6AdPbXUKizCSl5c15rmjcccqTT1RbjLvjsWdrxqUdqq1L+0efquoNXwNdCvGa1RakvD6PuNgUAAAAAAABorFZcxLecSNVogUFWDIdzaRmu1FPz5+j5o6GpakedqBw93bVIPsN6e6W6/155K67hTqLFeipeKSf/v4H0CrZp80V9zwqL6GJ6dZYtSs+XEWXAqEZOdDDlskp76XqT1R37MtsZeefLfD7H9K8LlTpyrVpKdxWlOpOe7Si5PRTjndRS3x4srrngu+VzXLvRdcKrS0xpyejEYpT58tuRa1mPMsV6NazsNFxdNycYyxjqkmQKlndvdVnKPovsWtbhTT1LE1/an91zRsq10oT0vLjB+fI012+7kL2vWjtrm3pg9pNby9SBXv7mCi3VmlLU49p8ovG+S/uZxnltb5WPRbGPEeEwqRprdSjTS+O/3K4WradyUC041cYzKs2veUX9UWPDuMSqNqcYSWOiw/kU9zwSql2WpL4PwNvBbWcW9S0vuZJa6UWieXTW37KeZRa8t0Z3K1bU5L7oip7bmi9mlCUvAxr1cMb23mt1HK93f5Gyyu9Oxz/DuM1oZblqj3S3+Zd23F6FXH7i/bl38/TK+5pzmy4pXiZIhXRVXFKWlSitXVtNN4+5DheMpNsdLrR6oplHSvydb3qYSLQlwjOD1U5aX3dH4NFvw7jEZ9ifYny91+T6PwKulWTMJ0Yyz0yGtdYCk4JeSz+zN527LfPbp8C7DQAAAAAGLiZADW4GEqRvAEOduQ69uW7Rpq0wOcr0SBcJrPc/qdFXtyDVtfACktrvQ/bw+mHh5J8LyMk3UhF7LtLZv8mi74TGW67LINSjWg8ta0u4azixrcKo1N6c8P+stvnyNHELNw3aaz38jCjVi990/H8m63vasI4UsrPKW6x5MYIkU8ZMJpPZosYXtKeYzp6eW9Pbn4cjD/AHYpb0qsZe7Psv8AAZmFflrk9u58iBxOhOcXhL6ZLS6sqkN5QlHxxlfEjZfmThOXGXtvVj7ccLoluj21k877M62pPvW3Ih1banL/AA4fulxxtu6r7fjdSi0ovPuvl8OnoX9tdUbn/wAdbu6N/f6lfW4VSaUcbpLfrnC1Nvq85+JBrWUqTU/ah0xzC9/uvJW0ovEufTHXy7zQ6rzgtv01f646qm6jJRjqW+rrv6o8/UtOOVOMe/VJdX4r7iG7eNhFpcQcSx4feSnlvl9+456zt5VZ4XLm+5I6NxUYqEeS2CdOZlY20u1Gf9ZLfvWTooVTkaGcwy9tWceEd8v1wXVG4DvC5UjIh0KuSVFhWQAAAAAAAB40egDTOmaZ25MPGgKypbEadqXTga5UgOdr8Pi98b962ZDnYzXsvK7ns/x8jqZ0DTO2A5WUce3Frz/PI8VBc0zo6lqQqvDI9Fpfu7fFcmExAo3FaHKTa7nuj2pcU5/8yks98Oy/kbJ2VRcmpeez/HyI9TK9qLXmtvitgmMZWFKXsVXHwqLPzX4ItfgtTpGM13wkn8uaN70vdfLdfI22+Ep9rfT2fPPMmJMarKtpUi3ri8ZljboV3EYTx2N99zqIX9aK/vHqnhr4STNFe4pzaVSiotxcsw25ZLyxbpxMKzhlGoqEJacJ1FnC8ZZ+hohfyVZwjhxb0uL5PpjH3Ohp1oqCjTqSjDTKOJLr1ey8SstOA4qKqpxkk9Wz5+jGudqWjIhPpUYU01BYy2e04Z3ZlOPQ9XcuQd4hlF758MLyJdBkenAsLagG021LCCI1vTJUUBkAAAAAAAAAAAAAAADzB44GQA1SpmuVEkgCDO3NE7UtNJi4AUVbhkHu4rPetn8UQqvCP6yf+ZZ+fP5nUOma5UQOSqWVZe95P7P8kapTecyTjtjdP68jspW5qlahMcl+zqjGMZ40tvbfOfIyjR7Upvnv8zoa3DIS5wT9PuR3wiPTUvDU8fMJ2qyks7L1f28yVTok6FklslsSKVqFxHt7csaNEzpUcEmMQryMTMAAAAAAAAAAAAAAAAAAAAAAAAAAAAPGjzSZADB0zB00bgBo/aMo0zaAPEj0AAAAAAAAAAAAAAAAAAAAAAAAAAAAAAAAAAAAAAAAAAAAAAAAAAAAAAAAAAAAAAAAAAAAAAAAAAAAAAAAAAAAAAAAAAAAAAAAAAAAAAAAAAAAAAAAAAAAAAAAAAAAAAA//9k=;clipPath=inset(32.67% 7.78% 22.89% 8.22% round 5%);" vertex="1" parent="vUEfeBpxAFAEwGMZp27j-60">
          <mxGeometry x="30" y="28.439999999999998" width="63.87" height="33.8" as="geometry" />
        </mxCell>
        <mxCell id="vUEfeBpxAFAEwGMZp27j-69" value="" style="shape=image;verticalLabelPosition=bottom;labelBackgroundColor=default;verticalAlign=top;aspect=fixed;imageAspect=0;image=data:image/jpeg,/9j/4AAQSkZJRgABAQAAAQABAAD/2wCEAAkGBxETEhIQERIWEhAWEA8QFRYQFRcYFRUVFRUWGBURFRUYHSghGBolHRUVIjEjJSktLi4wFx8zODMsNygtLisBCgoKDg0OFxAQGy0iHSUtLi0tKy0tNysrKystLS0tKy0tLSstLjctLystLS0rKy8tLTAtLS0tLS0tLSsyNzgtNP/AABEIAOEA4QMBIgACEQEDEQH/xAAbAAEAAgMBAQAAAAAAAAAAAAAABAUCAwYBB//EADoQAAIBAwIDBQcEAAMJAAAAAAABAgMEERIhBTFBIlFhcYEyYpGhscHRBhMUUkKC8AcVIzNDU2Ph8f/EABgBAQEBAQEAAAAAAAAAAAAAAAABAgME/8QAJBEBAAMAAQMEAgMAAAAAAAAAAAECESEDEjFBUXHRgfAEEzL/2gAMAwEAAhEDEQA/APuIAAAAAAAAAAAAAAAAAAAAAAAAAAAAAAAAAAAAAAAAAAAAAAAAAAAAAAAAAAAAAAAAAAAAAAAAAAAAAAAAAAAAAAAAAAAAAAAAAAAAAAAAAAAAAAAAAAAAAAAAAAAAAAAAAAAAAAAAAAAAAAAAAAAAAAAAAAAAAAAAAAAAAAAAAAAAAAAAAAAAAAAAAAAAAAAAAAAAAAAAAAA8cjCVRAZyljd7Lnua6FxCazCUZrvi018UfJf1/wDruNaas6Mpfx9ajWnSxqqLO8YeH18udTY2VrJ6rG9nQq8sa2nnu0S0yfplGZtjzR/Im1pimTHzm/D7pk9PlFt+oeM2201C8gvDE8fJ59GXXDf9qFtJ6LmnUtqm2dUdUV58pL4CLRPhr++tf9xNfn7d6CBw7jFvXWaNaFTwjJZ9VzRs4hfRpRy929oxXNv8GnaLRMbEt1e4hBZnJRXvPHw7yG+N2/8A3F8JfgobirrlqnvL6eC7kYpfD4A10MeNW7/6i+EvwbYcSoPlVh6yS+pzTpruMJWyBrsYVE+TT8nkyOJdulvyfhzN1C7qr2Ksn0w9/lIGuwBz1vxyovajGS93Z/csKHGaMtm3B+/t8+QXViDyMk91uvA9AAAAAAAAAAAAAAPGzXOoKkiBcVgN1S4Pm36y/Ute5/cs7Ba4RSVaopRinnP/AA4uTW2z5c/Ln0/G5uVKpHd5ST05zhtZ5b8snzif6b0Sc7a4lRn1WrKb37Mu9eDycr3ycebrxa2R6eueVTwu3hQlquZ17W4UnoqaFKlusb9l6nu/AvqlJ11mdK2v4f3oSVOt45TbXpqRolfcRorFajG5p9XDZteOFjGPdIkLvhtWXahOzrL/ABQThh+DjmK9UjEzM8sU7Kx21n8Tx9wk0pQpPTSuq9nLpSvYaqe3SLl2UvJtlbxPjlxcNW8o0quKmIujGWZtZWYtvk/BIx4nfVpZtqVy7mjJwS1RTnJ5WIptapPON1zJ3BrH9nQoxjVvKjbjHLxCGnnPbGlNxbb54Sjq5nStfWXnv1JvM0rxHr++ErhPDnSapUUneVIZcpLVGhFS3m04rMcYxzUpbJNLJ2uHCEIOc6kox06qstUn1eX03zstlyWyNPCOFfx4Pd1K03rq1Je1Un3vuS5JdF6mx0JvLaz154+eGbero9Lshp/kG+ldkefD6nRY+L+eDD+BV8PXIduVnC6RvVdYzkpf49VdF8TJTmmlJNLPMLEyurNa5Nvlj5d3+v8A5tnb57Ky9/RbN7teRC4bWhDUtWqcnlyxhLHspLOyS8e99S0hWg9ovON8dW31K0huweG1st/Brrk9jTTS67Lfv8SFxe+y8ReXylJPn7vjFfXc3cNqZisgb6WuDzTk4+XL1XJljbcda2qx/wA0PuiGa6tLPL7r6AdPbXUKizCSl5c15rmjcccqTT1RbjLvjsWdrxqUdqq1L+0efquoNXwNdCvGa1RakvD6PuNgUAAAAAAABorFZcxLecSNVogUFWDIdzaRmu1FPz5+j5o6GpakedqBw93bVIPsN6e6W6/155K67hTqLFeipeKSf/v4H0CrZp80V9zwqL6GJ6dZYtSs+XEWXAqEZOdDDlskp76XqT1R37MtsZeefLfD7H9K8LlTpyrVpKdxWlOpOe7Si5PRTjndRS3x4srrngu+VzXLvRdcKrS0xpyejEYpT58tuRa1mPMsV6NazsNFxdNycYyxjqkmQKlndvdVnKPovsWtbhTT1LE1/an91zRsq10oT0vLjB+fI012+7kL2vWjtrm3pg9pNby9SBXv7mCi3VmlLU49p8ovG+S/uZxnltb5WPRbGPEeEwqRprdSjTS+O/3K4WradyUC041cYzKs2veUX9UWPDuMSqNqcYSWOiw/kU9zwSql2WpL4PwNvBbWcW9S0vuZJa6UWieXTW37KeZRa8t0Z3K1bU5L7oip7bmi9mlCUvAxr1cMb23mt1HK93f5Gyyu9Oxz/DuM1oZblqj3S3+Zd23F6FXH7i/bl38/TK+5pzmy4pXiZIhXRVXFKWlSitXVtNN4+5DheMpNsdLrR6oplHSvydb3qYSLQlwjOD1U5aX3dH4NFvw7jEZ9ifYny91+T6PwKulWTMJ0Yyz0yGtdYCk4JeSz+zN527LfPbp8C7DQAAAAAGLiZADW4GEqRvAEOduQ69uW7Rpq0wOcr0SBcJrPc/qdFXtyDVtfACktrvQ/bw+mHh5J8LyMk3UhF7LtLZv8mi74TGW67LINSjWg8ta0u4azixrcKo1N6c8P+stvnyNHELNw3aaz38jCjVi990/H8m63vasI4UsrPKW6x5MYIkU8ZMJpPZosYXtKeYzp6eW9Pbn4cjD/AHYpb0qsZe7Psv8AAZmFflrk9u58iBxOhOcXhL6ZLS6sqkN5QlHxxlfEjZfmThOXGXtvVj7ccLoluj21k877M62pPvW3Ih1banL/AA4fulxxtu6r7fjdSi0ovPuvl8OnoX9tdUbn/wAdbu6N/f6lfW4VSaUcbpLfrnC1Nvq85+JBrWUqTU/ah0xzC9/uvJW0ovEufTHXy7zQ6rzgtv01f646qm6jJRjqW+rrv6o8/UtOOVOMe/VJdX4r7iG7eNhFpcQcSx4feSnlvl9+456zt5VZ4XLm+5I6NxUYqEeS2CdOZlY20u1Gf9ZLfvWTooVTkaGcwy9tWceEd8v1wXVG4DvC5UjIh0KuSVFhWQAAAAAAAB40egDTOmaZ25MPGgKypbEadqXTga5UgOdr8Pi98b962ZDnYzXsvK7ns/x8jqZ0DTO2A5WUce3Frz/PI8VBc0zo6lqQqvDI9Fpfu7fFcmExAo3FaHKTa7nuj2pcU5/8yks98Oy/kbJ2VRcmpeez/HyI9TK9qLXmtvitgmMZWFKXsVXHwqLPzX4ItfgtTpGM13wkn8uaN70vdfLdfI22+Ep9rfT2fPPMmJMarKtpUi3ri8ZljboV3EYTx2N99zqIX9aK/vHqnhr4STNFe4pzaVSiotxcsw25ZLyxbpxMKzhlGoqEJacJ1FnC8ZZ+hohfyVZwjhxb0uL5PpjH3Ohp1oqCjTqSjDTKOJLr1ey8SstOA4qKqpxkk9Wz5+jGudqWjIhPpUYU01BYy2e04Z3ZlOPQ9XcuQd4hlF758MLyJdBkenAsLagG021LCCI1vTJUUBkAAAAAAAAAAAAAAADzB44GQA1SpmuVEkgCDO3NE7UtNJi4AUVbhkHu4rPetn8UQqvCP6yf+ZZ+fP5nUOma5UQOSqWVZe95P7P8kapTecyTjtjdP68jspW5qlahMcl+zqjGMZ40tvbfOfIyjR7Upvnv8zoa3DIS5wT9PuR3wiPTUvDU8fMJ2qyks7L1f28yVTok6FklslsSKVqFxHt7csaNEzpUcEmMQryMTMAAAAAAAAAAAAAAAAAAAAAAAAAAAAPGjzSZADB0zB00bgBo/aMo0zaAPEj0AAAAAAAAAAAAAAAAAAAAAAAAAAAAAAAAAAAAAAAAAAAAAAAAAAAAAAAAAAAAAAAAAAAAAAAAAAAAAAAAAAAAAAAAAAAAAAAAAAAAAAAAAAAAAAAAAAAAAAAAAAAAAAA//9k=;clipPath=inset(32.67% 7.78% 22.89% 8.22% round 5%);" vertex="1" parent="vUEfeBpxAFAEwGMZp27j-60">
          <mxGeometry x="80.74000000000001" y="6.199999999999818" width="63.87" height="33.8" as="geometry" />
        </mxCell>
        <mxCell id="vUEfeBpxAFAEwGMZp27j-70" value="" style="shape=image;verticalLabelPosition=bottom;labelBackgroundColor=default;verticalAlign=top;aspect=fixed;imageAspect=0;image=data:image/jpeg,/9j/4AAQSkZJRgABAQAAAQABAAD/2wCEAAkGBxIOERUQEBAWEhAVExMQEBAPEhsQEBEQFhIWFhUWFhYYHSghGRolGxUVITEiJSktLi4vFx8zODMtNygtLisBCgoKDg0OGxAQGzcmICYtNTUvNjcrNys4NzIyMDUwLTErLS0rMC8vLS81LS4tLS0tLS0rLSs1LS4tNS0tLy4tLf/AABEIAOEA4QMBEQACEQEDEQH/xAAcAAEAAgIDAQAAAAAAAAAAAAAABAUGBwIDCAH/xABDEAACAQIBBwcLAwIFBAMAAAAAAQIDEQQFBhIhMVFxExYyM0GBoQcVIkJSYXKCkbGyI8HRJJIUVGJzszSiwtJDg5P/xAAaAQEAAgMBAAAAAAAAAAAAAAAAAwQBAgUG/8QAMxEBAAICAQICBgoCAwEAAAAAAAECAxEEEiExUQVBYcHh8BMUIlJxgZGhsdEVMiNCU/H/2gAMAwEAAhEDEQA/ANGgAAAAAAAAAAAAAAAAAAAAAAAAAAAAAAAAAAAdlKi5bAJcck1HsQHLzPU3APM9TcA8z1NwDzPU3APM9TcA8z1NwDzPU3APM9TcA8z1NwDzPU3APM9TcA8z1NwDzPU3APM9TcA8z1NwDzPU3APM9TcA8z1NwDzPU3APM9TcB8eSKm4CNWwsobUB0AAAAABlOa+T+Va1AbZyLmcqkL6PgBZcx17PgA5jr2fABzHXs+ADmOvZ8AHMdez4AfFmQn2ID7zGXs+ADmOvZ8AHMdez4AOY69nwAcx17PgA5jr2fABzHXs+ADmOvZ8AHMdez4AOY69nwAcx17PgA5jr2fABzHXs+ADmOvZ8AOjGZkqMG9HwA1lnXkbkr6gMBmrNgcQAAABn2YPSQHovNhfpLgBc2AWAWAo88MrSweH0qduUnJU4yavo3Tblbt1LxLPFwxkvqfCFXl5pxY918ZYLkPATynXcK1eWqDqOUnpydmlZXdl0vA6ebJGCm6w5eHHPIvq1nXnTkmjgakadOpKVS2nPSstBPo2t2uz8N5njZb5qza0dmOThphtFaz3W+Q856uFwjnVTrJ1VToacrNrRbn6TTbjGy75W4V83Frky6r27d/csYeVbHi3bv37e9kWa2cUse53oKnGCj6Snp3lK+q2iuxPwKnJ48YYjvva5xuTOaZ+zrXt+DIbFVbLALALAUGeGcLyfTg4QjOpOTSjLUtBK8nq97iu8tcXj/TTO/CFTl8n6GI1G5l1ZnZfq5Q5SVSlCEIaMU4XblN3bWvcrf3IzyuPXDqInvLHE5Ns25mNRCvzmz1lhMRKhSpwmoKOnKbd9NrSsre5x8SXj8KMlOq0oeRzpx5JpWN6ZLkHFzxGHp1qsFCU46ejG9lFv0du+Nn3lTNStLzWvqXcF7Xxxa3rT7ESUsAsAsBGyiv02Bonyiet3gafq7XxA4AAAADPswekgPRebHVLgBdAR8XjqVHrasKd9mnJRvwvtN647W/1jbS+StP8AadIXOTCf5mn/AHEn1bL91H9Zw/ehVZ0VqOPwtRUKkak6Nq9oa7JXTv8AK5fQm41b4ckdUa32Qcm1M2KeidzHdhGbuP8A8NiadW/o6WjPdoS1P6Xv3HSz4+vHNXM4+T6PJFm33TT1tJ8UcHcvQahrLyg47lMTyUehRjo2WzTl6UvDRXcdjhU6cfVPrcbnZOrJ0x6mWZoYeGDwUZ1ZRp6f605TailpdG7f+lRKPKtOXNMV767L3ErGLDE27b7rjA5To4i/I1YVNG2koSu1fZf6Mr3xXp/tGlimWl/9Z27MXjKdFaVWpGnHfOSivExWlrTqsbbWvWkbtOles58H/mqf9xL9Wy/dlF9aw/ehZ0K8akVOElOL2Sg1KL4NEM1ms6lNW0WjcNU+UDKPL4yUU/QopUlu0ts39Xb5Tt8LH04onzcLnZOvLMeqO39s6zXw0cBgIyqejaEsRW3ptaTT96jZdxzeRacubUfhDp8asYcETby3LWGDpTx+KUZdOvVbnbsUm5Ttwjf6HYtMYse49UOLSJzZNT4zP/1t/KGVcPg1CNWoqaaapqzeqNlqsnsujhUxXy7msbegvlx4tRadOWT8rUcTGU6NTSjDVOVnFLVftS7DF8V6TEWhnHmpeJmsotDOjCVJRhCunKTUYpQldybsl0SSeLliNzCOOVhmdRZcFdYAI2UerYGiPKJ63eBp+rtfEDgAAAAM+zB6SA9F5sdUuAFxUbSbSu7Npb2ZjxYnwaWxGIlVk6lSTlOTvKUt/wDHuPQ1rFY1Hg83a02nqnxbJwOZ+EjBXhyrsm6kpP0veknZI5F+ZlmfHTtU4WGI7xta08JQwtKSjCNOkk5TsrJq2tyfbq3kE3vktG53KeKUx1nUahpmMHK0Yptu0YxW1t6kuJ6Deu8vOa32huqtXVCi6lR6qdPSm9+jG7+x56K9d9R65ekm3RTc+qGmKlflKjqVbvSm51Lam7yvKz7NrPQRXVdV/J5ybdVuq35rLObGYitKEsQtBOOnRoLUqdO9k9He7PW9ersVkRcemOsTFO/nKbk3yWmJv28o8mV+TbA6FGpiGtdSWjH4IX2fM5fRFHn33eKeXvX/AEfj1Sb+fuYJlLH1MZVdWbcpydoxvqim/RhHcjpY8dcdemHLyZLZbdU+MsmzvyPQwlChRpUtLFTsnOOlKclCK02o32uTXZvKfFzXyXta0/Zhd5WGmKla1j7U+5OzQwtbJuGxGIxEXCLipwpSfpaUVLW12OTcVv1cCPlWrnyVpT9UvFpfBjve/wCnz5sPyBgnjMXThL0tOfKVW+2KenO/HWvmL+e8YsczH5e5z8GOcuWIn1z3/mWe+UnKHJYVUU/SrSUf/rjaUvHRXzHM4GPqydXk6npHJ04umPWo/Jfk7Tq1MQ1qhHk4fHLXLvUUv7yx6QyarFPNV9G492m/l2+fn1q/PrKPL4yaT9CkuRjuutc3/c2vlRNw8fRij290fNydeWfKO39r+uv8BklQ2Va+p9jvUV5X4U1o9xVr/wA3J36o93xWbf8ADxdeuff8FX5P8ByuJ5Rr0aUdP3acvRivyfyk3NydOPXmh4OPqyb8mzjju0ARso9WwNEeUT1u8DT9Xa+IHAAAAAZ9mD0kB6LzY6pcALoDF8tZmUsRJ1KUuSm3eStpU5PtdtVm/c+4u4ebakatG4Uc3Breeqs6lAwuQ8p4ZaNHEQcFsi5aSS9ynB27iS2fjZO9q9/n2oq4OTj7Vt2+fYYrN7KOL9HEYmGhfop6v7YxSfezNeRx8fele/z7S3G5GTte3b59kLbIOadHCNVG3VqrZOStGPwx7H73dlfNy75I14QsYOHTFO/GU7OHJssXQdGFRU9Jx0pOOleKd7Wuu1IjwZIx36pjaXkYpyU6YnSpyBmXTw0+Uqy5aad4Xjowg99ru7972eJPm5trx01jUK+Dg1xz1WncurOHM2WMryrrEKKkorQlT0tHRilqektXb3s2wcyMdOnp/drn4U5bzbq/b4uijmdi6cVGGUpwitkYKcYrglU1G08zFM7nH8/o1jhZYjUZP5/tDfk6n/mo/wD5P/3N/wDIx939/gj/AMbb737fFLWZ2LT0llOelbR0vT0tHdflL29xp9cxf+f8f0k+pZv/AE/n+3HEZl4qrFwqZSnODteM1OUXZ3V06ltqQrzcVZ3GP5/Ri3By2jU5N/r/AGj0PJ9WpvSp47k5WtpU4ShK268Z3tqRvPpClu003+fwaR6OvHeL6/L4uzFZgVaqTqY+VSavrqwlUSi+yOlUujFefWs9qaj59jNvR17R3ybn29/eYbMTE0lo08oypxvdxpxnBX32jUWvUvoLc7HbvOPf6f0V9H5a9oya/WPex/OnIMcFOMFXdapUWk4uFpWbtpN6Tu3K9lbsffa42ecsTOtRCtyePGK0Rvcz7EXLEa9OfJYirKpOKjJxlUlUVNySej6Wq9rXsb4ppMdVI1+WkeWL1npvO5/HbI8381sRUoxrQxcqCqLS0IaSvG70W3Gavda+8qZ+VSt5rNd6+fJbwcTJakWi+t/PmzHIeS5YWDU69SvOTu51JNpW2KKbdl9yhmyxkntGnRwYpxx3tMysiFMjZR6tgaI8onrd4Gn6u18QOAAAAAz7MHpID0Xmx1S4AXQAAAAAAAADpeKgno6Sutq3AclVW8D7yiAcqt4DlVvA+xmnsYHIDCM9ciYieJp4vDw5TRUE4rW4yhNyTt2xd+zcdHiZ8cY5x3nXxc3mYMk5IyUjfwV2Ts1cRjK8q2Kg6VOU3Umm/Tld30YpO6XZd9hLk5WPHTpx95Q4+Jky3m2SNQ2PCKikkrJKyS1JJbEcmZ27ERp9AARso9WwNEeUT1u8DT9Xa+IHAAAAAZ9mD0kB6LzY6pcALoAAAAAAAABgMJPl6uv/AOap+bAvcKwJlwI1dgdVwJOS3+r8kvvEC6AAAAAABGyj1bA0R5RPW7wNP1dr4gcAAAABn2YPSQHovNjqlwAugAAAAA+N2A4cr7gOMsTGO12AweD/AF6ttnLVPzYF5hQJoEauB0gSsl9b8kvvEC6AAAAAABGyj1bA0R5RPW7wNP1dr4gcAAAABn2YPSQHovNjqlwAugAAAAAr8Zi7S0d332gKFfSTe4CjyliXKT16uwCnwHTl8UvuBkWFAmgRq4HUBKyX1vyS+8QLkAAAAAAEbKPVsDRHlE9bvA0/V2viBwAAAAGfZg9JAei82OqXAC6AAAAADGsqP9WfFfigOeCm9GQEeNGDV56227a7JLuAp8Gkqk0tinJLhpMDIcKBNAjVwOkCVkvrfkl+UQLkAAAAAAEbKPVsDRHlE9bvA0/V2viBwAAAAGfZg9JAei82OqXAC6AAAAADGsrL9afd+KAYPZICqxtfVa+wCFkra+L+4GTYUCaBGrgdQErJfW/I/wAogXAAAAAAAI2UerYGiPKJ63eBp+rtfEDgAAAAM+zB6SA9F5sdUuAF0AAAAAGPZUp6VWdttk/+1ARcLVtdAUmUo3YHzJC28WBk2FAmgR64HUBKyX1vyP8AKIFuAAAAAACNlHq2Bojyiet3gafq7XxA4AAAADPswekgPRebHVLgBdAAAAABS4vr5fCvsgKXGScXpR70BBpR/wARVjS1xcna9r21AdsMOqVapTje0ZtK+0C9woE1ARq4HUBKyX1nyP8AKIFuAAAAAACNlHq2Bojyiet3gafq7XxA4AAAADPswekgPRebHVLgBdAAAAABTYzr38K+wFLiwOjJK/qafxfswOzEr+qq/H+yAtsKBNQEeuB1ASsl9Y/gf5RAtgAAAAAARso9WwNEeUT1u8DT9Xa+IHAAAAAZ9mD0kB6LzY6pcALoAAAAAKfHdf8AL/IFLi0BHyX/ANRT+NAd2L/6qr8f/igLXCgTUBHrgdQErJnWP4H+SAtQAAAAAARso9WwNEeUT1u8DT9Xa+IHAAAAAZ9mD0kB6LzY6pcALoAAAAAKnHr9ZfB/IFLi0BGyd19P44/cDvxq/qqvxL8IgWeFAmoCPXA6wJOTOsfwP7oC1AAAAAABGyj1bA0R5RPW7wNP1dr4gcAAAABn2YPSQHovNjqlwAugAAAAAqsev1o/D+7Ap8WgImB6+n/uQ/JAd+OX9VV+KP4RAs8KBNQEeuBCw2KU+y176OvW7beAFlk3rH8L+6AtAAAAAAARso9WwNEeUT1u8DT9Xa+IHAAAAAZ9mD0kB6LzY6pcALoAAAAAKzH9dH4f3YFPi1t7wIWD66n/ALkPyQEnKC/q6vGP/HECywoE1AR6yAiwoRjK/Gy2pX2/YCfk3pv4f3QFmAAAAAACNlHq2Bojyiet3gafq7XxA4AAAADPswekgPRebHVLgBdAAAAABXY9fqx4fuwKjFrbxYEHCR/Wp/7kPyQErKK/qqnyf8cQJ+Gj7/sBNUff9v4A6K0QOq6QEvJavKUuxJR79v8AH1AsQAAAAAARso9WwNEeUT1u8DT9Xa+IHAAAAAZ9mD0kB6LzY6pcALoAAAAAImMwzm4yi0mux7GgIryS5P052W6C1/V/wBKwuTqVJ6UY+l7Td5eOzuAqM4aOjVjU7JLRb7NKOzvafgByw1QCXywEPE4kD7h8NUq7Fox9qWpdy7QLzD0VTior69re9gdgAAAAAAI2UerYGiPKJ63eBp+rtfEDgAAAAM+zB6SA9F5sdUuAF0AAAAAAAAA+SimrNXXanrQFdUyTG94Scfc1pLuARyW/Wqav9Ks/q2wJVDBU6euMVf2nrl9WBIAAAAAAAAARso9WwNEeUT1u8DT9Xa+IHAAAAAZ9mD0kB6LzY6pcALoAAAAAAAAAAAR8XiVTV2Bj+JzuhTdnYMbh1c9aW9A2c9qW9A3D7z0p70Dbsp54Unrugy+VM8aS7UB8jnlS3oMbfXnjS7Ggzs55Ut6A6K+dsKkXFNBjcNVZ+VtNNhlqSrtfEDgAAAAMyzOxqptAbtzfzqjCFm1sAtueEN6Ac8Ib0A54Q3oBzwhvQDnhDegHPCG9AOeEN6Ac8Ib0A54Q3oBzwhvQFfljOiM4Oz12A1LlPEvSnKN9V2ldtt2uczk0rW9ax6/a9z6E5OXNxcuXJET0+H2Y9Ub9Ud/UqsBjqk6Up1HZpu2puyS7Utb13Nc8dOSKU8PxSeick5uJblcjXVG4iejeo7f9Y7+Pj7HzB42U5pcvpbXo8lKF9W9szkiaV3Fde3q2xw7U5OWMds8Xid7r9D07j8Z+Z8HGeUa/KyhCm5xX+rQ7Fr0nqEY8f0UWtbUz+f7NbcrlfX8mHDgi1Kx4aivl36p7fl5fhtJxGNlCEW5um3a+p1LO12tX3MYLXnLMx9r89N/S2DjV4NMeSYw7nf8Ar1+czHbXhM+PgkKrLUnJvVdu9teognLbdrRPi6uPgYIpixWrExWPL1xERuY/OfH1oeAyhUqOblqjHo2b1rX+yRYz4/ounpmduT6J5f16c/01azSPD7Pq7+6HzKOOrU9CNO8pSdm220rW/nwGKYy2tbJPh7WvPrfgY8GDiY43ae89O/Lx/Hfj5R2d+IyiqbtKclqurKUu33cCLH9Nemq+H4r/AC59HcfkxfNERbXb7Mz6/HURPft2nxfMDi5v0+V0432aLp2txZPToi8UtWYn8duZyPrNuLfk4c1bVje4+iiv4+O57fv5uzLuUtOGt6zpPEsAqbXxA4gAAACThMW6b1AXNHOacVZNgdnOue9gOdc97Ac6572A51z3sBzrnvYDnXPewHOue9gOdc97Ac6572A51z3sD486pvtYEWWXpXum14/c0vjpf/aNrXG5vI42/obzXfj8y6oZYlG9pNXd3qWt79ZrbDjtrceDfD6S5eGbTjyTHVO58O8+fePH8H2WW5vbN79iX2RiOPij/qlv6Y519byz27+qP4j4PssuTas5v6JfZCOPiid9Jf0xz71ms5Z1P4R+8RtwqZWc0lJ3S2akb0x1pO6wrcjm5+RWK5bbiPDw90Ozz7P2n9F/Bp9WxfdWv8zz/H6Wf0j+nCGV3FNRdk9qsje2Otp3aFXBzM+Ck48VtRPj4d/V5OUctzSspO3BP7o0nj4pnc1WaemOdSsVrlnUfhP8xt8jlqavaT1u71J6+9CcGOfGrXH6W5uOZmuWe87nwnv4euPg5efJ7HJtcF/Argx1ncQZfS3Ny0mmTJMxPjGo/pExWUHPUTOeggAAAAAAAAAAAAAAAAAAAAAAAAAAAAAAAAAAAAAAAAAAAAAAAAAAAAAAAAAAAAAAAAAAAAAAAAAAAAAAAAAAAAAAAAAAAAAAAAAAAAAAAA//2Q==;clipPath=inset(9.56% 19.33% 19.33% 17.11%);" vertex="1" parent="vUEfeBpxAFAEwGMZp27j-60">
          <mxGeometry x="69.99652551574377" y="100.99836257309926" width="64.68269272529858" height="72.37513572204125" as="geometry" />
        </mxCell>
        <mxCell id="vUEfeBpxAFAEwGMZp27j-71" value="&lt;b style=&quot;&quot;&gt;&lt;font style=&quot;font-size: 21px;&quot;&gt;W&amp;amp;D Room - Node 3&lt;/font&gt;&lt;/b&gt;" style="text;html=1;align=center;verticalAlign=middle;whiteSpace=wrap;rounded=0;" vertex="1" parent="vUEfeBpxAFAEwGMZp27j-38">
          <mxGeometry x="780" y="280" width="220" height="30" as="geometry" />
        </mxCell>
        <mxCell id="vUEfeBpxAFAEwGMZp27j-72" value="" style="group" vertex="1" connectable="0" parent="vUEfeBpxAFAEwGMZp27j-38">
          <mxGeometry x="1090" y="90" width="304.72" height="181" as="geometry" />
        </mxCell>
        <mxCell id="vUEfeBpxAFAEwGMZp27j-73" value="" style="ellipse;whiteSpace=wrap;html=1;" vertex="1" parent="vUEfeBpxAFAEwGMZp27j-72">
          <mxGeometry width="221.84445698269116" height="181.00000000000003" as="geometry" />
        </mxCell>
        <mxCell id="vUEfeBpxAFAEwGMZp27j-74" value="" style="shape=image;verticalLabelPosition=bottom;labelBackgroundColor=default;verticalAlign=top;aspect=fixed;imageAspect=0;image=data:image/jpeg,/9j/4AAQSkZJRgABAQAAAQABAAD/2wCEAAkGBxETEhUTExMWFhUXFxkbGRcWGBcaGRgYGB0XGBgaHxobHSggGBomGxcbITEiJikuLi4uGh8zODMtNygtLysBCgoKDg0OGxAQGy0lICUvKy8vLS8tLi0tLS0tLTYtLS0vMC0rLS8tLTUtLS0vLS0rLS0tLS0tLS0tLy0tLS0tNf/AABEIAOEA4QMBIgACEQEDEQH/xAAcAAEAAgMBAQEAAAAAAAAAAAAABQYDBAcCAQj/xABJEAACAQIEAwQECgYJAwUBAAABAhEAAwQSITEFIkEGE1FhIzJxgQcUQlKRkqGxstIWJDNTVGIVQ2Nyc6LB0fAIk+E0ZILC8Rf/xAAaAQEAAwEBAQAAAAAAAAAAAAAAAQIDBAUG/8QAMxEAAgECBAIIBQQDAQAAAAAAAAECAxEEEiExUZETMkFSYYGh8BQicbHhFTPR8SPB0gX/2gAMAwEAAhEDEQA/AO40pSgFKUoBSlKAUpSgFKUoBSlKAUpSgFKUoBSlKAUpSgFKUoBSlKAUpSgFKUoBSlKAUpSgFKUoBSlKAUpSgFKUoBSlKAUpSgFKUoBSlKAUpSgFKUoBSlKAUpSgFKUoBSlKAUpSgFK1sbj7VoA3HCzsNyfYBqaisV2wwVv9pdyz4o4/0qjqRTs3qVc4rdonqVXP044d+/H1Ln5afpzw7+IH1X/LU5lxK9NT7y5ljpVc/Tnh38QPq3Py19/Tfh38QPqv+WmZcR0tPvLmWKlV4dt+HfxC/Vf8tfP034d/ED6r/lpmXEdLT7y5lipVc/Tnh378fVf8tfR234f+/H1X/LTMuI6an3lzRYqVXT244f8Avx9S5+Wvn6dcO/iB9S5+WpzIdNT7y5osdKrn6c8O/fj6lz8tfR244d/ED6tz8tMy4jpqfeXNFipVcPbnh38QPq3Py18Pbvh37/8AyXPy0zIdNT7y5oslKrh7c8PETeidpR9f8tZ7vazBquZrjBfE27gH05aq6kVuyOnpd5c0TlKrP6fcN/iB9V/9q8t8IHDR/X/5H/2q2ZEfEUu8uaLRSqqfhD4Z+/8A8j/7U/8A6Jwz9/p45H/2qMyJ6el3lzRaqVVR8InDP3/+R/8AapPg3aXCYoxZvBm8NQfoI191TmRKrU27KS5kvSlKk0FKUoBSlKAqnEkDX7jMdiFH8qhVMfSSap/aCyl61dVtQNj4bwfbWTtBxW7Z4neVYKuV5WMCco1k7VD9oeOk5rLWwqhirhWHMdiAwERI3HSvJng5uq5cXe/Axp46kqUovjJW4u5ybG3szrKEEkgvLjvIYgSJjQAJyx6vjWE3xmuE2tIaLea7CExqJMyv80+dXninZhO9KnOApPKt4BEM65Q1qQZEnxMmtUdnkkt3lwMZBY31BYHcH0WoPWa9W5dTstnyKW130YGXUsfSS8jT1N8sddp91bK3l7xZswABKZrsXIB5ic2YTvoY8NKuuH7FKSElyHaMov2yCxGmndbx1ryezdlbwQ3L+ZGVVYXrcqCWXSEzQMp9mgMZhK5WWIjHe/IpNq6O7c92WmNc1z0Wp1EGDOg5vdXo3FhFKkRMvNzn1nUEwMu3L99X232ITKee4FMZh3hAYLJ5h3GsQela+I7J2U5WN7KpIC96pAO5I9Fpr9NLozeOord+hTEvDPcbufneim5lWRvoc3Lvr4a14N30YGWZae85swhfUnaDvG9X3Ddl7TFnD4nONGZbi5ocAAE93qCK8t2Tw4GVfjGSdVDrlJ0AJHd76jbxpcj46jxfIpgvrnSLQ5QunpCL0ZoJG8t/L7qxd6oVj3ckx1f0cNuI+rzaa+NXU9nLGk/GJUDKe9QZMo0y+j0ABHs0r63Z2woJm+M4BY97b9IDJGb0eo3+ilyfjqPjyKPcywq5cogzcl5aSN505duX31l7wd4W7hR07n0gU8vtzA/L36eFXNuy9mGUriMik8puJCHTN/V6Gd/tr5e4CgbOTiM4+W11MwkRv3e0afZ5VNyPjqXjyKWlxQhGTNmiXlpTfTTl18/CvTXFzLyAZYj1yLu+pB+dty+6rVc7PWgWQ98okEqbiQTGhIFveD9vtrFe4RZEGb3LGX0iSI2j0eg8KN2I/UKCdr+jJHsQUeCUCkPcKprC+poM2ukxVxsY83HNsgEEGRG0Tv8Ad7651Zxi2CGViChZi1xs05sgM5V11jp1qZu9vRlIXulYjVsxP2ZRPvrzcRh51JuSV7rkdOHxMMraT34bmk+HUYzuv6vPB8l6/R/pWxxW5hbdx7Yw+YIzKGF24MwBImNYmJioUcQtNiECZiS/MXjWY8POfsrb4wvprv8AiP8AiNd8FZanPhqEdXKK3N+/xFSbefAzm/ZhrjQc2UaDLGoy/SPEVs4bEEOETBIGCZyDiCmVTmmQ8DQzMDSR5VsW7AfCYW48syuoB5iVHfBIEMI5VA2J08ayNkGKu5sxzW7YBJVDMuoHOwDCI5PVYDbRRU2W525I8CI/SS2yhRhQNVIPe3DEEN94FZuD45bNxbtm0EZSCDnuHUeRbWorB8Nc22ugSiRmbSATAHWTqa2sGKOxHRQe6R1HgvbXF3Xtq3dDPcVPUYxmMT64ro1cX7NMO/w4/trf4lrtFSiZqzFKUqSgpSlAcU7ej9fv+1d/7q1X7+GByhtBmWfp+2rf21w6/HrjdSV6jwA93vqvcWAB12D+/es82p8rUrSjiHFd4z8YA766f7R+v8xrQuAHqQSKleJgm7d/xH/Ea0hY8q1Z9YeuEX2TFWSTPpF67yYnz3r5eZUuOV1YXCYOolWYrp4As0f3j415wxnEWvK5b/EPorWdpLPAIDs2vUTG3h5edUZ5v/oXtHzJK3j2J6DpJzba6HmPzj9JrGXaSWgSSWJHUkT7YjStVBEllAGkAH6fZuNK2DBBBInLBjymPLaljzddmZsC9zvGCOVnLOx2BOx9/wBNbardCgi4AF2kBWhQG2Os8gj6djWhbUgyG1ka+zQVjvEnmJmfPxn/AM1JN2l+SQuWroB5k2IgkbQwO410tR56ecaN0OATnBygbNtlJtrHs1+ma1wQImN/P367gQI0+8mfbTAhhtrzrqdTOp00IHu86FG1a/8AZvm9dDlRdnM5BIgyYEt5nmIn218xBuspm6pAUtsv8pjbfn/5NaTIYkOD5Ajz91ZcFwrFXVDokqWyzmUayR1Pkaq2i0IyqPLFNmlicSzEliCT1hfYOnlWpf8AMg+dSOJ4e6u9t4lTDayAfdvWLGLbQKrECR1gEnT7almLpvh/O5WuLEKnKPSCTm2iHt5d9NDrM1BXPjAuXQzAMQ3fHPbGZZBcZs0OSeiz9lXC4VggFGBEQch0kaEHTpULcdCSqiyDqB6O3AO2vLt51KPYw1aUIKMosjeCWi+KtDobiyfKRPs0q4dqkVMVfVTKi7cA9gYioHhbziVBHNJzCBpvI06VJcZf013/ABH/ABGh3029bk/hUP8AR9o5VjvVOYRm/bMJErlzzpqYyxWnxdsL8ab4wLhGRMoTLIaWkawY6QebyAgVtYfKMHZUhASykktbDgd+YGVl1UrDA6+fLX3CYkHGrcRt7QAbPaYNqVYgl5IlW+UWEeAoan3A4FVwF1yX51UiQAuYXFGUSSWMAmQB4TUXhayWOOMcN3BzAAALkgAjMWIfSW1YwBFeMJUEos3ZY/rWH/xU+8V26uL9lkHxjDn+1T8QrtFSis9xSlKkoKUrzcuBRLEADqTA+mgOGfCDjDb4liDBIGUmNPkLpMGPbUXcx4u2Df7sgC4V9dWGYBXiMoOqk/RUn28AuYzGlXJQonqah9FGrA7A7b6ivfZrhlpuGvIYk4xgQoDZSLYA5V1EAjc/fVbaXPMjg6c1KbWt21zNjFrN24dfXf7zWFrIjX/StK/xm4GaMupnVR19oJ3rYwmNxLjMFTKNCW7tFLaaAtAJ128xU5jf9QpN2SfL8nvD2PTWvK4nT+YVE8WuAZwugzkjzAJE/Z9tTC38TJ9EqlY1fIignUQ7EAmNRB86h+K2nzMboyluby1nVYkESDEaaeWho5MVWVXLZNW4oydmuFC7YFxxcuNqW52AVQzIDC6kcsk6/QKlBwaz806/2tyt74Lx+rP/AID/AIr81lJqruexThDKvlW3A0E4TZ6q3/cuf71mtcBtMQqIxJ2AuXCT9tZbUzGmrH/nnVl7MWvTofAN+E0LuEO6uRSe0nD1ssqroYOkzBUlDrufVHXefE1TuL8XuC5cUMFKuVAVEiAdZkTI2q7dvCO/1Ma3Px3K5xxMzdvn+1b76vE4YQj08lZGVeM4jbvIEzolsfcupis68cxE/tT7lTeSfmxuSfpqPwSAtDREHqREazpWa8igAgRrrrO8kfZFaWR0ZIrZIu/DL7vbVnILEEkgASZfXQDWoPtC4bPIHLoPKHUe6anOFgdyg/kB+nOah+I2CxaCMrMScwYzDBh6uw0+/rWa3PIpyUaqb2uQS4fkDQsZTqf7xE6gieleMLh5RToDncZiAY0txPkJP0neptuG3AI7y0olhGW5prJA01jNWTA8GYW3DxFtiToQwz5ATlLKdFQnUffpNz0a1WMo5YO7Izg+HdsSqwQQeYxoBG/mI/5473GMETeulRmXvXhvHmOv2g++q3xG82YqrEDrDEbeMb/+awcGxTqXljlNs6c0alOh0qC1JtU3K2/YXr+kLlw2k7hSEW0CQqtcItZZhtwDG3mRXr+k2F9rrI2Yqoki2W5WLFYMQGBAJ3EbGnDuzTPbJF1O9Fs3Db8hEjPMF9dojzqPwOAa9cyAhdCxZgRCqJY+4dKpmRWVetGSi4avx928zVweGfbLr0Egk1N4Xhd/pbb3Co/ieG7hUuB1dHmGECGADFTBMGCNjodCBtW92Y4unf2uYZi4H2+FHJWuRPE1ad80NvEt3ZXhV8YiyXtuoW4CZB0iTXXK+MwGp2r7VzqbuKUpQgVyf/qOb9Qw48cSNPZbu11iuR/9R5/U8MP/AHH/ANHoChcJX9WT/ATw+d522+wp7TtVv4IF/o0Zo1xrRmgicibd5buAddl/1mocGb9XTzsJ+L/EWfqv7KtvBNOHafxh2IH9Xb3i5aJ97H6NoXV8zlpftvz+5X3Guu8n7CR4D7h7BUpwXCG+DbggJclGChjmcQylSQpUrbzFiQBl65orWxNq53A1071o309aZ5mGvkDt6x0qY4OiHCm098WhdPd+qYN3vO8zOQBylMiT0hvOaxWp5lOCVRp8CR4hgLT2xZSzetmzmi6bQZLgYjvDaU3ACSecBZOUGNaqHaFSrm2PVRVCazKEd4G6SWz59tM0dKm/i9i6BhzcuWvifek3SshucZsqAg22zEBRJnSYNaXbe+HKOCzFw75mHMLdxi1q2fFlE+4iNBpoaVbNX+n9eXrYnvgwT9WY/wBg34r81hnT3V6+D7H2bWDd7jrbUWHlmMCc9xfvaoRO0uDAM4m2d4iRprA6yY6/dVD3KXUX0RKYBxyiD4yY6g/7Va+zVz0yjyb8Jrn2H47g5X9Yt6DoW8D/AC+dWrsdxrCvirYXEW5OYAFtSSCABO5qC7K/8IKenHmX90u9c14ox76953HP2mumfCEp+MLGxa5+Nz91c04t/wCovf4j/iNaQOCn+/PyGCu5WBgnpoY3rNfkAAg/ZqPL3++tJCZqQxV9XUa6gDpuR1+09audRcuzljv8MzZiDaBBnYxmYdfCRWp3imd/MbT4e/zrb4ReNuyoUwGtnMBpOaQSfHlMVpYzE5ACqh10DGVGUEgD2ztWOtzwKrjOooU4vN2/U9Yy/bawlnKeXveaQdbjZp1BOmo318RXi/xpFa+wD+mRUILDlCqyzoOYkttA0FRd3i2HJk27nslforTxGOsPARLgJK75SBJAOkid/uo4HoQjilq/9cLENxdiGBBj/mtR4dk1B9kHX3/RVha4ZIEgyQQY6adN9JrDaALhekNPh6pI0HnUpmlOtZZWtS9nDWyYVLbKsZWNq3mOkgkuuaeknwk71sphwCWCpmOhPd2519YE5dZ868IwznTIDBKanLyg9dd9ffW9cv2gjcp70zlYHQGUyk6aAAOTHiKh7nctkapwquoVraFVJIU27cTsYGWAYAEjeBWwnDw5CqiMV9QFbI9ygj3dK8r06eQ22P8AyfL3VsYXEtYvK4APdEGJM7BoIVWy+yrRi3sispJbm7geN4rvApu3LgGjW7gJWNjmUAGBM7xtXXK5Nb45dvPzZIIKhRbdWE8u76nQnoAa6zVpKK29+iM4uT63v1YpSlVLCuR/9R6n4nhjBgXzJ6CUaJPSuuUIoD8z8DY/F1if2CTGbTnG+VGAH94qPOrfwIE8N0kxjDEBj8i3t6O59ij6d9P4QXUcRxQgSUTLyqdQqHqRlMDcV74BdQ8OdSRmGLJywrH9irDllTqEaJJkgjyELq+ZzUnanLwb+5GG3nUooMhiSVGu7aeqCPfHs6D7wZriuYQXEzDMjoWVis5ZG4bUwQQQCfEg/bLEKz20dmJOitknVB0MCA7NqfkxW3av3E9VHgyWOZhzArGhGYs2YnN5GdzFM553RSaz348OwnMVxt273NaZ2uxNu5bTKCDO6qHuFSNJjzmq1i7mdibpkkrPTQIRoBsAIEDbQVMMzvnnNbysQtx3DSJQZwwPJmBMCQeX21XcRYbvILTLeudiSYkn7atCSaGIz03llqz3wu+LS93JKkzDFSAW1MShIGYezUnrWwvEFMeiXUA6hPnFfmeVaj4Fhl1U5tomNgfDwP31kt4Jxc7uVkADU8sBg28ac3j9lXsRHE10rXZtPj1H9WuoB9VBofIp4VjfjeXVbS7+CafQu9fTwoquoRYVfVMDmjLpGWYGoB8+ooeB3O8KZreYaE59PZqNfGPD7CsWlicReykzW4hxFr2XNOg01ERrsIHUmZJ3qLxnDsO7s5VwWYsQLgiSZPyKm+G4Aur3HurZtIQpdlzS7SQqqoJdoE+Q8K0Ewee0125eW1aVsoZkzF3icqqupgaknQSKh3WxSnUrOV76s08NwrCHQ94PD0inX/t1mXgmH00ufXA+9PbWrwXHOzFdFy27jZlEMYBb1p8qnMNiHfDuxuM3MBBOYQI1nw5o8KlN2N59Oqbmp7GO66hVRJhViSQxOpO8DTy8p8K8doz6JhBE27O5n5R+ytDF4sWxJE67TGm53/4dfCsN3EF7ZC2yA5C6QYKFWk66TmAqO0pg4TUlOS0fb6EUqEgQATMbeU+HkaxIo723/eXYb81Sn9GYtQIt6CdJTciCd9461hxGBxKlHuWyFQr83aQYAmh7TkjFjAAzkE5+9efDLJ8RvPnWtgwO+Ej533GpW7gjdzOiOWe40ACdDLAaD1vKfdWpawFxSGAE5QRPUMsqfYVYEeRBqFoeU6kYvMy4sxzetn0HMCzZoUGcx1+n/wDZK4ls2i+b0kEqoXRiCmUT09ZtT83zqJvOFcgJcAyq0Lbuvy5Qc2YJ6u5nTQ9KDGWzP7QyNIsXjoBvonhr7iZqG9T1U9iUsMSAZkyJHv8Au/8ANbGCD37pti4696QIDXIMwuuVwCNI2+6oixxSyVDDPqDlbub2UhYBhsuo6H21s2OIqjBkN1WJ5SLFw7blSbZ166edWjJx2IkovrE0nCb1t+eSBzZ2uF5Cw5EnmmIifprrlcb4XYutfWVxILZs73rWIVYAzEF7i5VkLHQbCuyVeTi9vfqykVJdZ++SFKUqhYUpSgOI/CJgw/ErsDmbu1TWOfLbygnoCTUFgeJJhGOHvCHN5GyCYJAZQpb5KnvJmDoatfwh2x8buPknJetSdIju7bQTvJgaVSuIdmxeuLfVlRQouZO8UkhcsgZiGDcuxk61GZJWZw0ZK84t9t/K5r8M4DiLd74xkFy3bzuyZoVlt5g66NtII0HTSt7iuMKYSwQEF12LMNMwSLjbCDl0Vfo8arF7GuLjhDlScwVgWyqdVExsAQJMV6w95773BdZgLaMwyAT69tPA6Q5qGjaztmmk1b32LkbOC7QXWuZCifK+fOx2M76VccBw8ObKtcYm5a7yMq6RkEftNfX38qhsJ2US3nvM4OUKQBetyxuaDlCyYzSRpGtS+H4kyFTlQZRAMahDlOUa+ryrp5VWTv1TnxDwkZJTi7+Gh9GAdma4EthUbKcz20DNBgANGZuUmADNZsXhLoVpw9kFVJZVe2biAZpZranOIzidBECYqQ4Pj7SJmcK04i28a5lARybigESQT1ka043bDWyfjAFsZctvOhtyi5eQK5fMxk6opGZsx0k6J3OOEYuLaf2/grg4gvL6G0YAG3rQIk9S3X2/bgvXs7sco1JIWdp1gVls3LSrD2i8tIYMVMRqsR46zWG5etliRbIB2GY6HLG8SebX7Kncweq1aJXA4i0bTYe+lxUL94roMxV8uUypIzKRGxkEVhscVVcM2Fc3rasxIa2qtOZYdCpMlDlkEaitBLlo28rJD9HBJ6jUjbYRHnWDEXrbXE7q3kMwZYmZMT9BIj2VBvSbTTuvxwN34OnPxm1qoY3Y/q5ju3bqC0SAdARpsay9krijD8xXp63d9bTTGePsE69K+9hbTJi7ahmKi8BILhT6J9SFcJ9PuatXs/iimHEFhIE5TeG1s7924H1jHt1qFsz1YR/xWMGNvYd7jq0yGYRl0B2EeWoMe7SviY3BWnKXFuRKEBI2aVecw1PIu3TxqAxONtd67d7u5aMo8Zic3+lWGzxlLIQXQOdVKkraclczsCMwaPX8usjQVF0c6pxSSs3G2u+/vs2NrDW7TlGcQHa3CksFKsfVLaFBGhbpE671LX8Bgcr5SjEJcKen3bKSN21MxodzpVO4txAiyty29r5KESZOUBZCztt16EwKXsUjlTkIZlzMb7ZczF15lKwSDMGSdydxUFaEXGL+RNN6N/0TOCtq3xmLXfBcOxDcq5IC5bhk6RvGu9ZL1hRYwqrZyOwYZswJuvNtZ3kak7get7ap9/jF1AcmmYEMVa4MwHTRoIiBr4VI8exbK2HABAVWb1nOqgMfWY5dR9vsqJXSNI4W9K0vevirlp4nhb9qw8X8yJl722rPCZvV0OhU7/bHWorAXnvHN33dqhAzsx0ZpgLHyjHltUljsDbtXbthpuOsKzZnHeGA2bKDAO3+lanxWzBU2wRIJDF21APid4J0qMjN3gqbqKWtktrvyNPjOPvWbrC/cLMU5WzEyjA5YJ2Uzt9+52+zfaJWv2ULEkuNzPgK+3MNbuXEJRcygKpLMAFAgA80ZQNNttKjIw9khmssmXq4v6D2loqcry2E8Kmmk9/M/TrxGu3nXquL9lO2t69etYcXQ6OVDWyraozBDz5TA5l69a7RWhu1YUpShApSlAcl+EK8zYlrBQ5HxNo55AhjatpljUnlMzHUVS+L8bNi69lUWERU1CFiHRbg58syM0THSr52yVrmLu2EUki7au5hoEItIi7iD1Mezw1qHF+F92rNfQ3SRAdTEbAZhHMAJ1nTToKx6SCllbX0OWCV5Syt7q/m9Cl3cBcObS3JMCW1AWADsSDod4+0UKtbeIUhgUJB+TKuOnin21aOK4C5YIRic5grFtCp7wQObNpIuPp/dPhEcyPzC4CJI2toY1LiO7fQ8rb9JrW5aPTNWktPL/okLHGHvWMSMqqEtKxKqoJyeqMwWd0JPjI86r/CO172i+aylycp5t1AAHmOlWO92dvfFhcLd3aOvNEnO3dMcqsT8jUHoKqg7N3M1yHtQNAXcoWETMQenQmoSSeghldX5lZ27dSw2eLtdQXMqrmDGFEASWPUmTGlTHALNm5igt8hbRZ8xZsg0DFTm0iWAFVzgdi6lt2lYssLTLq0q2dmZYB6W2gx0Mx1mDasLIFvElgASMlzMoM6sO6lNtJjxqU7HJ8HPO5RStdssvBOF4B7Im6lxu8YekPc8vdlgMueQM4HNO5jpWUcHwATPcW2rhbp7tcUHDZVBSWDaEtIgVVMfhTatYe4HVjeUNln1UbKVYiJClWB1gyDpUdjcS4VjyiANj651mJO+23lUq/YYKMk8rhG/l9fepehw7hhIEW15cM0m/Mm44F5OY/JWSeo3qlcQs27d18nqpdbK0zyLcUKZ66da2cGGe1akG5buo/LaW49wFX10VW6gf8ABWrjcApAVFuB2cIGK3Dazz6pYWo09vt8oudSw83G+VEh2QvB8fbcRzX9PVn9k5gTaLeOxH901W70DDW5jXxyT6gmM1pj9AHn5WDslZNjiFuzmDRe1IIgMLTyDF5Rpt6p9o6V28W+KJEwcvjEZRqfSKPxe7ekdmdtNNRszN2fxltMHfllVnICgmC2Rb0geMG4mnmK+8CxKYK8l3EWzkZUOQAZimZWJhoBBCld+tQvB+H3cQiWrfM3eQqyo1cEscx8FtTrpy+dW3txwPEG1Zu3bOHtW7XK7WbrXCEaAGKsTosbA/KiNasti62NU/FLmGVL7C2UTKhUZlaDIElT85uadgPfh4xZtFhkuNiLS2xlN0uYJDkgAqIEAHQgT86tvsujm2DaCm46ZQpUtozW2bWQFjINfI+VS/GuA41ybzi2TkylbeZQQJI02J16z5VzyqQhO0nY5l8yeVXabvoUi6Usol0qLgZWGQyMpGimQROonyE715t8UW7eUrbCqMxOYsdCW15nI9WAfYfbUjYGaVe4VVUYKD3Ig6aemdF1lhAbN4CKiOGxe9YgGSqoot6KwJ0l+8aM7awfMnWNEWp2lG6RfLKnu1Bz97MXAQSZBffQmcuWJ6TWu7jMddp10G3kJGo8DHt67N/Fm8GxD5Q9xpgeCZ7ZAkn92vvjWJrTuD0jwfltBkmQCYMkyd58dqsdhsYfUgDSdPLfxjTep7gXbFMMwYYe9dEH1Qi/iYHoOlV+yAWAkx18Y0HXymtzBdn8feMWksXOujlTHsYR9tAza4fxhsRxWxeOEGHEW7ehVi57+y+ZioGuVT/vXcq4LwnB4mzj8PbxFruzmt3BJBBUXbdsQRIPM41mu9VJSQpSlCopSlAU3ioC4m9I1Yow81yKv0SpFU3ilsqt5nWFOwkamurcS4VavxnBzLsykhh4iR08qhOJdhMLfEXHvEeGcAfhrzp4SbqNp6N38RCpKEHFLjbXi76nNe2tx0xNtSzAdxZLKGIBYDrB1gioW/iLR9W2U1lsty5zHYfK5YBbb5xq59u+x+NvYlWw9kui2UTNntjVcw+Uw6RUAOwvFf4U/wDcs/nrvsaJmfidh72EwZyygX0mugDX76rIBBYZiNtqp3FLOV3A0hiNJ2HhJOntNdn7P9jc+Gs28WjoUQcoZPWF284BiQYDKffWe/8ABhw9pJ72TqYcdf8A4xUWPOxWHlUneJyPCYdlsYwJCw2HOmYaFcSCBJJmDH/JreF/iAe5N9i82EunO0uLxK21JiSBlM+3rV77Q9jVw9hhh1vXszqXQsgIUJcthgxAGYM6mOuX2mqda4Nj+9us2GcLcNoyLtvMDa9UmGOkkk0O6kssUiK7V4dVtYc5rgJwuHCd2JUgIAczZgVG0QDuT7dHB2i9i2pFr12AYtmuMOYy473MqiAByKIgyevacB2StYjDWFxIuK1q2q5A0KpKpMGDm0AEydvbXwfBlgAwYG6CPBl/1WpscdSnJtpRVr3v2nKcDh74sYXuHNps94ZgWUqGu5Zkagb9dprPgGxTvhVa8TZN3MVzNGa3eWy5jYlmbQn51XLtL2YvWjbTDWrt62iwrNcysGVrjEHaVPeCP7vvqv8AZ7s5xBGso+FaVuev3luArOrtK5tYKzQ7Yq0UV3hdx8PxO5dZSy27t+6V0BPLcIhiDGjb1DXs4wwAgkMACQp6KNCRIEvuImK7/jOwuExGa4zXg1xMpIYAhSuWACukDy6azrUbZ+CXAKrL3mIYEg8zoQIg7BADsN52otEzCOdRa8dDnPZDgC27FvEIzKzq6sh2zo7JmUwCsrmEfzeWspj8D3lt7TOYuIya6xOgaOsGDv0rL2+wl3hrWLFi6DaZbjKHtyymQzcwYBpZtBlEedVPhfGsTeW5cL2k7sjQWyc246vpWkdrGq8TofBeGYXCYj4taDejXIXuEZrjEl506ZWA93vPm1gb4xDXH0SDmObRhrGntg1Y+H9jrWIS3ib9x2vXFV2a36NZIEQusQIG+sTUtiOytl1yNcvFToRmGv8Al1rzcRhZznePbuVo1KlNSTj2trX7nDsaSL1x7LFZJEqxSVJ1BYA8p32I8qg+GcBvZlS24TMwBAuNAJgSVIiQQOpggDpNd7HwcYH+1+sPy16PweYLxu/WX8tdiTUbI4acMTBvRau+/oco43hQt+6thG7lWPdqFuNAIBMEgnViTWibVz93c6f1b/l0ruNzsfZYKGvYghdpubHodtT514t9i7CtmW7fDeIuDrr83XU1N5W2O7pJ36un1OMWLTyJt3YkSRbeY67rW/geNcStGbMW+g/Vnf7WIH2V1J+wWGLlzcvljue81M6b5alOF9nbFhs65mcTDXGLEToY6CpTfAKpNvq+v4OP8FGNvY2xcxD3brZ7aDNZKBUF23dMH1QJtjwru9fGWRB619qxdsUpShApSlAKUpQClKUApSlAKUpQClKUApSlAKUpQEfxTgmGxGU37Nu4VnKXUErO8HcTFaVjsbw1AQuDsgEyRkEE+Y2NTtKA820CgKoAAAAAEAAaAAdBXqlKAUpSgFKUoBSlKAUpSgFKUoBSlKAUpSgFKUoBSlKAUpSgFKUoBSlKAUpSgFKUoBSlKAUpSgFKUoBSlKAUpSgFKUoBSlKAUpSgFKUoBSlKAUpSgFKUoBSlKAUpSgFKUoBSlKAUpSgFKUoBSlKAUpSgFKUoBSlKAUpSgFKUoBSlKAUpSgFKUoBSlKAUpSgFKUoBSlKAUpSgFKUoBSlKAUpSgFKUoD//2Q==;clipPath=inset(16.22% 2% 18.89% 4.67%);rotation=90;direction=south;" vertex="1" parent="vUEfeBpxAFAEwGMZp27j-72">
          <mxGeometry x="202.2347603931766" y="26.05447368421053" width="92.19125402076548" height="132.60158794788273" as="geometry" />
        </mxCell>
        <mxCell id="vUEfeBpxAFAEwGMZp27j-75" value="" style="shape=image;verticalLabelPosition=bottom;labelBackgroundColor=default;verticalAlign=top;aspect=fixed;imageAspect=0;image=data:image/jpeg,/9j/4AAQSkZJRgABAQAAAQABAAD/2wCEAAkGBxETEhIQERIWEhAWEA8QFRYQFRcYFRUVFRUWGBURFRUYHSghGBolHRUVIjEjJSktLi4wFx8zODMsNygtLisBCgoKDg0OFxAQGy0iHSUtLi0tKy0tNysrKystLS0tKy0tLSstLjctLystLS0rKy8tLTAtLS0tLS0tLSsyNzgtNP/AABEIAOEA4QMBIgACEQEDEQH/xAAbAAEAAgMBAQAAAAAAAAAAAAAABAUCAwYBB//EADoQAAIBAwIDBQcEAAMJAAAAAAABAgMEERIhBTFBIlFhcYEyYpGhscHRBhMUUkKC8AcVIzNDU2Ph8f/EABgBAQEBAQEAAAAAAAAAAAAAAAABAgME/8QAJBEBAAMAAQMEAgMAAAAAAAAAAAECESEDEjFBUXHRgfAEEzL/2gAMAwEAAhEDEQA/APuIAAAAAAAAAAAAAAAAAAAAAAAAAAAAAAAAAAAAAAAAAAAAAAAAAAAAAAAAAAAAAAAAAAAAAAAAAAAAAAAAAAAAAAAAAAAAAAAAAAAAAAAAAAAAAAAAAAAAAAAAAAAAAAAAAAAAAAAAAAAAAAAAAAAAAAAAAAAAAAAAAAAAAAAAAAAAAAAAAAAAAAAAAAAAAAAAAAAAAAAAAAA8cjCVRAZyljd7Lnua6FxCazCUZrvi018UfJf1/wDruNaas6Mpfx9ajWnSxqqLO8YeH18udTY2VrJ6rG9nQq8sa2nnu0S0yfplGZtjzR/Im1pimTHzm/D7pk9PlFt+oeM2201C8gvDE8fJ59GXXDf9qFtJ6LmnUtqm2dUdUV58pL4CLRPhr++tf9xNfn7d6CBw7jFvXWaNaFTwjJZ9VzRs4hfRpRy929oxXNv8GnaLRMbEt1e4hBZnJRXvPHw7yG+N2/8A3F8JfgobirrlqnvL6eC7kYpfD4A10MeNW7/6i+EvwbYcSoPlVh6yS+pzTpruMJWyBrsYVE+TT8nkyOJdulvyfhzN1C7qr2Ksn0w9/lIGuwBz1vxyovajGS93Z/csKHGaMtm3B+/t8+QXViDyMk91uvA9AAAAAAAAAAAAAAPGzXOoKkiBcVgN1S4Pm36y/Ute5/cs7Ba4RSVaopRinnP/AA4uTW2z5c/Ln0/G5uVKpHd5ST05zhtZ5b8snzif6b0Sc7a4lRn1WrKb37Mu9eDycr3ycebrxa2R6eueVTwu3hQlquZ17W4UnoqaFKlusb9l6nu/AvqlJ11mdK2v4f3oSVOt45TbXpqRolfcRorFajG5p9XDZteOFjGPdIkLvhtWXahOzrL/ABQThh+DjmK9UjEzM8sU7Kx21n8Tx9wk0pQpPTSuq9nLpSvYaqe3SLl2UvJtlbxPjlxcNW8o0quKmIujGWZtZWYtvk/BIx4nfVpZtqVy7mjJwS1RTnJ5WIptapPON1zJ3BrH9nQoxjVvKjbjHLxCGnnPbGlNxbb54Sjq5nStfWXnv1JvM0rxHr++ErhPDnSapUUneVIZcpLVGhFS3m04rMcYxzUpbJNLJ2uHCEIOc6kox06qstUn1eX03zstlyWyNPCOFfx4Pd1K03rq1Je1Un3vuS5JdF6mx0JvLaz154+eGbero9Lshp/kG+ldkefD6nRY+L+eDD+BV8PXIduVnC6RvVdYzkpf49VdF8TJTmmlJNLPMLEyurNa5Nvlj5d3+v8A5tnb57Ky9/RbN7teRC4bWhDUtWqcnlyxhLHspLOyS8e99S0hWg9ovON8dW31K0huweG1st/Brrk9jTTS67Lfv8SFxe+y8ReXylJPn7vjFfXc3cNqZisgb6WuDzTk4+XL1XJljbcda2qx/wA0PuiGa6tLPL7r6AdPbXUKizCSl5c15rmjcccqTT1RbjLvjsWdrxqUdqq1L+0efquoNXwNdCvGa1RakvD6PuNgUAAAAAAABorFZcxLecSNVogUFWDIdzaRmu1FPz5+j5o6GpakedqBw93bVIPsN6e6W6/155K67hTqLFeipeKSf/v4H0CrZp80V9zwqL6GJ6dZYtSs+XEWXAqEZOdDDlskp76XqT1R37MtsZeefLfD7H9K8LlTpyrVpKdxWlOpOe7Si5PRTjndRS3x4srrngu+VzXLvRdcKrS0xpyejEYpT58tuRa1mPMsV6NazsNFxdNycYyxjqkmQKlndvdVnKPovsWtbhTT1LE1/an91zRsq10oT0vLjB+fI012+7kL2vWjtrm3pg9pNby9SBXv7mCi3VmlLU49p8ovG+S/uZxnltb5WPRbGPEeEwqRprdSjTS+O/3K4WradyUC041cYzKs2veUX9UWPDuMSqNqcYSWOiw/kU9zwSql2WpL4PwNvBbWcW9S0vuZJa6UWieXTW37KeZRa8t0Z3K1bU5L7oip7bmi9mlCUvAxr1cMb23mt1HK93f5Gyyu9Oxz/DuM1oZblqj3S3+Zd23F6FXH7i/bl38/TK+5pzmy4pXiZIhXRVXFKWlSitXVtNN4+5DheMpNsdLrR6oplHSvydb3qYSLQlwjOD1U5aX3dH4NFvw7jEZ9ifYny91+T6PwKulWTMJ0Yyz0yGtdYCk4JeSz+zN527LfPbp8C7DQAAAAAGLiZADW4GEqRvAEOduQ69uW7Rpq0wOcr0SBcJrPc/qdFXtyDVtfACktrvQ/bw+mHh5J8LyMk3UhF7LtLZv8mi74TGW67LINSjWg8ta0u4azixrcKo1N6c8P+stvnyNHELNw3aaz38jCjVi990/H8m63vasI4UsrPKW6x5MYIkU8ZMJpPZosYXtKeYzp6eW9Pbn4cjD/AHYpb0qsZe7Psv8AAZmFflrk9u58iBxOhOcXhL6ZLS6sqkN5QlHxxlfEjZfmThOXGXtvVj7ccLoluj21k877M62pPvW3Ih1banL/AA4fulxxtu6r7fjdSi0ovPuvl8OnoX9tdUbn/wAdbu6N/f6lfW4VSaUcbpLfrnC1Nvq85+JBrWUqTU/ah0xzC9/uvJW0ovEufTHXy7zQ6rzgtv01f646qm6jJRjqW+rrv6o8/UtOOVOMe/VJdX4r7iG7eNhFpcQcSx4feSnlvl9+456zt5VZ4XLm+5I6NxUYqEeS2CdOZlY20u1Gf9ZLfvWTooVTkaGcwy9tWceEd8v1wXVG4DvC5UjIh0KuSVFhWQAAAAAAAB40egDTOmaZ25MPGgKypbEadqXTga5UgOdr8Pi98b962ZDnYzXsvK7ns/x8jqZ0DTO2A5WUce3Frz/PI8VBc0zo6lqQqvDI9Fpfu7fFcmExAo3FaHKTa7nuj2pcU5/8yks98Oy/kbJ2VRcmpeez/HyI9TK9qLXmtvitgmMZWFKXsVXHwqLPzX4ItfgtTpGM13wkn8uaN70vdfLdfI22+Ep9rfT2fPPMmJMarKtpUi3ri8ZljboV3EYTx2N99zqIX9aK/vHqnhr4STNFe4pzaVSiotxcsw25ZLyxbpxMKzhlGoqEJacJ1FnC8ZZ+hohfyVZwjhxb0uL5PpjH3Ohp1oqCjTqSjDTKOJLr1ey8SstOA4qKqpxkk9Wz5+jGudqWjIhPpUYU01BYy2e04Z3ZlOPQ9XcuQd4hlF758MLyJdBkenAsLagG021LCCI1vTJUUBkAAAAAAAAAAAAAAADzB44GQA1SpmuVEkgCDO3NE7UtNJi4AUVbhkHu4rPetn8UQqvCP6yf+ZZ+fP5nUOma5UQOSqWVZe95P7P8kapTecyTjtjdP68jspW5qlahMcl+zqjGMZ40tvbfOfIyjR7Upvnv8zoa3DIS5wT9PuR3wiPTUvDU8fMJ2qyks7L1f28yVTok6FklslsSKVqFxHt7csaNEzpUcEmMQryMTMAAAAAAAAAAAAAAAAAAAAAAAAAAAAPGjzSZADB0zB00bgBo/aMo0zaAPEj0AAAAAAAAAAAAAAAAAAAAAAAAAAAAAAAAAAAAAAAAAAAAAAAAAAAAAAAAAAAAAAAAAAAAAAAAAAAAAAAAAAAAAAAAAAAAAAAAAAAAAAAAAAAAAAAAAAAAAAAAAAAAAAA//9k=;clipPath=inset(27.78% 0% 21.56% 8.22% round 5%);" vertex="1" parent="vUEfeBpxAFAEwGMZp27j-72">
          <mxGeometry x="51.69652551574375" y="16.20479532163743" width="83.37615635179152" height="46.03058631921824" as="geometry" />
        </mxCell>
        <mxCell id="vUEfeBpxAFAEwGMZp27j-76" value="" style="html=1;verticalLabelPosition=bottom;align=center;labelBackgroundColor=#ffffff;verticalAlign=top;strokeWidth=2;strokeColor=#0080F0;shadow=0;dashed=0;shape=mxgraph.ios7.icons.bluetooth;pointerEvents=1" vertex="1" parent="vUEfeBpxAFAEwGMZp27j-72">
          <mxGeometry x="144.60552117263842" y="31.75438596491266" width="15.508957654723126" height="30.48421052631579" as="geometry" />
        </mxCell>
        <mxCell id="vUEfeBpxAFAEwGMZp27j-77" value="" style="shape=image;verticalLabelPosition=bottom;labelBackgroundColor=default;verticalAlign=top;aspect=fixed;imageAspect=0;image=data:image/jpeg,/9j/4AAQSkZJRgABAQAAAQABAAD/2wCEAAkGBxIOERUQEBAWEhAVExMQEBAPEhsQEBEQFhIWFhUWFhYYHSghGRolGxUVITEiJSktLi4vFx8zODMtNygtLisBCgoKDg0OGxAQGzcmICYtNTUvNjcrNys4NzIyMDUwLTErLS0rMC8vLS81LS4tLS0tLS0rLSs1LS4tNS0tLy4tLf/AABEIAOEA4QMBEQACEQEDEQH/xAAcAAEAAgIDAQAAAAAAAAAAAAAABAUGBwIDCAH/xABDEAACAQIBBwcLAwIFBAMAAAAAAQIDEQQFBhIhMVFxExYyM0GBoQcVIkJSYXKCkbGyI8HRJJIUVGJzszSiwtJDg5P/xAAaAQEAAgMBAAAAAAAAAAAAAAAAAwQBAgUG/8QAMxEBAAICAQICBgoCAwEAAAAAAAECAxEEEiExUQVBYcHh8BMUIlJxgZGhsdEVMiNCU/H/2gAMAwEAAhEDEQA/ANGgAAAAAAAAAAAAAAAAAAAAAAAAAAAAAAAAAAAdlKi5bAJcck1HsQHLzPU3APM9TcA8z1NwDzPU3APM9TcA8z1NwDzPU3APM9TcA8z1NwDzPU3APM9TcA8z1NwDzPU3APM9TcA8z1NwDzPU3APM9TcA8z1NwDzPU3APM9TcB8eSKm4CNWwsobUB0AAAAABlOa+T+Va1AbZyLmcqkL6PgBZcx17PgA5jr2fABzHXs+ADmOvZ8AHMdez4AfFmQn2ID7zGXs+ADmOvZ8AHMdez4AOY69nwAcx17PgA5jr2fABzHXs+ADmOvZ8AHMdez4AOY69nwAcx17PgA5jr2fABzHXs+ADmOvZ8AOjGZkqMG9HwA1lnXkbkr6gMBmrNgcQAAABn2YPSQHovNhfpLgBc2AWAWAo88MrSweH0qduUnJU4yavo3Tblbt1LxLPFwxkvqfCFXl5pxY918ZYLkPATynXcK1eWqDqOUnpydmlZXdl0vA6ebJGCm6w5eHHPIvq1nXnTkmjgakadOpKVS2nPSstBPo2t2uz8N5njZb5qza0dmOThphtFaz3W+Q856uFwjnVTrJ1VToacrNrRbn6TTbjGy75W4V83Frky6r27d/csYeVbHi3bv37e9kWa2cUse53oKnGCj6Snp3lK+q2iuxPwKnJ48YYjvva5xuTOaZ+zrXt+DIbFVbLALALAUGeGcLyfTg4QjOpOTSjLUtBK8nq97iu8tcXj/TTO/CFTl8n6GI1G5l1ZnZfq5Q5SVSlCEIaMU4XblN3bWvcrf3IzyuPXDqInvLHE5Ns25mNRCvzmz1lhMRKhSpwmoKOnKbd9NrSsre5x8SXj8KMlOq0oeRzpx5JpWN6ZLkHFzxGHp1qsFCU46ejG9lFv0du+Nn3lTNStLzWvqXcF7Xxxa3rT7ESUsAsAsBGyiv02Bonyiet3gafq7XxA4AAAADPswekgPRebHVLgBdAR8XjqVHrasKd9mnJRvwvtN647W/1jbS+StP8AadIXOTCf5mn/AHEn1bL91H9Zw/ehVZ0VqOPwtRUKkak6Nq9oa7JXTv8AK5fQm41b4ckdUa32Qcm1M2KeidzHdhGbuP8A8NiadW/o6WjPdoS1P6Xv3HSz4+vHNXM4+T6PJFm33TT1tJ8UcHcvQahrLyg47lMTyUehRjo2WzTl6UvDRXcdjhU6cfVPrcbnZOrJ0x6mWZoYeGDwUZ1ZRp6f605TailpdG7f+lRKPKtOXNMV767L3ErGLDE27b7rjA5To4i/I1YVNG2koSu1fZf6Mr3xXp/tGlimWl/9Z27MXjKdFaVWpGnHfOSivExWlrTqsbbWvWkbtOles58H/mqf9xL9Wy/dlF9aw/ehZ0K8akVOElOL2Sg1KL4NEM1ms6lNW0WjcNU+UDKPL4yUU/QopUlu0ts39Xb5Tt8LH04onzcLnZOvLMeqO39s6zXw0cBgIyqejaEsRW3ptaTT96jZdxzeRacubUfhDp8asYcETby3LWGDpTx+KUZdOvVbnbsUm5Ttwjf6HYtMYse49UOLSJzZNT4zP/1t/KGVcPg1CNWoqaaapqzeqNlqsnsujhUxXy7msbegvlx4tRadOWT8rUcTGU6NTSjDVOVnFLVftS7DF8V6TEWhnHmpeJmsotDOjCVJRhCunKTUYpQldybsl0SSeLliNzCOOVhmdRZcFdYAI2UerYGiPKJ63eBp+rtfEDgAAAAM+zB6SA9F5sdUuAFxUbSbSu7Npb2ZjxYnwaWxGIlVk6lSTlOTvKUt/wDHuPQ1rFY1Hg83a02nqnxbJwOZ+EjBXhyrsm6kpP0veknZI5F+ZlmfHTtU4WGI7xta08JQwtKSjCNOkk5TsrJq2tyfbq3kE3vktG53KeKUx1nUahpmMHK0Yptu0YxW1t6kuJ6Deu8vOa32huqtXVCi6lR6qdPSm9+jG7+x56K9d9R65ekm3RTc+qGmKlflKjqVbvSm51Lam7yvKz7NrPQRXVdV/J5ybdVuq35rLObGYitKEsQtBOOnRoLUqdO9k9He7PW9ersVkRcemOsTFO/nKbk3yWmJv28o8mV+TbA6FGpiGtdSWjH4IX2fM5fRFHn33eKeXvX/AEfj1Sb+fuYJlLH1MZVdWbcpydoxvqim/RhHcjpY8dcdemHLyZLZbdU+MsmzvyPQwlChRpUtLFTsnOOlKclCK02o32uTXZvKfFzXyXta0/Zhd5WGmKla1j7U+5OzQwtbJuGxGIxEXCLipwpSfpaUVLW12OTcVv1cCPlWrnyVpT9UvFpfBjve/wCnz5sPyBgnjMXThL0tOfKVW+2KenO/HWvmL+e8YsczH5e5z8GOcuWIn1z3/mWe+UnKHJYVUU/SrSUf/rjaUvHRXzHM4GPqydXk6npHJ04umPWo/Jfk7Tq1MQ1qhHk4fHLXLvUUv7yx6QyarFPNV9G492m/l2+fn1q/PrKPL4yaT9CkuRjuutc3/c2vlRNw8fRij290fNydeWfKO39r+uv8BklQ2Va+p9jvUV5X4U1o9xVr/wA3J36o93xWbf8ADxdeuff8FX5P8ByuJ5Rr0aUdP3acvRivyfyk3NydOPXmh4OPqyb8mzjju0ARso9WwNEeUT1u8DT9Xa+IHAAAAAZ9mD0kB6LzY6pcALoDF8tZmUsRJ1KUuSm3eStpU5PtdtVm/c+4u4ebakatG4Uc3Breeqs6lAwuQ8p4ZaNHEQcFsi5aSS9ynB27iS2fjZO9q9/n2oq4OTj7Vt2+fYYrN7KOL9HEYmGhfop6v7YxSfezNeRx8fele/z7S3G5GTte3b59kLbIOadHCNVG3VqrZOStGPwx7H73dlfNy75I14QsYOHTFO/GU7OHJssXQdGFRU9Jx0pOOleKd7Wuu1IjwZIx36pjaXkYpyU6YnSpyBmXTw0+Uqy5aad4Xjowg99ru7972eJPm5trx01jUK+Dg1xz1WncurOHM2WMryrrEKKkorQlT0tHRilqektXb3s2wcyMdOnp/drn4U5bzbq/b4uijmdi6cVGGUpwitkYKcYrglU1G08zFM7nH8/o1jhZYjUZP5/tDfk6n/mo/wD5P/3N/wDIx939/gj/AMbb737fFLWZ2LT0llOelbR0vT0tHdflL29xp9cxf+f8f0k+pZv/AE/n+3HEZl4qrFwqZSnODteM1OUXZ3V06ltqQrzcVZ3GP5/Ri3By2jU5N/r/AGj0PJ9WpvSp47k5WtpU4ShK268Z3tqRvPpClu003+fwaR6OvHeL6/L4uzFZgVaqTqY+VSavrqwlUSi+yOlUujFefWs9qaj59jNvR17R3ybn29/eYbMTE0lo08oypxvdxpxnBX32jUWvUvoLc7HbvOPf6f0V9H5a9oya/WPex/OnIMcFOMFXdapUWk4uFpWbtpN6Tu3K9lbsffa42ecsTOtRCtyePGK0Rvcz7EXLEa9OfJYirKpOKjJxlUlUVNySej6Wq9rXsb4ppMdVI1+WkeWL1npvO5/HbI8381sRUoxrQxcqCqLS0IaSvG70W3Gavda+8qZ+VSt5rNd6+fJbwcTJakWi+t/PmzHIeS5YWDU69SvOTu51JNpW2KKbdl9yhmyxkntGnRwYpxx3tMysiFMjZR6tgaI8onrd4Gn6u18QOAAAAAz7MHpID0Xmx1S4AXQAAAAAAAADpeKgno6Sutq3AclVW8D7yiAcqt4DlVvA+xmnsYHIDCM9ciYieJp4vDw5TRUE4rW4yhNyTt2xd+zcdHiZ8cY5x3nXxc3mYMk5IyUjfwV2Ts1cRjK8q2Kg6VOU3Umm/Tld30YpO6XZd9hLk5WPHTpx95Q4+Jky3m2SNQ2PCKikkrJKyS1JJbEcmZ27ERp9AARso9WwNEeUT1u8DT9Xa+IHAAAAAZ9mD0kB6LzY6pcALoAAAAAAAABgMJPl6uv/AOap+bAvcKwJlwI1dgdVwJOS3+r8kvvEC6AAAAAABGyj1bA0R5RPW7wNP1dr4gcAAAABn2YPSQHovNjqlwAugAAAAA+N2A4cr7gOMsTGO12AweD/AF6ttnLVPzYF5hQJoEauB0gSsl9b8kvvEC6AAAAAABGyj1bA0R5RPW7wNP1dr4gcAAAABn2YPSQHovNjqlwAugAAAAAr8Zi7S0d332gKFfSTe4CjyliXKT16uwCnwHTl8UvuBkWFAmgRq4HUBKyX1vyS+8QLkAAAAAAEbKPVsDRHlE9bvA0/V2viBwAAAAGfZg9JAei82OqXAC6AAAAADGsqP9WfFfigOeCm9GQEeNGDV56227a7JLuAp8Gkqk0tinJLhpMDIcKBNAjVwOkCVkvrfkl+UQLkAAAAAAEbKPVsDRHlE9bvA0/V2viBwAAAAGfZg9JAei82OqXAC6AAAAADGsrL9afd+KAYPZICqxtfVa+wCFkra+L+4GTYUCaBGrgdQErJfW/I/wAogXAAAAAAAI2UerYGiPKJ63eBp+rtfEDgAAAAM+zB6SA9F5sdUuAF0AAAAAGPZUp6VWdttk/+1ARcLVtdAUmUo3YHzJC28WBk2FAmgR64HUBKyX1vyP8AKIFuAAAAAACNlHq2Bojyiet3gafq7XxA4AAAADPswekgPRebHVLgBdAAAAABS4vr5fCvsgKXGScXpR70BBpR/wARVjS1xcna9r21AdsMOqVapTje0ZtK+0C9woE1ARq4HUBKyX1nyP8AKIFuAAAAAACNlHq2Bojyiet3gafq7XxA4AAAADPswekgPRebHVLgBdAAAAABTYzr38K+wFLiwOjJK/qafxfswOzEr+qq/H+yAtsKBNQEeuB1ASsl9Y/gf5RAtgAAAAAARso9WwNEeUT1u8DT9Xa+IHAAAAAZ9mD0kB6LzY6pcALoAAAAAKfHdf8AL/IFLi0BHyX/ANRT+NAd2L/6qr8f/igLXCgTUBHrgdQErJnWP4H+SAtQAAAAAARso9WwNEeUT1u8DT9Xa+IHAAAAAZ9mD0kB6LzY6pcALoAAAAAKnHr9ZfB/IFLi0BGyd19P44/cDvxq/qqvxL8IgWeFAmoCPXA6wJOTOsfwP7oC1AAAAAABGyj1bA0R5RPW7wNP1dr4gcAAAABn2YPSQHovNjqlwAugAAAAAqsev1o/D+7Ap8WgImB6+n/uQ/JAd+OX9VV+KP4RAs8KBNQEeuBCw2KU+y176OvW7beAFlk3rH8L+6AtAAAAAAARso9WwNEeUT1u8DT9Xa+IHAAAAAZ9mD0kB6LzY6pcALoAAAAAKzH9dH4f3YFPi1t7wIWD66n/ALkPyQEnKC/q6vGP/HECywoE1AR6yAiwoRjK/Gy2pX2/YCfk3pv4f3QFmAAAAAACNlHq2Bojyiet3gafq7XxA4AAAADPswekgPRebHVLgBdAAAAABXY9fqx4fuwKjFrbxYEHCR/Wp/7kPyQErKK/qqnyf8cQJ+Gj7/sBNUff9v4A6K0QOq6QEvJavKUuxJR79v8AH1AsQAAAAAARso9WwNEeUT1u8DT9Xa+IHAAAAAZ9mD0kB6LzY6pcALoAAAAAImMwzm4yi0mux7GgIryS5P052W6C1/V/wBKwuTqVJ6UY+l7Td5eOzuAqM4aOjVjU7JLRb7NKOzvafgByw1QCXywEPE4kD7h8NUq7Fox9qWpdy7QLzD0VTior69re9gdgAAAAAAI2UerYGiPKJ63eBp+rtfEDgAAAAM+zB6SA9F5sdUuAF0AAAAAAAAA+SimrNXXanrQFdUyTG94Scfc1pLuARyW/Wqav9Ks/q2wJVDBU6euMVf2nrl9WBIAAAAAAAAARso9WwNEeUT1u8DT9Xa+IHAAAAAZ9mD0kB6LzY6pcALoAAAAAAAAAAAR8XiVTV2Bj+JzuhTdnYMbh1c9aW9A2c9qW9A3D7z0p70Dbsp54Unrugy+VM8aS7UB8jnlS3oMbfXnjS7Ggzs55Ut6A6K+dsKkXFNBjcNVZ+VtNNhlqSrtfEDgAAAAMyzOxqptAbtzfzqjCFm1sAtueEN6Ac8Ib0A54Q3oBzwhvQDnhDegHPCG9AOeEN6Ac8Ib0A54Q3oBzwhvQFfljOiM4Oz12A1LlPEvSnKN9V2ldtt2uczk0rW9ax6/a9z6E5OXNxcuXJET0+H2Y9Ub9Ud/UqsBjqk6Up1HZpu2puyS7Utb13Nc8dOSKU8PxSeick5uJblcjXVG4iejeo7f9Y7+Pj7HzB42U5pcvpbXo8lKF9W9szkiaV3Fde3q2xw7U5OWMds8Xid7r9D07j8Z+Z8HGeUa/KyhCm5xX+rQ7Fr0nqEY8f0UWtbUz+f7NbcrlfX8mHDgi1Kx4aivl36p7fl5fhtJxGNlCEW5um3a+p1LO12tX3MYLXnLMx9r89N/S2DjV4NMeSYw7nf8Ar1+czHbXhM+PgkKrLUnJvVdu9teognLbdrRPi6uPgYIpixWrExWPL1xERuY/OfH1oeAyhUqOblqjHo2b1rX+yRYz4/ounpmduT6J5f16c/01azSPD7Pq7+6HzKOOrU9CNO8pSdm220rW/nwGKYy2tbJPh7WvPrfgY8GDiY43ae89O/Lx/Hfj5R2d+IyiqbtKclqurKUu33cCLH9Nemq+H4r/AC59HcfkxfNERbXb7Mz6/HURPft2nxfMDi5v0+V0432aLp2txZPToi8UtWYn8duZyPrNuLfk4c1bVje4+iiv4+O57fv5uzLuUtOGt6zpPEsAqbXxA4gAAACThMW6b1AXNHOacVZNgdnOue9gOdc97Ac6572A51z3sBzrnvYDnXPewHOue9gOdc97Ac6572A51z3sD486pvtYEWWXpXum14/c0vjpf/aNrXG5vI42/obzXfj8y6oZYlG9pNXd3qWt79ZrbDjtrceDfD6S5eGbTjyTHVO58O8+fePH8H2WW5vbN79iX2RiOPij/qlv6Y519byz27+qP4j4PssuTas5v6JfZCOPiid9Jf0xz71ms5Z1P4R+8RtwqZWc0lJ3S2akb0x1pO6wrcjm5+RWK5bbiPDw90Ozz7P2n9F/Bp9WxfdWv8zz/H6Wf0j+nCGV3FNRdk9qsje2Otp3aFXBzM+Ck48VtRPj4d/V5OUctzSspO3BP7o0nj4pnc1WaemOdSsVrlnUfhP8xt8jlqavaT1u71J6+9CcGOfGrXH6W5uOZmuWe87nwnv4euPg5efJ7HJtcF/Argx1ncQZfS3Ny0mmTJMxPjGo/pExWUHPUTOeggAAAAAAAAAAAAAAAAAAAAAAAAAAAAAAAAAAAAAAAAAAAAAAAAAAAAAAAAAAAAAAAAAAAAAAAAAAAAAAAAAAAAAAAAAAAAAAAAAAAAAAAA//2Q==;clipPath=inset(9.56% 19.33% 19.33% 17.11%);" vertex="1" parent="vUEfeBpxAFAEwGMZp27j-72">
          <mxGeometry x="51.69652551574375" y="84.67836257309942" width="64.68269272529858" height="72.37513572204125" as="geometry" />
        </mxCell>
        <mxCell id="vUEfeBpxAFAEwGMZp27j-78" value="" style="sketch=0;pointerEvents=1;shadow=0;dashed=0;html=1;strokeColor=none;fillColor=#434445;aspect=fixed;labelPosition=center;verticalLabelPosition=bottom;verticalAlign=top;align=center;outlineConnect=0;shape=mxgraph.vvd.wi_fi;rotation=15;" vertex="1" parent="vUEfeBpxAFAEwGMZp27j-72">
          <mxGeometry x="136.85104234527688" y="105.84795321637428" width="31.017915309446252" height="31.017915309446252" as="geometry" />
        </mxCell>
        <mxCell id="vUEfeBpxAFAEwGMZp27j-79" value="" style="shape=image;verticalLabelPosition=bottom;labelBackgroundColor=default;verticalAlign=top;aspect=fixed;imageAspect=0;image=data:image/png,iVBORw0KGgoAAAANSUhEUgAAAMcAAAD+CAMAAAC5ruGRAAAA8FBMVEUAAAC8EUL///91qSi/EUPFEkV3rCnCEUR6sCp4rimpDzu6EUGBDC2FDC+uED24EUGaDjaODTKlDzq/v7+UDTT39/dunyadDjdqmSRkCSNYCB9vCic4ODhzpidjjyJdhiAuBBBPBxzLy8uFhYXt7e1RdRxYfx45BRR4CypQBxxHBhldXV2goKAwRRBKaxkaJgk9WBUjMwwdAwq1tbXY2NhDYRcOAQW5ubkKDgNYWFg2ThIgLgtra2sXIQgzBRImAw0tLS2VlZUeHh4SGgYTGwYUFBQYAgh5eXlISEhoaGghISENEgSLi4sqPQ5NcBs1NTW/Wtp5AAAbG0lEQVR4nLVdeUMTPRPf0r0KpaVQ2nK1UMshQi1yCCiivir4KDzf/9u82SPJJJlc2z7zjwi7SX7JXJmZZIMlZ5psbIwn2Q8b734Gd2cT9zfduzh7Dn6+28h/HG9seHQRuD54GRT0Zrxb/vRuvLQ5Pjvb8B+uQhtnZ+PNpfFd2fLu+E3505lrCw44rjYuN66eAz39nQcCoTeGtp/z3heA46+hE0aXV5dkYTY9x79JluHy6sylA+tU2XDs2vvg9NkHyeZnn6afK+L4+PSvTzeUHDigpKsqzX/9fOmF45utwfPbOYFoYZz/YT/ifXxzx6Fjplnv8L7sYu/oFu/MDYgCo2zmvPda/PBwPRr8Dx/FrhOOyUSBccvGep6mjdF59tNF2pgW2F6lp++ed3+b5GTz9+7znfTOwzD/5/0gzX+4ve6l6YD9VcbznA3ShGPz7z/oDBzujab56IP7tB6nvWxRevVG7332q3TwR31Db1Q2hOeKV2fpYfbPNI0bM4LiKG3U670C2exosHeBjemfv8JkQRwfURBlD2ljMCXjrmeUDj4FcZ0gygA14vgle0ZkA52iFG3FNF9TMu4Mx5CMPj4Mpg3SdD2+JpN2tJeS/yDTpE4WwDEWn3qZTV+ns/NidIOs6TgdHMY5ELImBaBpMCW/yfEM6u/h679RGL+FLl7zF7Px14M/vbzpuNfIW64PDutp9pvGPRvN6/T+QXh/jOKQ0A7TOI4babo3mv0JhsX46+U/jNJR/puUcN0grgu9vENgvBN6OEwzNsphxIM9ueny/43z4PxwQOQyH825OEYMh7QcQTAqZ4a83pM7UXp7uCCSI7LAZ8tqTMkbw+CogU4Qp716o1H+NX2RhniF4LgMZDrSN65QzmdxLpyMvWRNz6xS/sQszdfBo4+6IvCXehyvI0LD0XA4HPQ8uigozpTl4Yh2MxZgsAV/nwaZCvduvT4YDIejnIYXWhxj2klMyb+jeoNgGBRaNCOoGjfpL28zvfC+UaH1Oh1ZOpInKlD6ua4wUQDI4Z+0ns7Ktu4ADub59+J4FOzN0wlRb/I8AZGnysSLZRWKM25MKSdzFc+MU6bhYr3icKG09I6Abgc4qKV9mWtBCtqjo+YdLWS5c4oHyixBHN9pV8O5Jqvoali2RXUW3Y59WsAkMSvyHcPB92X3i+iLisimKOTzMVRBPTbSMwTHT/bXYP6uyIqUbRWOFnWrppXUlNTylA30u4pjwmEoBrBXQQfHR1BCyp9/+K90HO9JdiwF7s+mDsfL4fX9/Uga9t7RtJf6QqE66wzwrNywFUSjMZrK4hrP7onTWDQ4UXDQKSOuckPpLd67/nQY+0Ghov6Tt33htxzEv559GqmjaTQa6TVYbBHHnbGvxt4suB96IaFe3Zh5JD6KME7rh/8LRniPVPPeIThoZzoFn20D/7zuuUOhC/J5qYzweOjcOB3OMsce7yym5gnzd5k9n+q6Swdkhu8HzkjS0vOlbOXsPzfiQ/LqVKdd4r1y64nbc6Z5ZzogZJaIrvh05IgkLv3Fp7JdN51L9poZ88/qusfj3i2XPAwH02Yv+m1T7svevmo7EYh5J8X0uLxDpipznl56Wh5M2bYgwHGADeGDoaN6riqu9xyYXdy/OShdgiLT1j+G+sYbR7zFMYqj9EhztX9t6DPt5cOb9azzCywvISsMsq3IJUon3gXl81wIyEfTepynw9HAPMR0lG/E7/WLXw5sCGDYjEecHuWGembYq+c0HPV6pvWgvhwRY9vUxTSYaOEuKCBm8SBrkaN4b2Ap+mjMFCEu5zSQ77KRKpkruDZKfApwvBpaJXLxKbCzFG219KU/a3AwV9HJuU5LgXtVHQf+DHDpDNYjN0wZS++5qDTqkwQTDQ4emHECEteL7eWtxnnIuvzkgCNzeXIaOdl7BkPIHYrxdhYHd9ujp8PCIl0MdL4MWI9DjY+Rlq6rVb7LJukGTYxXSnkD1uvQydDFcdnqNa4aoHxM8SeGBdRbu3wXz7PI6JIBxybv1tEZSqlqRZmiB3DcIzNDWTO4d92p8ZDipgFHKemfLh4+zRwbjuvlDJ0rkWa+J8xnXAVKVYWjZGQG6eXhfdnfxICjXI/bXmpQQtrRHMmjEcPjyr5ur/zzhToDWiBpSuXctB5LNB/lFYtr9B7wJYFspUR0GXztPgElKudfTfLBgz+OYldQng5TGUTOVsAFieP7Kj2xUKJcsSHnOVn059CveTq5QGDTo0CkPxwH1dg+PFXPhJHK+fclMw4e/nFWITk1BuXAflA3uDEMZGIR15Q6wtotG0oghysnbJW8M89sP+isG0pxndruQtzBdofTRT43cZ3uS7wWPU75NsCcd84J2JBrn8ni4kAmOW5cBxj9IXPDls5TCAc8j6oMGqtnKB69/fHw6X7gB4SO/aI+0iaLZ3tMbPxivY3py8OPHx44/qGT1fANxqZybYOJ/nhJeAaE2I5CW311wkFjyq/+wVieUbPSD18YmeEsOeuNEw6msl7sO3AFiKxrdfTg5t1CFLxtpG4Rq/fhtRNTD/ekBOK2Iv/zhpEOmIuILIetbunWNebG+8MVlUS+TJXSvVbgWrckAQke9Ls9vMd7ZNgK+eVSIQochq6uD9YO/vCpa2B5KDPhmyoN9QCK4AkfsLY+kb954YMjdhP0Wx8N0pvxojtdYZe2XrT0T873Ur+kx4Nm5BJ5rTGxHKMCirZqUF/3ylnAQ2k5LgdZEK+UzoA6ZPrRav/Cte/MPeWxh48aIVdPN07jI6Zx9eXIehzAXwzeTwdOO90ULSXEaeQgIgTECOo/ff2moZ5aLFd8uB7aYTjpXEp23ds7EneUhiMBprpwqe7ywtavHwwCxLIisbQTM51sMNa3T0A94cuhpdeGWq5mIyXAIgPpzbj6+208DWKp0598oxGU60Fe6qjtEt3/2eje4GZldZXxqFRU/9qOzdjPf7D6rz/3r6NBL1PmasAt7Z3rxmqmQ0R9NBppvDcYHk1ZWs522sAFh1J/+edFCjnH6bAiiiDLmcop+d7sk/yQ7pSBDw5el8WIZw+zmtrB1NGG6+h+VIcpMNUGfbcP0gHHRG52WpRiEgZrDI5m2p24D71MR72ssCWn3nvprw7nvVzOeW2KxwMOh8Ph6Ohwen0+5zrIdHF//XqUVdwOhXz1ncspH7fzaldPur7N9Ph2p9npdDurO9vHFcG9cTtQ4nzubiKf2bDRzVZ3JUqSMKeE/LB+4o3lzvkEoSuOyTt7r5C2+1ES1gQKw6h98sGvmXeuQBxxOB2O47TTlkFQLNGa56I4noR0wjHxOn0XbK0kKIgSSX/fq7VdpyVxwaGeRPh1unWy2iHUPNk6eBT/9qVlQFEgWfUC4mAFnXBIknF80s/ktxRgIsFRAif4JMI5ClLSPmXPP241u+utdnul3V5e6+wc3CBAsCMxvjgmgjnfb7YV+a1FfFTBumUx6Csn9IVaPiHFQuWz0lp9qwD5buUtGw7hoN/bdXSy2+yBX237YpRL0i1faSlvhEnYUZSBzYpYcMDDRqfLOMtE2/SJDyuuMAiQfvHOFraAYbR+KgEZz4MDwLjpahg/XGPPOK9GDqRckWX0JYLkiw8QIw7AVG9D3Rg5V637wCDruJO/9aiRqDBqerCWCQdwdJuRdlr36TM7biIOgBSvbunaTlqiSjcJuwkH11Rr2iFGXLn4rQahsBSRVV3rYXIAcXyvhoOf9tMr05I3Ki0HW5Cgr52CaAsCUU8kOuDgUZ++HgZg4a73etQSakVU5YsD0Ud+tDh4OFG77LUEOhhr/ji4qtNrukiwiv442M5JK4a1pAO76FTAsU5fvtEDSaD+1WQ/9DiYrvqgX40uhIEbNAuOPnv7l96EtmEvOp2lw8GcQ61REFcjqKCvaiEQLz2QEM4Xfhxci4Mth5arVOf7xHtBIuhG6X0z6IfqFkSDg0nHiq5tydhmpNc6OHHxyEkvI5CzsKSzHgd9S2cUgN0AM1rzA5JIOzDtRCRQ+frgYDvAtgbGVoDRo4e/C/1kRjqDCxcEtyE4DhrjeYu3m8hONaNldxlBYGgdoAQ8i0s6joM1i81vWPuCjKCkpsO2Nh9ZG4+bdFC9IkiSOw52xwi6x2n90sMgO198zyi1oQ81nKBAIhD3GjvjoKnabQRHso52D+i4b0ZCNuEdQzhuGwOSAL2CXvBjrJNBXA2nmM3jSUuNRlAQ0TKm6+A8IGoPMhaa1EFx0DdUbaVRVCrt7/RrZXS3GEgRDGl3t4xcmdMvRP8m4O+uOOh29kZe4bDmFdR83D7prK23Wu2Vdmu532luadWcTKragioSM+kYDrrzOJVaS5axINlcdPO4j66PIu1QQDALguGgQWnJg/UNZ1rocafbCqMoiaLaemdLNu2nUlwjBF4pFrrGcFDnqgmbChPMbhE63iLc01/rru44sw2hHagJiOhELSmlcCOaVCjo2CYEw0F9dqiukmVMVd5s9cOIR3qTvkUVUToJVXUWRn1xIlYF3gKuCRbuxXBQtQusOebeBgdKrsZiGkp6q8krhNG6oEdOoQIGCgur7MNw0OfZFgp1It62UHNnzwrgrkf5srg5W+OPRvy3P7Ex23Eogb2MvmiCvRnqFaOgmF3JsCa8vM2WBHomVXCQxZZ1SWBzB9HdSUnWzZY0azSsPB+OMFoWQnoFfbClnPS85bBnTPrCG8cF/0ZgNj1xbCXtDsYism63TyojfYAVAmmJL20THg4jYIPdcNhuzNQHtCAQ1BFzejXbGkjvHTfXIKsikXcEh+Vi0R23sdDYLaRfrrvFcNk4hH9dcOhvUfSZUnVOA58QsCQjMn2047Bw1YEjDNGzK+iL87sghI2TwlkyDtPdxIT2PWJtofyyV0Q+MntrchhLOpdqK1zwyQDKU6psZyxkHsmu4VyqUjE214zKI/FM9IRdfAyMJjocVhhv/WZU8vQ906Bi9NcGJNDA+IJtQnXBXg1JM+obxpY03v5yJLsJEwwHrGcnPmkSKQGepvdI4NsH/uF4uJ6/MiciqYleEnZ/IjB/p/kGIVkT3gluvAeSQM7wTysIC1JuhsQl2VVxgApEusmXVN+qd6JGMCEV8qBgAI9UNMU44JOMA1y3zHy5OfmbNAAnz1fMxQHw1QzbMMKyIeIAwgH2OTD4VSU/HkLvouX9OhwAmIWwDcNPmwIOXisGy1aE/IAmFWLE0ZrvfZDAEUI3MB3yG+LgdT1CaQHk72NPa5wT7NBTaRcjpqpmX+hdcIfHAAerJBFz/jD41fRn75pg0ausB9PcUkIJFiB85ThYGk2K2cPgl28SUxhG3kAVHFRzy8l5qEovGQ56ucSNPFbA31XYqrYCcFTQV5yzFSUDOPYnxcF0rqLi+Tg0mUILQTmvYD84ZytcDZ3pjRIHddZPlTnnes/fGtektF4lAWMlWsrLCVe+uwUOtgNUV54H8SpUwYh6Ak3S2amlwwFrOq5yHHQLqC4HwFGNu+FO6rGShNV0OKAO+ZvjoP9DkswcRzVtI3in8yheBAcscshwMLZC1p3jqGLFYGy5KmuWEooIFxS+K4KDXgqH1U9xOa8kHmIUqpKAlOtxgvQPZukbwUG1FVbsyPVuJRxSoGEOjwBzUsG2+XmJXSqLuuVc/1dh7kiq36jCWC09s8BdwVJAxUNOzuZPchasIOdqlNZfY1H7gZlhyLZXAfWtsJUDpev6ElstqQFFf+VN5/wYrXThLX8MqJhjiw7smP+mVo0negRVKVHlisbwQGrnW0Bv+MAmHAiqfzVogqRA8LMFBmLZG+xFsM17CuhxZkwAgKnx5211OSq0wkQMHR5XWHfB1/InTCHBfa0vDDxg3vGMjbI1xSrawDTzuDTWDMxl+SpNoXqYk5/+5skgTD4BDv5xBnSYYACe4UBd2B9xRvUE9D7qbWC5O8SBEutrvWZSKbZm5LORibifiSleIQ5OVwQZphBG84pfYUk1Sk4p26IV6J8h6wjE9yeTEEQlSuvmDqMWmopMnJWv4NcgCgucv9wNaKkuohASMQHhbkIsOTHH0ItogLBaSf7XuwAttipItgCuE4lWGAsNucyI5PUjswiY9ynQbz9COQGiPwriB8N0Uon3viIWEe4rAgLD6GfBhv45xbFwyqsl6vFYlfTn+GjnNbk6R1GoQsliwLJp6oDUChl7LUO4YigaB3RgPpsQtpUiI0VAoBqY8H2UEifDHCQbEHu1NSPdOVddM8q2GHoMZD9IjwnKAhKipRHbmjrp4hVly3G61eyu9fv9LlK8e6wrRVObyUmaQmjdfhMcLEgtV+tqznhoa6/CaE0wG6fNFrsvozxZLnHqAVbTH0ZdvORa2lnAtPQlwcFSURJjRbqi450QP2rdF047nbQjuUyLgKmtiny/vyqcyydPrDR1NlRkGEEtb2ZxOGoJxc2BonUBNWtKnWjYgfL9oaNjfjLb+2JjX3a6rSS7KCGK2v2myYIKOKBzdZfHE1m4Xdg+a9iqpO0urcLPq+87osloGoUoQnzIX/vHx/vqr0USGAZ6cBtFvJ3+V/Spba0+bu+sdjqrzZ0DiZ1P27YLM2ouJkYlyDDCcdUyb8AuWQGShO2u3Qg/UCMStiQOxBlGUKZnNB9FfwEcjwRpxokcXI6seXPhnoY4w4RQCbG8GlsQVrRXeTlcD6yFmn2vmahTHkEFfsbztex33XIYlXoJfAI71YCUMIQYBsg786qMggWtpU8act/rWWtCKd0Qj6Db2SmNynGmCcVaGZg/B/UM60SbRtX0iWcSMbEVvBHaWi+OZST0dqOsCkvwWoR6BlhfsrosWypX8o2yWTcqW+D6qZA+LbkZUr2P8pXqCuSdWwiN561OJU9OTkPkNJbrr/4iD5EpJrZu9WTb6RaxCoViJs5alV0bLAjDLrLl9XDI/W8ntZw7M8+juW/FUSFthk5xTphbrfIh9j1I9i0WSh+gfxFG68gBCkje1Ys1w4K8xTw0RcP9s4ThkEuppZpj+fSSTP4oCEX4VkPj28jL9wbFIV2fpl5bgnqqlKqVK2ii8hrFJ0c+8O/2iWXIaHVoWNMyV6UyGDyAqrWm8tNo/S7wTjLSaB/tklSCgTKW4Wo2aY+6hOOAl+jr73xooUofTUQ6kLpdM90wJ8bGnjQ4BAHR2mb8WoMK1aRFa/KJMKPfL1YWfNTggJXhprQNEqCrks8tRiZFl8yepqinNzU4+BXOlvlFHKMKty0VJIquJX8oWBDhXgABB7hF1Fy9pgKpVJ+VE2zFvicGD+u/owg0ryWtqQDxzoxTgtFX9IoJsV/wtPYcC2QsmzmQUzWLwOGQlwCKV7xuQsTBNZbVrAmXii6GrxzmApRiXBpwcI1lTZdL++sFyLmL3w9wGL8/yO7os1epihpzfr2ruw9Sg0O65kfCwQIODnZNOEI7vx10qozi8rFhxMF8LBf3Faqauf0St0IHrq/kcUv/p+nbLy44oHWt6ifSPIJbMpoJpXxnhoyDxRucuBVsrCoKOhVzt6OJPJkxtuBgptBFkcIcSbV9FNsZudkfzgHW70HSB53K6uGCVFoPylaOZUA8cagMW/4FrTdxqlMChZiVzhMwreu4m2SVMcoVJgoOFm1w4hNgl/yPSYL1dHyXZTOU2wcVHMyCOAkujBP4B37YcjpaH240lSuXFBzMNXETXOideMdFE7o5d/QyuXgon9JQ72dgPq9T01DSvWr2asAh+OX4IjuDo16tpuJgmyknwRVCSn6cxZWEY2UX17rqlwJUHIyxPrjMkhhS8qkeB2862lC+9uoXWpD7S1hOx0kZiiEl91OGsL7K8Q1mdZELsBAczDVRS7IQksqtXPeF4QrX2E79wOju2AnH0lefBZEPqzjmnWE0z008+FnUr8iYMRzMhLgU8imhf2upG6FIeMlNoXAN73pfH18Qh0tw1EjzqelzLPkrUjDUTQ4ZV2HLgePgyUKXunoZB5ISE1BEa1Js2kWmwOZz7IxDc6xe04OKI3jUFu1h2SCHM0sgR41/nAXHASK91ptwMBxEtJoryNWCUplWSfaziXCjg3/dS3PdMw9kfbBdOo3jIHS6KtX1yWValOwwgAxqPvqju7+dZ28fLUBMlUE3Bzur3f76er+7uqNPXtv8Sxgqu9OMV/tdAP7qBzNrVS2p4WSRQUEjaoer+wO8z8t0PV+4Jg/Lm8x6VyjVqvA94Q3Yk96OWC4OcyFjQFQwmRW+myF+U21LWzkZIbdEepKhviYUinsM31ozfVfmG2jil+bybLzq2pO0XnLS2neDYf5eEQQSvG1ha6Lc7V+FNPkbqT7c+OU7Iw6pxGFbKUivXHEmUReRkDBZFbY25q/FmXHIZVnHeRl3CSYMo+WqX6uUSfbIwqTWFL2wsXmgFhxLk59Sj8fZtdJJFCXt/on5qMeX7ZPVtfVWO7/zPKy11teIMdSx4X4XmP6o1pUsv/VDcTYc8PNLgG7MN4fv73RaSfFtPzDHuXMSrjc15XwHJ9315WWCdmtf/pPhg0vOOGwXdSq03QHMh/A9me/1Hftt9IBMH9p2x7G0+dneFaWDjD90EAD7R31nDaH9RpEvDuKkPNu7y0j7fVEEStRyQnK32O/XXjl899X4fVEMid01++2Gwh0H4S7Lt19v1v2P2rfN6uLM5YvIvjgsV9ratik4EOPxNte18MWhfDoVktcnfhgZTuI6fCS1Mg7kU7YlVal6rWF3g1By+WhtdRzaTwtXrC/RHWJ1+4jwHDh0n3quWieDw3D8qPNcOJYmmDGpVpeBs9Wz72JUw4FLidc3X0vCrz/wlIw5cAi3w5bkUsih4EBCQU5eyMJwLF0pxxPsRXkyIUrX0QtZHA6CRNZcrjfUMxiKrtqtimIeHGSz+DwPEOVjc8/jOcYyDw7Fe3T4EAUl5d6Ad9XXYn4cRAkLMRXrh0HYYkiO1bcKqnahOAiN4TbLmMJhiyEeZPw8nn8QC8Ahmvhj+5Iky/sQRiV7IdNCcIiGcadmRJKsiNlBh823Ay0GhxDUzs656ba3YbIiuiI/5xWMkhaEQ95jbS0rtzMUgTvp2EpF663SonAsTb6KI9zPv6XIj5Xmn1CTdO3P8aJ6XxwO6VhSRjfbzbVWLYvHrbT6q9tKyMrfO9fTAnFIQmKjv+5BBAdaJI6lTTSGitK3haJYMA5iE7+6gPi6EJMh0IJxLC19lAP0Cj3N50nhtHAcRExMQdRF+CAY/Qc4iA7GD7MHT+P/orec/hMchK7OpA3ju7P/gp0Y/Vc4MppsnL35fPf87/PT5X+KIaP/A9pfbpsVX/WNAAAAAElFTkSuQmCC;" vertex="1" parent="vUEfeBpxAFAEwGMZp27j-72">
          <mxGeometry x="231.10000000000002" width="34.47" height="44" as="geometry" />
        </mxCell>
        <mxCell id="vUEfeBpxAFAEwGMZp27j-80" value="&lt;span style=&quot;font-size: 21px;&quot;&gt;&lt;b&gt;Kitchen - Node 4&lt;/b&gt;&lt;/span&gt;" style="text;html=1;align=center;verticalAlign=middle;whiteSpace=wrap;rounded=0;" vertex="1" parent="vUEfeBpxAFAEwGMZp27j-38">
          <mxGeometry x="1130" y="280" width="190" height="30" as="geometry" />
        </mxCell>
        <mxCell id="vUEfeBpxAFAEwGMZp27j-81" value="" style="sketch=0;pointerEvents=1;shadow=0;dashed=0;html=1;strokeColor=none;fillColor=#434445;aspect=fixed;labelPosition=center;verticalLabelPosition=bottom;verticalAlign=top;align=center;outlineConnect=0;shape=mxgraph.vvd.wi_fi;" vertex="1" parent="vUEfeBpxAFAEwGMZp27j-38">
          <mxGeometry x="120" width="50" height="50" as="geometry" />
        </mxCell>
        <mxCell id="vUEfeBpxAFAEwGMZp27j-82" value="" style="sketch=0;pointerEvents=1;shadow=0;dashed=0;html=1;strokeColor=none;fillColor=#434445;aspect=fixed;labelPosition=center;verticalLabelPosition=bottom;verticalAlign=top;align=center;outlineConnect=0;shape=mxgraph.vvd.wi_fi;rotation=-5;" vertex="1" parent="vUEfeBpxAFAEwGMZp27j-38">
          <mxGeometry x="497.36" width="50" height="50" as="geometry" />
        </mxCell>
        <mxCell id="vUEfeBpxAFAEwGMZp27j-83" value="" style="sketch=0;pointerEvents=1;shadow=0;dashed=0;html=1;strokeColor=none;fillColor=#434445;aspect=fixed;labelPosition=center;verticalLabelPosition=bottom;verticalAlign=top;align=center;outlineConnect=0;shape=mxgraph.vvd.wi_fi;rotation=-90;" vertex="1" parent="vUEfeBpxAFAEwGMZp27j-38">
          <mxGeometry x="1190" y="10" width="50" height="50" as="geometry" />
        </mxCell>
        <mxCell id="vUEfeBpxAFAEwGMZp27j-84" value="" style="sketch=0;pointerEvents=1;shadow=0;dashed=0;html=1;strokeColor=none;fillColor=#434445;aspect=fixed;labelPosition=center;verticalLabelPosition=bottom;verticalAlign=top;align=center;outlineConnect=0;shape=mxgraph.vvd.wi_fi;rotation=-90;" vertex="1" parent="vUEfeBpxAFAEwGMZp27j-38">
          <mxGeometry x="820" y="10" width="50" height="50" as="geometry" />
        </mxCell>
        <mxCell id="vUEfeBpxAFAEwGMZp27j-87" value="&lt;font style=&quot;font-size: 24px;&quot;&gt;&lt;b&gt;Data Provider Conector&lt;/b&gt;&lt;/font&gt;" style="rounded=0;whiteSpace=wrap;html=1;" vertex="1" parent="1">
          <mxGeometry x="190" y="4540" width="1670" height="50" as="geometry" />
        </mxCell>
        <mxCell id="vUEfeBpxAFAEwGMZp27j-107" style="edgeStyle=orthogonalEdgeStyle;rounded=0;orthogonalLoop=1;jettySize=auto;html=1;entryX=0;entryY=0.5;entryDx=0;entryDy=0;" edge="1" parent="1" source="vUEfeBpxAFAEwGMZp27j-95" target="vUEfeBpxAFAEwGMZp27j-87">
          <mxGeometry relative="1" as="geometry">
            <Array as="points">
              <mxPoint x="-630" y="4565" />
            </Array>
          </mxGeometry>
        </mxCell>
        <mxCell id="vUEfeBpxAFAEwGMZp27j-108" style="edgeStyle=orthogonalEdgeStyle;rounded=0;orthogonalLoop=1;jettySize=auto;html=1;exitX=0.75;exitY=1;exitDx=0;exitDy=0;entryX=0.25;entryY=0;entryDx=0;entryDy=0;" edge="1" parent="1" source="vUEfeBpxAFAEwGMZp27j-95" target="vUEfeBpxAFAEwGMZp27j-99">
          <mxGeometry relative="1" as="geometry" />
        </mxCell>
        <mxCell id="vUEfeBpxAFAEwGMZp27j-95" value="&lt;font style=&quot;font-size: 24px;&quot;&gt;&lt;b&gt;Data Consumer Conector&lt;/b&gt;&lt;/font&gt;" style="rounded=0;whiteSpace=wrap;html=1;" vertex="1" parent="1">
          <mxGeometry x="-780" y="4030" width="310" height="60" as="geometry" />
        </mxCell>
        <mxCell id="vUEfeBpxAFAEwGMZp27j-96" value="" style="image;aspect=fixed;html=1;points=[];align=center;fontSize=12;image=img/lib/azure2/general/Files.svg;" vertex="1" parent="1">
          <mxGeometry x="980" y="4610" width="64" height="70" as="geometry" />
        </mxCell>
        <mxCell id="vUEfeBpxAFAEwGMZp27j-109" style="edgeStyle=orthogonalEdgeStyle;rounded=0;orthogonalLoop=1;jettySize=auto;html=1;exitX=0.25;exitY=0;exitDx=0;exitDy=0;entryX=0.75;entryY=1;entryDx=0;entryDy=0;" edge="1" parent="1" source="vUEfeBpxAFAEwGMZp27j-99" target="vUEfeBpxAFAEwGMZp27j-95">
          <mxGeometry relative="1" as="geometry" />
        </mxCell>
        <mxCell id="vUEfeBpxAFAEwGMZp27j-111" style="edgeStyle=orthogonalEdgeStyle;rounded=0;orthogonalLoop=1;jettySize=auto;html=1;entryX=0.5;entryY=1;entryDx=0;entryDy=0;" edge="1" parent="1" source="vUEfeBpxAFAEwGMZp27j-99" target="vUEfeBpxAFAEwGMZp27j-103">
          <mxGeometry relative="1" as="geometry">
            <Array as="points">
              <mxPoint x="-240" y="4150" />
              <mxPoint x="-120" y="4150" />
            </Array>
          </mxGeometry>
        </mxCell>
        <mxCell id="vUEfeBpxAFAEwGMZp27j-99" value="&lt;font style=&quot;font-size: 24px;&quot;&gt;&lt;b&gt;Message Broker&lt;/b&gt;&lt;/font&gt;" style="rounded=0;whiteSpace=wrap;html=1;" vertex="1" parent="1">
          <mxGeometry x="-445" y="4210" width="275" height="60" as="geometry" />
        </mxCell>
        <mxCell id="vUEfeBpxAFAEwGMZp27j-110" style="edgeStyle=orthogonalEdgeStyle;rounded=0;orthogonalLoop=1;jettySize=auto;html=1;entryX=0.75;entryY=0;entryDx=0;entryDy=0;" edge="1" parent="1" source="vUEfeBpxAFAEwGMZp27j-103" target="vUEfeBpxAFAEwGMZp27j-99">
          <mxGeometry relative="1" as="geometry" />
        </mxCell>
        <mxCell id="vUEfeBpxAFAEwGMZp27j-113" style="edgeStyle=orthogonalEdgeStyle;rounded=0;orthogonalLoop=1;jettySize=auto;html=1;" edge="1" parent="1" source="vUEfeBpxAFAEwGMZp27j-103">
          <mxGeometry relative="1" as="geometry">
            <mxPoint x="-360" y="3920" as="targetPoint" />
            <Array as="points">
              <mxPoint x="-120" y="3980" />
              <mxPoint x="-360" y="3980" />
            </Array>
          </mxGeometry>
        </mxCell>
        <mxCell id="vUEfeBpxAFAEwGMZp27j-103" value="&lt;font style=&quot;font-size: 24px;&quot;&gt;&lt;b&gt;Data Mapper&lt;/b&gt;&lt;/font&gt;" style="rounded=0;whiteSpace=wrap;html=1;" vertex="1" parent="1">
          <mxGeometry x="-270" y="4030" width="300" height="60" as="geometry" />
        </mxCell>
        <mxCell id="vUEfeBpxAFAEwGMZp27j-114" style="edgeStyle=orthogonalEdgeStyle;rounded=0;orthogonalLoop=1;jettySize=auto;html=1;entryX=0.5;entryY=0;entryDx=0;entryDy=0;" edge="1" parent="1" source="vUEfeBpxAFAEwGMZp27j-106" target="vUEfeBpxAFAEwGMZp27j-103">
          <mxGeometry relative="1" as="geometry">
            <Array as="points">
              <mxPoint x="-360" y="3980" />
              <mxPoint x="-120" y="3980" />
            </Array>
          </mxGeometry>
        </mxCell>
        <mxCell id="vUEfeBpxAFAEwGMZp27j-106" value="&lt;font style=&quot;font-size: 24px;&quot;&gt;&lt;b&gt;Data Manipulator&lt;/b&gt;&lt;/font&gt;" style="rounded=0;whiteSpace=wrap;html=1;" vertex="1" parent="1">
          <mxGeometry x="-510" y="3860" width="300" height="60" as="geometry" />
        </mxCell>
      </root>
    </mxGraphModel>
  </diagram>
</mxfile>
